<?xml version="1.0" encoding="UTF-8" standalone="no"?>
<!DOCTYPE svg PUBLIC "-//W3C//DTD SVG 1.1//EN"
 "http://www.w3.org/Graphics/SVG/1.1/DTD/svg11.dtd">
<!-- Generated by graphviz version 2.43.0 (0)
 -->
<!-- Title: src/report/ReportConvertor.hpp Pages: 1 -->
<!--zoomable 218 -->
<svg id="main" version="1.1" xmlns="http://www.w3.org/2000/svg" xmlns:xlink="http://www.w3.org/1999/xlink" xml:space="preserve" onload="init(evt)">
<style type="text/css"><![CDATA[
.edge:hover path { stroke: red; }
.edge:hover polygon { stroke: red; fill: red; }
]]></style>
<script type="text/javascript"><![CDATA[
var edges = document.getElementsByTagName('g');
if (edges && edges.length) {
  for (var i=0;i<edges.length;i++) {
    if (edges[i].id.substr(0,4)=='edge') {
      edges[i].setAttribute('class','edge');
    }
  }
}
]]></script>
        <defs>
                <circle id="rim" cx="0" cy="0" r="7"/>
                <circle id="rim2" cx="0" cy="0" r="3.5"/>
                <g id="zoomPlus">
                        <use xlink:href="#rim" fill="#404040">
                                <set attributeName="fill" to="#808080" begin="zoomplus.mouseover" end="zoomplus.mouseout"/>
                        </use>
                        <path d="M-4,0h8M0,-4v8" fill="none" stroke="white" stroke-width="1.5" pointer-events="none"/>
                </g>
                <g id="zoomMin">
                        <use xlink:href="#rim" fill="#404040">
                                <set attributeName="fill" to="#808080" begin="zoomminus.mouseover" end="zoomminus.mouseout"/>
                        </use>
                        <path d="M-4,0h8" fill="none" stroke="white" stroke-width="1.5" pointer-events="none"/>
                </g>
                <g id="dirArrow">
                        <path fill="none" stroke="white" stroke-width="1.5" d="M0,-3.0v7 M-2.5,-0.5L0,-3.0L2.5,-0.5"/>
                </g>
               <g id="resetDef">
                       <use xlink:href="#rim2" fill="#404040">
                               <set attributeName="fill" to="#808080" begin="reset.mouseover" end="reset.mouseout"/>
                       </use>
               </g>
        </defs>

<script type="text/javascript">
var viewWidth = 580;
var viewHeight = 218;
var sectionId = 'dynsection-1';
</script>
<script xlink:href="../../svgpan.js"/>
<svg id="graph" class="graph">
<g id="viewport">
<title>src/report/ReportConvertor.hpp</title>
<!-- Node1 -->
<g id="node1" class="node">
<title>Node1</title>
<g id="a_node1"><a xlink:title=" ">
<polygon fill="#bfbfbf" stroke="black" points="306.5,-190.5 306.5,-209.5 473.5,-209.5 473.5,-190.5 306.5,-190.5"/>
<text text-anchor="middle" x="390" y="-197.5" font-family="Helvetica,sans-Serif" font-size="10.00">src/report/ReportConvertor.hpp</text>
</a>
</g>
</g>
<!-- Node2 -->
<g id="node2" class="node">
<title>Node2</title>
<g id="a_node2"><a xlink:href="../../da/db7/_issue_report_convertor_8hpp.html" target="_top" xlink:title=" ">
<polygon fill="none" stroke="black" points="196,-134.5 196,-153.5 388,-153.5 388,-134.5 196,-134.5"/>
<text text-anchor="middle" x="292" y="-141.5" font-family="Helvetica,sans-Serif" font-size="10.00">src/report/IssueReportConvertor.hpp</text>
</a>
</g>
</g>
<!-- Node1&#45;&gt;Node2 -->
<g id="edge1" class="edge">
<title>Node1&#45;&gt;Node2</title>
<path fill="none" stroke="midnightblue" d="M365.41,-185.45C347.32,-175.48 323.27,-162.23 307.71,-153.65"/>
<polygon fill="midnightblue" stroke="midnightblue" points="363.81,-188.56 374.25,-190.32 367.19,-182.43 363.81,-188.56"/>
</g>
<!-- Node9 -->
<g id="node9" class="node">
<title>Node9</title>
<g id="a_node9"><a xlink:href="../../dc/d73/_report_convertor_8cpp.html" target="_top" xlink:title=" ">
<polygon fill="none" stroke="black" points="406,-134.5 406,-153.5 572,-153.5 572,-134.5 406,-134.5"/>
<text text-anchor="middle" x="489" y="-141.5" font-family="Helvetica,sans-Serif" font-size="10.00">src/report/ReportConvertor.cpp</text>
</a>
</g>
</g>
<!-- Node1&#45;&gt;Node9 -->
<g id="edge9" class="edge">
<title>Node1&#45;&gt;Node9</title>
<path fill="none" stroke="midnightblue" d="M414.84,-185.45C433.11,-175.48 457.42,-162.23 473.13,-153.65"/>
<polygon fill="midnightblue" stroke="midnightblue" points="413.01,-182.46 405.91,-190.32 416.36,-188.61 413.01,-182.46"/>
</g>
<!-- Node3 -->
<g id="node3" class="node">
<title>Node3</title>
<g id="a_node3"><a xlink:href="../../da/dff/_clang_tidy_issue_report_convertor_8hpp.html" target="_top" xlink:title=" ">
<polygon fill="none" stroke="black" points="64,-67.5 64,-97.5 204,-97.5 204,-67.5 64,-67.5"/>
<text text-anchor="start" x="72" y="-85.5" font-family="Helvetica,sans-Serif" font-size="10.00">src/report/ClangTidyIssue</text>
<text text-anchor="middle" x="134" y="-74.5" font-family="Helvetica,sans-Serif" font-size="10.00">ReportConvertor.hpp</text>
</a>
</g>
</g>
<!-- Node2&#45;&gt;Node3 -->
<g id="edge2" class="edge">
<title>Node2&#45;&gt;Node3</title>
<path fill="none" stroke="midnightblue" d="M259.73,-130.85C234.06,-121.18 198.12,-107.65 171.24,-97.52"/>
<polygon fill="midnightblue" stroke="midnightblue" points="258.77,-134.23 269.36,-134.48 261.24,-127.68 258.77,-134.23"/>
</g>
<!-- Node6 -->
<g id="node6" class="node">
<title>Node6</title>
<g id="a_node6"><a xlink:href="../../d8/dac/_cpp_check_issue_report_convertor_8hpp.html" target="_top" xlink:title=" ">
<polygon fill="none" stroke="black" points="222,-67.5 222,-97.5 362,-97.5 362,-67.5 222,-67.5"/>
<text text-anchor="start" x="230" y="-85.5" font-family="Helvetica,sans-Serif" font-size="10.00">src/report/CppCheckIssue</text>
<text text-anchor="middle" x="292" y="-74.5" font-family="Helvetica,sans-Serif" font-size="10.00">ReportConvertor.hpp</text>
</a>
</g>
</g>
<!-- Node2&#45;&gt;Node6 -->
<g id="edge5" class="edge">
<title>Node2&#45;&gt;Node6</title>
<path fill="none" stroke="midnightblue" d="M292,-124.23C292,-115.59 292,-105.5 292,-97.52"/>
<polygon fill="midnightblue" stroke="midnightblue" points="288.5,-124.48 292,-134.48 295.5,-124.48 288.5,-124.48"/>
</g>
<!-- Node8 -->
<g id="node8" class="node">
<title>Node8</title>
<g id="a_node8"><a xlink:href="../../d5/d92/_issue_report_convertor_8cpp.html" target="_top" xlink:title=" ">
<polygon fill="none" stroke="black" points="380.5,-73 380.5,-92 571.5,-92 571.5,-73 380.5,-73"/>
<text text-anchor="middle" x="476" y="-80" font-family="Helvetica,sans-Serif" font-size="10.00">src/report/IssueReportConvertor.cpp</text>
</a>
</g>
</g>
<!-- Node2&#45;&gt;Node8 -->
<g id="edge8" class="edge">
<title>Node2&#45;&gt;Node8</title>
<path fill="none" stroke="midnightblue" d="M327.93,-131.38C363.7,-119.82 417.74,-102.34 449.69,-92.01"/>
<polygon fill="midnightblue" stroke="midnightblue" points="326.8,-128.07 318.36,-134.48 328.95,-134.73 326.8,-128.07"/>
</g>
<!-- Node4 -->
<g id="node4" class="node">
<title>Node4</title>
<g id="a_node4"><a xlink:href="../../d0/d42/_application_8cpp.html" target="_top" xlink:title=" ">
<polygon fill="none" stroke="black" points="158.5,-6 158.5,-25 267.5,-25 267.5,-6 158.5,-6"/>
<text text-anchor="middle" x="213" y="-13" font-family="Helvetica,sans-Serif" font-size="10.00">src/Application.cpp</text>
</a>
</g>
</g>
<!-- Node3&#45;&gt;Node4 -->
<g id="edge3" class="edge">
<title>Node3&#45;&gt;Node4</title>
<path fill="none" stroke="midnightblue" d="M158.91,-61.01C173.57,-48.94 191.36,-34.3 202.43,-25.19"/>
<polygon fill="midnightblue" stroke="midnightblue" points="156.64,-58.34 151.14,-67.4 161.09,-63.75 156.64,-58.34"/>
</g>
<!-- Node5 -->
<g id="node5" class="node">
<title>Node5</title>
<g id="a_node5"><a xlink:href="../../d5/d63/_clang_tidy_issue_report_convertor_8cpp.html" target="_top" xlink:title=" ">
<polygon fill="none" stroke="black" points="0,-0.5 0,-30.5 140,-30.5 140,-0.5 0,-0.5"/>
<text text-anchor="start" x="8" y="-18.5" font-family="Helvetica,sans-Serif" font-size="10.00">src/report/ClangTidyIssue</text>
<text text-anchor="middle" x="70" y="-7.5" font-family="Helvetica,sans-Serif" font-size="10.00">ReportConvertor.cpp</text>
</a>
</g>
</g>
<!-- Node3&#45;&gt;Node5 -->
<g id="edge4" class="edge">
<title>Node3&#45;&gt;Node5</title>
<path fill="none" stroke="midnightblue" d="M112.85,-60.02C103.32,-50.34 92.33,-39.17 83.86,-30.58"/>
<polygon fill="midnightblue" stroke="midnightblue" points="110.6,-62.73 120.11,-67.4 115.59,-57.81 110.6,-62.73"/>
</g>
<!-- Node6&#45;&gt;Node4 -->
<g id="edge6" class="edge">
<title>Node6&#45;&gt;Node4</title>
<path fill="none" stroke="midnightblue" d="M267.09,-61.01C252.43,-48.94 234.64,-34.3 223.57,-25.19"/>
<polygon fill="midnightblue" stroke="midnightblue" points="264.91,-63.75 274.86,-67.4 269.36,-58.34 264.91,-63.75"/>
</g>
<!-- Node7 -->
<g id="node7" class="node">
<title>Node7</title>
<g id="a_node7"><a xlink:href="../../d8/dcd/_cpp_check_issue_report_convertor_8cpp.html" target="_top" xlink:title=" ">
<polygon fill="none" stroke="black" points="286,-0.5 286,-30.5 426,-30.5 426,-0.5 286,-0.5"/>
<text text-anchor="start" x="294" y="-18.5" font-family="Helvetica,sans-Serif" font-size="10.00">src/report/CppCheckIssue</text>
<text text-anchor="middle" x="356" y="-7.5" font-family="Helvetica,sans-Serif" font-size="10.00">ReportConvertor.cpp</text>
</a>
</g>
</g>
<!-- Node6&#45;&gt;Node7 -->
<g id="edge7" class="edge">
<title>Node6&#45;&gt;Node7</title>
<path fill="none" stroke="midnightblue" d="M313.15,-60.02C322.68,-50.34 333.67,-39.17 342.14,-30.58"/>
<polygon fill="midnightblue" stroke="midnightblue" points="310.41,-57.81 305.89,-67.4 315.4,-62.73 310.41,-57.81"/>
</g>
</g>
</svg>
        <g id="navigator" transform="translate(0 0)" fill="#404254">
                <rect fill="#f2f5e9" fill-opacity="0.5" stroke="#606060" stroke-width=".5" x="0" y="0" width="60" height="60"/>
                <use id="zoomplus" xlink:href="#zoomPlus" x="17" y="9" onmousedown="handleZoom(evt,'in')"/>
                <use id="zoomminus" xlink:href="#zoomMin" x="42" y="9" onmousedown="handleZoom(evt,'out')"/>
                <use id="reset" xlink:href="#resetDef" x="30" y="36" onmousedown="handleReset()"/>
                <g id="arrowUp" xlink:href="#dirArrow" transform="translate(30 24)" onmousedown="handlePan(0,-1)">
                  <use xlink:href="#rim" fill="#404040">
                        <set attributeName="fill" to="#808080" begin="arrowUp.mouseover" end="arrowUp.mouseout"/>
                  </use>
                  <path fill="none" stroke="white" stroke-width="1.5" d="M0,-3.0v7 M-2.5,-0.5L0,-3.0L2.5,-0.5"/>
                </g>
                <g id="arrowRight" xlink:href="#dirArrow" transform="rotate(90) translate(36 -43)" onmousedown="handlePan(1,0)">
                  <use xlink:href="#rim" fill="#404040">
                        <set attributeName="fill" to="#808080" begin="arrowRight.mouseover" end="arrowRight.mouseout"/>
                  </use>
                  <path fill="none" stroke="white" stroke-width="1.5" d="M0,-3.0v7 M-2.5,-0.5L0,-3.0L2.5,-0.5"/>
                </g>
                <g id="arrowDown" xlink:href="#dirArrow" transform="rotate(180) translate(-30 -48)" onmousedown="handlePan(0,1)">
                  <use xlink:href="#rim" fill="#404040">
                        <set attributeName="fill" to="#808080" begin="arrowDown.mouseover" end="arrowDown.mouseout"/>
                  </use>
                  <path fill="none" stroke="white" stroke-width="1.5" d="M0,-3.0v7 M-2.5,-0.5L0,-3.0L2.5,-0.5"/>
                </g>
                <g id="arrowLeft" xlink:href="#dirArrow" transform="rotate(270) translate(-36 17)" onmousedown="handlePan(-1,0)">
                  <use xlink:href="#rim" fill="#404040">
                        <set attributeName="fill" to="#808080" begin="arrowLeft.mouseover" end="arrowLeft.mouseout"/>
                  </use>
                  <path fill="none" stroke="white" stroke-width="1.5" d="M0,-3.0v7 M-2.5,-0.5L0,-3.0L2.5,-0.5"/>
                </g>
        </g>
        <svg viewBox="0 0 15 15" width="100%" height="30px" preserveAspectRatio="xMaxYMin meet">
         <g id="arrow_out" transform="scale(0.3 0.3)">
          <a xlink:href="_report_convertor_8hpp__dep__incl_org.svg" target="_base">
           <rect id="button" ry="5" rx="5" y="6" x="6" height="38" width="38"
                fill="#f2f5e9" fill-opacity="0.5" stroke="#606060" stroke-width="1.0"/>
           <path id="arrow"
             d="M 11.500037,31.436501 C 11.940474,20.09759 22.043105,11.32322 32.158766,21.979434 L 37.068811,17.246167 C 37.068811,17.246167 37.088388,32 37.088388,32 L 22.160133,31.978069 C 22.160133,31.978069 26.997745,27.140456 26.997745,27.140456 C 18.528582,18.264221 13.291696,25.230495 11.500037,31.436501 z"
             style="fill:#404040;"/>
          </a>
         </g>
        </svg>
</svg>
