<?xml version="1.0" encoding="UTF-8" standalone="no"?>
<!DOCTYPE svg PUBLIC "-//W3C//DTD SVG 1.1//EN"
 "http://www.w3.org/Graphics/SVG/1.1/DTD/svg11.dtd">
<!-- Generated by graphviz version 2.43.0 (0)
 -->
<!-- Title: src/report/MvscCompileWarningIssueReportConvertor.hpp Pages: 1 -->
<svg width="308pt" height="106pt"
 viewBox="0.00 0.00 307.50 106.00" xmlns="http://www.w3.org/2000/svg" xmlns:xlink="http://www.w3.org/1999/xlink">
<g id="graph0" class="graph" transform="scale(1 1) rotate(0) translate(4 102)">
<title>src/report/MvscCompileWarningIssueReportConvertor.hpp</title>
<!-- Node1 -->
<g id="node1" class="node">
<title>Node1</title>
<g id="a_node1"><a xlink:title=" ">
<polygon fill="#bfbfbf" stroke="black" points="47.5,-67.5 47.5,-97.5 219.5,-97.5 219.5,-67.5 47.5,-67.5"/>
<text text-anchor="start" x="55.5" y="-85.5" font-family="Helvetica,sans-Serif" font-size="10.00">src/report/MvscCompileWarning</text>
<text text-anchor="middle" x="133.5" y="-74.5" font-family="Helvetica,sans-Serif" font-size="10.00">IssueReportConvertor.hpp</text>
</a>
</g>
</g>
<!-- Node2 -->
<g id="node2" class="node">
<title>Node2</title>
<g id="a_node2"><a xlink:href="../../d0/d42/_application_8cpp.html" target="_top" xlink:title=" ">
<polygon fill="none" stroke="black" points="0,-6 0,-25 109,-25 109,-6 0,-6"/>
<text text-anchor="middle" x="54.5" y="-13" font-family="Helvetica,sans-Serif" font-size="10.00">src/Application.cpp</text>
</a>
</g>
</g>
<!-- Node1&#45;&gt;Node2 -->
<g id="edge1" class="edge">
<title>Node1&#45;&gt;Node2</title>
<path fill="none" stroke="midnightblue" d="M108.59,-61.01C93.93,-48.94 76.14,-34.3 65.07,-25.19"/>
<polygon fill="midnightblue" stroke="midnightblue" points="106.41,-63.75 116.36,-67.4 110.86,-58.34 106.41,-63.75"/>
</g>
<!-- Node3 -->
<g id="node3" class="node">
<title>Node3</title>
<g id="a_node3"><a xlink:href="../../d0/dc2/_mvsc_compile_warning_issue_report_convertor_8cpp.html" target="_top" xlink:title=" ">
<polygon fill="none" stroke="black" points="127.5,-0.5 127.5,-30.5 299.5,-30.5 299.5,-0.5 127.5,-0.5"/>
<text text-anchor="start" x="135.5" y="-18.5" font-family="Helvetica,sans-Serif" font-size="10.00">src/report/MvscCompileWarning</text>
<text text-anchor="middle" x="213.5" y="-7.5" font-family="Helvetica,sans-Serif" font-size="10.00">IssueReportConvertor.cpp</text>
</a>
</g>
</g>
<!-- Node1&#45;&gt;Node3 -->
<g id="edge2" class="edge">
<title>Node1&#45;&gt;Node3</title>
<path fill="none" stroke="midnightblue" d="M158.87,-60.88C171.03,-51.01 185.28,-39.43 196.18,-30.58"/>
<polygon fill="midnightblue" stroke="midnightblue" points="156.41,-58.37 150.86,-67.4 160.83,-63.81 156.41,-58.37"/>
</g>
</g>
</svg>
