<?xml version="1.0" encoding="UTF-8" standalone="no"?>
<!DOCTYPE svg PUBLIC "-//W3C//DTD SVG 1.1//EN"
 "http://www.w3.org/Graphics/SVG/1.1/DTD/svg11.dtd">
<!-- Generated by graphviz version 2.43.0 (0)
 -->
<!-- Title: Graphical Class Hierarchy Pages: 1 -->
<svg width="470pt" height="66pt"
 viewBox="0.00 0.00 470.00 66.00" xmlns="http://www.w3.org/2000/svg" xmlns:xlink="http://www.w3.org/1999/xlink">
<g id="graph0" class="graph" transform="scale(1 1) rotate(0) translate(4 62)">
<title>Graphical Class Hierarchy</title>
<!-- Node0 -->
<g id="node1" class="node">
<title>Node0</title>
<g id="a_node1"><a xlink:href="df/dff/class_report_convertor.html" target="_top" xlink:title="abstract class to convert report">
<polygon fill="none" stroke="black" points="0,-19.5 0,-38.5 97,-38.5 97,-19.5 0,-19.5"/>
<text text-anchor="middle" x="48.5" y="-26.5" font-family="Helvetica,sans-Serif" font-size="10.00">ReportConvertor</text>
</a>
</g>
</g>
<!-- Node1 -->
<g id="node2" class="node">
<title>Node1</title>
<g id="a_node2"><a xlink:href="db/de6/class_issue_report_convertor.html" target="_top" xlink:title="abstract class to convert issue report">
<polygon fill="none" stroke="black" points="133,-19.5 133,-38.5 255,-38.5 255,-19.5 133,-19.5"/>
<text text-anchor="middle" x="194" y="-26.5" font-family="Helvetica,sans-Serif" font-size="10.00">IssueReportConvertor</text>
</a>
</g>
</g>
<!-- Node0&#45;&gt;Node1 -->
<g id="edge1" class="edge">
<title>Node0&#45;&gt;Node1</title>
<path fill="none" stroke="midnightblue" d="M107.38,-29C115.79,-29 124.46,-29 132.92,-29"/>
<polygon fill="midnightblue" stroke="midnightblue" points="107.28,-25.5 97.28,-29 107.28,-32.5 107.28,-25.5"/>
</g>
<!-- Node2 -->
<g id="node3" class="node">
<title>Node2</title>
<g id="a_node3"><a xlink:href="d2/d59/class_clang_tidy_issue_report_convertor.html" target="_top" xlink:title="abstract class to convert issue report">
<polygon fill="none" stroke="black" points="291,-38.5 291,-57.5 462,-57.5 462,-38.5 291,-38.5"/>
<text text-anchor="middle" x="376.5" y="-45.5" font-family="Helvetica,sans-Serif" font-size="10.00">ClangTidyIssueReportConvertor</text>
</a>
</g>
</g>
<!-- Node1&#45;&gt;Node2 -->
<g id="edge2" class="edge">
<title>Node1&#45;&gt;Node2</title>
<path fill="none" stroke="midnightblue" d="M265.23,-36.39C273.64,-37.28 282.31,-38.19 290.9,-39.09"/>
<polygon fill="midnightblue" stroke="midnightblue" points="265.42,-32.89 255.1,-35.33 264.68,-39.85 265.42,-32.89"/>
</g>
<!-- Node3 -->
<g id="node4" class="node">
<title>Node3</title>
<g id="a_node4"><a xlink:href="d7/d9a/class_cpp_check_issue_report_convertor.html" target="_top" xlink:title="abstract class to convert issue report">
<polygon fill="none" stroke="black" points="291,-0.5 291,-19.5 462,-19.5 462,-0.5 291,-0.5"/>
<text text-anchor="middle" x="376.5" y="-7.5" font-family="Helvetica,sans-Serif" font-size="10.00">CppCheckIssueReportConvertor</text>
</a>
</g>
</g>
<!-- Node1&#45;&gt;Node3 -->
<g id="edge3" class="edge">
<title>Node1&#45;&gt;Node3</title>
<path fill="none" stroke="midnightblue" d="M265.23,-21.61C273.64,-20.72 282.31,-19.81 290.9,-18.91"/>
<polygon fill="midnightblue" stroke="midnightblue" points="264.68,-18.15 255.1,-22.67 265.42,-25.11 264.68,-18.15"/>
</g>
</g>
</svg>
