<?xml version="1.0" encoding="UTF-8" standalone="no"?>
<!DOCTYPE svg PUBLIC "-//W3C//DTD SVG 1.1//EN"
 "http://www.w3.org/Graphics/SVG/1.1/DTD/svg11.dtd">
<!-- Generated by graphviz version 2.43.0 (0)
 -->
<!-- Title: Graphical Class Hierarchy Pages: 1 -->
<svg width="688pt" height="127pt"
 viewBox="0.00 0.00 688.00 126.50" xmlns="http://www.w3.org/2000/svg" xmlns:xlink="http://www.w3.org/1999/xlink">
<g id="graph0" class="graph" transform="scale(1 1) rotate(0) translate(4 122.5)">
<title>Graphical Class Hierarchy</title>
<!-- Node0 -->
<g id="node1" class="node">
<title>Node0</title>
<g id="a_node1"><a xlink:href="df/dff/class_report_convertor.html" target="_top" xlink:title="abstract class to convert report">
<polygon fill="none" stroke="black" points="0,-55 0,-74 97,-74 97,-55 0,-55"/>
<text text-anchor="middle" x="48.5" y="-62" font-family="Helvetica,sans-Serif" font-size="10.00">ReportConvertor</text>
</a>
</g>
</g>
<!-- Node1 -->
<g id="node2" class="node">
<title>Node1</title>
<g id="a_node2"><a xlink:href="db/de6/class_issue_report_convertor.html" target="_top" xlink:title="abstract class to convert issue report">
<polygon fill="none" stroke="black" points="133,-55 133,-74 255,-74 255,-55 133,-55"/>
<text text-anchor="middle" x="194" y="-62" font-family="Helvetica,sans-Serif" font-size="10.00">IssueReportConvertor</text>
</a>
</g>
</g>
<!-- Node0&#45;&gt;Node1 -->
<g id="edge1" class="edge">
<title>Node0&#45;&gt;Node1</title>
<path fill="none" stroke="midnightblue" d="M107.38,-64.5C115.79,-64.5 124.46,-64.5 132.92,-64.5"/>
<polygon fill="midnightblue" stroke="midnightblue" points="107.28,-61 97.28,-64.5 107.28,-68 107.28,-61"/>
</g>
<!-- Node2 -->
<g id="node3" class="node">
<title>Node2</title>
<g id="a_node3"><a xlink:href="d7/d9a/class_cpp_check_issue_report_convertor.html" target="_top" xlink:title="abstract class to convert issue report">
<polygon fill="none" stroke="black" points="295.5,-99 295.5,-118 466.5,-118 466.5,-99 295.5,-99"/>
<text text-anchor="middle" x="381" y="-106" font-family="Helvetica,sans-Serif" font-size="10.00">CppCheckIssueReportConvertor</text>
</a>
</g>
</g>
<!-- Node1&#45;&gt;Node2 -->
<g id="edge2" class="edge">
<title>Node1&#45;&gt;Node2</title>
<path fill="none" stroke="midnightblue" d="M242.23,-76.55C257.75,-80.44 275.09,-84.73 291,-88.5 305.79,-92.01 322.01,-95.7 336.49,-98.94"/>
<polygon fill="midnightblue" stroke="midnightblue" points="242.89,-73.1 232.33,-74.05 241.18,-79.89 242.89,-73.1"/>
</g>
<!-- Node3 -->
<g id="node4" class="node">
<title>Node3</title>
<g id="a_node4"><a xlink:href="da/d9e/class_gcc_compile_log_issue_report_convertor.html" target="_top" xlink:title="abstract class to convert issue report">
<polygon fill="none" stroke="black" points="306,-49.5 306,-79.5 456,-79.5 456,-49.5 306,-49.5"/>
<text text-anchor="start" x="314" y="-67.5" font-family="Helvetica,sans-Serif" font-size="10.00">GccCompileLogIssueReport</text>
<text text-anchor="middle" x="381" y="-56.5" font-family="Helvetica,sans-Serif" font-size="10.00">Convertor</text>
</a>
</g>
</g>
<!-- Node1&#45;&gt;Node3 -->
<g id="edge3" class="edge">
<title>Node1&#45;&gt;Node3</title>
<path fill="none" stroke="midnightblue" d="M265.07,-64.5C278.34,-64.5 292.27,-64.5 305.67,-64.5"/>
<polygon fill="midnightblue" stroke="midnightblue" points="265.06,-61 255.06,-64.5 265.06,-68 265.06,-61"/>
</g>
<!-- Node6 -->
<g id="node7" class="node">
<title>Node6</title>
<g id="a_node7"><a xlink:href="d5/d8e/class_mvsc_compile_warning_issue_report_convertor.html" target="_top" xlink:title="abstract class to convert issue report">
<polygon fill="none" stroke="black" points="291,-0.5 291,-30.5 471,-30.5 471,-0.5 291,-0.5"/>
<text text-anchor="start" x="299" y="-18.5" font-family="Helvetica,sans-Serif" font-size="10.00">MvscCompileWarningIssueReport</text>
<text text-anchor="middle" x="381" y="-7.5" font-family="Helvetica,sans-Serif" font-size="10.00">Convertor</text>
</a>
</g>
</g>
<!-- Node1&#45;&gt;Node6 -->
<g id="edge6" class="edge">
<title>Node1&#45;&gt;Node6</title>
<path fill="none" stroke="midnightblue" d="M241.02,-52.31C265.91,-45.72 296.86,-37.52 323.23,-30.54"/>
<polygon fill="midnightblue" stroke="midnightblue" points="239.88,-48.99 231.11,-54.94 241.67,-55.76 239.88,-48.99"/>
</g>
<!-- Node4 -->
<g id="node5" class="node">
<title>Node4</title>
<g id="a_node5"><a xlink:href="d2/d59/class_clang_tidy_issue_report_convertor.html" target="_top" xlink:title="abstract class to convert issue report">
<polygon fill="none" stroke="black" points="508,-77 508,-96 679,-96 679,-77 508,-77"/>
<text text-anchor="middle" x="593.5" y="-84" font-family="Helvetica,sans-Serif" font-size="10.00">ClangTidyIssueReportConvertor</text>
</a>
</g>
</g>
<!-- Node3&#45;&gt;Node4 -->
<g id="edge4" class="edge">
<title>Node3&#45;&gt;Node4</title>
<path fill="none" stroke="midnightblue" d="M466.51,-73.33C480.12,-74.75 494.21,-76.23 507.82,-77.65"/>
<polygon fill="midnightblue" stroke="midnightblue" points="466.52,-69.81 456.21,-72.26 465.8,-76.78 466.52,-69.81"/>
</g>
<!-- Node5 -->
<g id="node6" class="node">
<title>Node5</title>
<g id="a_node6"><a xlink:href="d0/d54/class_gcc_compile_warning_issue_report_convertor.html" target="_top" xlink:title="abstract class to convert issue report">
<polygon fill="none" stroke="black" points="507,-27.5 507,-57.5 680,-57.5 680,-27.5 507,-27.5"/>
<text text-anchor="start" x="515" y="-45.5" font-family="Helvetica,sans-Serif" font-size="10.00">GccCompileWarningIssueReport</text>
<text text-anchor="middle" x="593.5" y="-34.5" font-family="Helvetica,sans-Serif" font-size="10.00">Convertor</text>
</a>
</g>
</g>
<!-- Node3&#45;&gt;Node5 -->
<g id="edge5" class="edge">
<title>Node3&#45;&gt;Node5</title>
<path fill="none" stroke="midnightblue" d="M466.29,-55.69C479.6,-54.3 493.38,-52.86 506.73,-51.46"/>
<polygon fill="midnightblue" stroke="midnightblue" points="465.8,-52.22 456.21,-56.74 466.52,-59.19 465.8,-52.22"/>
</g>
</g>
</svg>
