<?xml version="1.0" encoding="UTF-8" standalone="no"?>
<!DOCTYPE svg PUBLIC "-//W3C//DTD SVG 1.1//EN"
 "http://www.w3.org/Graphics/SVG/1.1/DTD/svg11.dtd">
<!-- Generated by graphviz version 2.43.0 (0)
 -->
<!-- Title: src/report/MvscCompileWarningIssueReportConvertor.cpp Pages: 1 -->
<svg width="988pt" height="285pt"
 viewBox="0.00 0.00 988.00 285.00" xmlns="http://www.w3.org/2000/svg" xmlns:xlink="http://www.w3.org/1999/xlink">
<g id="graph0" class="graph" transform="scale(1 1) rotate(0) translate(4 281)">
<title>src/report/MvscCompileWarningIssueReportConvertor.cpp</title>
<!-- Node1 -->
<g id="node1" class="node">
<title>Node1</title>
<g id="a_node1"><a xlink:title=" ">
<polygon fill="#bfbfbf" stroke="black" points="579,-246.5 579,-276.5 751,-276.5 751,-246.5 579,-246.5"/>
<text text-anchor="start" x="587" y="-264.5" font-family="Helvetica,sans-Serif" font-size="10.00">src/report/MvscCompileWarning</text>
<text text-anchor="middle" x="665" y="-253.5" font-family="Helvetica,sans-Serif" font-size="10.00">IssueReportConvertor.cpp</text>
</a>
</g>
</g>
<!-- Node2 -->
<g id="node2" class="node">
<title>Node2</title>
<g id="a_node2"><a xlink:href="../../d0/dc4/_mvsc_compile_warning_issue_report_convertor_8hpp.html" target="_top" xlink:title=" ">
<polygon fill="none" stroke="black" points="244,-179.5 244,-209.5 398,-209.5 398,-179.5 244,-179.5"/>
<text text-anchor="start" x="252" y="-197.5" font-family="Helvetica,sans-Serif" font-size="10.00">./MvscCompileWarningIssue</text>
<text text-anchor="middle" x="321" y="-186.5" font-family="Helvetica,sans-Serif" font-size="10.00">ReportConvertor.hpp</text>
</a>
</g>
</g>
<!-- Node1&#45;&gt;Node2 -->
<g id="edge1" class="edge">
<title>Node1&#45;&gt;Node2</title>
<path fill="none" stroke="midnightblue" d="M590.78,-246.48C536.28,-236.18 462.17,-222.17 405.41,-211.45"/>
<polygon fill="midnightblue" stroke="midnightblue" points="405.86,-207.97 395.38,-209.55 404.56,-214.85 405.86,-207.97"/>
</g>
<!-- Node6 -->
<g id="node6" class="node">
<title>Node6</title>
<g id="a_node6"><a xlink:title=" ">
<polygon fill="none" stroke="#bfbfbf" points="452,-6 452,-25 484,-25 484,-6 452,-6"/>
<text text-anchor="middle" x="468" y="-13" font-family="Helvetica,sans-Serif" font-size="10.00">list</text>
</a>
</g>
</g>
<!-- Node1&#45;&gt;Node6 -->
<g id="edge18" class="edge">
<title>Node1&#45;&gt;Node6</title>
<path fill="none" stroke="midnightblue" d="M579.55,-246.48C538.68,-237.94 495.87,-225.63 483,-210 441.08,-159.08 454.5,-72.89 463.14,-35.15"/>
<polygon fill="midnightblue" stroke="midnightblue" points="466.62,-35.63 465.6,-25.08 459.82,-33.96 466.62,-35.63"/>
</g>
<!-- Node10 -->
<g id="node10" class="node">
<title>Node10</title>
<g id="a_node10"><a xlink:title=" ">
<polygon fill="none" stroke="#bfbfbf" points="395,-67.5 395,-86.5 433,-86.5 433,-67.5 395,-67.5"/>
<text text-anchor="middle" x="414" y="-74.5" font-family="Helvetica,sans-Serif" font-size="10.00">map</text>
</a>
</g>
</g>
<!-- Node1&#45;&gt;Node10 -->
<g id="edge19" class="edge">
<title>Node1&#45;&gt;Node10</title>
<path fill="none" stroke="midnightblue" d="M578.79,-249.36C527.39,-241.03 468.62,-227.97 450,-210 418.75,-179.84 413.78,-125.44 413.48,-96.8"/>
<polygon fill="midnightblue" stroke="midnightblue" points="416.98,-96.59 413.57,-86.56 409.99,-96.53 416.98,-96.59"/>
</g>
<!-- Node11 -->
<g id="node11" class="node">
<title>Node11</title>
<g id="a_node11"><a xlink:href="../../db/d55/_conversion_exception_8hpp.html" target="_top" xlink:title=" ">
<polygon fill="none" stroke="black" points="492,-185 492,-204 692,-204 692,-185 492,-185"/>
<text text-anchor="middle" x="592" y="-192" font-family="Helvetica,sans-Serif" font-size="10.00">../exception/ConversionException.hpp</text>
</a>
</g>
</g>
<!-- Node1&#45;&gt;Node11 -->
<g id="edge10" class="edge">
<title>Node1&#45;&gt;Node11</title>
<path fill="none" stroke="midnightblue" d="M649.16,-246.4C637.44,-235.96 621.48,-221.75 609.41,-211"/>
<polygon fill="midnightblue" stroke="midnightblue" points="611.56,-208.23 601.76,-204.19 606.91,-213.46 611.56,-208.23"/>
</g>
<!-- Node16 -->
<g id="node16" class="node">
<title>Node16</title>
<g id="a_node16"><a xlink:title=" ">
<polygon fill="none" stroke="#bfbfbf" points="710.5,-185 710.5,-204 765.5,-204 765.5,-185 710.5,-185"/>
<text text-anchor="middle" x="738" y="-192" font-family="Helvetica,sans-Serif" font-size="10.00">fstream</text>
</a>
</g>
</g>
<!-- Node1&#45;&gt;Node16 -->
<g id="edge15" class="edge">
<title>Node1&#45;&gt;Node16</title>
<path fill="none" stroke="midnightblue" d="M680.84,-246.4C692.56,-235.96 708.52,-221.75 720.59,-211"/>
<polygon fill="midnightblue" stroke="midnightblue" points="723.09,-213.46 728.24,-204.19 718.44,-208.23 723.09,-213.46"/>
</g>
<!-- Node17 -->
<g id="node17" class="node">
<title>Node17</title>
<g id="a_node17"><a xlink:title=" ">
<polygon fill="none" stroke="#bfbfbf" points="784,-185 784,-204 844,-204 844,-185 784,-185"/>
<text text-anchor="middle" x="814" y="-192" font-family="Helvetica,sans-Serif" font-size="10.00">iostream</text>
</a>
</g>
</g>
<!-- Node1&#45;&gt;Node17 -->
<g id="edge16" class="edge">
<title>Node1&#45;&gt;Node17</title>
<path fill="none" stroke="midnightblue" d="M697.33,-246.4C723.47,-234.99 759.95,-219.08 785.12,-208.1"/>
<polygon fill="midnightblue" stroke="midnightblue" points="786.73,-211.21 794.5,-204.01 783.93,-204.8 786.73,-211.21"/>
</g>
<!-- Node18 -->
<g id="node18" class="node">
<title>Node18</title>
<g id="a_node18"><a xlink:title=" ">
<polygon fill="none" stroke="#bfbfbf" points="862,-185 862,-204 918,-204 918,-185 862,-185"/>
<text text-anchor="middle" x="890" y="-192" font-family="Helvetica,sans-Serif" font-size="10.00">sstream</text>
</a>
</g>
</g>
<!-- Node1&#45;&gt;Node18 -->
<g id="edge17" class="edge">
<title>Node1&#45;&gt;Node18</title>
<path fill="none" stroke="midnightblue" d="M723.93,-246.46C761.23,-237.13 810.3,-224.05 853,-210 855.27,-209.25 857.6,-208.44 859.93,-207.6"/>
<polygon fill="midnightblue" stroke="midnightblue" points="861.28,-210.84 869.4,-204.04 858.81,-204.28 861.28,-210.84"/>
</g>
<!-- Node19 -->
<g id="node19" class="node">
<title>Node19</title>
<g id="a_node19"><a xlink:title=" ">
<polygon fill="none" stroke="#bfbfbf" points="936,-185 936,-204 980,-204 980,-185 936,-185"/>
<text text-anchor="middle" x="958" y="-192" font-family="Helvetica,sans-Serif" font-size="10.00">regex</text>
</a>
</g>
</g>
<!-- Node1&#45;&gt;Node19 -->
<g id="edge20" class="edge">
<title>Node1&#45;&gt;Node19</title>
<path fill="none" stroke="midnightblue" d="M751.01,-249.4C802.8,-241.38 869.61,-228.63 927,-210 928.67,-209.46 930.37,-208.85 932.07,-208.19"/>
<polygon fill="midnightblue" stroke="midnightblue" points="933.77,-211.27 941.57,-204.1 931.01,-204.84 933.77,-211.27"/>
</g>
<!-- Node3 -->
<g id="node3" class="node">
<title>Node3</title>
<g id="a_node3"><a xlink:href="../../da/db7/_issue_report_convertor_8hpp.html" target="_top" xlink:title=" ">
<polygon fill="none" stroke="black" points="246.5,-123.5 246.5,-142.5 395.5,-142.5 395.5,-123.5 246.5,-123.5"/>
<text text-anchor="middle" x="321" y="-130.5" font-family="Helvetica,sans-Serif" font-size="10.00">./IssueReportConvertor.hpp</text>
</a>
</g>
</g>
<!-- Node2&#45;&gt;Node3 -->
<g id="edge2" class="edge">
<title>Node2&#45;&gt;Node3</title>
<path fill="none" stroke="midnightblue" d="M321,-179.4C321,-171.47 321,-161.46 321,-152.86"/>
<polygon fill="midnightblue" stroke="midnightblue" points="324.5,-152.66 321,-142.66 317.5,-152.66 324.5,-152.66"/>
</g>
<!-- Node4 -->
<g id="node4" class="node">
<title>Node4</title>
<g id="a_node4"><a xlink:href="../../d7/d34/_report_convertor_8hpp.html" target="_top" xlink:title=" ">
<polygon fill="none" stroke="black" points="246.5,-67.5 246.5,-86.5 369.5,-86.5 369.5,-67.5 246.5,-67.5"/>
<text text-anchor="middle" x="308" y="-74.5" font-family="Helvetica,sans-Serif" font-size="10.00">./ReportConvertor.hpp</text>
</a>
</g>
</g>
<!-- Node3&#45;&gt;Node4 -->
<g id="edge3" class="edge">
<title>Node3&#45;&gt;Node4</title>
<path fill="none" stroke="midnightblue" d="M318.85,-123.08C317.13,-115.93 314.65,-105.64 312.5,-96.69"/>
<polygon fill="midnightblue" stroke="midnightblue" points="315.85,-95.65 310.11,-86.75 309.04,-97.29 315.85,-95.65"/>
</g>
<!-- Node3&#45;&gt;Node10 -->
<g id="edge9" class="edge">
<title>Node3&#45;&gt;Node10</title>
<path fill="none" stroke="midnightblue" d="M335.94,-123.32C350.59,-114.82 373.13,-101.73 390.24,-91.8"/>
<polygon fill="midnightblue" stroke="midnightblue" points="392.2,-94.7 399.1,-86.65 388.69,-88.65 392.2,-94.7"/>
</g>
<!-- Node5 -->
<g id="node5" class="node">
<title>Node5</title>
<g id="a_node5"><a xlink:title=" ">
<polygon fill="none" stroke="#bfbfbf" points="368.5,-6 368.5,-25 433.5,-25 433.5,-6 368.5,-6"/>
<text text-anchor="middle" x="401" y="-13" font-family="Helvetica,sans-Serif" font-size="10.00">functional</text>
</a>
</g>
</g>
<!-- Node4&#45;&gt;Node5 -->
<g id="edge4" class="edge">
<title>Node4&#45;&gt;Node5</title>
<path fill="none" stroke="midnightblue" d="M321.32,-67.48C336.38,-57.84 361.12,-42.02 379.04,-30.55"/>
<polygon fill="midnightblue" stroke="midnightblue" points="381.16,-33.35 387.7,-25.01 377.39,-27.45 381.16,-33.35"/>
</g>
<!-- Node4&#45;&gt;Node6 -->
<g id="edge5" class="edge">
<title>Node4&#45;&gt;Node6</title>
<path fill="none" stroke="midnightblue" d="M338.67,-67.46C366.23,-59.38 407.55,-46.23 442,-31 442.85,-30.63 443.7,-30.23 444.56,-29.82"/>
<polygon fill="midnightblue" stroke="midnightblue" points="446.39,-32.82 453.67,-25.11 443.18,-26.6 446.39,-32.82"/>
</g>
<!-- Node7 -->
<g id="node7" class="node">
<title>Node7</title>
<g id="a_node7"><a xlink:title=" ">
<polygon fill="none" stroke="#bfbfbf" points="0,-6 0,-25 58,-25 58,-6 0,-6"/>
<text text-anchor="middle" x="29" y="-13" font-family="Helvetica,sans-Serif" font-size="10.00">memory</text>
</a>
</g>
</g>
<!-- Node4&#45;&gt;Node7 -->
<g id="edge6" class="edge">
<title>Node4&#45;&gt;Node7</title>
<path fill="none" stroke="midnightblue" d="M246.39,-67.62C197.27,-60.2 127.02,-47.91 67,-31 64.35,-30.25 61.63,-29.4 58.92,-28.49"/>
<polygon fill="midnightblue" stroke="midnightblue" points="59.88,-25.11 49.28,-25.01 57.5,-31.7 59.88,-25.11"/>
</g>
<!-- Node8 -->
<g id="node8" class="node">
<title>Node8</title>
<g id="a_node8"><a xlink:title=" ">
<polygon fill="none" stroke="#bfbfbf" points="76.5,-6 76.5,-25 219.5,-25 219.5,-6 76.5,-6"/>
<text text-anchor="middle" x="148" y="-13" font-family="Helvetica,sans-Serif" font-size="10.00">boost/filesystem/path.hpp</text>
</a>
</g>
</g>
<!-- Node4&#45;&gt;Node8 -->
<g id="edge7" class="edge">
<title>Node4&#45;&gt;Node8</title>
<path fill="none" stroke="midnightblue" d="M285.08,-67.48C257.63,-57.27 211.48,-40.11 180.4,-28.55"/>
<polygon fill="midnightblue" stroke="midnightblue" points="181.47,-25.21 170.88,-25.01 179.03,-31.78 181.47,-25.21"/>
</g>
<!-- Node9 -->
<g id="node9" class="node">
<title>Node9</title>
<g id="a_node9"><a xlink:title=" ">
<polygon fill="none" stroke="#bfbfbf" points="237.5,-0.5 237.5,-30.5 350.5,-30.5 350.5,-0.5 237.5,-0.5"/>
<text text-anchor="start" x="245.5" y="-18.5" font-family="Helvetica,sans-Serif" font-size="10.00">boost/property_tree</text>
<text text-anchor="middle" x="294" y="-7.5" font-family="Helvetica,sans-Serif" font-size="10.00">/ptree.hpp</text>
</a>
</g>
</g>
<!-- Node4&#45;&gt;Node9 -->
<g id="edge8" class="edge">
<title>Node4&#45;&gt;Node9</title>
<path fill="none" stroke="midnightblue" d="M305.99,-67.48C304.33,-60.4 301.88,-49.97 299.62,-40.39"/>
<polygon fill="midnightblue" stroke="midnightblue" points="303,-39.46 297.3,-30.52 296.18,-41.06 303,-39.46"/>
</g>
<!-- Node12 -->
<g id="node12" class="node">
<title>Node12</title>
<g id="a_node12"><a xlink:href="../../d1/dfa/_cpp_coso_exception_8hpp.html" target="_top" xlink:title=" ">
<polygon fill="none" stroke="black" points="528,-123.5 528,-142.5 662,-142.5 662,-123.5 528,-123.5"/>
<text text-anchor="middle" x="595" y="-130.5" font-family="Helvetica,sans-Serif" font-size="10.00">./CppCosoException.hpp</text>
</a>
</g>
</g>
<!-- Node11&#45;&gt;Node12 -->
<g id="edge11" class="edge">
<title>Node11&#45;&gt;Node12</title>
<path fill="none" stroke="midnightblue" d="M592.43,-184.98C592.85,-176.58 593.51,-163.48 594.06,-152.66"/>
<polygon fill="midnightblue" stroke="midnightblue" points="597.56,-152.67 594.57,-142.51 590.57,-152.32 597.56,-152.67"/>
</g>
<!-- Node13 -->
<g id="node13" class="node">
<title>Node13</title>
<g id="a_node13"><a xlink:title=" ">
<polygon fill="none" stroke="#bfbfbf" points="492.5,-67.5 492.5,-86.5 557.5,-86.5 557.5,-67.5 492.5,-67.5"/>
<text text-anchor="middle" x="525" y="-74.5" font-family="Helvetica,sans-Serif" font-size="10.00">exception</text>
</a>
</g>
</g>
<!-- Node12&#45;&gt;Node13 -->
<g id="edge12" class="edge">
<title>Node12&#45;&gt;Node13</title>
<path fill="none" stroke="midnightblue" d="M583.75,-123.32C573.2,-115.18 557.2,-102.84 544.56,-93.09"/>
<polygon fill="midnightblue" stroke="midnightblue" points="546.51,-90.17 536.45,-86.83 542.23,-95.71 546.51,-90.17"/>
</g>
<!-- Node14 -->
<g id="node14" class="node">
<title>Node14</title>
<g id="a_node14"><a xlink:title=" ">
<polygon fill="none" stroke="#bfbfbf" points="576,-67.5 576,-86.5 620,-86.5 620,-67.5 576,-67.5"/>
<text text-anchor="middle" x="598" y="-74.5" font-family="Helvetica,sans-Serif" font-size="10.00">string</text>
</a>
</g>
</g>
<!-- Node12&#45;&gt;Node14 -->
<g id="edge13" class="edge">
<title>Node12&#45;&gt;Node14</title>
<path fill="none" stroke="midnightblue" d="M595.5,-123.08C595.89,-116.01 596.45,-105.86 596.95,-96.99"/>
<polygon fill="midnightblue" stroke="midnightblue" points="600.45,-96.93 597.51,-86.75 593.46,-96.54 600.45,-96.93"/>
</g>
<!-- Node15 -->
<g id="node15" class="node">
<title>Node15</title>
<g id="a_node15"><a xlink:title=" ">
<polygon fill="none" stroke="#bfbfbf" points="638.5,-67.5 638.5,-86.5 711.5,-86.5 711.5,-67.5 638.5,-67.5"/>
<text text-anchor="middle" x="675" y="-74.5" font-family="Helvetica,sans-Serif" font-size="10.00">string_view</text>
</a>
</g>
</g>
<!-- Node12&#45;&gt;Node15 -->
<g id="edge14" class="edge">
<title>Node12&#45;&gt;Node15</title>
<path fill="none" stroke="midnightblue" d="M607.85,-123.32C620.22,-114.98 639.13,-102.21 653.74,-92.35"/>
<polygon fill="midnightblue" stroke="midnightblue" points="655.85,-95.15 662.18,-86.65 651.93,-89.35 655.85,-95.15"/>
</g>
</g>
</svg>
