<?xml version="1.0" encoding="UTF-8" standalone="no"?>
<!DOCTYPE svg PUBLIC "-//W3C//DTD SVG 1.1//EN"
 "http://www.w3.org/Graphics/SVG/1.1/DTD/svg11.dtd">
<!-- Generated by graphviz version 2.43.0 (0)
 -->
<!-- Title: src/report/GccCompileLogIssueReportConvertor.hpp Pages: 1 -->
<svg width="490pt" height="173pt"
 viewBox="0.00 0.00 490.00 173.00" xmlns="http://www.w3.org/2000/svg" xmlns:xlink="http://www.w3.org/1999/xlink">
<g id="graph0" class="graph" transform="scale(1 1) rotate(0) translate(4 169)">
<title>src/report/GccCompileLogIssueReportConvertor.hpp</title>
<!-- Node1 -->
<g id="node1" class="node">
<title>Node1</title>
<g id="a_node1"><a xlink:title=" ">
<polygon fill="#bfbfbf" stroke="black" points="157.5,-134.5 157.5,-164.5 300.5,-164.5 300.5,-134.5 157.5,-134.5"/>
<text text-anchor="start" x="165.5" y="-152.5" font-family="Helvetica,sans-Serif" font-size="10.00">src/report/GccCompileLog</text>
<text text-anchor="middle" x="229" y="-141.5" font-family="Helvetica,sans-Serif" font-size="10.00">IssueReportConvertor.hpp</text>
</a>
</g>
</g>
<!-- Node2 -->
<g id="node2" class="node">
<title>Node2</title>
<g id="a_node2"><a xlink:href="../../da/dff/_clang_tidy_issue_report_convertor_8hpp.html" target="_top" xlink:title=" ">
<polygon fill="none" stroke="black" points="0,-67.5 0,-97.5 140,-97.5 140,-67.5 0,-67.5"/>
<text text-anchor="start" x="8" y="-85.5" font-family="Helvetica,sans-Serif" font-size="10.00">src/report/ClangTidyIssue</text>
<text text-anchor="middle" x="70" y="-74.5" font-family="Helvetica,sans-Serif" font-size="10.00">ReportConvertor.hpp</text>
</a>
</g>
</g>
<!-- Node1&#45;&gt;Node2 -->
<g id="edge1" class="edge">
<title>Node1&#45;&gt;Node2</title>
<path fill="none" stroke="midnightblue" d="M185.08,-130.54C159.63,-120.14 128.07,-107.24 104.43,-97.58"/>
<polygon fill="midnightblue" stroke="midnightblue" points="183.92,-133.85 194.5,-134.4 186.57,-127.37 183.92,-133.85"/>
</g>
<!-- Node5 -->
<g id="node5" class="node">
<title>Node5</title>
<g id="a_node5"><a xlink:href="../../da/d8e/_gcc_compile_log_issue_report_convertor_8cpp.html" target="_top" xlink:title=" ">
<polygon fill="none" stroke="black" points="158,-67.5 158,-97.5 300,-97.5 300,-67.5 158,-67.5"/>
<text text-anchor="start" x="166" y="-85.5" font-family="Helvetica,sans-Serif" font-size="10.00">src/report/GccCompileLog</text>
<text text-anchor="middle" x="229" y="-74.5" font-family="Helvetica,sans-Serif" font-size="10.00">IssueReportConvertor.cpp</text>
</a>
</g>
</g>
<!-- Node1&#45;&gt;Node5 -->
<g id="edge4" class="edge">
<title>Node1&#45;&gt;Node5</title>
<path fill="none" stroke="midnightblue" d="M229,-124.11C229,-115.15 229,-105.32 229,-97.58"/>
<polygon fill="midnightblue" stroke="midnightblue" points="225.5,-124.4 229,-134.4 232.5,-124.4 225.5,-124.4"/>
</g>
<!-- Node6 -->
<g id="node6" class="node">
<title>Node6</title>
<g id="a_node6"><a xlink:href="../../da/dcc/_gcc_compile_warning_issue_report_convertor_8hpp.html" target="_top" xlink:title=" ">
<polygon fill="none" stroke="black" points="318,-67.5 318,-97.5 482,-97.5 482,-67.5 318,-67.5"/>
<text text-anchor="start" x="326" y="-85.5" font-family="Helvetica,sans-Serif" font-size="10.00">src/report/GccCompileWarning</text>
<text text-anchor="middle" x="400" y="-74.5" font-family="Helvetica,sans-Serif" font-size="10.00">IssueReportConvertor.hpp</text>
</a>
</g>
</g>
<!-- Node1&#45;&gt;Node6 -->
<g id="edge5" class="edge">
<title>Node1&#45;&gt;Node6</title>
<path fill="none" stroke="midnightblue" d="M275.52,-130.82C303,-120.37 337.33,-107.32 362.97,-97.58"/>
<polygon fill="midnightblue" stroke="midnightblue" points="274.21,-127.57 266.1,-134.4 276.7,-134.11 274.21,-127.57"/>
</g>
<!-- Node3 -->
<g id="node3" class="node">
<title>Node3</title>
<g id="a_node3"><a xlink:href="../../d0/d42/_application_8cpp.html" target="_top" xlink:title=" ">
<polygon fill="none" stroke="black" points="174.5,-6 174.5,-25 283.5,-25 283.5,-6 174.5,-6"/>
<text text-anchor="middle" x="229" y="-13" font-family="Helvetica,sans-Serif" font-size="10.00">src/Application.cpp</text>
</a>
</g>
</g>
<!-- Node2&#45;&gt;Node3 -->
<g id="edge2" class="edge">
<title>Node2&#45;&gt;Node3</title>
<path fill="none" stroke="midnightblue" d="M114.13,-63.46C144.85,-50.9 184.42,-34.72 208.19,-25.01"/>
<polygon fill="midnightblue" stroke="midnightblue" points="112.43,-60.37 104.5,-67.4 115.08,-66.85 112.43,-60.37"/>
</g>
<!-- Node4 -->
<g id="node4" class="node">
<title>Node4</title>
<g id="a_node4"><a xlink:href="../../d5/d63/_clang_tidy_issue_report_convertor_8cpp.html" target="_top" xlink:title=" ">
<polygon fill="none" stroke="black" points="0,-0.5 0,-30.5 140,-30.5 140,-0.5 0,-0.5"/>
<text text-anchor="start" x="8" y="-18.5" font-family="Helvetica,sans-Serif" font-size="10.00">src/report/ClangTidyIssue</text>
<text text-anchor="middle" x="70" y="-7.5" font-family="Helvetica,sans-Serif" font-size="10.00">ReportConvertor.cpp</text>
</a>
</g>
</g>
<!-- Node2&#45;&gt;Node4 -->
<g id="edge3" class="edge">
<title>Node2&#45;&gt;Node4</title>
<path fill="none" stroke="midnightblue" d="M70,-57.11C70,-48.15 70,-38.32 70,-30.58"/>
<polygon fill="midnightblue" stroke="midnightblue" points="66.5,-57.4 70,-67.4 73.5,-57.4 66.5,-57.4"/>
</g>
<!-- Node6&#45;&gt;Node3 -->
<g id="edge6" class="edge">
<title>Node6&#45;&gt;Node3</title>
<path fill="none" stroke="midnightblue" d="M353.39,-63.78C320.24,-51.18 277.16,-34.81 251.38,-25.01"/>
<polygon fill="midnightblue" stroke="midnightblue" points="352.3,-67.11 362.9,-67.4 354.79,-60.57 352.3,-67.11"/>
</g>
<!-- Node7 -->
<g id="node7" class="node">
<title>Node7</title>
<g id="a_node7"><a xlink:href="../../de/dfe/_gcc_compile_warning_issue_report_convertor_8cpp.html" target="_top" xlink:title=" ">
<polygon fill="none" stroke="black" points="318,-0.5 318,-30.5 482,-30.5 482,-0.5 318,-0.5"/>
<text text-anchor="start" x="326" y="-18.5" font-family="Helvetica,sans-Serif" font-size="10.00">src/report/GccCompileWarning</text>
<text text-anchor="middle" x="400" y="-7.5" font-family="Helvetica,sans-Serif" font-size="10.00">IssueReportConvertor.cpp</text>
</a>
</g>
</g>
<!-- Node6&#45;&gt;Node7 -->
<g id="edge7" class="edge">
<title>Node6&#45;&gt;Node7</title>
<path fill="none" stroke="midnightblue" d="M400,-57.11C400,-48.15 400,-38.32 400,-30.58"/>
<polygon fill="midnightblue" stroke="midnightblue" points="396.5,-57.4 400,-67.4 403.5,-57.4 396.5,-57.4"/>
</g>
</g>
</svg>
