<?xml version="1.0" encoding="UTF-8" standalone="no"?>
<!DOCTYPE svg PUBLIC "-//W3C//DTD SVG 1.1//EN"
 "http://www.w3.org/Graphics/SVG/1.1/DTD/svg11.dtd">
<!-- Generated by graphviz version 2.43.0 (0)
 -->
<!-- Title: src/report/ClangTidyIssueReportConvertor.cpp Pages: 1 -->
<svg width="989pt" height="341pt"
 viewBox="0.00 0.00 989.00 341.00" xmlns="http://www.w3.org/2000/svg" xmlns:xlink="http://www.w3.org/1999/xlink">
<g id="graph0" class="graph" transform="scale(1 1) rotate(0) translate(4 337)">
<title>src/report/ClangTidyIssueReportConvertor.cpp</title>
<!-- Node1 -->
<g id="node1" class="node">
<title>Node1</title>
<g id="a_node1"><a xlink:title=" ">
<polygon fill="#bfbfbf" stroke="black" points="596,-302.5 596,-332.5 736,-332.5 736,-302.5 596,-302.5"/>
<text text-anchor="start" x="604" y="-320.5" font-family="Helvetica,sans-Serif" font-size="10.00">src/report/ClangTidyIssue</text>
<text text-anchor="middle" x="666" y="-309.5" font-family="Helvetica,sans-Serif" font-size="10.00">ReportConvertor.cpp</text>
</a>
</g>
</g>
<!-- Node2 -->
<g id="node2" class="node">
<title>Node2</title>
<g id="a_node2"><a xlink:href="../../da/dff/_clang_tidy_issue_report_convertor_8hpp.html" target="_top" xlink:title=" ">
<polygon fill="none" stroke="black" points="201.5,-246.5 201.5,-265.5 398.5,-265.5 398.5,-246.5 201.5,-246.5"/>
<text text-anchor="middle" x="300" y="-253.5" font-family="Helvetica,sans-Serif" font-size="10.00">./ClangTidyIssueReportConvertor.hpp</text>
</a>
</g>
</g>
<!-- Node1&#45;&gt;Node2 -->
<g id="edge1" class="edge">
<title>Node1&#45;&gt;Node2</title>
<path fill="none" stroke="midnightblue" d="M595.86,-305.1C528.38,-294.13 427.31,-277.7 362.51,-267.16"/>
<polygon fill="midnightblue" stroke="midnightblue" points="362.87,-263.67 352.43,-265.52 361.74,-270.58 362.87,-263.67"/>
</g>
<!-- Node7 -->
<g id="node7" class="node">
<title>Node7</title>
<g id="a_node7"><a xlink:title=" ">
<polygon fill="none" stroke="#bfbfbf" points="452,-6 452,-25 484,-25 484,-6 452,-6"/>
<text text-anchor="middle" x="468" y="-13" font-family="Helvetica,sans-Serif" font-size="10.00">list</text>
</a>
</g>
</g>
<!-- Node1&#45;&gt;Node7 -->
<g id="edge19" class="edge">
<title>Node1&#45;&gt;Node7</title>
<path fill="none" stroke="midnightblue" d="M595.83,-313.41C558,-308.12 513.22,-295.44 484,-266 461.14,-242.97 465,-227.95 465,-195.5 465,-195.5 465,-195.5 465,-132 465,-97.85 466.33,-58.04 467.22,-35.21"/>
<polygon fill="midnightblue" stroke="midnightblue" points="470.71,-35.32 467.62,-25.19 463.72,-35.04 470.71,-35.32"/>
</g>
<!-- Node11 -->
<g id="node11" class="node">
<title>Node11</title>
<g id="a_node11"><a xlink:title=" ">
<polygon fill="none" stroke="#bfbfbf" points="389,-67.5 389,-86.5 427,-86.5 427,-67.5 389,-67.5"/>
<text text-anchor="middle" x="408" y="-74.5" font-family="Helvetica,sans-Serif" font-size="10.00">map</text>
</a>
</g>
</g>
<!-- Node1&#45;&gt;Node11 -->
<g id="edge20" class="edge">
<title>Node1&#45;&gt;Node11</title>
<path fill="none" stroke="midnightblue" d="M595.82,-308.11C541.14,-300.13 471.21,-286.33 451,-266 404.79,-219.52 404.11,-134.2 406.35,-96.62"/>
<polygon fill="midnightblue" stroke="midnightblue" points="409.84,-96.81 407.09,-86.58 402.86,-96.29 409.84,-96.81"/>
</g>
<!-- Node12 -->
<g id="node12" class="node">
<title>Node12</title>
<g id="a_node12"><a xlink:href="../../db/d55/_conversion_exception_8hpp.html" target="_top" xlink:title=" ">
<polygon fill="none" stroke="black" points="493,-246.5 493,-265.5 693,-265.5 693,-246.5 493,-246.5"/>
<text text-anchor="middle" x="593" y="-253.5" font-family="Helvetica,sans-Serif" font-size="10.00">../exception/ConversionException.hpp</text>
</a>
</g>
</g>
<!-- Node1&#45;&gt;Node12 -->
<g id="edge11" class="edge">
<title>Node1&#45;&gt;Node12</title>
<path fill="none" stroke="midnightblue" d="M648.7,-302.4C637.55,-293.31 623.05,-281.49 611.64,-272.19"/>
<polygon fill="midnightblue" stroke="midnightblue" points="613.58,-269.26 603.62,-265.66 609.16,-274.69 613.58,-269.26"/>
</g>
<!-- Node17 -->
<g id="node17" class="node">
<title>Node17</title>
<g id="a_node17"><a xlink:title=" ">
<polygon fill="none" stroke="#bfbfbf" points="711.5,-246.5 711.5,-265.5 766.5,-265.5 766.5,-246.5 711.5,-246.5"/>
<text text-anchor="middle" x="739" y="-253.5" font-family="Helvetica,sans-Serif" font-size="10.00">fstream</text>
</a>
</g>
</g>
<!-- Node1&#45;&gt;Node17 -->
<g id="edge16" class="edge">
<title>Node1&#45;&gt;Node17</title>
<path fill="none" stroke="midnightblue" d="M683.3,-302.4C694.45,-293.31 708.95,-281.49 720.36,-272.19"/>
<polygon fill="midnightblue" stroke="midnightblue" points="722.84,-274.69 728.38,-265.66 718.42,-269.26 722.84,-274.69"/>
</g>
<!-- Node18 -->
<g id="node18" class="node">
<title>Node18</title>
<g id="a_node18"><a xlink:title=" ">
<polygon fill="none" stroke="#bfbfbf" points="785,-246.5 785,-265.5 845,-265.5 845,-246.5 785,-246.5"/>
<text text-anchor="middle" x="815" y="-253.5" font-family="Helvetica,sans-Serif" font-size="10.00">iostream</text>
</a>
</g>
</g>
<!-- Node1&#45;&gt;Node18 -->
<g id="edge17" class="edge">
<title>Node1&#45;&gt;Node18</title>
<path fill="none" stroke="midnightblue" d="M701.31,-302.4C726.42,-292.37 759.84,-279.03 783.94,-269.4"/>
<polygon fill="midnightblue" stroke="midnightblue" points="785.33,-272.62 793.32,-265.66 782.73,-266.12 785.33,-272.62"/>
</g>
<!-- Node19 -->
<g id="node19" class="node">
<title>Node19</title>
<g id="a_node19"><a xlink:title=" ">
<polygon fill="none" stroke="#bfbfbf" points="863,-246.5 863,-265.5 919,-265.5 919,-246.5 863,-246.5"/>
<text text-anchor="middle" x="891" y="-253.5" font-family="Helvetica,sans-Serif" font-size="10.00">sstream</text>
</a>
</g>
</g>
<!-- Node1&#45;&gt;Node19 -->
<g id="edge18" class="edge">
<title>Node1&#45;&gt;Node19</title>
<path fill="none" stroke="midnightblue" d="M719.04,-302.47C760.25,-291.58 816.39,-276.73 853.15,-267.01"/>
<polygon fill="midnightblue" stroke="midnightblue" points="854.21,-270.35 862.98,-264.41 852.42,-263.58 854.21,-270.35"/>
</g>
<!-- Node20 -->
<g id="node20" class="node">
<title>Node20</title>
<g id="a_node20"><a xlink:title=" ">
<polygon fill="none" stroke="#bfbfbf" points="937,-246.5 937,-265.5 981,-265.5 981,-246.5 937,-246.5"/>
<text text-anchor="middle" x="959" y="-253.5" font-family="Helvetica,sans-Serif" font-size="10.00">regex</text>
</a>
</g>
</g>
<!-- Node1&#45;&gt;Node20 -->
<g id="edge21" class="edge">
<title>Node1&#45;&gt;Node20</title>
<path fill="none" stroke="midnightblue" d="M736.16,-304.79C786.76,-295.92 856.85,-282.79 926.84,-266.11"/>
<polygon fill="midnightblue" stroke="midnightblue" points="927.81,-269.48 936.71,-263.74 926.17,-262.67 927.81,-269.48"/>
</g>
<!-- Node3 -->
<g id="node3" class="node">
<title>Node3</title>
<g id="a_node3"><a xlink:href="../../d6/d34/_gcc_compile_log_issue_report_convertor_8hpp.html" target="_top" xlink:title=" ">
<polygon fill="none" stroke="black" points="222,-179.5 222,-209.5 378,-209.5 378,-179.5 222,-179.5"/>
<text text-anchor="start" x="230" y="-197.5" font-family="Helvetica,sans-Serif" font-size="10.00">./GccCompileLogIssueReport</text>
<text text-anchor="middle" x="300" y="-186.5" font-family="Helvetica,sans-Serif" font-size="10.00">Convertor.hpp</text>
</a>
</g>
</g>
<!-- Node2&#45;&gt;Node3 -->
<g id="edge2" class="edge">
<title>Node2&#45;&gt;Node3</title>
<path fill="none" stroke="midnightblue" d="M300,-246.48C300,-239.47 300,-229.19 300,-219.7"/>
<polygon fill="midnightblue" stroke="midnightblue" points="303.5,-219.52 300,-209.52 296.5,-219.52 303.5,-219.52"/>
</g>
<!-- Node4 -->
<g id="node4" class="node">
<title>Node4</title>
<g id="a_node4"><a xlink:href="../../da/db7/_issue_report_convertor_8hpp.html" target="_top" xlink:title=" ">
<polygon fill="none" stroke="black" points="225.5,-123.5 225.5,-142.5 374.5,-142.5 374.5,-123.5 225.5,-123.5"/>
<text text-anchor="middle" x="300" y="-130.5" font-family="Helvetica,sans-Serif" font-size="10.00">./IssueReportConvertor.hpp</text>
</a>
</g>
</g>
<!-- Node3&#45;&gt;Node4 -->
<g id="edge3" class="edge">
<title>Node3&#45;&gt;Node4</title>
<path fill="none" stroke="midnightblue" d="M300,-179.4C300,-171.47 300,-161.46 300,-152.86"/>
<polygon fill="midnightblue" stroke="midnightblue" points="303.5,-152.66 300,-142.66 296.5,-152.66 303.5,-152.66"/>
</g>
<!-- Node5 -->
<g id="node5" class="node">
<title>Node5</title>
<g id="a_node5"><a xlink:href="../../d7/d34/_report_convertor_8hpp.html" target="_top" xlink:title=" ">
<polygon fill="none" stroke="black" points="236.5,-67.5 236.5,-86.5 359.5,-86.5 359.5,-67.5 236.5,-67.5"/>
<text text-anchor="middle" x="298" y="-74.5" font-family="Helvetica,sans-Serif" font-size="10.00">./ReportConvertor.hpp</text>
</a>
</g>
</g>
<!-- Node4&#45;&gt;Node5 -->
<g id="edge4" class="edge">
<title>Node4&#45;&gt;Node5</title>
<path fill="none" stroke="midnightblue" d="M299.67,-123.08C299.41,-116.01 299.03,-105.86 298.7,-96.99"/>
<polygon fill="midnightblue" stroke="midnightblue" points="302.19,-96.61 298.32,-86.75 295.2,-96.87 302.19,-96.61"/>
</g>
<!-- Node4&#45;&gt;Node11 -->
<g id="edge10" class="edge">
<title>Node4&#45;&gt;Node11</title>
<path fill="none" stroke="midnightblue" d="M317.35,-123.32C334.67,-114.66 361.52,-101.24 381.5,-91.25"/>
<polygon fill="midnightblue" stroke="midnightblue" points="383.31,-94.26 390.69,-86.65 380.18,-88 383.31,-94.26"/>
</g>
<!-- Node6 -->
<g id="node6" class="node">
<title>Node6</title>
<g id="a_node6"><a xlink:title=" ">
<polygon fill="none" stroke="#bfbfbf" points="368.5,-6 368.5,-25 433.5,-25 433.5,-6 368.5,-6"/>
<text text-anchor="middle" x="401" y="-13" font-family="Helvetica,sans-Serif" font-size="10.00">functional</text>
</a>
</g>
</g>
<!-- Node5&#45;&gt;Node6 -->
<g id="edge5" class="edge">
<title>Node5&#45;&gt;Node6</title>
<path fill="none" stroke="midnightblue" d="M312.76,-67.48C329.66,-57.71 357.58,-41.58 377.49,-30.08"/>
<polygon fill="midnightblue" stroke="midnightblue" points="379.36,-33.04 386.27,-25.01 375.86,-26.98 379.36,-33.04"/>
</g>
<!-- Node5&#45;&gt;Node7 -->
<g id="edge6" class="edge">
<title>Node5&#45;&gt;Node7</title>
<path fill="none" stroke="midnightblue" d="M332.17,-67.46C361.8,-59.55 405.54,-46.66 442,-31 443,-30.57 444.01,-30.12 445.02,-29.64"/>
<polygon fill="midnightblue" stroke="midnightblue" points="446.68,-32.72 453.96,-25.02 443.47,-26.5 446.68,-32.72"/>
</g>
<!-- Node8 -->
<g id="node8" class="node">
<title>Node8</title>
<g id="a_node8"><a xlink:title=" ">
<polygon fill="none" stroke="#bfbfbf" points="0,-6 0,-25 58,-25 58,-6 0,-6"/>
<text text-anchor="middle" x="29" y="-13" font-family="Helvetica,sans-Serif" font-size="10.00">memory</text>
</a>
</g>
</g>
<!-- Node5&#45;&gt;Node8 -->
<g id="edge7" class="edge">
<title>Node5&#45;&gt;Node8</title>
<path fill="none" stroke="midnightblue" d="M239.44,-67.45C192.34,-59.9 124.75,-47.51 67,-31 64.42,-30.26 61.76,-29.42 59.11,-28.53"/>
<polygon fill="midnightblue" stroke="midnightblue" points="60.28,-25.23 49.69,-25.13 57.91,-31.81 60.28,-25.23"/>
</g>
<!-- Node9 -->
<g id="node9" class="node">
<title>Node9</title>
<g id="a_node9"><a xlink:title=" ">
<polygon fill="none" stroke="#bfbfbf" points="76.5,-6 76.5,-25 219.5,-25 219.5,-6 76.5,-6"/>
<text text-anchor="middle" x="148" y="-13" font-family="Helvetica,sans-Serif" font-size="10.00">boost/filesystem/path.hpp</text>
</a>
</g>
</g>
<!-- Node5&#45;&gt;Node9 -->
<g id="edge8" class="edge">
<title>Node5&#45;&gt;Node9</title>
<path fill="none" stroke="midnightblue" d="M276.51,-67.48C250.89,-57.31 207.89,-40.26 178.76,-28.7"/>
<polygon fill="midnightblue" stroke="midnightblue" points="180.04,-25.44 169.45,-25.01 177.46,-31.95 180.04,-25.44"/>
</g>
<!-- Node10 -->
<g id="node10" class="node">
<title>Node10</title>
<g id="a_node10"><a xlink:title=" ">
<polygon fill="none" stroke="#bfbfbf" points="237.5,-0.5 237.5,-30.5 350.5,-30.5 350.5,-0.5 237.5,-0.5"/>
<text text-anchor="start" x="245.5" y="-18.5" font-family="Helvetica,sans-Serif" font-size="10.00">boost/property_tree</text>
<text text-anchor="middle" x="294" y="-7.5" font-family="Helvetica,sans-Serif" font-size="10.00">/ptree.hpp</text>
</a>
</g>
</g>
<!-- Node5&#45;&gt;Node10 -->
<g id="edge9" class="edge">
<title>Node5&#45;&gt;Node10</title>
<path fill="none" stroke="midnightblue" d="M297.43,-67.48C296.96,-60.47 296.27,-50.19 295.63,-40.7"/>
<polygon fill="midnightblue" stroke="midnightblue" points="299.11,-40.27 294.94,-30.52 292.12,-40.74 299.11,-40.27"/>
</g>
<!-- Node13 -->
<g id="node13" class="node">
<title>Node13</title>
<g id="a_node13"><a xlink:href="../../d1/dfa/_cpp_coso_exception_8hpp.html" target="_top" xlink:title=" ">
<polygon fill="none" stroke="black" points="529,-185 529,-204 663,-204 663,-185 529,-185"/>
<text text-anchor="middle" x="596" y="-192" font-family="Helvetica,sans-Serif" font-size="10.00">./CppCosoException.hpp</text>
</a>
</g>
</g>
<!-- Node12&#45;&gt;Node13 -->
<g id="edge12" class="edge">
<title>Node12&#45;&gt;Node13</title>
<path fill="none" stroke="midnightblue" d="M593.43,-246.48C593.85,-238.08 594.51,-224.98 595.06,-214.16"/>
<polygon fill="midnightblue" stroke="midnightblue" points="598.56,-214.17 595.57,-204.01 591.57,-213.82 598.56,-214.17"/>
</g>
<!-- Node14 -->
<g id="node14" class="node">
<title>Node14</title>
<g id="a_node14"><a xlink:title=" ">
<polygon fill="none" stroke="#bfbfbf" points="493.5,-123.5 493.5,-142.5 558.5,-142.5 558.5,-123.5 493.5,-123.5"/>
<text text-anchor="middle" x="526" y="-130.5" font-family="Helvetica,sans-Serif" font-size="10.00">exception</text>
</a>
</g>
</g>
<!-- Node13&#45;&gt;Node14 -->
<g id="edge13" class="edge">
<title>Node13&#45;&gt;Node14</title>
<path fill="none" stroke="midnightblue" d="M585.97,-184.98C574.95,-175.61 557.04,-160.38 543.66,-149.01"/>
<polygon fill="midnightblue" stroke="midnightblue" points="545.9,-146.32 536.01,-142.51 541.36,-151.65 545.9,-146.32"/>
</g>
<!-- Node15 -->
<g id="node15" class="node">
<title>Node15</title>
<g id="a_node15"><a xlink:title=" ">
<polygon fill="none" stroke="#bfbfbf" points="577,-123.5 577,-142.5 621,-142.5 621,-123.5 577,-123.5"/>
<text text-anchor="middle" x="599" y="-130.5" font-family="Helvetica,sans-Serif" font-size="10.00">string</text>
</a>
</g>
</g>
<!-- Node13&#45;&gt;Node15 -->
<g id="edge14" class="edge">
<title>Node13&#45;&gt;Node15</title>
<path fill="none" stroke="midnightblue" d="M596.43,-184.98C596.85,-176.58 597.51,-163.48 598.06,-152.66"/>
<polygon fill="midnightblue" stroke="midnightblue" points="601.56,-152.67 598.57,-142.51 594.57,-152.32 601.56,-152.67"/>
</g>
<!-- Node16 -->
<g id="node16" class="node">
<title>Node16</title>
<g id="a_node16"><a xlink:title=" ">
<polygon fill="none" stroke="#bfbfbf" points="639.5,-123.5 639.5,-142.5 712.5,-142.5 712.5,-123.5 639.5,-123.5"/>
<text text-anchor="middle" x="676" y="-130.5" font-family="Helvetica,sans-Serif" font-size="10.00">string_view</text>
</a>
</g>
</g>
<!-- Node13&#45;&gt;Node16 -->
<g id="edge15" class="edge">
<title>Node13&#45;&gt;Node16</title>
<path fill="none" stroke="midnightblue" d="M607.46,-184.98C620.17,-175.52 640.91,-160.1 656.25,-148.69"/>
<polygon fill="midnightblue" stroke="midnightblue" points="658.62,-151.29 664.56,-142.51 654.45,-145.67 658.62,-151.29"/>
</g>
</g>
</svg>
