<?xml version="1.0" encoding="UTF-8" standalone="no"?>
<!DOCTYPE svg PUBLIC "-//W3C//DTD SVG 1.1//EN"
 "http://www.w3.org/Graphics/SVG/1.1/DTD/svg11.dtd">
<!-- Generated by graphviz version 2.43.0 (0)
 -->
<!-- Title: main Pages: 1 -->
<!--zoomable 259 -->
<svg id="main" version="1.1" xmlns="http://www.w3.org/2000/svg" xmlns:xlink="http://www.w3.org/1999/xlink" xml:space="preserve" onload="init(evt)">
<style type="text/css"><![CDATA[
.edge:hover path { stroke: red; }
.edge:hover polygon { stroke: red; fill: red; }
]]></style>
<script type="text/javascript"><![CDATA[
var edges = document.getElementsByTagName('g');
if (edges && edges.length) {
  for (var i=0;i<edges.length;i++) {
    if (edges[i].id.substr(0,4)=='edge') {
      edges[i].setAttribute('class','edge');
    }
  }
}
]]></script>
        <defs>
                <circle id="rim" cx="0" cy="0" r="7"/>
                <circle id="rim2" cx="0" cy="0" r="3.5"/>
                <g id="zoomPlus">
                        <use xlink:href="#rim" fill="#404040">
                                <set attributeName="fill" to="#808080" begin="zoomplus.mouseover" end="zoomplus.mouseout"/>
                        </use>
                        <path d="M-4,0h8M0,-4v8" fill="none" stroke="white" stroke-width="1.5" pointer-events="none"/>
                </g>
                <g id="zoomMin">
                        <use xlink:href="#rim" fill="#404040">
                                <set attributeName="fill" to="#808080" begin="zoomminus.mouseover" end="zoomminus.mouseout"/>
                        </use>
                        <path d="M-4,0h8" fill="none" stroke="white" stroke-width="1.5" pointer-events="none"/>
                </g>
                <g id="dirArrow">
                        <path fill="none" stroke="white" stroke-width="1.5" d="M0,-3.0v7 M-2.5,-0.5L0,-3.0L2.5,-0.5"/>
                </g>
               <g id="resetDef">
                       <use xlink:href="#rim2" fill="#404040">
                               <set attributeName="fill" to="#808080" begin="reset.mouseover" end="reset.mouseout"/>
                       </use>
               </g>
        </defs>

<script type="text/javascript">
var viewWidth = 712;
var viewHeight = 259;
var sectionId = 'dynsection-1';
</script>
<script xlink:href="../../svgpan.js"/>
<svg id="graph" class="graph">
<g id="viewport">
<title>main</title>
<!-- Node1 -->
<g id="node1" class="node">
<title>Node1</title>
<g id="a_node1"><a xlink:title="entry of application">
<polygon fill="#bfbfbf" stroke="black" points="0,-104 0,-123 41,-123 41,-104 0,-104"/>
<text text-anchor="middle" x="20.5" y="-111" font-family="Helvetica,sans-Serif" font-size="10.00">main</text>
</a>
</g>
</g>
<!-- Node2 -->
<g id="node2" class="node">
<title>Node2</title>
<g id="a_node2"><a xlink:href="../../de/d6b/class_application.html#a7a5f0d21081c19b16f0038f0ce1477a4" target="_top" xlink:title="Method to run application.">
<polygon fill="none" stroke="black" points="77,-104 77,-123 170,-123 170,-104 77,-104"/>
<text text-anchor="middle" x="123.5" y="-111" font-family="Helvetica,sans-Serif" font-size="10.00">Application::run</text>
</a>
</g>
</g>
<!-- Node1&#45;&gt;Node2 -->
<g id="edge1" class="edge">
<title>Node1&#45;&gt;Node2</title>
<path fill="none" stroke="midnightblue" d="M41.45,-113.5C48.81,-113.5 57.54,-113.5 66.51,-113.5"/>
<polygon fill="midnightblue" stroke="midnightblue" points="66.67,-117 76.67,-113.5 66.67,-110 66.67,-117"/>
</g>
<!-- Node3 -->
<g id="node3" class="node">
<title>Node3</title>
<g id="a_node3"><a xlink:href="../../de/dc0/class_test_convertor.html#a9a144655dc1d0174593b9d8c16d1f44d" target="_top" xlink:title="Function to convert unified boost report to sonar generic report.">
<polygon fill="none" stroke="black" points="218.5,-196.5 218.5,-226.5 373.5,-226.5 373.5,-196.5 218.5,-196.5"/>
<text text-anchor="start" x="226.5" y="-214.5" font-family="Helvetica,sans-Serif" font-size="10.00">TestConvertor::boostReports</text>
<text text-anchor="middle" x="296" y="-203.5" font-family="Helvetica,sans-Serif" font-size="10.00">ToSonarReport</text>
</a>
</g>
</g>
<!-- Node2&#45;&gt;Node3 -->
<g id="edge2" class="edge">
<title>Node2&#45;&gt;Node3</title>
<path fill="none" stroke="midnightblue" d="M132.45,-123.25C145.92,-139.11 174.81,-170.45 206,-187.5 209.28,-189.29 212.71,-190.96 216.22,-192.51"/>
<polygon fill="midnightblue" stroke="midnightblue" points="215.11,-195.84 225.7,-196.33 217.73,-189.34 215.11,-195.84"/>
</g>
<!-- Node7 -->
<g id="node7" class="node">
<title>Node7</title>
<g id="a_node7"><a xlink:href="../../d2/d59/class_clang_tidy_issue_report_convertor.html#ab4e324abfed9eda9a0a5ce01c458b197" target="_top" xlink:title="Get instance of singleton ClangTidyIssueReportConvertor.">
<polygon fill="none" stroke="black" points="210.5,-147.5 210.5,-177.5 381.5,-177.5 381.5,-147.5 210.5,-147.5"/>
<text text-anchor="start" x="218.5" y="-165.5" font-family="Helvetica,sans-Serif" font-size="10.00">ClangTidyIssueReportConvertor</text>
<text text-anchor="middle" x="296" y="-154.5" font-family="Helvetica,sans-Serif" font-size="10.00">::getInstance</text>
</a>
</g>
</g>
<!-- Node2&#45;&gt;Node7 -->
<g id="edge6" class="edge">
<title>Node2&#45;&gt;Node7</title>
<path fill="none" stroke="midnightblue" d="M154.62,-123.01C169.96,-127.78 188.93,-133.58 206,-138.5 213.16,-140.56 220.67,-142.67 228.15,-144.74"/>
<polygon fill="midnightblue" stroke="midnightblue" points="227.38,-148.16 237.95,-147.43 229.23,-141.4 227.38,-148.16"/>
</g>
<!-- Node8 -->
<g id="node8" class="node">
<title>Node8</title>
<g id="a_node8"><a xlink:href="../../d7/d9a/class_cpp_check_issue_report_convertor.html#aec3ad540f1aa46463462c66ff6f9fc77" target="_top" xlink:title="Get instance of singleton CppCheckIssueReportConvertor.">
<polygon fill="none" stroke="black" points="210.5,-98.5 210.5,-128.5 381.5,-128.5 381.5,-98.5 210.5,-98.5"/>
<text text-anchor="start" x="218.5" y="-116.5" font-family="Helvetica,sans-Serif" font-size="10.00">CppCheckIssueReportConvertor</text>
<text text-anchor="middle" x="296" y="-105.5" font-family="Helvetica,sans-Serif" font-size="10.00">::getInstance</text>
</a>
</g>
</g>
<!-- Node2&#45;&gt;Node8 -->
<g id="edge7" class="edge">
<title>Node2&#45;&gt;Node8</title>
<path fill="none" stroke="midnightblue" d="M170.19,-113.5C179.61,-113.5 189.86,-113.5 200.29,-113.5"/>
<polygon fill="midnightblue" stroke="midnightblue" points="200.34,-117 210.34,-113.5 200.34,-110 200.34,-117"/>
</g>
<!-- Node9 -->
<g id="node9" class="node">
<title>Node9</title>
<g id="a_node9"><a xlink:href="../../d0/d54/class_gcc_compile_warning_issue_report_convertor.html#a17fbe0869d88d1607116e92159c290d8" target="_top" xlink:title="Get instance of singleton GccCompileWarningIssueReportConvertor.">
<polygon fill="none" stroke="black" points="209.5,-49.5 209.5,-79.5 382.5,-79.5 382.5,-49.5 209.5,-49.5"/>
<text text-anchor="start" x="217.5" y="-67.5" font-family="Helvetica,sans-Serif" font-size="10.00">GccCompileWarningIssueReport</text>
<text text-anchor="middle" x="296" y="-56.5" font-family="Helvetica,sans-Serif" font-size="10.00">Convertor::getInstance</text>
</a>
</g>
</g>
<!-- Node2&#45;&gt;Node9 -->
<g id="edge8" class="edge">
<title>Node2&#45;&gt;Node9</title>
<path fill="none" stroke="midnightblue" d="M156.6,-103.95C171.6,-99.51 189.7,-94.19 206,-89.5 214.09,-87.17 222.61,-84.75 231.03,-82.37"/>
<polygon fill="midnightblue" stroke="midnightblue" points="232.17,-85.68 240.84,-79.6 230.27,-78.94 232.17,-85.68"/>
</g>
<!-- Node10 -->
<g id="node10" class="node">
<title>Node10</title>
<g id="a_node10"><a xlink:href="../../d5/d8e/class_mvsc_compile_warning_issue_report_convertor.html#abf937889738b80b82898a6bb8360cae6" target="_top" xlink:title="Get instance of singleton MvscCompileWarningIssueReportConvertor.">
<polygon fill="none" stroke="black" points="206,-0.5 206,-30.5 386,-30.5 386,-0.5 206,-0.5"/>
<text text-anchor="start" x="214" y="-18.5" font-family="Helvetica,sans-Serif" font-size="10.00">MvscCompileWarningIssueReport</text>
<text text-anchor="middle" x="296" y="-7.5" font-family="Helvetica,sans-Serif" font-size="10.00">Convertor::getInstance</text>
</a>
</g>
</g>
<!-- Node2&#45;&gt;Node10 -->
<g id="edge9" class="edge">
<title>Node2&#45;&gt;Node10</title>
<path fill="none" stroke="midnightblue" d="M132.5,-103.92C146.04,-88.34 175.03,-57.51 206,-40.5 210.18,-38.21 214.58,-36.11 219.11,-34.19"/>
<polygon fill="midnightblue" stroke="midnightblue" points="220.49,-37.41 228.52,-30.51 217.94,-30.89 220.49,-37.41"/>
</g>
<!-- Node4 -->
<g id="node4" class="node">
<title>Node4</title>
<g id="a_node4"><a xlink:href="../../de/dc0/class_test_convertor.html#abc25ae29b63f0d501f322f31c2077c57" target="_top" xlink:title="method to extract data case from log result test report to convert to sonarqube report">
<polygon fill="none" stroke="black" points="422,-220.5 422,-250.5 571,-250.5 571,-220.5 422,-220.5"/>
<text text-anchor="start" x="430" y="-238.5" font-family="Helvetica,sans-Serif" font-size="10.00">TestConvertor::extractCase</text>
<text text-anchor="middle" x="496.5" y="-227.5" font-family="Helvetica,sans-Serif" font-size="10.00">Datas</text>
</a>
</g>
</g>
<!-- Node3&#45;&gt;Node4 -->
<g id="edge3" class="edge">
<title>Node3&#45;&gt;Node4</title>
<path fill="none" stroke="midnightblue" d="M373.75,-220.78C386.23,-222.29 399.21,-223.86 411.85,-225.39"/>
<polygon fill="midnightblue" stroke="midnightblue" points="411.55,-228.87 421.89,-226.6 412.39,-221.93 411.55,-228.87"/>
</g>
<!-- Node5 -->
<g id="node5" class="node">
<title>Node5</title>
<g id="a_node5"><a xlink:href="../../de/dc0/class_test_convertor.html#a48e3841031ac5a40c45588a2aef67a5b" target="_top" xlink:title="Save the Result of test in Map object.">
<polygon fill="none" stroke="black" points="422.5,-171.5 422.5,-201.5 570.5,-201.5 570.5,-171.5 422.5,-171.5"/>
<text text-anchor="start" x="430.5" y="-189.5" font-family="Helvetica,sans-Serif" font-size="10.00">TestConvertor::provideMap</text>
<text text-anchor="middle" x="496.5" y="-178.5" font-family="Helvetica,sans-Serif" font-size="10.00">ResultTests</text>
</a>
</g>
</g>
<!-- Node3&#45;&gt;Node5 -->
<g id="edge4" class="edge">
<title>Node3&#45;&gt;Node5</title>
<path fill="none" stroke="midnightblue" d="M373.75,-201.83C386.31,-200.25 399.39,-198.6 412.11,-197"/>
<polygon fill="midnightblue" stroke="midnightblue" points="412.73,-200.45 422.22,-195.73 411.86,-193.51 412.73,-200.45"/>
</g>
<!-- Node6 -->
<g id="node6" class="node">
<title>Node6</title>
<g id="a_node6"><a xlink:href="../../d9/d04/_test_convertor_8cpp.html#a97c6c231c4c9a339e925921214c7f595" target="_top" xlink:title="map to convert boost test node name to sonar test result leveling">
<polygon fill="none" stroke="black" points="607,-177 607,-196 704,-196 704,-177 607,-177"/>
<text text-anchor="middle" x="655.5" y="-184" font-family="Helvetica,sans-Serif" font-size="10.00">boostSonarState</text>
</a>
</g>
</g>
<!-- Node5&#45;&gt;Node6 -->
<g id="edge5" class="edge">
<title>Node5&#45;&gt;Node6</title>
<path fill="none" stroke="midnightblue" d="M570.94,-186.5C579.57,-186.5 588.27,-186.5 596.64,-186.5"/>
<polygon fill="midnightblue" stroke="midnightblue" points="596.66,-190 606.66,-186.5 596.66,-183 596.66,-190"/>
</g>
</g>
</svg>
        <g id="navigator" transform="translate(0 0)" fill="#404254">
                <rect fill="#f2f5e9" fill-opacity="0.5" stroke="#606060" stroke-width=".5" x="0" y="0" width="60" height="60"/>
                <use id="zoomplus" xlink:href="#zoomPlus" x="17" y="9" onmousedown="handleZoom(evt,'in')"/>
                <use id="zoomminus" xlink:href="#zoomMin" x="42" y="9" onmousedown="handleZoom(evt,'out')"/>
                <use id="reset" xlink:href="#resetDef" x="30" y="36" onmousedown="handleReset()"/>
                <g id="arrowUp" xlink:href="#dirArrow" transform="translate(30 24)" onmousedown="handlePan(0,-1)">
                  <use xlink:href="#rim" fill="#404040">
                        <set attributeName="fill" to="#808080" begin="arrowUp.mouseover" end="arrowUp.mouseout"/>
                  </use>
                  <path fill="none" stroke="white" stroke-width="1.5" d="M0,-3.0v7 M-2.5,-0.5L0,-3.0L2.5,-0.5"/>
                </g>
                <g id="arrowRight" xlink:href="#dirArrow" transform="rotate(90) translate(36 -43)" onmousedown="handlePan(1,0)">
                  <use xlink:href="#rim" fill="#404040">
                        <set attributeName="fill" to="#808080" begin="arrowRight.mouseover" end="arrowRight.mouseout"/>
                  </use>
                  <path fill="none" stroke="white" stroke-width="1.5" d="M0,-3.0v7 M-2.5,-0.5L0,-3.0L2.5,-0.5"/>
                </g>
                <g id="arrowDown" xlink:href="#dirArrow" transform="rotate(180) translate(-30 -48)" onmousedown="handlePan(0,1)">
                  <use xlink:href="#rim" fill="#404040">
                        <set attributeName="fill" to="#808080" begin="arrowDown.mouseover" end="arrowDown.mouseout"/>
                  </use>
                  <path fill="none" stroke="white" stroke-width="1.5" d="M0,-3.0v7 M-2.5,-0.5L0,-3.0L2.5,-0.5"/>
                </g>
                <g id="arrowLeft" xlink:href="#dirArrow" transform="rotate(270) translate(-36 17)" onmousedown="handlePan(-1,0)">
                  <use xlink:href="#rim" fill="#404040">
                        <set attributeName="fill" to="#808080" begin="arrowLeft.mouseover" end="arrowLeft.mouseout"/>
                  </use>
                  <path fill="none" stroke="white" stroke-width="1.5" d="M0,-3.0v7 M-2.5,-0.5L0,-3.0L2.5,-0.5"/>
                </g>
        </g>
        <svg viewBox="0 0 15 15" width="100%" height="30px" preserveAspectRatio="xMaxYMin meet">
         <g id="arrow_out" transform="scale(0.3 0.3)">
          <a xlink:href="main_8cpp_a1e53c4c3470ded40a0119755a8456f2a_cgraph_org.svg" target="_base">
           <rect id="button" ry="5" rx="5" y="6" x="6" height="38" width="38"
                fill="#f2f5e9" fill-opacity="0.5" stroke="#606060" stroke-width="1.0"/>
           <path id="arrow"
             d="M 11.500037,31.436501 C 11.940474,20.09759 22.043105,11.32322 32.158766,21.979434 L 37.068811,17.246167 C 37.068811,17.246167 37.088388,32 37.088388,32 L 22.160133,31.978069 C 22.160133,31.978069 26.997745,27.140456 26.997745,27.140456 C 18.528582,18.264221 13.291696,25.230495 11.500037,31.436501 z"
             style="fill:#404040;"/>
          </a>
         </g>
        </svg>
</svg>
