<?xml version="1.0" encoding="UTF-8" standalone="no"?>
<!DOCTYPE svg PUBLIC "-//W3C//DTD SVG 1.1//EN"
 "http://www.w3.org/Graphics/SVG/1.1/DTD/svg11.dtd">
<!-- Generated by graphviz version 2.43.0 (0)
 -->
<!-- Title: src/report/convertor.cpp Pages: 1 -->
<svg width="679pt" height="162pt"
 viewBox="0.00 0.00 678.50 162.00" xmlns="http://www.w3.org/2000/svg" xmlns:xlink="http://www.w3.org/1999/xlink">
<g id="graph0" class="graph" transform="scale(1 1) rotate(0) translate(4 158)">
<title>src/report/convertor.cpp</title>
<!-- Node1 -->
<g id="node1" class="node">
<title>Node1</title>
<g id="a_node1"><a xlink:title=" ">
<polygon fill="#bfbfbf" stroke="black" points="370.5,-134.5 370.5,-153.5 502.5,-153.5 502.5,-134.5 370.5,-134.5"/>
<text text-anchor="middle" x="436.5" y="-141.5" font-family="Helvetica,sans-Serif" font-size="10.00">src/report/convertor.cpp</text>
</a>
</g>
</g>
<!-- Node2 -->
<g id="node2" class="node">
<title>Node2</title>
<g id="a_node2"><a xlink:href="../../db/d35/convertor_8hpp.html" target="_top" xlink:title=" ">
<polygon fill="none" stroke="black" points="63,-73 63,-92 146,-92 146,-73 63,-73"/>
<text text-anchor="middle" x="104.5" y="-80" font-family="Helvetica,sans-Serif" font-size="10.00">convertor.hpp</text>
</a>
</g>
</g>
<!-- Node1&#45;&gt;Node2 -->
<g id="edge1" class="edge">
<title>Node1&#45;&gt;Node2</title>
<path fill="none" stroke="midnightblue" d="M370.22,-134.64C313.02,-126.89 228.34,-114.13 155.5,-98 151.08,-97.02 146.48,-95.89 141.93,-94.69"/>
<polygon fill="midnightblue" stroke="midnightblue" points="142.71,-91.27 132.14,-92 140.86,-98.02 142.71,-91.27"/>
</g>
<!-- Node5 -->
<g id="node5" class="node">
<title>Node5</title>
<g id="a_node5"><a xlink:title=" ">
<polygon fill="none" stroke="#bfbfbf" points="164,-67.5 164,-97.5 277,-97.5 277,-67.5 164,-67.5"/>
<text text-anchor="start" x="172" y="-85.5" font-family="Helvetica,sans-Serif" font-size="10.00">boost/property_tree</text>
<text text-anchor="middle" x="220.5" y="-74.5" font-family="Helvetica,sans-Serif" font-size="10.00">/xml_parser.hpp</text>
</a>
</g>
</g>
<!-- Node1&#45;&gt;Node5 -->
<g id="edge4" class="edge">
<title>Node1&#45;&gt;Node5</title>
<path fill="none" stroke="midnightblue" d="M405.55,-134.48C373.22,-125.57 321.67,-111.37 281.18,-100.22"/>
<polygon fill="midnightblue" stroke="midnightblue" points="281.98,-96.8 271.41,-97.52 280.12,-103.55 281.98,-96.8"/>
</g>
<!-- Node6 -->
<g id="node6" class="node">
<title>Node6</title>
<g id="a_node6"><a xlink:title=" ">
<polygon fill="none" stroke="#bfbfbf" points="295,-73 295,-92 350,-92 350,-73 295,-73"/>
<text text-anchor="middle" x="322.5" y="-80" font-family="Helvetica,sans-Serif" font-size="10.00">fstream</text>
</a>
</g>
</g>
<!-- Node1&#45;&gt;Node6 -->
<g id="edge5" class="edge">
<title>Node1&#45;&gt;Node6</title>
<path fill="none" stroke="midnightblue" d="M420.17,-134.48C401.29,-124.62 369.99,-108.29 347.92,-96.77"/>
<polygon fill="midnightblue" stroke="midnightblue" points="349.29,-93.53 338.8,-92.01 346.05,-99.74 349.29,-93.53"/>
</g>
<!-- Node7 -->
<g id="node7" class="node">
<title>Node7</title>
<g id="a_node7"><a xlink:title=" ">
<polygon fill="none" stroke="#bfbfbf" points="368.5,-73 368.5,-92 428.5,-92 428.5,-73 368.5,-73"/>
<text text-anchor="middle" x="398.5" y="-80" font-family="Helvetica,sans-Serif" font-size="10.00">iostream</text>
</a>
</g>
</g>
<!-- Node1&#45;&gt;Node7 -->
<g id="edge6" class="edge">
<title>Node1&#45;&gt;Node7</title>
<path fill="none" stroke="midnightblue" d="M431.06,-134.48C425.41,-125.64 416.44,-111.59 409.34,-100.48"/>
<polygon fill="midnightblue" stroke="midnightblue" points="412.27,-98.55 403.93,-92.01 406.37,-102.32 412.27,-98.55"/>
</g>
<!-- Node8 -->
<g id="node8" class="node">
<title>Node8</title>
<g id="a_node8"><a xlink:title=" ">
<polygon fill="none" stroke="#bfbfbf" points="446.5,-73 446.5,-92 502.5,-92 502.5,-73 446.5,-73"/>
<text text-anchor="middle" x="474.5" y="-80" font-family="Helvetica,sans-Serif" font-size="10.00">sstream</text>
</a>
</g>
</g>
<!-- Node1&#45;&gt;Node8 -->
<g id="edge7" class="edge">
<title>Node1&#45;&gt;Node8</title>
<path fill="none" stroke="midnightblue" d="M441.94,-134.48C447.59,-125.64 456.56,-111.59 463.66,-100.48"/>
<polygon fill="midnightblue" stroke="midnightblue" points="466.63,-102.32 469.07,-92.01 460.73,-98.55 466.63,-102.32"/>
</g>
<!-- Node9 -->
<g id="node9" class="node">
<title>Node9</title>
<g id="a_node9"><a xlink:title=" ">
<polygon fill="none" stroke="#bfbfbf" points="520.5,-73 520.5,-92 552.5,-92 552.5,-73 520.5,-73"/>
<text text-anchor="middle" x="536.5" y="-80" font-family="Helvetica,sans-Serif" font-size="10.00">list</text>
</a>
</g>
</g>
<!-- Node1&#45;&gt;Node9 -->
<g id="edge8" class="edge">
<title>Node1&#45;&gt;Node9</title>
<path fill="none" stroke="midnightblue" d="M450.83,-134.48C467.16,-124.75 494.1,-108.73 513.41,-97.24"/>
<polygon fill="midnightblue" stroke="midnightblue" points="515.39,-100.13 522.2,-92.01 511.82,-94.11 515.39,-100.13"/>
</g>
<!-- Node10 -->
<g id="node10" class="node">
<title>Node10</title>
<g id="a_node10"><a xlink:title=" ">
<polygon fill="none" stroke="#bfbfbf" points="570.5,-73 570.5,-92 608.5,-92 608.5,-73 570.5,-73"/>
<text text-anchor="middle" x="589.5" y="-80" font-family="Helvetica,sans-Serif" font-size="10.00">map</text>
</a>
</g>
</g>
<!-- Node1&#45;&gt;Node10 -->
<g id="edge9" class="edge">
<title>Node1&#45;&gt;Node10</title>
<path fill="none" stroke="midnightblue" d="M463.72,-134.36C489.32,-125.96 528.53,-112.4 561.5,-98 562.53,-97.55 563.57,-97.08 564.62,-96.6"/>
<polygon fill="midnightblue" stroke="midnightblue" points="566.55,-99.55 573.98,-92 563.46,-93.27 566.55,-99.55"/>
</g>
<!-- Node11 -->
<g id="node11" class="node">
<title>Node11</title>
<g id="a_node11"><a xlink:title=" ">
<polygon fill="none" stroke="#bfbfbf" points="626.5,-73 626.5,-92 670.5,-92 670.5,-73 626.5,-73"/>
<text text-anchor="middle" x="648.5" y="-80" font-family="Helvetica,sans-Serif" font-size="10.00">regex</text>
</a>
</g>
</g>
<!-- Node1&#45;&gt;Node11 -->
<g id="edge10" class="edge">
<title>Node1&#45;&gt;Node11</title>
<path fill="none" stroke="midnightblue" d="M481.1,-134.43C518.17,-126.72 572.02,-114.12 617.5,-98 619.12,-97.43 620.76,-96.8 622.41,-96.13"/>
<polygon fill="midnightblue" stroke="midnightblue" points="623.93,-99.29 631.69,-92.08 621.13,-92.88 623.93,-99.29"/>
</g>
<!-- Node3 -->
<g id="node3" class="node">
<title>Node3</title>
<g id="a_node3"><a xlink:title=" ">
<polygon fill="none" stroke="#bfbfbf" points="0,-0.5 0,-30.5 113,-30.5 113,-0.5 0,-0.5"/>
<text text-anchor="start" x="8" y="-18.5" font-family="Helvetica,sans-Serif" font-size="10.00">boost/property_tree</text>
<text text-anchor="middle" x="56.5" y="-7.5" font-family="Helvetica,sans-Serif" font-size="10.00">/ptree.hpp</text>
</a>
</g>
</g>
<!-- Node2&#45;&gt;Node3 -->
<g id="edge2" class="edge">
<title>Node2&#45;&gt;Node3</title>
<path fill="none" stroke="midnightblue" d="M98.03,-72.73C91.6,-64.03 81.49,-50.34 72.86,-38.65"/>
<polygon fill="midnightblue" stroke="midnightblue" points="75.66,-36.55 66.9,-30.59 70.03,-40.71 75.66,-36.55"/>
</g>
<!-- Node4 -->
<g id="node4" class="node">
<title>Node4</title>
<g id="a_node4"><a xlink:title=" ">
<polygon fill="none" stroke="#bfbfbf" points="131.5,-6 131.5,-25 175.5,-25 175.5,-6 131.5,-6"/>
<text text-anchor="middle" x="153.5" y="-13" font-family="Helvetica,sans-Serif" font-size="10.00">string</text>
</a>
</g>
</g>
<!-- Node2&#45;&gt;Node4 -->
<g id="edge3" class="edge">
<title>Node2&#45;&gt;Node4</title>
<path fill="none" stroke="midnightblue" d="M111.11,-72.73C118.68,-62.7 131.25,-46.01 140.74,-33.42"/>
<polygon fill="midnightblue" stroke="midnightblue" points="143.77,-35.22 147,-25.13 138.18,-31.01 143.77,-35.22"/>
</g>
</g>
</svg>
