<?xml version="1.0" encoding="UTF-8" standalone="no"?>
<!DOCTYPE svg PUBLIC "-//W3C//DTD SVG 1.1//EN"
 "http://www.w3.org/Graphics/SVG/1.1/DTD/svg11.dtd">
<!-- Generated by graphviz version 2.43.0 (0)
 -->
<!-- Title: ClangTidyIssueReportConvertor Pages: 1 -->
<svg width="324pt" height="680pt"
 viewBox="0.00 0.00 324.00 680.00" xmlns="http://www.w3.org/2000/svg" xmlns:xlink="http://www.w3.org/1999/xlink">
<g id="graph0" class="graph" transform="scale(1 1) rotate(0) translate(4 676)">
<title>ClangTidyIssueReportConvertor</title>
<!-- Node1 -->
<g id="node1" class="node">
<title>Node1</title>
<g id="a_node1"><a xlink:title="abstract class to convert issue report">
<polygon fill="#bfbfbf" stroke="black" points="42,-0.5 42,-134.5 240,-134.5 240,-0.5 42,-0.5"/>
<text text-anchor="middle" x="141" y="-122.5" font-family="Helvetica,sans-Serif" font-size="10.00">ClangTidyIssueReportConvertor</text>
<polyline fill="none" stroke="black" points="42,-115.5 240,-115.5 "/>
<text text-anchor="middle" x="141" y="-103.5" font-family="Helvetica,sans-Serif" font-size="10.00"> </text>
<polyline fill="none" stroke="black" points="42,-96.5 240,-96.5 "/>
<text text-anchor="start" x="50" y="-84.5" font-family="Helvetica,sans-Serif" font-size="10.00">+ ClangTidyIssueReportConvertor()</text>
<text text-anchor="start" x="50" y="-73.5" font-family="Helvetica,sans-Serif" font-size="10.00">+ ~ClangTidyIssueReportConvertor()</text>
<text text-anchor="start" x="50" y="-62.5" font-family="Helvetica,sans-Serif" font-size="10.00">+ ClangTidyIssueReportConvertor()</text>
<text text-anchor="start" x="50" y="-51.5" font-family="Helvetica,sans-Serif" font-size="10.00">+ ClangTidyIssueReportConvertor()</text>
<text text-anchor="start" x="50" y="-40.5" font-family="Helvetica,sans-Serif" font-size="10.00">+ operator=()</text>
<text text-anchor="start" x="50" y="-29.5" font-family="Helvetica,sans-Serif" font-size="10.00">+ operator=()</text>
<text text-anchor="start" x="50" y="-18.5" font-family="Helvetica,sans-Serif" font-size="10.00">+ getMappedIssueSeverity()</text>
<text text-anchor="start" x="50" y="-7.5" font-family="Helvetica,sans-Serif" font-size="10.00">+ getInstance()</text>
</a>
</g>
</g>
<!-- Node2 -->
<g id="node2" class="node">
<title>Node2</title>
<g id="a_node2"><a xlink:href="../../da/d9e/class_gcc_compile_log_issue_report_convertor.html" target="_top" xlink:title="abstract class to convert issue report">
<polygon fill="none" stroke="black" points="56,-172.5 56,-350.5 226,-350.5 226,-172.5 56,-172.5"/>
<text text-anchor="start" x="64" y="-338.5" font-family="Helvetica,sans-Serif" font-size="10.00">GccCompileLogIssueReport</text>
<text text-anchor="middle" x="141" y="-327.5" font-family="Helvetica,sans-Serif" font-size="10.00">Convertor</text>
<polyline fill="none" stroke="black" points="56,-320.5 226,-320.5 "/>
<text text-anchor="middle" x="141" y="-308.5" font-family="Helvetica,sans-Serif" font-size="10.00"> </text>
<polyline fill="none" stroke="black" points="56,-301.5 226,-301.5 "/>
<text text-anchor="start" x="64" y="-289.5" font-family="Helvetica,sans-Serif" font-size="10.00">+ GccCompileLogIssueReport</text>
<text text-anchor="start" x="64" y="-278.5" font-family="Helvetica,sans-Serif" font-size="10.00">Convertor()</text>
<text text-anchor="start" x="64" y="-267.5" font-family="Helvetica,sans-Serif" font-size="10.00">+ ~GccCompileLogIssueReport</text>
<text text-anchor="start" x="64" y="-256.5" font-family="Helvetica,sans-Serif" font-size="10.00">Convertor()</text>
<text text-anchor="start" x="64" y="-245.5" font-family="Helvetica,sans-Serif" font-size="10.00">+ GccCompileLogIssueReport</text>
<text text-anchor="start" x="64" y="-234.5" font-family="Helvetica,sans-Serif" font-size="10.00">Convertor()</text>
<text text-anchor="start" x="64" y="-223.5" font-family="Helvetica,sans-Serif" font-size="10.00">+ GccCompileLogIssueReport</text>
<text text-anchor="start" x="64" y="-212.5" font-family="Helvetica,sans-Serif" font-size="10.00">Convertor()</text>
<text text-anchor="start" x="64" y="-201.5" font-family="Helvetica,sans-Serif" font-size="10.00">+ operator=()</text>
<text text-anchor="start" x="64" y="-190.5" font-family="Helvetica,sans-Serif" font-size="10.00">+ operator=()</text>
<text text-anchor="start" x="64" y="-179.5" font-family="Helvetica,sans-Serif" font-size="10.00">+ getMappedIssueSeverity()</text>
</a>
</g>
</g>
<!-- Node2&#45;&gt;Node1 -->
<g id="edge1" class="edge">
<title>Node2&#45;&gt;Node1</title>
<path fill="none" stroke="midnightblue" d="M141,-162.21C141,-152.85 141,-143.51 141,-134.56"/>
<polygon fill="none" stroke="midnightblue" points="137.5,-162.37 141,-172.37 144.5,-162.37 137.5,-162.37"/>
</g>
<!-- Node3 -->
<g id="node3" class="node">
<title>Node3</title>
<g id="a_node3"><a xlink:href="../../db/de6/class_issue_report_convertor.html" target="_top" xlink:title="abstract class to convert issue report">
<polygon fill="none" stroke="black" points="66.5,-388.5 66.5,-500.5 215.5,-500.5 215.5,-388.5 66.5,-388.5"/>
<text text-anchor="middle" x="141" y="-488.5" font-family="Helvetica,sans-Serif" font-size="10.00">IssueReportConvertor</text>
<polyline fill="none" stroke="black" points="66.5,-481.5 215.5,-481.5 "/>
<text text-anchor="middle" x="141" y="-469.5" font-family="Helvetica,sans-Serif" font-size="10.00"> </text>
<polyline fill="none" stroke="black" points="66.5,-462.5 215.5,-462.5 "/>
<text text-anchor="start" x="74.5" y="-450.5" font-family="Helvetica,sans-Serif" font-size="10.00">+ IssueReportConvertor()</text>
<text text-anchor="start" x="74.5" y="-439.5" font-family="Helvetica,sans-Serif" font-size="10.00">+ ~IssueReportConvertor()</text>
<text text-anchor="start" x="74.5" y="-428.5" font-family="Helvetica,sans-Serif" font-size="10.00">+ IssueReportConvertor()</text>
<text text-anchor="start" x="74.5" y="-417.5" font-family="Helvetica,sans-Serif" font-size="10.00">+ IssueReportConvertor()</text>
<text text-anchor="start" x="74.5" y="-406.5" font-family="Helvetica,sans-Serif" font-size="10.00">+ operator=()</text>
<text text-anchor="start" x="74.5" y="-395.5" font-family="Helvetica,sans-Serif" font-size="10.00">+ operator=()</text>
</a>
</g>
</g>
<!-- Node3&#45;&gt;Node2 -->
<g id="edge2" class="edge">
<title>Node3&#45;&gt;Node2</title>
<path fill="none" stroke="midnightblue" d="M141,-378.01C141,-369.16 141,-359.97 141,-350.8"/>
<polygon fill="none" stroke="midnightblue" points="137.5,-378.21 141,-388.21 144.5,-378.21 137.5,-378.21"/>
</g>
<!-- Node4 -->
<g id="node4" class="node">
<title>Node4</title>
<g id="a_node4"><a xlink:href="../../df/dff/class_report_convertor.html" target="_top" xlink:title="abstract class to convert report">
<polygon fill="none" stroke="black" points="0,-548.5 0,-671.5 124,-671.5 124,-548.5 0,-548.5"/>
<text text-anchor="middle" x="62" y="-659.5" font-family="Helvetica,sans-Serif" font-size="10.00">ReportConvertor</text>
<polyline fill="none" stroke="black" points="0,-652.5 124,-652.5 "/>
<text text-anchor="middle" x="62" y="-640.5" font-family="Helvetica,sans-Serif" font-size="10.00"> </text>
<polyline fill="none" stroke="black" points="0,-633.5 124,-633.5 "/>
<text text-anchor="start" x="8" y="-621.5" font-family="Helvetica,sans-Serif" font-size="10.00">+ ReportConvertor()</text>
<text text-anchor="start" x="8" y="-610.5" font-family="Helvetica,sans-Serif" font-size="10.00">+ ~ReportConvertor()</text>
<text text-anchor="start" x="8" y="-599.5" font-family="Helvetica,sans-Serif" font-size="10.00">+ ReportConvertor()</text>
<text text-anchor="start" x="8" y="-588.5" font-family="Helvetica,sans-Serif" font-size="10.00">+ ReportConvertor()</text>
<text text-anchor="start" x="8" y="-577.5" font-family="Helvetica,sans-Serif" font-size="10.00">+ operator=()</text>
<text text-anchor="start" x="8" y="-566.5" font-family="Helvetica,sans-Serif" font-size="10.00">+ operator=()</text>
<text text-anchor="start" x="8" y="-555.5" font-family="Helvetica,sans-Serif" font-size="10.00">+ convert()</text>
</a>
</g>
</g>
<!-- Node4&#45;&gt;Node3 -->
<g id="edge3" class="edge">
<title>Node4&#45;&gt;Node3</title>
<path fill="none" stroke="midnightblue" d="M95.86,-538.92C102.03,-526.16 108.38,-513.02 114.3,-500.76"/>
<polygon fill="none" stroke="midnightblue" points="92.62,-537.59 91.42,-548.12 98.92,-540.64 92.62,-537.59"/>
</g>
<!-- Node5 -->
<g id="node5" class="node">
<title>Node5</title>
<g id="a_node5"><a xlink:title=" ">
<polygon fill="none" stroke="#bfbfbf" points="142.5,-576 142.5,-644 297.5,-644 297.5,-576 142.5,-576"/>
<text text-anchor="start" x="150.5" y="-632" font-family="Helvetica,sans-Serif" font-size="10.00">map&lt; ESonarCloudSeverity,</text>
<text text-anchor="middle" x="220" y="-621" font-family="Helvetica,sans-Serif" font-size="10.00"> std::string, std::less&lt;&gt; &gt;</text>
<polyline fill="none" stroke="#bfbfbf" points="142.5,-614 297.5,-614 "/>
<text text-anchor="middle" x="220" y="-602" font-family="Helvetica,sans-Serif" font-size="10.00"> </text>
<polyline fill="none" stroke="#bfbfbf" points="142.5,-595 297.5,-595 "/>
<text text-anchor="middle" x="220" y="-583" font-family="Helvetica,sans-Serif" font-size="10.00"> </text>
</a>
</g>
</g>
<!-- Node5&#45;&gt;Node3 -->
<g id="edge4" class="edge">
<title>Node5&#45;&gt;Node3</title>
<path fill="none" stroke="#404040" d="M204.01,-575.91C195.1,-557.47 183.68,-533.84 173.02,-511.77"/>
<polygon fill="none" stroke="#404040" points="172.92,-511.56 166.7,-507.89 167.7,-500.75 173.91,-504.41 172.92,-511.56"/>
<text text-anchor="middle" x="248.5" y="-522" font-family="Helvetica,sans-Serif" font-size="10.00"> +SonarCloudSeverityValue</text>
</g>
</g>
</svg>
