<?xml version="1.0" encoding="UTF-8" standalone="no"?>
<!DOCTYPE svg PUBLIC "-//W3C//DTD SVG 1.1//EN"
 "http://www.w3.org/Graphics/SVG/1.1/DTD/svg11.dtd">
<!-- Generated by graphviz version 2.43.0 (0)
 -->
<!-- Title: ReportConvertor Pages: 1 -->
<svg width="623pt" height="893pt"
 viewBox="0.00 0.00 623.00 893.00" xmlns="http://www.w3.org/2000/svg" xmlns:xlink="http://www.w3.org/1999/xlink">
<g id="graph0" class="graph" transform="scale(1 1) rotate(0) translate(4 889)">
<title>ReportConvertor</title>
<!-- Node1 -->
<g id="node1" class="node">
<title>Node1</title>
<g id="a_node1"><a xlink:title="abstract class to convert report">
<polygon fill="#bfbfbf" stroke="black" points="142,-761.5 142,-884.5 266,-884.5 266,-761.5 142,-761.5"/>
<text text-anchor="middle" x="204" y="-872.5" font-family="Helvetica,sans-Serif" font-size="10.00">ReportConvertor</text>
<polyline fill="none" stroke="black" points="142,-865.5 266,-865.5 "/>
<text text-anchor="middle" x="204" y="-853.5" font-family="Helvetica,sans-Serif" font-size="10.00"> </text>
<polyline fill="none" stroke="black" points="142,-846.5 266,-846.5 "/>
<text text-anchor="start" x="150" y="-834.5" font-family="Helvetica,sans-Serif" font-size="10.00">+ ReportConvertor()</text>
<text text-anchor="start" x="150" y="-823.5" font-family="Helvetica,sans-Serif" font-size="10.00">+ ~ReportConvertor()</text>
<text text-anchor="start" x="150" y="-812.5" font-family="Helvetica,sans-Serif" font-size="10.00">+ ReportConvertor()</text>
<text text-anchor="start" x="150" y="-801.5" font-family="Helvetica,sans-Serif" font-size="10.00">+ ReportConvertor()</text>
<text text-anchor="start" x="150" y="-790.5" font-family="Helvetica,sans-Serif" font-size="10.00">+ operator=()</text>
<text text-anchor="start" x="150" y="-779.5" font-family="Helvetica,sans-Serif" font-size="10.00">+ operator=()</text>
<text text-anchor="start" x="150" y="-768.5" font-family="Helvetica,sans-Serif" font-size="10.00">+ convert()</text>
</a>
</g>
</g>
<!-- Node2 -->
<g id="node2" class="node">
<title>Node2</title>
<g id="a_node2"><a xlink:href="../../db/de6/class_issue_report_convertor.html" target="_top" xlink:title="abstract class to convert issue report">
<polygon fill="none" stroke="black" points="128.5,-612.5 128.5,-724.5 279.5,-724.5 279.5,-612.5 128.5,-612.5"/>
<text text-anchor="middle" x="204" y="-712.5" font-family="Helvetica,sans-Serif" font-size="10.00">IssueReportConvertor</text>
<polyline fill="none" stroke="black" points="128.5,-705.5 279.5,-705.5 "/>
<text text-anchor="start" x="136.5" y="-693.5" font-family="Helvetica,sans-Serif" font-size="10.00">+ SonarCloudSeverityValue</text>
<polyline fill="none" stroke="black" points="128.5,-686.5 279.5,-686.5 "/>
<text text-anchor="start" x="136.5" y="-674.5" font-family="Helvetica,sans-Serif" font-size="10.00">+ IssueReportConvertor()</text>
<text text-anchor="start" x="136.5" y="-663.5" font-family="Helvetica,sans-Serif" font-size="10.00">+ ~IssueReportConvertor()</text>
<text text-anchor="start" x="136.5" y="-652.5" font-family="Helvetica,sans-Serif" font-size="10.00">+ IssueReportConvertor()</text>
<text text-anchor="start" x="136.5" y="-641.5" font-family="Helvetica,sans-Serif" font-size="10.00">+ IssueReportConvertor()</text>
<text text-anchor="start" x="136.5" y="-630.5" font-family="Helvetica,sans-Serif" font-size="10.00">+ operator=()</text>
<text text-anchor="start" x="136.5" y="-619.5" font-family="Helvetica,sans-Serif" font-size="10.00">+ operator=()</text>
</a>
</g>
</g>
<!-- Node1&#45;&gt;Node2 -->
<g id="edge1" class="edge">
<title>Node1&#45;&gt;Node2</title>
<path fill="none" stroke="midnightblue" d="M204,-751.25C204,-742.29 204,-733.23 204,-724.56"/>
<polygon fill="none" stroke="midnightblue" points="200.5,-751.29 204,-761.29 207.5,-751.29 200.5,-751.29"/>
</g>
<!-- Node3 -->
<g id="node3" class="node">
<title>Node3</title>
<g id="a_node3"><a xlink:href="../../d7/d9a/class_cpp_check_issue_report_convertor.html" target="_top" xlink:title="abstract class to convert issue report">
<polygon fill="none" stroke="black" points="0,-447 0,-570 198,-570 198,-447 0,-447"/>
<text text-anchor="middle" x="99" y="-558" font-family="Helvetica,sans-Serif" font-size="10.00">CppCheckIssueReportConvertor</text>
<polyline fill="none" stroke="black" points="0,-551 198,-551 "/>
<text text-anchor="middle" x="99" y="-539" font-family="Helvetica,sans-Serif" font-size="10.00"> </text>
<polyline fill="none" stroke="black" points="0,-532 198,-532 "/>
<text text-anchor="start" x="8" y="-520" font-family="Helvetica,sans-Serif" font-size="10.00">+ CppCheckIssueReportConvertor()</text>
<text text-anchor="start" x="8" y="-509" font-family="Helvetica,sans-Serif" font-size="10.00">+ ~CppCheckIssueReportConvertor()</text>
<text text-anchor="start" x="8" y="-498" font-family="Helvetica,sans-Serif" font-size="10.00">+ CppCheckIssueReportConvertor()</text>
<text text-anchor="start" x="8" y="-487" font-family="Helvetica,sans-Serif" font-size="10.00">+ CppCheckIssueReportConvertor()</text>
<text text-anchor="start" x="8" y="-476" font-family="Helvetica,sans-Serif" font-size="10.00">+ operator=()</text>
<text text-anchor="start" x="8" y="-465" font-family="Helvetica,sans-Serif" font-size="10.00">+ operator=()</text>
<text text-anchor="start" x="8" y="-454" font-family="Helvetica,sans-Serif" font-size="10.00">+ getInstance()</text>
</a>
</g>
</g>
<!-- Node2&#45;&gt;Node3 -->
<g id="edge2" class="edge">
<title>Node2&#45;&gt;Node3</title>
<path fill="none" stroke="midnightblue" d="M161.69,-603.83C154.29,-592.7 146.62,-581.16 139.28,-570.12"/>
<polygon fill="none" stroke="midnightblue" points="158.83,-605.85 167.28,-612.24 164.66,-601.97 158.83,-605.85"/>
</g>
<!-- Node4 -->
<g id="node4" class="node">
<title>Node4</title>
<g id="a_node4"><a xlink:href="../../df/dee/class_text_log_issue_report_convertor.html" target="_top" xlink:title="abstract class to convert issue report">
<polygon fill="none" stroke="black" points="216.5,-441.5 216.5,-575.5 403.5,-575.5 403.5,-441.5 216.5,-441.5"/>
<text text-anchor="middle" x="310" y="-563.5" font-family="Helvetica,sans-Serif" font-size="10.00">TextLogIssueReportConvertor</text>
<polyline fill="none" stroke="black" points="216.5,-556.5 403.5,-556.5 "/>
<text text-anchor="middle" x="310" y="-544.5" font-family="Helvetica,sans-Serif" font-size="10.00"> </text>
<polyline fill="none" stroke="black" points="216.5,-537.5 403.5,-537.5 "/>
<text text-anchor="start" x="224.5" y="-525.5" font-family="Helvetica,sans-Serif" font-size="10.00">+ TextLogIssueReportConvertor()</text>
<text text-anchor="start" x="224.5" y="-514.5" font-family="Helvetica,sans-Serif" font-size="10.00">+ ~TextLogIssueReportConvertor()</text>
<text text-anchor="start" x="224.5" y="-503.5" font-family="Helvetica,sans-Serif" font-size="10.00">+ TextLogIssueReportConvertor()</text>
<text text-anchor="start" x="224.5" y="-492.5" font-family="Helvetica,sans-Serif" font-size="10.00">+ TextLogIssueReportConvertor()</text>
<text text-anchor="start" x="224.5" y="-481.5" font-family="Helvetica,sans-Serif" font-size="10.00">+ operator=()</text>
<text text-anchor="start" x="224.5" y="-470.5" font-family="Helvetica,sans-Serif" font-size="10.00">+ operator=()</text>
<text text-anchor="start" x="224.5" y="-459.5" font-family="Helvetica,sans-Serif" font-size="10.00">+ getMappedIssueSeverity()</text>
<text text-anchor="start" x="224.5" y="-448.5" font-family="Helvetica,sans-Serif" font-size="10.00">+ getMappedIssue()</text>
</a>
</g>
</g>
<!-- Node2&#45;&gt;Node4 -->
<g id="edge3" class="edge">
<title>Node2&#45;&gt;Node4</title>
<path fill="none" stroke="midnightblue" d="M246.73,-603.8C252.97,-594.51 259.4,-584.93 265.66,-575.59"/>
<polygon fill="none" stroke="midnightblue" points="243.74,-601.99 241.07,-612.24 249.55,-605.88 243.74,-601.99"/>
</g>
<!-- Node5 -->
<g id="node5" class="node">
<title>Node5</title>
<g id="a_node5"><a xlink:href="../../d5/d8e/class_mvsc_compile_warning_issue_report_convertor.html" target="_top" xlink:title="abstract class to convert issue report">
<polygon fill="none" stroke="black" points="111.5,-215.5 111.5,-404.5 302.5,-404.5 302.5,-215.5 111.5,-215.5"/>
<text text-anchor="start" x="119.5" y="-392.5" font-family="Helvetica,sans-Serif" font-size="10.00">MvscCompileWarningIssueReport</text>
<text text-anchor="middle" x="207" y="-381.5" font-family="Helvetica,sans-Serif" font-size="10.00">Convertor</text>
<polyline fill="none" stroke="black" points="111.5,-374.5 302.5,-374.5 "/>
<text text-anchor="middle" x="207" y="-362.5" font-family="Helvetica,sans-Serif" font-size="10.00"> </text>
<polyline fill="none" stroke="black" points="111.5,-355.5 302.5,-355.5 "/>
<text text-anchor="start" x="119.5" y="-343.5" font-family="Helvetica,sans-Serif" font-size="10.00">+ MvscCompileWarningIssueReport</text>
<text text-anchor="start" x="119.5" y="-332.5" font-family="Helvetica,sans-Serif" font-size="10.00">Convertor()</text>
<text text-anchor="start" x="119.5" y="-321.5" font-family="Helvetica,sans-Serif" font-size="10.00">+ ~MvscCompileWarningIssue</text>
<text text-anchor="start" x="119.5" y="-310.5" font-family="Helvetica,sans-Serif" font-size="10.00">ReportConvertor()</text>
<text text-anchor="start" x="119.5" y="-299.5" font-family="Helvetica,sans-Serif" font-size="10.00">+ MvscCompileWarningIssueReport</text>
<text text-anchor="start" x="119.5" y="-288.5" font-family="Helvetica,sans-Serif" font-size="10.00">Convertor()</text>
<text text-anchor="start" x="119.5" y="-277.5" font-family="Helvetica,sans-Serif" font-size="10.00">+ MvscCompileWarningIssueReport</text>
<text text-anchor="start" x="119.5" y="-266.5" font-family="Helvetica,sans-Serif" font-size="10.00">Convertor()</text>
<text text-anchor="start" x="119.5" y="-255.5" font-family="Helvetica,sans-Serif" font-size="10.00">+ operator=()</text>
<text text-anchor="start" x="119.5" y="-244.5" font-family="Helvetica,sans-Serif" font-size="10.00">+ operator=()</text>
<text text-anchor="start" x="119.5" y="-233.5" font-family="Helvetica,sans-Serif" font-size="10.00">+ getMappedIssue()</text>
<text text-anchor="start" x="119.5" y="-222.5" font-family="Helvetica,sans-Serif" font-size="10.00">+ getInstance()</text>
</a>
</g>
</g>
<!-- Node4&#45;&gt;Node5 -->
<g id="edge4" class="edge">
<title>Node4&#45;&gt;Node5</title>
<path fill="none" stroke="midnightblue" d="M270.57,-432.27C265.81,-423.19 260.9,-413.83 256.03,-404.53"/>
<polygon fill="none" stroke="midnightblue" points="267.53,-434.02 275.27,-441.25 273.73,-430.77 267.53,-434.02"/>
</g>
<!-- Node6 -->
<g id="node6" class="node">
<title>Node6</title>
<g id="a_node6"><a xlink:href="../../dc/d88/class_unix_text_log_report_convertor.html" target="_top" xlink:title="abstract class to convert issue report">
<polygon fill="none" stroke="black" points="321,-243 321,-377 505,-377 505,-243 321,-243"/>
<text text-anchor="middle" x="413" y="-365" font-family="Helvetica,sans-Serif" font-size="10.00">UnixTextLogReportConvertor</text>
<polyline fill="none" stroke="black" points="321,-358 505,-358 "/>
<text text-anchor="middle" x="413" y="-346" font-family="Helvetica,sans-Serif" font-size="10.00"> </text>
<polyline fill="none" stroke="black" points="321,-339 505,-339 "/>
<text text-anchor="start" x="329" y="-327" font-family="Helvetica,sans-Serif" font-size="10.00">+ UnixTextLogReportConvertor()</text>
<text text-anchor="start" x="329" y="-316" font-family="Helvetica,sans-Serif" font-size="10.00">+ ~UnixTextLogReportConvertor()</text>
<text text-anchor="start" x="329" y="-305" font-family="Helvetica,sans-Serif" font-size="10.00">+ UnixTextLogReportConvertor()</text>
<text text-anchor="start" x="329" y="-294" font-family="Helvetica,sans-Serif" font-size="10.00">+ UnixTextLogReportConvertor()</text>
<text text-anchor="start" x="329" y="-283" font-family="Helvetica,sans-Serif" font-size="10.00">+ operator=()</text>
<text text-anchor="start" x="329" y="-272" font-family="Helvetica,sans-Serif" font-size="10.00">+ operator=()</text>
<text text-anchor="start" x="329" y="-261" font-family="Helvetica,sans-Serif" font-size="10.00">+ getMappedIssue()</text>
<text text-anchor="start" x="329" y="-250" font-family="Helvetica,sans-Serif" font-size="10.00">+ getMappedIssueSeverity()</text>
</a>
</g>
</g>
<!-- Node4&#45;&gt;Node6 -->
<g id="edge5" class="edge">
<title>Node4&#45;&gt;Node6</title>
<path fill="none" stroke="midnightblue" d="M349.6,-431.94C359.04,-413.94 369.05,-394.85 378.25,-377.3"/>
<polygon fill="none" stroke="midnightblue" points="346.27,-430.77 344.73,-441.25 352.47,-434.02 346.27,-430.77"/>
</g>
<!-- Node7 -->
<g id="node7" class="node">
<title>Node7</title>
<g id="a_node7"><a xlink:href="../../d2/d59/class_clang_tidy_issue_report_convertor.html" target="_top" xlink:title="abstract class to convert issue report">
<polygon fill="none" stroke="black" points="207,-22.5 207,-156.5 405,-156.5 405,-22.5 207,-22.5"/>
<text text-anchor="middle" x="306" y="-144.5" font-family="Helvetica,sans-Serif" font-size="10.00">ClangTidyIssueReportConvertor</text>
<polyline fill="none" stroke="black" points="207,-137.5 405,-137.5 "/>
<text text-anchor="middle" x="306" y="-125.5" font-family="Helvetica,sans-Serif" font-size="10.00"> </text>
<polyline fill="none" stroke="black" points="207,-118.5 405,-118.5 "/>
<text text-anchor="start" x="215" y="-106.5" font-family="Helvetica,sans-Serif" font-size="10.00">+ ClangTidyIssueReportConvertor()</text>
<text text-anchor="start" x="215" y="-95.5" font-family="Helvetica,sans-Serif" font-size="10.00">+ ~ClangTidyIssueReportConvertor()</text>
<text text-anchor="start" x="215" y="-84.5" font-family="Helvetica,sans-Serif" font-size="10.00">+ ClangTidyIssueReportConvertor()</text>
<text text-anchor="start" x="215" y="-73.5" font-family="Helvetica,sans-Serif" font-size="10.00">+ ClangTidyIssueReportConvertor()</text>
<text text-anchor="start" x="215" y="-62.5" font-family="Helvetica,sans-Serif" font-size="10.00">+ operator=()</text>
<text text-anchor="start" x="215" y="-51.5" font-family="Helvetica,sans-Serif" font-size="10.00">+ operator=()</text>
<text text-anchor="start" x="215" y="-40.5" font-family="Helvetica,sans-Serif" font-size="10.00">+ getMappedIssueSeverity()</text>
<text text-anchor="start" x="215" y="-29.5" font-family="Helvetica,sans-Serif" font-size="10.00">+ getInstance()</text>
</a>
</g>
</g>
<!-- Node6&#45;&gt;Node7 -->
<g id="edge6" class="edge">
<title>Node6&#45;&gt;Node7</title>
<path fill="none" stroke="midnightblue" d="M376.16,-233.76C363.91,-208.75 350.36,-181.09 338.47,-156.8"/>
<polygon fill="none" stroke="midnightblue" points="373.06,-235.41 380.61,-242.85 379.35,-232.33 373.06,-235.41"/>
</g>
<!-- Node8 -->
<g id="node8" class="node">
<title>Node8</title>
<g id="a_node8"><a xlink:href="../../d0/d54/class_gcc_compile_warning_issue_report_convertor.html" target="_top" xlink:title="abstract class to convert issue report">
<polygon fill="none" stroke="black" points="423,-0.5 423,-178.5 615,-178.5 615,-0.5 423,-0.5"/>
<text text-anchor="start" x="431" y="-166.5" font-family="Helvetica,sans-Serif" font-size="10.00">GccCompileWarningIssueReport</text>
<text text-anchor="middle" x="519" y="-155.5" font-family="Helvetica,sans-Serif" font-size="10.00">Convertor</text>
<polyline fill="none" stroke="black" points="423,-148.5 615,-148.5 "/>
<text text-anchor="middle" x="519" y="-136.5" font-family="Helvetica,sans-Serif" font-size="10.00"> </text>
<polyline fill="none" stroke="black" points="423,-129.5 615,-129.5 "/>
<text text-anchor="start" x="431" y="-117.5" font-family="Helvetica,sans-Serif" font-size="10.00">+ GccCompileWarningIssueReport</text>
<text text-anchor="start" x="431" y="-106.5" font-family="Helvetica,sans-Serif" font-size="10.00">Convertor()</text>
<text text-anchor="start" x="431" y="-95.5" font-family="Helvetica,sans-Serif" font-size="10.00">+ ~GccCompileWarningIssueReport</text>
<text text-anchor="start" x="431" y="-84.5" font-family="Helvetica,sans-Serif" font-size="10.00">Convertor()</text>
<text text-anchor="start" x="431" y="-73.5" font-family="Helvetica,sans-Serif" font-size="10.00">+ GccCompileWarningIssueReport</text>
<text text-anchor="start" x="431" y="-62.5" font-family="Helvetica,sans-Serif" font-size="10.00">Convertor()</text>
<text text-anchor="start" x="431" y="-51.5" font-family="Helvetica,sans-Serif" font-size="10.00">+ GccCompileWarningIssueReport</text>
<text text-anchor="start" x="431" y="-40.5" font-family="Helvetica,sans-Serif" font-size="10.00">Convertor()</text>
<text text-anchor="start" x="431" y="-29.5" font-family="Helvetica,sans-Serif" font-size="10.00">+ operator=()</text>
<text text-anchor="start" x="431" y="-18.5" font-family="Helvetica,sans-Serif" font-size="10.00">+ operator=()</text>
<text text-anchor="start" x="431" y="-7.5" font-family="Helvetica,sans-Serif" font-size="10.00">+ getInstance()</text>
</a>
</g>
</g>
<!-- Node6&#45;&gt;Node8 -->
<g id="edge7" class="edge">
<title>Node6&#45;&gt;Node8</title>
<path fill="none" stroke="midnightblue" d="M449.53,-233.7C458.14,-215.95 467.39,-196.88 476.25,-178.62"/>
<polygon fill="none" stroke="midnightblue" points="446.31,-232.32 445.09,-242.85 452.6,-235.38 446.31,-232.32"/>
</g>
</g>
</svg>
