<?xml version="1.0" encoding="UTF-8" standalone="no"?>
<!DOCTYPE svg PUBLIC "-//W3C//DTD SVG 1.1//EN"
 "http://www.w3.org/Graphics/SVG/1.1/DTD/svg11.dtd">
<!-- Generated by graphviz version 2.43.0 (0)
 -->
<!-- Title: CppCosoException Pages: 1 -->
<svg width="296pt" height="287pt"
 viewBox="0.00 0.00 296.00 287.00" xmlns="http://www.w3.org/2000/svg" xmlns:xlink="http://www.w3.org/1999/xlink">
<g id="graph0" class="graph" transform="scale(1 1) rotate(0) translate(4 283)">
<title>CppCosoException</title>
<!-- Node1 -->
<g id="node1" class="node">
<title>Node1</title>
<g id="a_node1"><a xlink:title=" ">
<polygon fill="#bfbfbf" stroke="black" points="82,-105.5 82,-184.5 208,-184.5 208,-105.5 82,-105.5"/>
<text text-anchor="middle" x="145" y="-172.5" font-family="Helvetica,sans-Serif" font-size="10.00">CppCosoException</text>
<polyline fill="none" stroke="black" points="82,-165.5 208,-165.5 "/>
<text text-anchor="middle" x="145" y="-153.5" font-family="Helvetica,sans-Serif" font-size="10.00"> </text>
<polyline fill="none" stroke="black" points="82,-146.5 208,-146.5 "/>
<text text-anchor="start" x="90" y="-134.5" font-family="Helvetica,sans-Serif" font-size="10.00">+ CppCosoException()</text>
<text text-anchor="start" x="90" y="-123.5" font-family="Helvetica,sans-Serif" font-size="10.00">+ CppCosoException()</text>
<text text-anchor="start" x="90" y="-112.5" font-family="Helvetica,sans-Serif" font-size="10.00">+ what()</text>
</a>
</g>
</g>
<!-- Node3 -->
<g id="node3" class="node">
<title>Node3</title>
<g id="a_node3"><a xlink:href="../../d3/d12/class_conversion_exception.html" target="_top" xlink:title=" ">
<polygon fill="none" stroke="black" points="0,-0.5 0,-68.5 138,-68.5 138,-0.5 0,-0.5"/>
<text text-anchor="middle" x="69" y="-56.5" font-family="Helvetica,sans-Serif" font-size="10.00">ConversionException</text>
<polyline fill="none" stroke="black" points="0,-49.5 138,-49.5 "/>
<text text-anchor="middle" x="69" y="-37.5" font-family="Helvetica,sans-Serif" font-size="10.00"> </text>
<polyline fill="none" stroke="black" points="0,-30.5 138,-30.5 "/>
<text text-anchor="start" x="8" y="-18.5" font-family="Helvetica,sans-Serif" font-size="10.00">+ ConversionException()</text>
<text text-anchor="start" x="8" y="-7.5" font-family="Helvetica,sans-Serif" font-size="10.00">+ ConversionException()</text>
</a>
</g>
</g>
<!-- Node1&#45;&gt;Node3 -->
<g id="edge2" class="edge">
<title>Node1&#45;&gt;Node3</title>
<path fill="none" stroke="midnightblue" d="M112.15,-97.1C105.41,-87.48 98.45,-77.55 92.15,-68.54"/>
<polygon fill="none" stroke="midnightblue" points="109.39,-99.26 117.99,-105.44 115.12,-95.24 109.39,-99.26"/>
</g>
<!-- Node4 -->
<g id="node4" class="node">
<title>Node4</title>
<g id="a_node4"><a xlink:href="../../db/dd2/class_validation_exception.html" target="_top" xlink:title=" ">
<polygon fill="none" stroke="black" points="156,-0.5 156,-68.5 288,-68.5 288,-0.5 156,-0.5"/>
<text text-anchor="middle" x="222" y="-56.5" font-family="Helvetica,sans-Serif" font-size="10.00">ValidationException</text>
<polyline fill="none" stroke="black" points="156,-49.5 288,-49.5 "/>
<text text-anchor="middle" x="222" y="-37.5" font-family="Helvetica,sans-Serif" font-size="10.00"> </text>
<polyline fill="none" stroke="black" points="156,-30.5 288,-30.5 "/>
<text text-anchor="start" x="164" y="-18.5" font-family="Helvetica,sans-Serif" font-size="10.00">+ ValidationException()</text>
<text text-anchor="start" x="164" y="-7.5" font-family="Helvetica,sans-Serif" font-size="10.00">+ ValidationException()</text>
</a>
</g>
</g>
<!-- Node1&#45;&gt;Node4 -->
<g id="edge3" class="edge">
<title>Node1&#45;&gt;Node4</title>
<path fill="none" stroke="midnightblue" d="M178.28,-97.1C185.11,-87.48 192.16,-77.55 198.55,-68.54"/>
<polygon fill="none" stroke="midnightblue" points="175.3,-95.26 172.36,-105.44 181.01,-99.31 175.3,-95.26"/>
</g>
<!-- Node2 -->
<g id="node2" class="node">
<title>Node2</title>
<g id="a_node2"><a xlink:title=" ">
<polygon fill="none" stroke="#bfbfbf" points="102,-221.5 102,-278.5 188,-278.5 188,-221.5 102,-221.5"/>
<text text-anchor="middle" x="145" y="-266.5" font-family="Helvetica,sans-Serif" font-size="10.00">std::exception</text>
<polyline fill="none" stroke="#bfbfbf" points="102,-259.5 188,-259.5 "/>
<text text-anchor="middle" x="145" y="-247.5" font-family="Helvetica,sans-Serif" font-size="10.00"> </text>
<polyline fill="none" stroke="#bfbfbf" points="102,-240.5 188,-240.5 "/>
<text text-anchor="middle" x="145" y="-228.5" font-family="Helvetica,sans-Serif" font-size="10.00"> </text>
</a>
</g>
</g>
<!-- Node2&#45;&gt;Node1 -->
<g id="edge1" class="edge">
<title>Node2&#45;&gt;Node1</title>
<path fill="none" stroke="midnightblue" d="M145,-211.16C145,-202.47 145,-193.23 145,-184.52"/>
<polygon fill="none" stroke="midnightblue" points="141.5,-211.4 145,-221.4 148.5,-211.4 141.5,-211.4"/>
</g>
</g>
</svg>
