<?xml version="1.0" encoding="UTF-8" standalone="no"?>
<!DOCTYPE svg PUBLIC "-//W3C//DTD SVG 1.1//EN"
 "http://www.w3.org/Graphics/SVG/1.1/DTD/svg11.dtd">
<!-- Generated by graphviz version 2.43.0 (0)
 -->
<!-- Title: src/report/ClangTidyIssueReportConvertor.hpp Pages: 1 -->
<svg width="492pt" height="285pt"
 viewBox="0.00 0.00 492.00 285.00" xmlns="http://www.w3.org/2000/svg" xmlns:xlink="http://www.w3.org/1999/xlink">
<g id="graph0" class="graph" transform="scale(1 1) rotate(0) translate(4 281)">
<title>src/report/ClangTidyIssueReportConvertor.hpp</title>
<!-- Node1 -->
<g id="node1" class="node">
<title>Node1</title>
<g id="a_node1"><a xlink:title=" ">
<polygon fill="#bfbfbf" stroke="black" points="141.5,-246.5 141.5,-276.5 281.5,-276.5 281.5,-246.5 141.5,-246.5"/>
<text text-anchor="start" x="149.5" y="-264.5" font-family="Helvetica,sans-Serif" font-size="10.00">src/report/ClangTidyIssue</text>
<text text-anchor="middle" x="211.5" y="-253.5" font-family="Helvetica,sans-Serif" font-size="10.00">ReportConvertor.hpp</text>
</a>
</g>
</g>
<!-- Node2 -->
<g id="node2" class="node">
<title>Node2</title>
<g id="a_node2"><a xlink:href="../../d6/d34/_gcc_compile_log_issue_report_convertor_8hpp.html" target="_top" xlink:title=" ">
<polygon fill="none" stroke="black" points="133.5,-179.5 133.5,-209.5 289.5,-209.5 289.5,-179.5 133.5,-179.5"/>
<text text-anchor="start" x="141.5" y="-197.5" font-family="Helvetica,sans-Serif" font-size="10.00">./GccCompileLogIssueReport</text>
<text text-anchor="middle" x="211.5" y="-186.5" font-family="Helvetica,sans-Serif" font-size="10.00">Convertor.hpp</text>
</a>
</g>
</g>
<!-- Node1&#45;&gt;Node2 -->
<g id="edge1" class="edge">
<title>Node1&#45;&gt;Node2</title>
<path fill="none" stroke="midnightblue" d="M211.5,-246.4C211.5,-238.64 211.5,-228.81 211.5,-219.86"/>
<polygon fill="midnightblue" stroke="midnightblue" points="215,-219.58 211.5,-209.58 208,-219.58 215,-219.58"/>
</g>
<!-- Node3 -->
<g id="node3" class="node">
<title>Node3</title>
<g id="a_node3"><a xlink:href="../../da/db7/_issue_report_convertor_8hpp.html" target="_top" xlink:title=" ">
<polygon fill="none" stroke="black" points="137,-123.5 137,-142.5 286,-142.5 286,-123.5 137,-123.5"/>
<text text-anchor="middle" x="211.5" y="-130.5" font-family="Helvetica,sans-Serif" font-size="10.00">./IssueReportConvertor.hpp</text>
</a>
</g>
</g>
<!-- Node2&#45;&gt;Node3 -->
<g id="edge2" class="edge">
<title>Node2&#45;&gt;Node3</title>
<path fill="none" stroke="midnightblue" d="M211.5,-179.4C211.5,-171.47 211.5,-161.46 211.5,-152.86"/>
<polygon fill="midnightblue" stroke="midnightblue" points="215,-152.66 211.5,-142.66 208,-152.66 215,-152.66"/>
</g>
<!-- Node4 -->
<g id="node4" class="node">
<title>Node4</title>
<g id="a_node4"><a xlink:href="../../d7/d34/_report_convertor_8hpp.html" target="_top" xlink:title=" ">
<polygon fill="none" stroke="black" points="101,-67.5 101,-86.5 224,-86.5 224,-67.5 101,-67.5"/>
<text text-anchor="middle" x="162.5" y="-74.5" font-family="Helvetica,sans-Serif" font-size="10.00">./ReportConvertor.hpp</text>
</a>
</g>
</g>
<!-- Node3&#45;&gt;Node4 -->
<g id="edge3" class="edge">
<title>Node3&#45;&gt;Node4</title>
<path fill="none" stroke="midnightblue" d="M203.41,-123.08C196.34,-115.3 185.91,-103.8 177.35,-94.37"/>
<polygon fill="midnightblue" stroke="midnightblue" points="179.75,-91.8 170.44,-86.75 174.57,-96.51 179.75,-91.8"/>
</g>
<!-- Node10 -->
<g id="node10" class="node">
<title>Node10</title>
<g id="a_node10"><a xlink:title=" ">
<polygon fill="none" stroke="#bfbfbf" points="242.5,-67.5 242.5,-86.5 280.5,-86.5 280.5,-67.5 242.5,-67.5"/>
<text text-anchor="middle" x="261.5" y="-74.5" font-family="Helvetica,sans-Serif" font-size="10.00">map</text>
</a>
</g>
</g>
<!-- Node3&#45;&gt;Node10 -->
<g id="edge9" class="edge">
<title>Node3&#45;&gt;Node10</title>
<path fill="none" stroke="midnightblue" d="M219.76,-123.08C226.96,-115.3 237.61,-103.8 246.35,-94.37"/>
<polygon fill="midnightblue" stroke="midnightblue" points="249.17,-96.47 253.4,-86.75 244.03,-91.71 249.17,-96.47"/>
</g>
<!-- Node5 -->
<g id="node5" class="node">
<title>Node5</title>
<g id="a_node5"><a xlink:title=" ">
<polygon fill="none" stroke="#bfbfbf" points="0,-6 0,-25 65,-25 65,-6 0,-6"/>
<text text-anchor="middle" x="32.5" y="-13" font-family="Helvetica,sans-Serif" font-size="10.00">functional</text>
</a>
</g>
</g>
<!-- Node4&#45;&gt;Node5 -->
<g id="edge4" class="edge">
<title>Node4&#45;&gt;Node5</title>
<path fill="none" stroke="midnightblue" d="M143.87,-67.48C122.06,-57.49 85.7,-40.85 60.48,-29.31"/>
<polygon fill="midnightblue" stroke="midnightblue" points="61.64,-25.99 51.09,-25.01 58.73,-32.35 61.64,-25.99"/>
</g>
<!-- Node6 -->
<g id="node6" class="node">
<title>Node6</title>
<g id="a_node6"><a xlink:title=" ">
<polygon fill="none" stroke="#bfbfbf" points="83.5,-6 83.5,-25 115.5,-25 115.5,-6 83.5,-6"/>
<text text-anchor="middle" x="99.5" y="-13" font-family="Helvetica,sans-Serif" font-size="10.00">list</text>
</a>
</g>
</g>
<!-- Node4&#45;&gt;Node6 -->
<g id="edge5" class="edge">
<title>Node4&#45;&gt;Node6</title>
<path fill="none" stroke="midnightblue" d="M153.47,-67.48C143.74,-58.28 128.04,-43.46 116.08,-32.16"/>
<polygon fill="midnightblue" stroke="midnightblue" points="118.18,-29.33 108.51,-25.01 113.38,-34.42 118.18,-29.33"/>
</g>
<!-- Node7 -->
<g id="node7" class="node">
<title>Node7</title>
<g id="a_node7"><a xlink:title=" ">
<polygon fill="none" stroke="#bfbfbf" points="133.5,-6 133.5,-25 191.5,-25 191.5,-6 133.5,-6"/>
<text text-anchor="middle" x="162.5" y="-13" font-family="Helvetica,sans-Serif" font-size="10.00">memory</text>
</a>
</g>
</g>
<!-- Node4&#45;&gt;Node7 -->
<g id="edge6" class="edge">
<title>Node4&#45;&gt;Node7</title>
<path fill="none" stroke="midnightblue" d="M162.5,-67.48C162.5,-59.08 162.5,-45.98 162.5,-35.16"/>
<polygon fill="midnightblue" stroke="midnightblue" points="166,-35.01 162.5,-25.01 159,-35.01 166,-35.01"/>
</g>
<!-- Node8 -->
<g id="node8" class="node">
<title>Node8</title>
<g id="a_node8"><a xlink:title=" ">
<polygon fill="none" stroke="#bfbfbf" points="210,-6 210,-25 353,-25 353,-6 210,-6"/>
<text text-anchor="middle" x="281.5" y="-13" font-family="Helvetica,sans-Serif" font-size="10.00">boost/filesystem/path.hpp</text>
</a>
</g>
</g>
<!-- Node4&#45;&gt;Node8 -->
<g id="edge7" class="edge">
<title>Node4&#45;&gt;Node8</title>
<path fill="none" stroke="midnightblue" d="M179.55,-67.48C199.34,-57.58 232.22,-41.14 255.27,-29.62"/>
<polygon fill="midnightblue" stroke="midnightblue" points="257.1,-32.61 264.48,-25.01 253.97,-26.35 257.1,-32.61"/>
</g>
<!-- Node9 -->
<g id="node9" class="node">
<title>Node9</title>
<g id="a_node9"><a xlink:title=" ">
<polygon fill="none" stroke="#bfbfbf" points="371,-0.5 371,-30.5 484,-30.5 484,-0.5 371,-0.5"/>
<text text-anchor="start" x="379" y="-18.5" font-family="Helvetica,sans-Serif" font-size="10.00">boost/property_tree</text>
<text text-anchor="middle" x="427.5" y="-7.5" font-family="Helvetica,sans-Serif" font-size="10.00">/ptree.hpp</text>
</a>
</g>
</g>
<!-- Node4&#45;&gt;Node9 -->
<g id="edge8" class="edge">
<title>Node4&#45;&gt;Node9</title>
<path fill="none" stroke="midnightblue" d="M200.47,-67.48C242.19,-58.11 310.02,-42.88 360.69,-31.5"/>
<polygon fill="midnightblue" stroke="midnightblue" points="361.59,-34.89 370.58,-29.28 360.06,-28.06 361.59,-34.89"/>
</g>
</g>
</svg>
