<?xml version="1.0" encoding="UTF-8" standalone="no"?>
<!DOCTYPE svg PUBLIC "-//W3C//DTD SVG 1.1//EN"
 "http://www.w3.org/Graphics/SVG/1.1/DTD/svg11.dtd">
<!-- Generated by graphviz version 2.43.0 (0)
 -->
<!-- Title: src/report/GccCompileWarningIssueReportConvertor.cpp Pages: 1 -->
<!--zoomable 352 -->
<svg id="main" version="1.1" xmlns="http://www.w3.org/2000/svg" xmlns:xlink="http://www.w3.org/1999/xlink" xml:space="preserve" onload="init(evt)">
<style type="text/css"><![CDATA[
.edge:hover path { stroke: red; }
.edge:hover polygon { stroke: red; fill: red; }
]]></style>
<script type="text/javascript"><![CDATA[
var edges = document.getElementsByTagName('g');
if (edges && edges.length) {
  for (var i=0;i<edges.length;i++) {
    if (edges[i].id.substr(0,4)=='edge') {
      edges[i].setAttribute('class','edge');
    }
  }
}
]]></script>
        <defs>
                <circle id="rim" cx="0" cy="0" r="7"/>
                <circle id="rim2" cx="0" cy="0" r="3.5"/>
                <g id="zoomPlus">
                        <use xlink:href="#rim" fill="#404040">
                                <set attributeName="fill" to="#808080" begin="zoomplus.mouseover" end="zoomplus.mouseout"/>
                        </use>
                        <path d="M-4,0h8M0,-4v8" fill="none" stroke="white" stroke-width="1.5" pointer-events="none"/>
                </g>
                <g id="zoomMin">
                        <use xlink:href="#rim" fill="#404040">
                                <set attributeName="fill" to="#808080" begin="zoomminus.mouseover" end="zoomminus.mouseout"/>
                        </use>
                        <path d="M-4,0h8" fill="none" stroke="white" stroke-width="1.5" pointer-events="none"/>
                </g>
                <g id="dirArrow">
                        <path fill="none" stroke="white" stroke-width="1.5" d="M0,-3.0v7 M-2.5,-0.5L0,-3.0L2.5,-0.5"/>
                </g>
               <g id="resetDef">
                       <use xlink:href="#rim2" fill="#404040">
                               <set attributeName="fill" to="#808080" begin="reset.mouseover" end="reset.mouseout"/>
                       </use>
               </g>
        </defs>

<script type="text/javascript">
var viewWidth = 988;
var viewHeight = 352;
var sectionId = 'dynsection-0';
</script>
<script xlink:href="../../svgpan.js"/>
<svg id="graph" class="graph">
<g id="viewport">
<title>src/report/GccCompileWarningIssueReportConvertor.cpp</title>
<!-- Node1 -->
<g id="node1" class="node">
<title>Node1</title>
<g id="a_node1"><a xlink:title=" ">
<polygon fill="#bfbfbf" stroke="black" points="583,-313.5 583,-343.5 747,-343.5 747,-313.5 583,-313.5"/>
<text text-anchor="start" x="591" y="-331.5" font-family="Helvetica,sans-Serif" font-size="10.00">src/report/GccCompileWarning</text>
<text text-anchor="middle" x="665" y="-320.5" font-family="Helvetica,sans-Serif" font-size="10.00">IssueReportConvertor.cpp</text>
</a>
</g>
</g>
<!-- Node2 -->
<g id="node2" class="node">
<title>Node2</title>
<g id="a_node2"><a xlink:href="../../da/dcc/_gcc_compile_warning_issue_report_convertor_8hpp.html" target="_top" xlink:title=" ">
<polygon fill="none" stroke="black" points="250,-246.5 250,-276.5 396,-276.5 396,-246.5 250,-246.5"/>
<text text-anchor="start" x="258" y="-264.5" font-family="Helvetica,sans-Serif" font-size="10.00">./GccCompileWarningIssue</text>
<text text-anchor="middle" x="323" y="-253.5" font-family="Helvetica,sans-Serif" font-size="10.00">ReportConvertor.hpp</text>
</a>
</g>
</g>
<!-- Node1&#45;&gt;Node2 -->
<g id="edge1" class="edge">
<title>Node1&#45;&gt;Node2</title>
<path fill="none" stroke="midnightblue" d="M591.21,-313.48C536.75,-303.13 462.59,-289.03 406.05,-278.28"/>
<polygon fill="midnightblue" stroke="midnightblue" points="406.55,-274.82 396.07,-276.39 405.24,-281.69 406.55,-274.82"/>
</g>
<!-- Node7 -->
<g id="node7" class="node">
<title>Node7</title>
<g id="a_node7"><a xlink:title=" ">
<polygon fill="none" stroke="#bfbfbf" points="452,-6 452,-25 484,-25 484,-6 452,-6"/>
<text text-anchor="middle" x="468" y="-13" font-family="Helvetica,sans-Serif" font-size="10.00">list</text>
</a>
</g>
</g>
<!-- Node1&#45;&gt;Node7 -->
<g id="edge19" class="edge">
<title>Node1&#45;&gt;Node7</title>
<path fill="none" stroke="midnightblue" d="M582.55,-322.94C547.46,-316.83 508.76,-303.86 483,-277 457.25,-250.16 464,-232.69 464,-195.5 464,-195.5 464,-195.5 464,-132 464,-97.84 465.77,-58.04 466.95,-35.2"/>
<polygon fill="midnightblue" stroke="midnightblue" points="470.45,-35.36 467.49,-25.19 463.46,-34.99 470.45,-35.36"/>
</g>
<!-- Node11 -->
<g id="node11" class="node">
<title>Node11</title>
<g id="a_node11"><a xlink:title=" ">
<polygon fill="none" stroke="#bfbfbf" points="395,-67.5 395,-86.5 433,-86.5 433,-67.5 395,-67.5"/>
<text text-anchor="middle" x="414" y="-74.5" font-family="Helvetica,sans-Serif" font-size="10.00">map</text>
</a>
</g>
</g>
<!-- Node1&#45;&gt;Node11 -->
<g id="edge20" class="edge">
<title>Node1&#45;&gt;Node11</title>
<path fill="none" stroke="midnightblue" d="M582.82,-317.61C530.16,-309.55 468.35,-296.32 450,-277 402.25,-226.72 406.75,-135.57 411.3,-96.55"/>
<polygon fill="midnightblue" stroke="midnightblue" points="414.78,-96.97 412.6,-86.6 407.83,-96.06 414.78,-96.97"/>
</g>
<!-- Node12 -->
<g id="node12" class="node">
<title>Node12</title>
<g id="a_node12"><a xlink:href="../../db/d55/_conversion_exception_8hpp.html" target="_top" xlink:title=" ">
<polygon fill="none" stroke="black" points="492,-252 492,-271 692,-271 692,-252 492,-252"/>
<text text-anchor="middle" x="592" y="-259" font-family="Helvetica,sans-Serif" font-size="10.00">../exception/ConversionException.hpp</text>
</a>
</g>
</g>
<!-- Node1&#45;&gt;Node12 -->
<g id="edge11" class="edge">
<title>Node1&#45;&gt;Node12</title>
<path fill="none" stroke="midnightblue" d="M649.16,-313.4C637.44,-302.96 621.48,-288.75 609.41,-278"/>
<polygon fill="midnightblue" stroke="midnightblue" points="611.56,-275.23 601.76,-271.19 606.91,-280.46 611.56,-275.23"/>
</g>
<!-- Node17 -->
<g id="node17" class="node">
<title>Node17</title>
<g id="a_node17"><a xlink:title=" ">
<polygon fill="none" stroke="#bfbfbf" points="710.5,-252 710.5,-271 765.5,-271 765.5,-252 710.5,-252"/>
<text text-anchor="middle" x="738" y="-259" font-family="Helvetica,sans-Serif" font-size="10.00">fstream</text>
</a>
</g>
</g>
<!-- Node1&#45;&gt;Node17 -->
<g id="edge16" class="edge">
<title>Node1&#45;&gt;Node17</title>
<path fill="none" stroke="midnightblue" d="M680.84,-313.4C692.56,-302.96 708.52,-288.75 720.59,-278"/>
<polygon fill="midnightblue" stroke="midnightblue" points="723.09,-280.46 728.24,-271.19 718.44,-275.23 723.09,-280.46"/>
</g>
<!-- Node18 -->
<g id="node18" class="node">
<title>Node18</title>
<g id="a_node18"><a xlink:title=" ">
<polygon fill="none" stroke="#bfbfbf" points="784,-252 784,-271 844,-271 844,-252 784,-252"/>
<text text-anchor="middle" x="814" y="-259" font-family="Helvetica,sans-Serif" font-size="10.00">iostream</text>
</a>
</g>
</g>
<!-- Node1&#45;&gt;Node18 -->
<g id="edge17" class="edge">
<title>Node1&#45;&gt;Node18</title>
<path fill="none" stroke="midnightblue" d="M697.33,-313.4C723.47,-301.99 759.95,-286.08 785.12,-275.1"/>
<polygon fill="midnightblue" stroke="midnightblue" points="786.73,-278.21 794.5,-271.01 783.93,-271.8 786.73,-278.21"/>
</g>
<!-- Node19 -->
<g id="node19" class="node">
<title>Node19</title>
<g id="a_node19"><a xlink:title=" ">
<polygon fill="none" stroke="#bfbfbf" points="862,-252 862,-271 918,-271 918,-252 862,-252"/>
<text text-anchor="middle" x="890" y="-259" font-family="Helvetica,sans-Serif" font-size="10.00">sstream</text>
</a>
</g>
</g>
<!-- Node1&#45;&gt;Node19 -->
<g id="edge18" class="edge">
<title>Node1&#45;&gt;Node19</title>
<path fill="none" stroke="midnightblue" d="M723.93,-313.46C761.23,-304.13 810.3,-291.05 853,-277 855.27,-276.25 857.6,-275.44 859.93,-274.6"/>
<polygon fill="midnightblue" stroke="midnightblue" points="861.28,-277.84 869.4,-271.04 858.81,-271.28 861.28,-277.84"/>
</g>
<!-- Node20 -->
<g id="node20" class="node">
<title>Node20</title>
<g id="a_node20"><a xlink:title=" ">
<polygon fill="none" stroke="#bfbfbf" points="936,-252 936,-271 980,-271 980,-252 936,-252"/>
<text text-anchor="middle" x="958" y="-259" font-family="Helvetica,sans-Serif" font-size="10.00">regex</text>
</a>
</g>
</g>
<!-- Node1&#45;&gt;Node20 -->
<g id="edge21" class="edge">
<title>Node1&#45;&gt;Node20</title>
<path fill="none" stroke="midnightblue" d="M747.16,-317C799.46,-309.01 868.18,-296.1 927,-277 928.67,-276.46 930.37,-275.85 932.07,-275.19"/>
<polygon fill="midnightblue" stroke="midnightblue" points="933.77,-278.27 941.57,-271.1 931.01,-271.84 933.77,-278.27"/>
</g>
<!-- Node3 -->
<g id="node3" class="node">
<title>Node3</title>
<g id="a_node3"><a xlink:href="../../d6/d34/_gcc_compile_log_issue_report_convertor_8hpp.html" target="_top" xlink:title=" ">
<polygon fill="none" stroke="black" points="242,-179.5 242,-209.5 398,-209.5 398,-179.5 242,-179.5"/>
<text text-anchor="start" x="250" y="-197.5" font-family="Helvetica,sans-Serif" font-size="10.00">./GccCompileLogIssueReport</text>
<text text-anchor="middle" x="320" y="-186.5" font-family="Helvetica,sans-Serif" font-size="10.00">Convertor.hpp</text>
</a>
</g>
</g>
<!-- Node2&#45;&gt;Node3 -->
<g id="edge2" class="edge">
<title>Node2&#45;&gt;Node3</title>
<path fill="none" stroke="midnightblue" d="M322.35,-246.4C321.99,-238.64 321.54,-228.81 321.12,-219.86"/>
<polygon fill="midnightblue" stroke="midnightblue" points="324.61,-219.4 320.65,-209.58 317.61,-219.73 324.61,-219.4"/>
</g>
<!-- Node4 -->
<g id="node4" class="node">
<title>Node4</title>
<g id="a_node4"><a xlink:href="../../da/db7/_issue_report_convertor_8hpp.html" target="_top" xlink:title=" ">
<polygon fill="none" stroke="black" points="245.5,-123.5 245.5,-142.5 394.5,-142.5 394.5,-123.5 245.5,-123.5"/>
<text text-anchor="middle" x="320" y="-130.5" font-family="Helvetica,sans-Serif" font-size="10.00">./IssueReportConvertor.hpp</text>
</a>
</g>
</g>
<!-- Node3&#45;&gt;Node4 -->
<g id="edge3" class="edge">
<title>Node3&#45;&gt;Node4</title>
<path fill="none" stroke="midnightblue" d="M320,-179.4C320,-171.47 320,-161.46 320,-152.86"/>
<polygon fill="midnightblue" stroke="midnightblue" points="323.5,-152.66 320,-142.66 316.5,-152.66 323.5,-152.66"/>
</g>
<!-- Node5 -->
<g id="node5" class="node">
<title>Node5</title>
<g id="a_node5"><a xlink:href="../../d7/d34/_report_convertor_8hpp.html" target="_top" xlink:title=" ">
<polygon fill="none" stroke="black" points="246.5,-67.5 246.5,-86.5 369.5,-86.5 369.5,-67.5 246.5,-67.5"/>
<text text-anchor="middle" x="308" y="-74.5" font-family="Helvetica,sans-Serif" font-size="10.00">./ReportConvertor.hpp</text>
</a>
</g>
</g>
<!-- Node4&#45;&gt;Node5 -->
<g id="edge4" class="edge">
<title>Node4&#45;&gt;Node5</title>
<path fill="none" stroke="midnightblue" d="M318.02,-123.08C316.43,-115.93 314.14,-105.64 312.15,-96.69"/>
<polygon fill="midnightblue" stroke="midnightblue" points="315.53,-95.75 309.94,-86.75 308.7,-97.27 315.53,-95.75"/>
</g>
<!-- Node4&#45;&gt;Node11 -->
<g id="edge10" class="edge">
<title>Node4&#45;&gt;Node11</title>
<path fill="none" stroke="midnightblue" d="M335.1,-123.32C349.9,-114.82 372.69,-101.73 389.98,-91.8"/>
<polygon fill="midnightblue" stroke="midnightblue" points="392.01,-94.67 398.93,-86.65 388.52,-88.6 392.01,-94.67"/>
</g>
<!-- Node6 -->
<g id="node6" class="node">
<title>Node6</title>
<g id="a_node6"><a xlink:title=" ">
<polygon fill="none" stroke="#bfbfbf" points="368.5,-6 368.5,-25 433.5,-25 433.5,-6 368.5,-6"/>
<text text-anchor="middle" x="401" y="-13" font-family="Helvetica,sans-Serif" font-size="10.00">functional</text>
</a>
</g>
</g>
<!-- Node5&#45;&gt;Node6 -->
<g id="edge5" class="edge">
<title>Node5&#45;&gt;Node6</title>
<path fill="none" stroke="midnightblue" d="M321.32,-67.48C336.38,-57.84 361.12,-42.02 379.04,-30.55"/>
<polygon fill="midnightblue" stroke="midnightblue" points="381.16,-33.35 387.7,-25.01 377.39,-27.45 381.16,-33.35"/>
</g>
<!-- Node5&#45;&gt;Node7 -->
<g id="edge6" class="edge">
<title>Node5&#45;&gt;Node7</title>
<path fill="none" stroke="midnightblue" d="M338.67,-67.46C366.23,-59.38 407.55,-46.23 442,-31 442.85,-30.63 443.7,-30.23 444.56,-29.82"/>
<polygon fill="midnightblue" stroke="midnightblue" points="446.39,-32.82 453.67,-25.11 443.18,-26.6 446.39,-32.82"/>
</g>
<!-- Node8 -->
<g id="node8" class="node">
<title>Node8</title>
<g id="a_node8"><a xlink:title=" ">
<polygon fill="none" stroke="#bfbfbf" points="0,-6 0,-25 58,-25 58,-6 0,-6"/>
<text text-anchor="middle" x="29" y="-13" font-family="Helvetica,sans-Serif" font-size="10.00">memory</text>
</a>
</g>
</g>
<!-- Node5&#45;&gt;Node8 -->
<g id="edge7" class="edge">
<title>Node5&#45;&gt;Node8</title>
<path fill="none" stroke="midnightblue" d="M246.39,-67.62C197.27,-60.2 127.02,-47.91 67,-31 64.35,-30.25 61.63,-29.4 58.92,-28.49"/>
<polygon fill="midnightblue" stroke="midnightblue" points="59.88,-25.11 49.28,-25.01 57.5,-31.7 59.88,-25.11"/>
</g>
<!-- Node9 -->
<g id="node9" class="node">
<title>Node9</title>
<g id="a_node9"><a xlink:title=" ">
<polygon fill="none" stroke="#bfbfbf" points="76.5,-6 76.5,-25 219.5,-25 219.5,-6 76.5,-6"/>
<text text-anchor="middle" x="148" y="-13" font-family="Helvetica,sans-Serif" font-size="10.00">boost/filesystem/path.hpp</text>
</a>
</g>
</g>
<!-- Node5&#45;&gt;Node9 -->
<g id="edge8" class="edge">
<title>Node5&#45;&gt;Node9</title>
<path fill="none" stroke="midnightblue" d="M285.08,-67.48C257.63,-57.27 211.48,-40.11 180.4,-28.55"/>
<polygon fill="midnightblue" stroke="midnightblue" points="181.47,-25.21 170.88,-25.01 179.03,-31.78 181.47,-25.21"/>
</g>
<!-- Node10 -->
<g id="node10" class="node">
<title>Node10</title>
<g id="a_node10"><a xlink:title=" ">
<polygon fill="none" stroke="#bfbfbf" points="237.5,-0.5 237.5,-30.5 350.5,-30.5 350.5,-0.5 237.5,-0.5"/>
<text text-anchor="start" x="245.5" y="-18.5" font-family="Helvetica,sans-Serif" font-size="10.00">boost/property_tree</text>
<text text-anchor="middle" x="294" y="-7.5" font-family="Helvetica,sans-Serif" font-size="10.00">/ptree.hpp</text>
</a>
</g>
</g>
<!-- Node5&#45;&gt;Node10 -->
<g id="edge9" class="edge">
<title>Node5&#45;&gt;Node10</title>
<path fill="none" stroke="midnightblue" d="M305.99,-67.48C304.33,-60.4 301.88,-49.97 299.62,-40.39"/>
<polygon fill="midnightblue" stroke="midnightblue" points="303,-39.46 297.3,-30.52 296.18,-41.06 303,-39.46"/>
</g>
<!-- Node13 -->
<g id="node13" class="node">
<title>Node13</title>
<g id="a_node13"><a xlink:href="../../d1/dfa/_cpp_coso_exception_8hpp.html" target="_top" xlink:title=" ">
<polygon fill="none" stroke="black" points="528,-185 528,-204 662,-204 662,-185 528,-185"/>
<text text-anchor="middle" x="595" y="-192" font-family="Helvetica,sans-Serif" font-size="10.00">./CppCosoException.hpp</text>
</a>
</g>
</g>
<!-- Node12&#45;&gt;Node13 -->
<g id="edge12" class="edge">
<title>Node12&#45;&gt;Node13</title>
<path fill="none" stroke="midnightblue" d="M592.4,-251.73C592.85,-242.18 593.56,-226.62 594.13,-214.28"/>
<polygon fill="midnightblue" stroke="midnightblue" points="597.64,-214.28 594.6,-204.13 590.64,-213.96 597.64,-214.28"/>
</g>
<!-- Node14 -->
<g id="node14" class="node">
<title>Node14</title>
<g id="a_node14"><a xlink:title=" ">
<polygon fill="none" stroke="#bfbfbf" points="492.5,-123.5 492.5,-142.5 557.5,-142.5 557.5,-123.5 492.5,-123.5"/>
<text text-anchor="middle" x="525" y="-130.5" font-family="Helvetica,sans-Serif" font-size="10.00">exception</text>
</a>
</g>
</g>
<!-- Node13&#45;&gt;Node14 -->
<g id="edge13" class="edge">
<title>Node13&#45;&gt;Node14</title>
<path fill="none" stroke="midnightblue" d="M584.97,-184.98C573.95,-175.61 556.04,-160.38 542.66,-149.01"/>
<polygon fill="midnightblue" stroke="midnightblue" points="544.9,-146.32 535.01,-142.51 540.36,-151.65 544.9,-146.32"/>
</g>
<!-- Node15 -->
<g id="node15" class="node">
<title>Node15</title>
<g id="a_node15"><a xlink:title=" ">
<polygon fill="none" stroke="#bfbfbf" points="576,-123.5 576,-142.5 620,-142.5 620,-123.5 576,-123.5"/>
<text text-anchor="middle" x="598" y="-130.5" font-family="Helvetica,sans-Serif" font-size="10.00">string</text>
</a>
</g>
</g>
<!-- Node13&#45;&gt;Node15 -->
<g id="edge14" class="edge">
<title>Node13&#45;&gt;Node15</title>
<path fill="none" stroke="midnightblue" d="M595.43,-184.98C595.85,-176.58 596.51,-163.48 597.06,-152.66"/>
<polygon fill="midnightblue" stroke="midnightblue" points="600.56,-152.67 597.57,-142.51 593.57,-152.32 600.56,-152.67"/>
</g>
<!-- Node16 -->
<g id="node16" class="node">
<title>Node16</title>
<g id="a_node16"><a xlink:title=" ">
<polygon fill="none" stroke="#bfbfbf" points="638.5,-123.5 638.5,-142.5 711.5,-142.5 711.5,-123.5 638.5,-123.5"/>
<text text-anchor="middle" x="675" y="-130.5" font-family="Helvetica,sans-Serif" font-size="10.00">string_view</text>
</a>
</g>
</g>
<!-- Node13&#45;&gt;Node16 -->
<g id="edge15" class="edge">
<title>Node13&#45;&gt;Node16</title>
<path fill="none" stroke="midnightblue" d="M606.46,-184.98C619.17,-175.52 639.91,-160.1 655.25,-148.69"/>
<polygon fill="midnightblue" stroke="midnightblue" points="657.62,-151.29 663.56,-142.51 653.45,-145.67 657.62,-151.29"/>
</g>
</g>
</svg>
        <g id="navigator" transform="translate(0 0)" fill="#404254">
                <rect fill="#f2f5e9" fill-opacity="0.5" stroke="#606060" stroke-width=".5" x="0" y="0" width="60" height="60"/>
                <use id="zoomplus" xlink:href="#zoomPlus" x="17" y="9" onmousedown="handleZoom(evt,'in')"/>
                <use id="zoomminus" xlink:href="#zoomMin" x="42" y="9" onmousedown="handleZoom(evt,'out')"/>
                <use id="reset" xlink:href="#resetDef" x="30" y="36" onmousedown="handleReset()"/>
                <g id="arrowUp" xlink:href="#dirArrow" transform="translate(30 24)" onmousedown="handlePan(0,-1)">
                  <use xlink:href="#rim" fill="#404040">
                        <set attributeName="fill" to="#808080" begin="arrowUp.mouseover" end="arrowUp.mouseout"/>
                  </use>
                  <path fill="none" stroke="white" stroke-width="1.5" d="M0,-3.0v7 M-2.5,-0.5L0,-3.0L2.5,-0.5"/>
                </g>
                <g id="arrowRight" xlink:href="#dirArrow" transform="rotate(90) translate(36 -43)" onmousedown="handlePan(1,0)">
                  <use xlink:href="#rim" fill="#404040">
                        <set attributeName="fill" to="#808080" begin="arrowRight.mouseover" end="arrowRight.mouseout"/>
                  </use>
                  <path fill="none" stroke="white" stroke-width="1.5" d="M0,-3.0v7 M-2.5,-0.5L0,-3.0L2.5,-0.5"/>
                </g>
                <g id="arrowDown" xlink:href="#dirArrow" transform="rotate(180) translate(-30 -48)" onmousedown="handlePan(0,1)">
                  <use xlink:href="#rim" fill="#404040">
                        <set attributeName="fill" to="#808080" begin="arrowDown.mouseover" end="arrowDown.mouseout"/>
                  </use>
                  <path fill="none" stroke="white" stroke-width="1.5" d="M0,-3.0v7 M-2.5,-0.5L0,-3.0L2.5,-0.5"/>
                </g>
                <g id="arrowLeft" xlink:href="#dirArrow" transform="rotate(270) translate(-36 17)" onmousedown="handlePan(-1,0)">
                  <use xlink:href="#rim" fill="#404040">
                        <set attributeName="fill" to="#808080" begin="arrowLeft.mouseover" end="arrowLeft.mouseout"/>
                  </use>
                  <path fill="none" stroke="white" stroke-width="1.5" d="M0,-3.0v7 M-2.5,-0.5L0,-3.0L2.5,-0.5"/>
                </g>
        </g>
        <svg viewBox="0 0 15 15" width="100%" height="30px" preserveAspectRatio="xMaxYMin meet">
         <g id="arrow_out" transform="scale(0.3 0.3)">
          <a xlink:href="_gcc_compile_warning_issue_report_convertor_8cpp__incl_org.svg" target="_base">
           <rect id="button" ry="5" rx="5" y="6" x="6" height="38" width="38"
                fill="#f2f5e9" fill-opacity="0.5" stroke="#606060" stroke-width="1.0"/>
           <path id="arrow"
             d="M 11.500037,31.436501 C 11.940474,20.09759 22.043105,11.32322 32.158766,21.979434 L 37.068811,17.246167 C 37.068811,17.246167 37.088388,32 37.088388,32 L 22.160133,31.978069 C 22.160133,31.978069 26.997745,27.140456 26.997745,27.140456 C 18.528582,18.264221 13.291696,25.230495 11.500037,31.436501 z"
             style="fill:#404040;"/>
          </a>
         </g>
        </svg>
</svg>
