<?xml version="1.0" encoding="UTF-8" standalone="no"?>
<!DOCTYPE svg PUBLIC "-//W3C//DTD SVG 1.1//EN"
 "http://www.w3.org/Graphics/SVG/1.1/DTD/svg11.dtd">
<!-- Generated by graphviz version 2.43.0 (0)
 -->
<!-- Title: TextLogIssueReportConvertor Pages: 1 -->
<svg width="324pt" height="464pt"
 viewBox="0.00 0.00 324.00 464.00" xmlns="http://www.w3.org/2000/svg" xmlns:xlink="http://www.w3.org/1999/xlink">
<g id="graph0" class="graph" transform="scale(1 1) rotate(0) translate(4 460)">
<title>TextLogIssueReportConvertor</title>
<!-- Node1 -->
<g id="node1" class="node">
<title>Node1</title>
<g id="a_node1"><a xlink:title="abstract class to convert issue report">
<polygon fill="#bfbfbf" stroke="black" points="47.5,-0.5 47.5,-134.5 234.5,-134.5 234.5,-0.5 47.5,-0.5"/>
<text text-anchor="middle" x="141" y="-122.5" font-family="Helvetica,sans-Serif" font-size="10.00">TextLogIssueReportConvertor</text>
<polyline fill="none" stroke="black" points="47.5,-115.5 234.5,-115.5 "/>
<text text-anchor="middle" x="141" y="-103.5" font-family="Helvetica,sans-Serif" font-size="10.00"> </text>
<polyline fill="none" stroke="black" points="47.5,-96.5 234.5,-96.5 "/>
<text text-anchor="start" x="55.5" y="-84.5" font-family="Helvetica,sans-Serif" font-size="10.00">+ TextLogIssueReportConvertor()</text>
<text text-anchor="start" x="55.5" y="-73.5" font-family="Helvetica,sans-Serif" font-size="10.00">+ ~TextLogIssueReportConvertor()</text>
<text text-anchor="start" x="55.5" y="-62.5" font-family="Helvetica,sans-Serif" font-size="10.00">+ TextLogIssueReportConvertor()</text>
<text text-anchor="start" x="55.5" y="-51.5" font-family="Helvetica,sans-Serif" font-size="10.00">+ TextLogIssueReportConvertor()</text>
<text text-anchor="start" x="55.5" y="-40.5" font-family="Helvetica,sans-Serif" font-size="10.00">+ operator=()</text>
<text text-anchor="start" x="55.5" y="-29.5" font-family="Helvetica,sans-Serif" font-size="10.00">+ operator=()</text>
<text text-anchor="start" x="55.5" y="-18.5" font-family="Helvetica,sans-Serif" font-size="10.00">+ getMappedIssueSeverity()</text>
<text text-anchor="start" x="55.5" y="-7.5" font-family="Helvetica,sans-Serif" font-size="10.00">+ getMappedIssue()</text>
</a>
</g>
</g>
<!-- Node2 -->
<g id="node2" class="node">
<title>Node2</title>
<g id="a_node2"><a xlink:href="../../db/de6/class_issue_report_convertor.html" target="_top" xlink:title="abstract class to convert issue report">
<polygon fill="none" stroke="black" points="66.5,-172.5 66.5,-284.5 215.5,-284.5 215.5,-172.5 66.5,-172.5"/>
<text text-anchor="middle" x="141" y="-272.5" font-family="Helvetica,sans-Serif" font-size="10.00">IssueReportConvertor</text>
<polyline fill="none" stroke="black" points="66.5,-265.5 215.5,-265.5 "/>
<text text-anchor="middle" x="141" y="-253.5" font-family="Helvetica,sans-Serif" font-size="10.00"> </text>
<polyline fill="none" stroke="black" points="66.5,-246.5 215.5,-246.5 "/>
<text text-anchor="start" x="74.5" y="-234.5" font-family="Helvetica,sans-Serif" font-size="10.00">+ IssueReportConvertor()</text>
<text text-anchor="start" x="74.5" y="-223.5" font-family="Helvetica,sans-Serif" font-size="10.00">+ ~IssueReportConvertor()</text>
<text text-anchor="start" x="74.5" y="-212.5" font-family="Helvetica,sans-Serif" font-size="10.00">+ IssueReportConvertor()</text>
<text text-anchor="start" x="74.5" y="-201.5" font-family="Helvetica,sans-Serif" font-size="10.00">+ IssueReportConvertor()</text>
<text text-anchor="start" x="74.5" y="-190.5" font-family="Helvetica,sans-Serif" font-size="10.00">+ operator=()</text>
<text text-anchor="start" x="74.5" y="-179.5" font-family="Helvetica,sans-Serif" font-size="10.00">+ operator=()</text>
</a>
</g>
</g>
<!-- Node2&#45;&gt;Node1 -->
<g id="edge1" class="edge">
<title>Node2&#45;&gt;Node1</title>
<path fill="none" stroke="midnightblue" d="M141,-162.17C141,-153.04 141,-143.65 141,-134.51"/>
<polygon fill="none" stroke="midnightblue" points="137.5,-162.34 141,-172.34 144.5,-162.34 137.5,-162.34"/>
</g>
<!-- Node3 -->
<g id="node3" class="node">
<title>Node3</title>
<g id="a_node3"><a xlink:href="../../df/dff/class_report_convertor.html" target="_top" xlink:title="abstract class to convert report">
<polygon fill="none" stroke="black" points="0,-332.5 0,-455.5 124,-455.5 124,-332.5 0,-332.5"/>
<text text-anchor="middle" x="62" y="-443.5" font-family="Helvetica,sans-Serif" font-size="10.00">ReportConvertor</text>
<polyline fill="none" stroke="black" points="0,-436.5 124,-436.5 "/>
<text text-anchor="middle" x="62" y="-424.5" font-family="Helvetica,sans-Serif" font-size="10.00"> </text>
<polyline fill="none" stroke="black" points="0,-417.5 124,-417.5 "/>
<text text-anchor="start" x="8" y="-405.5" font-family="Helvetica,sans-Serif" font-size="10.00">+ ReportConvertor()</text>
<text text-anchor="start" x="8" y="-394.5" font-family="Helvetica,sans-Serif" font-size="10.00">+ ~ReportConvertor()</text>
<text text-anchor="start" x="8" y="-383.5" font-family="Helvetica,sans-Serif" font-size="10.00">+ ReportConvertor()</text>
<text text-anchor="start" x="8" y="-372.5" font-family="Helvetica,sans-Serif" font-size="10.00">+ ReportConvertor()</text>
<text text-anchor="start" x="8" y="-361.5" font-family="Helvetica,sans-Serif" font-size="10.00">+ operator=()</text>
<text text-anchor="start" x="8" y="-350.5" font-family="Helvetica,sans-Serif" font-size="10.00">+ operator=()</text>
<text text-anchor="start" x="8" y="-339.5" font-family="Helvetica,sans-Serif" font-size="10.00">+ convert()</text>
</a>
</g>
</g>
<!-- Node3&#45;&gt;Node2 -->
<g id="edge2" class="edge">
<title>Node3&#45;&gt;Node2</title>
<path fill="none" stroke="midnightblue" d="M95.86,-322.92C102.03,-310.16 108.38,-297.02 114.3,-284.76"/>
<polygon fill="none" stroke="midnightblue" points="92.62,-321.59 91.42,-332.12 98.92,-324.64 92.62,-321.59"/>
</g>
<!-- Node4 -->
<g id="node4" class="node">
<title>Node4</title>
<g id="a_node4"><a xlink:title=" ">
<polygon fill="none" stroke="#bfbfbf" points="142.5,-360 142.5,-428 297.5,-428 297.5,-360 142.5,-360"/>
<text text-anchor="start" x="150.5" y="-416" font-family="Helvetica,sans-Serif" font-size="10.00">map&lt; ESonarCloudSeverity,</text>
<text text-anchor="middle" x="220" y="-405" font-family="Helvetica,sans-Serif" font-size="10.00"> std::string, std::less&lt;&gt; &gt;</text>
<polyline fill="none" stroke="#bfbfbf" points="142.5,-398 297.5,-398 "/>
<text text-anchor="middle" x="220" y="-386" font-family="Helvetica,sans-Serif" font-size="10.00"> </text>
<polyline fill="none" stroke="#bfbfbf" points="142.5,-379 297.5,-379 "/>
<text text-anchor="middle" x="220" y="-367" font-family="Helvetica,sans-Serif" font-size="10.00"> </text>
</a>
</g>
</g>
<!-- Node4&#45;&gt;Node2 -->
<g id="edge3" class="edge">
<title>Node4&#45;&gt;Node2</title>
<path fill="none" stroke="#404040" d="M204.01,-359.91C195.1,-341.47 183.68,-317.84 173.02,-295.77"/>
<polygon fill="none" stroke="#404040" points="172.92,-295.56 166.7,-291.89 167.7,-284.75 173.91,-288.41 172.92,-295.56"/>
<text text-anchor="middle" x="248.5" y="-306" font-family="Helvetica,sans-Serif" font-size="10.00"> +SonarCloudSeverityValue</text>
</g>
</g>
</svg>
