<?xml version="1.0" encoding="UTF-8" standalone="no"?>
<!DOCTYPE svg PUBLIC "-//W3C//DTD SVG 1.1//EN"
 "http://www.w3.org/Graphics/SVG/1.1/DTD/svg11.dtd">
<!-- Generated by graphviz version 2.43.0 (0)
 -->
<!-- Title: GccCompileWarningIssueReportConvertor Pages: 1 -->
<svg width="324pt" height="852pt"
 viewBox="0.00 0.00 324.00 852.00" xmlns="http://www.w3.org/2000/svg" xmlns:xlink="http://www.w3.org/1999/xlink">
<g id="graph0" class="graph" transform="scale(1 1) rotate(0) translate(4 848)">
<title>GccCompileWarningIssueReportConvertor</title>
<!-- Node1 -->
<g id="node1" class="node">
<title>Node1</title>
<g id="a_node1"><a xlink:title="abstract class to convert issue report">
<polygon fill="#bfbfbf" stroke="black" points="45,-0.5 45,-178.5 237,-178.5 237,-0.5 45,-0.5"/>
<text text-anchor="start" x="53" y="-166.5" font-family="Helvetica,sans-Serif" font-size="10.00">GccCompileWarningIssueReport</text>
<text text-anchor="middle" x="141" y="-155.5" font-family="Helvetica,sans-Serif" font-size="10.00">Convertor</text>
<polyline fill="none" stroke="black" points="45,-148.5 237,-148.5 "/>
<text text-anchor="middle" x="141" y="-136.5" font-family="Helvetica,sans-Serif" font-size="10.00"> </text>
<polyline fill="none" stroke="black" points="45,-129.5 237,-129.5 "/>
<text text-anchor="start" x="53" y="-117.5" font-family="Helvetica,sans-Serif" font-size="10.00">+ GccCompileWarningIssueReport</text>
<text text-anchor="start" x="53" y="-106.5" font-family="Helvetica,sans-Serif" font-size="10.00">Convertor()</text>
<text text-anchor="start" x="53" y="-95.5" font-family="Helvetica,sans-Serif" font-size="10.00">+ ~GccCompileWarningIssueReport</text>
<text text-anchor="start" x="53" y="-84.5" font-family="Helvetica,sans-Serif" font-size="10.00">Convertor()</text>
<text text-anchor="start" x="53" y="-73.5" font-family="Helvetica,sans-Serif" font-size="10.00">+ GccCompileWarningIssueReport</text>
<text text-anchor="start" x="53" y="-62.5" font-family="Helvetica,sans-Serif" font-size="10.00">Convertor()</text>
<text text-anchor="start" x="53" y="-51.5" font-family="Helvetica,sans-Serif" font-size="10.00">+ GccCompileWarningIssueReport</text>
<text text-anchor="start" x="53" y="-40.5" font-family="Helvetica,sans-Serif" font-size="10.00">Convertor()</text>
<text text-anchor="start" x="53" y="-29.5" font-family="Helvetica,sans-Serif" font-size="10.00">+ operator=()</text>
<text text-anchor="start" x="53" y="-18.5" font-family="Helvetica,sans-Serif" font-size="10.00">+ operator=()</text>
<text text-anchor="start" x="53" y="-7.5" font-family="Helvetica,sans-Serif" font-size="10.00">+ getInstance()</text>
</a>
</g>
</g>
<!-- Node2 -->
<g id="node2" class="node">
<title>Node2</title>
<g id="a_node2"><a xlink:href="../../dc/d88/class_unix_text_log_report_convertor.html" target="_top" xlink:title="abstract class to convert issue report">
<polygon fill="none" stroke="black" points="49,-216.5 49,-350.5 233,-350.5 233,-216.5 49,-216.5"/>
<text text-anchor="middle" x="141" y="-338.5" font-family="Helvetica,sans-Serif" font-size="10.00">UnixTextLogReportConvertor</text>
<polyline fill="none" stroke="black" points="49,-331.5 233,-331.5 "/>
<text text-anchor="middle" x="141" y="-319.5" font-family="Helvetica,sans-Serif" font-size="10.00"> </text>
<polyline fill="none" stroke="black" points="49,-312.5 233,-312.5 "/>
<text text-anchor="start" x="57" y="-300.5" font-family="Helvetica,sans-Serif" font-size="10.00">+ UnixTextLogReportConvertor()</text>
<text text-anchor="start" x="57" y="-289.5" font-family="Helvetica,sans-Serif" font-size="10.00">+ ~UnixTextLogReportConvertor()</text>
<text text-anchor="start" x="57" y="-278.5" font-family="Helvetica,sans-Serif" font-size="10.00">+ UnixTextLogReportConvertor()</text>
<text text-anchor="start" x="57" y="-267.5" font-family="Helvetica,sans-Serif" font-size="10.00">+ UnixTextLogReportConvertor()</text>
<text text-anchor="start" x="57" y="-256.5" font-family="Helvetica,sans-Serif" font-size="10.00">+ operator=()</text>
<text text-anchor="start" x="57" y="-245.5" font-family="Helvetica,sans-Serif" font-size="10.00">+ operator=()</text>
<text text-anchor="start" x="57" y="-234.5" font-family="Helvetica,sans-Serif" font-size="10.00">+ getMappedIssue()</text>
<text text-anchor="start" x="57" y="-223.5" font-family="Helvetica,sans-Serif" font-size="10.00">+ getMappedIssueSeverity()</text>
</a>
</g>
</g>
<!-- Node2&#45;&gt;Node1 -->
<g id="edge1" class="edge">
<title>Node2&#45;&gt;Node1</title>
<path fill="none" stroke="midnightblue" d="M141,-206.32C141,-197.26 141,-187.95 141,-178.74"/>
<polygon fill="none" stroke="midnightblue" points="137.5,-206.42 141,-216.42 144.5,-206.42 137.5,-206.42"/>
</g>
<!-- Node3 -->
<g id="node3" class="node">
<title>Node3</title>
<g id="a_node3"><a xlink:href="../../df/dee/class_text_log_issue_report_convertor.html" target="_top" xlink:title="abstract class to convert issue report">
<polygon fill="none" stroke="black" points="47.5,-388.5 47.5,-522.5 234.5,-522.5 234.5,-388.5 47.5,-388.5"/>
<text text-anchor="middle" x="141" y="-510.5" font-family="Helvetica,sans-Serif" font-size="10.00">TextLogIssueReportConvertor</text>
<polyline fill="none" stroke="black" points="47.5,-503.5 234.5,-503.5 "/>
<text text-anchor="middle" x="141" y="-491.5" font-family="Helvetica,sans-Serif" font-size="10.00"> </text>
<polyline fill="none" stroke="black" points="47.5,-484.5 234.5,-484.5 "/>
<text text-anchor="start" x="55.5" y="-472.5" font-family="Helvetica,sans-Serif" font-size="10.00">+ TextLogIssueReportConvertor()</text>
<text text-anchor="start" x="55.5" y="-461.5" font-family="Helvetica,sans-Serif" font-size="10.00">+ ~TextLogIssueReportConvertor()</text>
<text text-anchor="start" x="55.5" y="-450.5" font-family="Helvetica,sans-Serif" font-size="10.00">+ TextLogIssueReportConvertor()</text>
<text text-anchor="start" x="55.5" y="-439.5" font-family="Helvetica,sans-Serif" font-size="10.00">+ TextLogIssueReportConvertor()</text>
<text text-anchor="start" x="55.5" y="-428.5" font-family="Helvetica,sans-Serif" font-size="10.00">+ operator=()</text>
<text text-anchor="start" x="55.5" y="-417.5" font-family="Helvetica,sans-Serif" font-size="10.00">+ operator=()</text>
<text text-anchor="start" x="55.5" y="-406.5" font-family="Helvetica,sans-Serif" font-size="10.00">+ getMappedIssueSeverity()</text>
<text text-anchor="start" x="55.5" y="-395.5" font-family="Helvetica,sans-Serif" font-size="10.00">+ getMappedIssue()</text>
</a>
</g>
</g>
<!-- Node3&#45;&gt;Node2 -->
<g id="edge2" class="edge">
<title>Node3&#45;&gt;Node2</title>
<path fill="none" stroke="midnightblue" d="M141,-378.01C141,-368.84 141,-359.54 141,-350.53"/>
<polygon fill="none" stroke="midnightblue" points="137.5,-378.29 141,-388.29 144.5,-378.29 137.5,-378.29"/>
</g>
<!-- Node4 -->
<g id="node4" class="node">
<title>Node4</title>
<g id="a_node4"><a xlink:href="../../db/de6/class_issue_report_convertor.html" target="_top" xlink:title="abstract class to convert issue report">
<polygon fill="none" stroke="black" points="66.5,-560.5 66.5,-672.5 215.5,-672.5 215.5,-560.5 66.5,-560.5"/>
<text text-anchor="middle" x="141" y="-660.5" font-family="Helvetica,sans-Serif" font-size="10.00">IssueReportConvertor</text>
<polyline fill="none" stroke="black" points="66.5,-653.5 215.5,-653.5 "/>
<text text-anchor="middle" x="141" y="-641.5" font-family="Helvetica,sans-Serif" font-size="10.00"> </text>
<polyline fill="none" stroke="black" points="66.5,-634.5 215.5,-634.5 "/>
<text text-anchor="start" x="74.5" y="-622.5" font-family="Helvetica,sans-Serif" font-size="10.00">+ IssueReportConvertor()</text>
<text text-anchor="start" x="74.5" y="-611.5" font-family="Helvetica,sans-Serif" font-size="10.00">+ ~IssueReportConvertor()</text>
<text text-anchor="start" x="74.5" y="-600.5" font-family="Helvetica,sans-Serif" font-size="10.00">+ IssueReportConvertor()</text>
<text text-anchor="start" x="74.5" y="-589.5" font-family="Helvetica,sans-Serif" font-size="10.00">+ IssueReportConvertor()</text>
<text text-anchor="start" x="74.5" y="-578.5" font-family="Helvetica,sans-Serif" font-size="10.00">+ operator=()</text>
<text text-anchor="start" x="74.5" y="-567.5" font-family="Helvetica,sans-Serif" font-size="10.00">+ operator=()</text>
</a>
</g>
</g>
<!-- Node4&#45;&gt;Node3 -->
<g id="edge3" class="edge">
<title>Node4&#45;&gt;Node3</title>
<path fill="none" stroke="midnightblue" d="M141,-550.17C141,-541.04 141,-531.65 141,-522.51"/>
<polygon fill="none" stroke="midnightblue" points="137.5,-550.34 141,-560.34 144.5,-550.34 137.5,-550.34"/>
</g>
<!-- Node5 -->
<g id="node5" class="node">
<title>Node5</title>
<g id="a_node5"><a xlink:href="../../df/dff/class_report_convertor.html" target="_top" xlink:title="abstract class to convert report">
<polygon fill="none" stroke="black" points="0,-720.5 0,-843.5 124,-843.5 124,-720.5 0,-720.5"/>
<text text-anchor="middle" x="62" y="-831.5" font-family="Helvetica,sans-Serif" font-size="10.00">ReportConvertor</text>
<polyline fill="none" stroke="black" points="0,-824.5 124,-824.5 "/>
<text text-anchor="middle" x="62" y="-812.5" font-family="Helvetica,sans-Serif" font-size="10.00"> </text>
<polyline fill="none" stroke="black" points="0,-805.5 124,-805.5 "/>
<text text-anchor="start" x="8" y="-793.5" font-family="Helvetica,sans-Serif" font-size="10.00">+ ReportConvertor()</text>
<text text-anchor="start" x="8" y="-782.5" font-family="Helvetica,sans-Serif" font-size="10.00">+ ~ReportConvertor()</text>
<text text-anchor="start" x="8" y="-771.5" font-family="Helvetica,sans-Serif" font-size="10.00">+ ReportConvertor()</text>
<text text-anchor="start" x="8" y="-760.5" font-family="Helvetica,sans-Serif" font-size="10.00">+ ReportConvertor()</text>
<text text-anchor="start" x="8" y="-749.5" font-family="Helvetica,sans-Serif" font-size="10.00">+ operator=()</text>
<text text-anchor="start" x="8" y="-738.5" font-family="Helvetica,sans-Serif" font-size="10.00">+ operator=()</text>
<text text-anchor="start" x="8" y="-727.5" font-family="Helvetica,sans-Serif" font-size="10.00">+ convert()</text>
</a>
</g>
</g>
<!-- Node5&#45;&gt;Node4 -->
<g id="edge4" class="edge">
<title>Node5&#45;&gt;Node4</title>
<path fill="none" stroke="midnightblue" d="M95.86,-710.92C102.03,-698.16 108.38,-685.02 114.3,-672.76"/>
<polygon fill="none" stroke="midnightblue" points="92.62,-709.59 91.42,-720.12 98.92,-712.64 92.62,-709.59"/>
</g>
<!-- Node6 -->
<g id="node6" class="node">
<title>Node6</title>
<g id="a_node6"><a xlink:title=" ">
<polygon fill="none" stroke="#bfbfbf" points="142.5,-748 142.5,-816 297.5,-816 297.5,-748 142.5,-748"/>
<text text-anchor="start" x="150.5" y="-804" font-family="Helvetica,sans-Serif" font-size="10.00">map&lt; ESonarCloudSeverity,</text>
<text text-anchor="middle" x="220" y="-793" font-family="Helvetica,sans-Serif" font-size="10.00"> std::string, std::less&lt;&gt; &gt;</text>
<polyline fill="none" stroke="#bfbfbf" points="142.5,-786 297.5,-786 "/>
<text text-anchor="middle" x="220" y="-774" font-family="Helvetica,sans-Serif" font-size="10.00"> </text>
<polyline fill="none" stroke="#bfbfbf" points="142.5,-767 297.5,-767 "/>
<text text-anchor="middle" x="220" y="-755" font-family="Helvetica,sans-Serif" font-size="10.00"> </text>
</a>
</g>
</g>
<!-- Node6&#45;&gt;Node4 -->
<g id="edge5" class="edge">
<title>Node6&#45;&gt;Node4</title>
<path fill="none" stroke="#404040" d="M204.01,-747.91C195.1,-729.47 183.68,-705.84 173.02,-683.77"/>
<polygon fill="none" stroke="#404040" points="172.92,-683.56 166.7,-679.89 167.7,-672.75 173.91,-676.41 172.92,-683.56"/>
<text text-anchor="middle" x="248.5" y="-694" font-family="Helvetica,sans-Serif" font-size="10.00"> +SonarCloudSeverityValue</text>
</g>
</g>
</svg>
