<?xml version="1.0" encoding="UTF-8" standalone="no"?>
<!DOCTYPE svg PUBLIC "-//W3C//DTD SVG 1.1//EN"
 "http://www.w3.org/Graphics/SVG/1.1/DTD/svg11.dtd">
<!-- Generated by graphviz version 2.43.0 (0)
 -->
<!-- Title: Issue Pages: 1 -->
<svg width="297pt" height="193pt"
 viewBox="0.00 0.00 296.50 193.00" xmlns="http://www.w3.org/2000/svg" xmlns:xlink="http://www.w3.org/1999/xlink">
<g id="graph0" class="graph" transform="scale(1 1) rotate(0) translate(4 189)">
<title>Issue</title>
<!-- Node1 -->
<g id="node1" class="node">
<title>Node1</title>
<g id="a_node1"><a xlink:title="The issue structure to complete for each item parsed.">
<polygon fill="#bfbfbf" stroke="black" points="144.5,-0.5 144.5,-57.5 186.5,-57.5 186.5,-0.5 144.5,-0.5"/>
<text text-anchor="middle" x="165.5" y="-45.5" font-family="Helvetica,sans-Serif" font-size="10.00">Issue</text>
<polyline fill="none" stroke="black" points="144.5,-38.5 186.5,-38.5 "/>
<text text-anchor="middle" x="165.5" y="-26.5" font-family="Helvetica,sans-Serif" font-size="10.00"> </text>
<polyline fill="none" stroke="black" points="144.5,-19.5 186.5,-19.5 "/>
<text text-anchor="middle" x="165.5" y="-7.5" font-family="Helvetica,sans-Serif" font-size="10.00"> </text>
</a>
</g>
</g>
<!-- Node2 -->
<g id="node2" class="node">
<title>Node2</title>
<g id="a_node2"><a xlink:title=" ">
<polygon fill="none" stroke="#bfbfbf" points="0,-127.5 0,-184.5 119,-184.5 119,-127.5 0,-127.5"/>
<text text-anchor="middle" x="59.5" y="-172.5" font-family="Helvetica,sans-Serif" font-size="10.00">ESonarCloudSeverity</text>
<polyline fill="none" stroke="#bfbfbf" points="0,-165.5 119,-165.5 "/>
<text text-anchor="middle" x="59.5" y="-153.5" font-family="Helvetica,sans-Serif" font-size="10.00"> </text>
<polyline fill="none" stroke="#bfbfbf" points="0,-146.5 119,-146.5 "/>
<text text-anchor="middle" x="59.5" y="-134.5" font-family="Helvetica,sans-Serif" font-size="10.00"> </text>
</a>
</g>
</g>
<!-- Node2&#45;&gt;Node1 -->
<g id="edge1" class="edge">
<title>Node2&#45;&gt;Node1</title>
<path fill="none" stroke="#404040" d="M74.18,-127.18C83.24,-111.32 95.74,-91.57 109.5,-76 117.01,-67.51 126.16,-59.29 134.88,-52.22"/>
<polygon fill="none" stroke="#404040" points="134.97,-52.14 137.24,-45.3 144.43,-44.75 142.16,-51.6 134.97,-52.14"/>
<text text-anchor="middle" x="135.5" y="-90" font-family="Helvetica,sans-Serif" font-size="10.00"> +severity</text>
</g>
<!-- Node3 -->
<g id="node3" class="node">
<title>Node3</title>
<g id="a_node3"><a xlink:title=" ">
<polygon fill="none" stroke="#bfbfbf" points="137.5,-127.5 137.5,-184.5 193.5,-184.5 193.5,-127.5 137.5,-127.5"/>
<text text-anchor="middle" x="165.5" y="-172.5" font-family="Helvetica,sans-Serif" font-size="10.00">uint64_t</text>
<polyline fill="none" stroke="#bfbfbf" points="137.5,-165.5 193.5,-165.5 "/>
<text text-anchor="middle" x="165.5" y="-153.5" font-family="Helvetica,sans-Serif" font-size="10.00"> </text>
<polyline fill="none" stroke="#bfbfbf" points="137.5,-146.5 193.5,-146.5 "/>
<text text-anchor="middle" x="165.5" y="-134.5" font-family="Helvetica,sans-Serif" font-size="10.00"> </text>
</a>
</g>
</g>
<!-- Node3&#45;&gt;Node1 -->
<g id="edge2" class="edge">
<title>Node3&#45;&gt;Node1</title>
<path fill="none" stroke="#404040" d="M165.5,-127.26C165.5,-110.35 165.5,-88.46 165.5,-69.73"/>
<polygon fill="none" stroke="#404040" points="165.5,-69.66 161.5,-63.66 165.5,-57.66 169.5,-63.66 165.5,-69.66"/>
<text text-anchor="middle" x="189.5" y="-95.5" font-family="Helvetica,sans-Serif" font-size="10.00"> +column</text>
<text text-anchor="middle" x="189.5" y="-84.5" font-family="Helvetica,sans-Serif" font-size="10.00">+line</text>
</g>
<!-- Node4 -->
<g id="node4" class="node">
<title>Node4</title>
<g id="a_node4"><a xlink:title=" ">
<polygon fill="none" stroke="#bfbfbf" points="214.5,-127.5 214.5,-184.5 258.5,-184.5 258.5,-127.5 214.5,-127.5"/>
<text text-anchor="middle" x="236.5" y="-172.5" font-family="Helvetica,sans-Serif" font-size="10.00">string</text>
<polyline fill="none" stroke="#bfbfbf" points="214.5,-165.5 258.5,-165.5 "/>
<text text-anchor="middle" x="236.5" y="-153.5" font-family="Helvetica,sans-Serif" font-size="10.00"> </text>
<polyline fill="none" stroke="#bfbfbf" points="214.5,-146.5 258.5,-146.5 "/>
<text text-anchor="middle" x="236.5" y="-134.5" font-family="Helvetica,sans-Serif" font-size="10.00"> </text>
</a>
</g>
</g>
<!-- Node4&#45;&gt;Node1 -->
<g id="edge3" class="edge">
<title>Node4&#45;&gt;Node1</title>
<path fill="none" stroke="#404040" d="M232.58,-127.19C229.44,-111.34 223.94,-91.59 214.5,-76 209.6,-67.9 202.88,-60.32 196,-53.73"/>
<polygon fill="none" stroke="#404040" points="195.62,-53.4 188.48,-52.4 186.65,-45.42 193.79,-46.42 195.62,-53.4"/>
<text text-anchor="middle" x="258" y="-101" font-family="Helvetica,sans-Serif" font-size="10.00"> +message</text>
<text text-anchor="middle" x="258" y="-90" font-family="Helvetica,sans-Serif" font-size="10.00">+rule_id</text>
<text text-anchor="middle" x="258" y="-79" font-family="Helvetica,sans-Serif" font-size="10.00">+source_file</text>
</g>
</g>
</svg>
