<?xml version="1.0" encoding="UTF-8" standalone="no"?>
<!DOCTYPE svg PUBLIC "-//W3C//DTD SVG 1.1//EN"
 "http://www.w3.org/Graphics/SVG/1.1/DTD/svg11.dtd">
<!-- Generated by graphviz version 2.43.0 (0)
 -->
<!-- Title: ClangTidyIssueReportConvertor Pages: 1 -->
<svg width="206pt" height="794pt"
 viewBox="0.00 0.00 206.00 794.00" xmlns="http://www.w3.org/2000/svg" xmlns:xlink="http://www.w3.org/1999/xlink">
<g id="graph0" class="graph" transform="scale(1 1) rotate(0) translate(4 790)">
<title>ClangTidyIssueReportConvertor</title>
<!-- Node1 -->
<g id="node1" class="node">
<title>Node1</title>
<g id="a_node1"><a xlink:title="abstract class to convert issue report">
<polygon fill="#bfbfbf" stroke="black" points="0,-0.5 0,-134.5 198,-134.5 198,-0.5 0,-0.5"/>
<text text-anchor="middle" x="99" y="-122.5" font-family="Helvetica,sans-Serif" font-size="10.00">ClangTidyIssueReportConvertor</text>
<polyline fill="none" stroke="black" points="0,-115.5 198,-115.5 "/>
<text text-anchor="middle" x="99" y="-103.5" font-family="Helvetica,sans-Serif" font-size="10.00"> </text>
<polyline fill="none" stroke="black" points="0,-96.5 198,-96.5 "/>
<text text-anchor="start" x="8" y="-84.5" font-family="Helvetica,sans-Serif" font-size="10.00">+ ClangTidyIssueReportConvertor()</text>
<text text-anchor="start" x="8" y="-73.5" font-family="Helvetica,sans-Serif" font-size="10.00">+ ~ClangTidyIssueReportConvertor()</text>
<text text-anchor="start" x="8" y="-62.5" font-family="Helvetica,sans-Serif" font-size="10.00">+ ClangTidyIssueReportConvertor()</text>
<text text-anchor="start" x="8" y="-51.5" font-family="Helvetica,sans-Serif" font-size="10.00">+ ClangTidyIssueReportConvertor()</text>
<text text-anchor="start" x="8" y="-40.5" font-family="Helvetica,sans-Serif" font-size="10.00">+ operator=()</text>
<text text-anchor="start" x="8" y="-29.5" font-family="Helvetica,sans-Serif" font-size="10.00">+ operator=()</text>
<text text-anchor="start" x="8" y="-18.5" font-family="Helvetica,sans-Serif" font-size="10.00">+ getMappedIssueSeverity()</text>
<text text-anchor="start" x="8" y="-7.5" font-family="Helvetica,sans-Serif" font-size="10.00">+ getInstance()</text>
</a>
</g>
</g>
<!-- Node2 -->
<g id="node2" class="node">
<title>Node2</title>
<g id="a_node2"><a xlink:href="../../dc/d88/class_unix_text_log_report_convertor.html" target="_top" xlink:title="abstract class to convert issue report">
<polygon fill="none" stroke="black" points="7,-171.5 7,-305.5 191,-305.5 191,-171.5 7,-171.5"/>
<text text-anchor="middle" x="99" y="-293.5" font-family="Helvetica,sans-Serif" font-size="10.00">UnixTextLogReportConvertor</text>
<polyline fill="none" stroke="black" points="7,-286.5 191,-286.5 "/>
<text text-anchor="middle" x="99" y="-274.5" font-family="Helvetica,sans-Serif" font-size="10.00"> </text>
<polyline fill="none" stroke="black" points="7,-267.5 191,-267.5 "/>
<text text-anchor="start" x="15" y="-255.5" font-family="Helvetica,sans-Serif" font-size="10.00">+ UnixTextLogReportConvertor()</text>
<text text-anchor="start" x="15" y="-244.5" font-family="Helvetica,sans-Serif" font-size="10.00">+ ~UnixTextLogReportConvertor()</text>
<text text-anchor="start" x="15" y="-233.5" font-family="Helvetica,sans-Serif" font-size="10.00">+ UnixTextLogReportConvertor()</text>
<text text-anchor="start" x="15" y="-222.5" font-family="Helvetica,sans-Serif" font-size="10.00">+ UnixTextLogReportConvertor()</text>
<text text-anchor="start" x="15" y="-211.5" font-family="Helvetica,sans-Serif" font-size="10.00">+ operator=()</text>
<text text-anchor="start" x="15" y="-200.5" font-family="Helvetica,sans-Serif" font-size="10.00">+ operator=()</text>
<text text-anchor="start" x="15" y="-189.5" font-family="Helvetica,sans-Serif" font-size="10.00">+ getMappedIssue()</text>
<text text-anchor="start" x="15" y="-178.5" font-family="Helvetica,sans-Serif" font-size="10.00">+ getMappedIssueSeverity()</text>
</a>
</g>
</g>
<!-- Node2&#45;&gt;Node1 -->
<g id="edge1" class="edge">
<title>Node2&#45;&gt;Node1</title>
<path fill="none" stroke="midnightblue" d="M99,-160.95C99,-152.16 99,-143.25 99,-134.62"/>
<polygon fill="none" stroke="midnightblue" points="95.5,-161.19 99,-171.19 102.5,-161.19 95.5,-161.19"/>
</g>
<!-- Node3 -->
<g id="node3" class="node">
<title>Node3</title>
<g id="a_node3"><a xlink:href="../../df/dee/class_text_log_issue_report_convertor.html" target="_top" xlink:title="abstract class to convert issue report">
<polygon fill="none" stroke="black" points="5.5,-342.5 5.5,-476.5 192.5,-476.5 192.5,-342.5 5.5,-342.5"/>
<text text-anchor="middle" x="99" y="-464.5" font-family="Helvetica,sans-Serif" font-size="10.00">TextLogIssueReportConvertor</text>
<polyline fill="none" stroke="black" points="5.5,-457.5 192.5,-457.5 "/>
<text text-anchor="middle" x="99" y="-445.5" font-family="Helvetica,sans-Serif" font-size="10.00"> </text>
<polyline fill="none" stroke="black" points="5.5,-438.5 192.5,-438.5 "/>
<text text-anchor="start" x="13.5" y="-426.5" font-family="Helvetica,sans-Serif" font-size="10.00">+ TextLogIssueReportConvertor()</text>
<text text-anchor="start" x="13.5" y="-415.5" font-family="Helvetica,sans-Serif" font-size="10.00">+ ~TextLogIssueReportConvertor()</text>
<text text-anchor="start" x="13.5" y="-404.5" font-family="Helvetica,sans-Serif" font-size="10.00">+ TextLogIssueReportConvertor()</text>
<text text-anchor="start" x="13.5" y="-393.5" font-family="Helvetica,sans-Serif" font-size="10.00">+ TextLogIssueReportConvertor()</text>
<text text-anchor="start" x="13.5" y="-382.5" font-family="Helvetica,sans-Serif" font-size="10.00">+ operator=()</text>
<text text-anchor="start" x="13.5" y="-371.5" font-family="Helvetica,sans-Serif" font-size="10.00">+ operator=()</text>
<text text-anchor="start" x="13.5" y="-360.5" font-family="Helvetica,sans-Serif" font-size="10.00">+ getMappedIssueSeverity()</text>
<text text-anchor="start" x="13.5" y="-349.5" font-family="Helvetica,sans-Serif" font-size="10.00">+ getMappedIssue()</text>
</a>
</g>
</g>
<!-- Node3&#45;&gt;Node2 -->
<g id="edge2" class="edge">
<title>Node3&#45;&gt;Node2</title>
<path fill="none" stroke="midnightblue" d="M99,-331.95C99,-323.16 99,-314.25 99,-305.62"/>
<polygon fill="none" stroke="midnightblue" points="95.5,-332.19 99,-342.19 102.5,-332.19 95.5,-332.19"/>
</g>
<!-- Node4 -->
<g id="node4" class="node">
<title>Node4</title>
<g id="a_node4"><a xlink:href="../../db/de6/class_issue_report_convertor.html" target="_top" xlink:title="abstract class to convert issue report">
<polygon fill="none" stroke="black" points="23.5,-513.5 23.5,-625.5 174.5,-625.5 174.5,-513.5 23.5,-513.5"/>
<text text-anchor="middle" x="99" y="-613.5" font-family="Helvetica,sans-Serif" font-size="10.00">IssueReportConvertor</text>
<polyline fill="none" stroke="black" points="23.5,-606.5 174.5,-606.5 "/>
<text text-anchor="start" x="31.5" y="-594.5" font-family="Helvetica,sans-Serif" font-size="10.00">+ SonarCloudSeverityValue</text>
<polyline fill="none" stroke="black" points="23.5,-587.5 174.5,-587.5 "/>
<text text-anchor="start" x="31.5" y="-575.5" font-family="Helvetica,sans-Serif" font-size="10.00">+ IssueReportConvertor()</text>
<text text-anchor="start" x="31.5" y="-564.5" font-family="Helvetica,sans-Serif" font-size="10.00">+ ~IssueReportConvertor()</text>
<text text-anchor="start" x="31.5" y="-553.5" font-family="Helvetica,sans-Serif" font-size="10.00">+ IssueReportConvertor()</text>
<text text-anchor="start" x="31.5" y="-542.5" font-family="Helvetica,sans-Serif" font-size="10.00">+ IssueReportConvertor()</text>
<text text-anchor="start" x="31.5" y="-531.5" font-family="Helvetica,sans-Serif" font-size="10.00">+ operator=()</text>
<text text-anchor="start" x="31.5" y="-520.5" font-family="Helvetica,sans-Serif" font-size="10.00">+ operator=()</text>
</a>
</g>
</g>
<!-- Node4&#45;&gt;Node3 -->
<g id="edge3" class="edge">
<title>Node4&#45;&gt;Node3</title>
<path fill="none" stroke="midnightblue" d="M99,-503.09C99,-494.34 99,-485.35 99,-476.59"/>
<polygon fill="none" stroke="midnightblue" points="95.5,-503.24 99,-513.24 102.5,-503.24 95.5,-503.24"/>
</g>
<!-- Node5 -->
<g id="node5" class="node">
<title>Node5</title>
<g id="a_node5"><a xlink:href="../../df/dff/class_report_convertor.html" target="_top" xlink:title="abstract class to convert report">
<polygon fill="none" stroke="black" points="37,-662.5 37,-785.5 161,-785.5 161,-662.5 37,-662.5"/>
<text text-anchor="middle" x="99" y="-773.5" font-family="Helvetica,sans-Serif" font-size="10.00">ReportConvertor</text>
<polyline fill="none" stroke="black" points="37,-766.5 161,-766.5 "/>
<text text-anchor="middle" x="99" y="-754.5" font-family="Helvetica,sans-Serif" font-size="10.00"> </text>
<polyline fill="none" stroke="black" points="37,-747.5 161,-747.5 "/>
<text text-anchor="start" x="45" y="-735.5" font-family="Helvetica,sans-Serif" font-size="10.00">+ ReportConvertor()</text>
<text text-anchor="start" x="45" y="-724.5" font-family="Helvetica,sans-Serif" font-size="10.00">+ ~ReportConvertor()</text>
<text text-anchor="start" x="45" y="-713.5" font-family="Helvetica,sans-Serif" font-size="10.00">+ ReportConvertor()</text>
<text text-anchor="start" x="45" y="-702.5" font-family="Helvetica,sans-Serif" font-size="10.00">+ ReportConvertor()</text>
<text text-anchor="start" x="45" y="-691.5" font-family="Helvetica,sans-Serif" font-size="10.00">+ operator=()</text>
<text text-anchor="start" x="45" y="-680.5" font-family="Helvetica,sans-Serif" font-size="10.00">+ operator=()</text>
<text text-anchor="start" x="45" y="-669.5" font-family="Helvetica,sans-Serif" font-size="10.00">+ convert()</text>
</a>
</g>
</g>
<!-- Node5&#45;&gt;Node4 -->
<g id="edge4" class="edge">
<title>Node5&#45;&gt;Node4</title>
<path fill="none" stroke="midnightblue" d="M99,-652.25C99,-643.29 99,-634.23 99,-625.56"/>
<polygon fill="none" stroke="midnightblue" points="95.5,-652.29 99,-662.29 102.5,-652.29 95.5,-652.29"/>
</g>
</g>
</svg>
