<?xml version="1.0" encoding="UTF-8" standalone="no"?>
<!DOCTYPE svg PUBLIC "-//W3C//DTD SVG 1.1//EN"
 "http://www.w3.org/Graphics/SVG/1.1/DTD/svg11.dtd">
<!-- Generated by graphviz version 2.43.0 (0)
 -->
<!-- Title: Graphical Class Hierarchy Pages: 1 -->
<svg width="895pt" height="116pt"
 viewBox="0.00 0.00 895.00 115.50" xmlns="http://www.w3.org/2000/svg" xmlns:xlink="http://www.w3.org/1999/xlink">
<g id="graph0" class="graph" transform="scale(1 1) rotate(0) translate(4 111.5)">
<title>Graphical Class Hierarchy</title>
<!-- Node0 -->
<g id="node1" class="node">
<title>Node0</title>
<g id="a_node1"><a xlink:href="df/dff/class_report_convertor.html" target="_top" xlink:title="abstract class to convert report">
<polygon fill="none" stroke="black" points="0,-69 0,-88 97,-88 97,-69 0,-69"/>
<text text-anchor="middle" x="48.5" y="-76" font-family="Helvetica,sans-Serif" font-size="10.00">ReportConvertor</text>
</a>
</g>
</g>
<!-- Node1 -->
<g id="node2" class="node">
<title>Node1</title>
<g id="a_node2"><a xlink:href="db/de6/class_issue_report_convertor.html" target="_top" xlink:title="abstract class to convert issue report">
<polygon fill="none" stroke="black" points="133,-69 133,-88 255,-88 255,-69 133,-69"/>
<text text-anchor="middle" x="194" y="-76" font-family="Helvetica,sans-Serif" font-size="10.00">IssueReportConvertor</text>
</a>
</g>
</g>
<!-- Node0&#45;&gt;Node1 -->
<g id="edge1" class="edge">
<title>Node0&#45;&gt;Node1</title>
<path fill="none" stroke="midnightblue" d="M107.38,-78.5C115.79,-78.5 124.46,-78.5 132.92,-78.5"/>
<polygon fill="midnightblue" stroke="midnightblue" points="107.28,-75 97.28,-78.5 107.28,-82 107.28,-75"/>
</g>
<!-- Node2 -->
<g id="node3" class="node">
<title>Node2</title>
<g id="a_node3"><a xlink:href="d7/d9a/class_cpp_check_issue_report_convertor.html" target="_top" xlink:title="abstract class to convert issue report">
<polygon fill="none" stroke="black" points="291,-88 291,-107 462,-107 462,-88 291,-88"/>
<text text-anchor="middle" x="376.5" y="-95" font-family="Helvetica,sans-Serif" font-size="10.00">CppCheckIssueReportConvertor</text>
</a>
</g>
</g>
<!-- Node1&#45;&gt;Node2 -->
<g id="edge2" class="edge">
<title>Node1&#45;&gt;Node2</title>
<path fill="none" stroke="midnightblue" d="M265.23,-85.89C273.64,-86.78 282.31,-87.69 290.9,-88.59"/>
<polygon fill="midnightblue" stroke="midnightblue" points="265.42,-82.39 255.1,-84.83 264.68,-89.35 265.42,-82.39"/>
</g>
<!-- Node3 -->
<g id="node4" class="node">
<title>Node3</title>
<g id="a_node4"><a xlink:href="df/dee/class_text_log_issue_report_convertor.html" target="_top" xlink:title="abstract class to convert issue report">
<polygon fill="none" stroke="black" points="296.5,-50 296.5,-69 456.5,-69 456.5,-50 296.5,-50"/>
<text text-anchor="middle" x="376.5" y="-57" font-family="Helvetica,sans-Serif" font-size="10.00">TextLogIssueReportConvertor</text>
</a>
</g>
</g>
<!-- Node1&#45;&gt;Node3 -->
<g id="edge3" class="edge">
<title>Node1&#45;&gt;Node3</title>
<path fill="none" stroke="midnightblue" d="M265.19,-71.11C275.41,-70.04 286,-68.92 296.39,-67.83"/>
<polygon fill="midnightblue" stroke="midnightblue" points="264.68,-67.65 255.1,-72.17 265.42,-74.61 264.68,-67.65"/>
</g>
<!-- Node4 -->
<g id="node5" class="node">
<title>Node4</title>
<g id="a_node5"><a xlink:href="d0/d81/class_msvc_compile_warning_issue_report_convertor.html" target="_top" xlink:title="abstract class to convert issue report">
<polygon fill="none" stroke="black" points="498,-66.5 498,-96.5 678,-96.5 678,-66.5 498,-66.5"/>
<text text-anchor="start" x="506" y="-84.5" font-family="Helvetica,sans-Serif" font-size="10.00">MsvcCompileWarningIssueReport</text>
<text text-anchor="middle" x="588" y="-73.5" font-family="Helvetica,sans-Serif" font-size="10.00">Convertor</text>
</a>
</g>
</g>
<!-- Node3&#45;&gt;Node4 -->
<g id="edge4" class="edge">
<title>Node3&#45;&gt;Node4</title>
<path fill="none" stroke="midnightblue" d="M466.88,-68.89C477.14,-69.96 487.6,-71.06 497.86,-72.14"/>
<polygon fill="midnightblue" stroke="midnightblue" points="467.01,-65.38 456.7,-67.82 466.28,-72.34 467.01,-65.38"/>
</g>
<!-- Node5 -->
<g id="node6" class="node">
<title>Node5</title>
<g id="a_node6"><a xlink:href="dc/d88/class_unix_text_log_report_convertor.html" target="_top" xlink:title="abstract class to convert issue report">
<polygon fill="none" stroke="black" points="509.5,-28 509.5,-47 666.5,-47 666.5,-28 509.5,-28"/>
<text text-anchor="middle" x="588" y="-35" font-family="Helvetica,sans-Serif" font-size="10.00">UnixTextLogReportConvertor</text>
</a>
</g>
</g>
<!-- Node3&#45;&gt;Node5 -->
<g id="edge5" class="edge">
<title>Node3&#45;&gt;Node5</title>
<path fill="none" stroke="midnightblue" d="M466.92,-50.11C481.06,-48.63 495.58,-47.1 509.42,-45.65"/>
<polygon fill="midnightblue" stroke="midnightblue" points="466.28,-46.66 456.7,-51.18 467.01,-53.62 466.28,-46.66"/>
</g>
<!-- Node6 -->
<g id="node7" class="node">
<title>Node6</title>
<g id="a_node7"><a xlink:href="d2/d59/class_clang_tidy_issue_report_convertor.html" target="_top" xlink:title="abstract class to convert issue report">
<polygon fill="none" stroke="black" points="715,-50 715,-69 886,-69 886,-50 715,-50"/>
<text text-anchor="middle" x="800.5" y="-57" font-family="Helvetica,sans-Serif" font-size="10.00">ClangTidyIssueReportConvertor</text>
</a>
</g>
</g>
<!-- Node5&#45;&gt;Node6 -->
<g id="edge6" class="edge">
<title>Node5&#45;&gt;Node6</title>
<path fill="none" stroke="midnightblue" d="M676.82,-46.68C689.44,-48 702.4,-49.35 714.96,-50.66"/>
<polygon fill="midnightblue" stroke="midnightblue" points="677.09,-43.19 666.78,-45.63 676.37,-50.15 677.09,-43.19"/>
</g>
<!-- Node7 -->
<g id="node8" class="node">
<title>Node7</title>
<g id="a_node8"><a xlink:href="d0/d54/class_gcc_compile_warning_issue_report_convertor.html" target="_top" xlink:title="abstract class to convert issue report">
<polygon fill="none" stroke="black" points="714,-0.5 714,-30.5 887,-30.5 887,-0.5 714,-0.5"/>
<text text-anchor="start" x="722" y="-18.5" font-family="Helvetica,sans-Serif" font-size="10.00">GccCompileWarningIssueReport</text>
<text text-anchor="middle" x="800.5" y="-7.5" font-family="Helvetica,sans-Serif" font-size="10.00">Convertor</text>
</a>
</g>
</g>
<!-- Node5&#45;&gt;Node7 -->
<g id="edge7" class="edge">
<title>Node5&#45;&gt;Node7</title>
<path fill="none" stroke="midnightblue" d="M676.96,-28.31C689.18,-27.03 701.72,-25.72 713.89,-24.45"/>
<polygon fill="midnightblue" stroke="midnightblue" points="676.37,-24.85 666.78,-29.37 677.09,-31.81 676.37,-24.85"/>
</g>
</g>
</svg>
