<?xml version="1.0" encoding="UTF-8" standalone="no"?>
<!DOCTYPE svg PUBLIC "-//W3C//DTD SVG 1.1//EN"
 "http://www.w3.org/Graphics/SVG/1.1/DTD/svg11.dtd">
<!-- Generated by graphviz version 2.43.0 (0)
 -->
<!-- Title: ClangTidyIssueReportConvertor::getInstance Pages: 1 -->
<svg width="385pt" height="39pt"
 viewBox="0.00 0.00 385.00 39.00" xmlns="http://www.w3.org/2000/svg" xmlns:xlink="http://www.w3.org/1999/xlink">
<g id="graph0" class="graph" transform="scale(1 1) rotate(0) translate(4 35)">
<title>ClangTidyIssueReportConvertor::getInstance</title>
<!-- Node1 -->
<g id="node1" class="node">
<title>Node1</title>
<g id="a_node1"><a xlink:title="Get instance of singleton ClangTidyIssueReportConvertor.">
<polygon fill="#bfbfbf" stroke="black" points="206,-0.5 206,-30.5 377,-30.5 377,-0.5 206,-0.5"/>
<text text-anchor="start" x="214" y="-18.5" font-family="Helvetica,sans-Serif" font-size="10.00">ClangTidyIssueReportConvertor</text>
<text text-anchor="middle" x="291.5" y="-7.5" font-family="Helvetica,sans-Serif" font-size="10.00">::getInstance</text>
</a>
</g>
</g>
<!-- Node2 -->
<g id="node2" class="node">
<title>Node2</title>
<g id="a_node2"><a xlink:href="../../de/d6b/class_application.html#a7a5f0d21081c19b16f0038f0ce1477a4" target="_top" xlink:title="Method to run application.">
<polygon fill="none" stroke="black" points="77,-6 77,-25 170,-25 170,-6 77,-6"/>
<text text-anchor="middle" x="123.5" y="-13" font-family="Helvetica,sans-Serif" font-size="10.00">Application::run</text>
</a>
</g>
</g>
<!-- Node1&#45;&gt;Node2 -->
<g id="edge1" class="edge">
<title>Node1&#45;&gt;Node2</title>
<path fill="none" stroke="midnightblue" d="M195.36,-15.5C186.73,-15.5 178.27,-15.5 170.38,-15.5"/>
<polygon fill="midnightblue" stroke="midnightblue" points="195.55,-19 205.55,-15.5 195.55,-12 195.55,-19"/>
</g>
<!-- Node3 -->
<g id="node3" class="node">
<title>Node3</title>
<g id="a_node3"><a xlink:href="../../df/d0a/main_8cpp.html#a1e53c4c3470ded40a0119755a8456f2a" target="_top" xlink:title="entry of application">
<polygon fill="none" stroke="black" points="0,-6 0,-25 41,-25 41,-6 0,-6"/>
<text text-anchor="middle" x="20.5" y="-13" font-family="Helvetica,sans-Serif" font-size="10.00">main</text>
</a>
</g>
</g>
<!-- Node2&#45;&gt;Node3 -->
<g id="edge2" class="edge">
<title>Node2&#45;&gt;Node3</title>
<path fill="none" stroke="midnightblue" d="M66.72,-15.5C57.53,-15.5 48.58,-15.5 41.09,-15.5"/>
<polygon fill="midnightblue" stroke="midnightblue" points="66.73,-19 76.73,-15.5 66.73,-12 66.73,-19"/>
</g>
</g>
</svg>
