<?xml version="1.0" encoding="UTF-8" standalone="no"?>
<!DOCTYPE svg PUBLIC "-//W3C//DTD SVG 1.1//EN"
 "http://www.w3.org/Graphics/SVG/1.1/DTD/svg11.dtd">
<!-- Generated by graphviz version 2.43.0 (0)
 -->
<!-- Title: src/exception/CppCosoException.hpp Pages: 1 -->
<svg width="332pt" height="162pt"
 viewBox="0.00 0.00 332.00 162.00" xmlns="http://www.w3.org/2000/svg" xmlns:xlink="http://www.w3.org/1999/xlink">
<g id="graph0" class="graph" transform="scale(1 1) rotate(0) translate(4 158)">
<title>src/exception/CppCosoException.hpp</title>
<!-- Node1 -->
<g id="node1" class="node">
<title>Node1</title>
<g id="a_node1"><a xlink:title=" ">
<polygon fill="#bfbfbf" stroke="black" points="64.5,-134.5 64.5,-153.5 261.5,-153.5 261.5,-134.5 64.5,-134.5"/>
<text text-anchor="middle" x="163" y="-141.5" font-family="Helvetica,sans-Serif" font-size="10.00">src/exception/CppCosoException.hpp</text>
</a>
</g>
</g>
<!-- Node2 -->
<g id="node2" class="node">
<title>Node2</title>
<g id="a_node2"><a xlink:href="../../db/d55/_conversion_exception_8hpp.html" target="_top" xlink:title=" ">
<polygon fill="none" stroke="black" points="16,-67.5 16,-97.5 156,-97.5 156,-67.5 16,-67.5"/>
<text text-anchor="start" x="24" y="-85.5" font-family="Helvetica,sans-Serif" font-size="10.00">src/exception/Conversion</text>
<text text-anchor="middle" x="86" y="-74.5" font-family="Helvetica,sans-Serif" font-size="10.00">Exception.hpp</text>
</a>
</g>
</g>
<!-- Node1&#45;&gt;Node2 -->
<g id="edge1" class="edge">
<title>Node1&#45;&gt;Node2</title>
<path fill="none" stroke="midnightblue" d="M143.84,-128.2C131.7,-118.81 116.09,-106.75 104.15,-97.52"/>
<polygon fill="midnightblue" stroke="midnightblue" points="141.91,-131.13 151.97,-134.48 146.19,-125.59 141.91,-131.13"/>
</g>
<!-- Node5 -->
<g id="node5" class="node">
<title>Node5</title>
<g id="a_node5"><a xlink:href="../../df/d55/_validation_exception_8hpp.html" target="_top" xlink:title=" ">
<polygon fill="none" stroke="black" points="174,-67.5 174,-97.5 308,-97.5 308,-67.5 174,-67.5"/>
<text text-anchor="start" x="182" y="-85.5" font-family="Helvetica,sans-Serif" font-size="10.00">src/exception/Validation</text>
<text text-anchor="middle" x="241" y="-74.5" font-family="Helvetica,sans-Serif" font-size="10.00">Exception.hpp</text>
</a>
</g>
</g>
<!-- Node1&#45;&gt;Node5 -->
<g id="edge4" class="edge">
<title>Node1&#45;&gt;Node5</title>
<path fill="none" stroke="midnightblue" d="M182.41,-128.2C194.71,-118.81 210.52,-106.75 222.62,-97.52"/>
<polygon fill="midnightblue" stroke="midnightblue" points="180,-125.63 174.18,-134.48 184.25,-131.19 180,-125.63"/>
</g>
<!-- Node3 -->
<g id="node3" class="node">
<title>Node3</title>
<g id="a_node3"><a xlink:href="../../d5/d63/_clang_tidy_issue_report_convertor_8cpp.html" target="_top" xlink:title=" ">
<polygon fill="none" stroke="black" points="0,-0.5 0,-30.5 140,-30.5 140,-0.5 0,-0.5"/>
<text text-anchor="start" x="8" y="-18.5" font-family="Helvetica,sans-Serif" font-size="10.00">src/report/ClangTidyIssue</text>
<text text-anchor="middle" x="70" y="-7.5" font-family="Helvetica,sans-Serif" font-size="10.00">ReportConvertor.cpp</text>
</a>
</g>
</g>
<!-- Node2&#45;&gt;Node3 -->
<g id="edge2" class="edge">
<title>Node2&#45;&gt;Node3</title>
<path fill="none" stroke="midnightblue" d="M80.07,-57.4C77.84,-48.37 75.39,-38.41 73.46,-30.58"/>
<polygon fill="midnightblue" stroke="midnightblue" points="76.74,-58.52 82.53,-67.4 83.54,-56.85 76.74,-58.52"/>
</g>
<!-- Node4 -->
<g id="node4" class="node">
<title>Node4</title>
<g id="a_node4"><a xlink:href="../../dc/d73/_report_convertor_8cpp.html" target="_top" xlink:title=" ">
<polygon fill="none" stroke="black" points="158,-6 158,-25 324,-25 324,-6 158,-6"/>
<text text-anchor="middle" x="241" y="-13" font-family="Helvetica,sans-Serif" font-size="10.00">src/report/ReportConvertor.cpp</text>
</a>
</g>
</g>
<!-- Node2&#45;&gt;Node4 -->
<g id="edge3" class="edge">
<title>Node2&#45;&gt;Node4</title>
<path fill="none" stroke="midnightblue" d="M129.02,-63.46C158.97,-50.9 197.54,-34.72 220.71,-25.01"/>
<polygon fill="midnightblue" stroke="midnightblue" points="127.5,-60.3 119.63,-67.4 130.21,-66.76 127.5,-60.3"/>
</g>
<!-- Node5&#45;&gt;Node4 -->
<g id="edge5" class="edge">
<title>Node5&#45;&gt;Node4</title>
<path fill="none" stroke="midnightblue" d="M241,-57.25C241,-46.02 241,-33.38 241,-25.19"/>
<polygon fill="midnightblue" stroke="midnightblue" points="237.5,-57.4 241,-67.4 244.5,-57.4 237.5,-57.4"/>
</g>
</g>
</svg>
