<?xml version="1.0" encoding="UTF-8" standalone="no"?>
<!DOCTYPE svg PUBLIC "-//W3C//DTD SVG 1.1//EN"
 "http://www.w3.org/Graphics/SVG/1.1/DTD/svg11.dtd">
<!-- Generated by graphviz version 2.43.0 (0)
 -->
<!-- Title: TextLogIssueReportConvertor::getMappedIssueSeverity Pages: 1 -->
<svg width="577pt" height="88pt"
 viewBox="0.00 0.00 577.00 88.00" xmlns="http://www.w3.org/2000/svg" xmlns:xlink="http://www.w3.org/1999/xlink">
<g id="graph0" class="graph" transform="scale(1 1) rotate(0) translate(4 84)">
<title>TextLogIssueReportConvertor::getMappedIssueSeverity</title>
<!-- Node1 -->
<g id="node1" class="node">
<title>Node1</title>
<g id="a_node1"><a xlink:title="Get the Issue Severity object.">
<polygon fill="#bfbfbf" stroke="black" points="409,-24.5 409,-54.5 569,-54.5 569,-24.5 409,-24.5"/>
<text text-anchor="start" x="417" y="-42.5" font-family="Helvetica,sans-Serif" font-size="10.00">TextLogIssueReportConvertor</text>
<text text-anchor="middle" x="489" y="-31.5" font-family="Helvetica,sans-Serif" font-size="10.00">::getMappedIssueSeverity</text>
</a>
</g>
</g>
<!-- Node2 -->
<g id="node2" class="node">
<title>Node2</title>
<g id="a_node2"><a xlink:href="../../d5/d8e/class_mvsc_compile_warning_issue_report_convertor.html#a2b19610e8d2ef072ef354976d2de82c9" target="_top" xlink:title="Get the Issue object.">
<polygon fill="none" stroke="black" points="193,-49.5 193,-79.5 373,-79.5 373,-49.5 193,-49.5"/>
<text text-anchor="start" x="201" y="-67.5" font-family="Helvetica,sans-Serif" font-size="10.00">MvscCompileWarningIssueReport</text>
<text text-anchor="middle" x="283" y="-56.5" font-family="Helvetica,sans-Serif" font-size="10.00">Convertor::getMappedIssue</text>
</a>
</g>
</g>
<!-- Node1&#45;&gt;Node2 -->
<g id="edge1" class="edge">
<title>Node1&#45;&gt;Node2</title>
<path fill="none" stroke="midnightblue" d="M398.65,-50.45C390.23,-51.48 381.7,-52.53 373.29,-53.56"/>
<polygon fill="midnightblue" stroke="midnightblue" points="399.34,-53.89 408.84,-49.2 398.48,-46.94 399.34,-53.89"/>
</g>
<!-- Node3 -->
<g id="node3" class="node">
<title>Node3</title>
<g id="a_node3"><a xlink:href="../../dc/d88/class_unix_text_log_report_convertor.html#a131fdbcfb2b6a20ef2c2a478d107549b" target="_top" xlink:title="Get the Issue Severity object.">
<polygon fill="none" stroke="black" points="204.5,-0.5 204.5,-30.5 361.5,-30.5 361.5,-0.5 204.5,-0.5"/>
<text text-anchor="start" x="212.5" y="-18.5" font-family="Helvetica,sans-Serif" font-size="10.00">UnixTextLogReportConvertor</text>
<text text-anchor="middle" x="283" y="-7.5" font-family="Helvetica,sans-Serif" font-size="10.00">::getMappedIssueSeverity</text>
</a>
</g>
</g>
<!-- Node1&#45;&gt;Node3 -->
<g id="edge2" class="edge">
<title>Node1&#45;&gt;Node3</title>
<path fill="none" stroke="midnightblue" d="M398.6,-28.98C386.33,-27.54 373.82,-26.07 361.78,-24.65"/>
<polygon fill="midnightblue" stroke="midnightblue" points="398.5,-32.49 408.84,-30.19 399.31,-25.54 398.5,-32.49"/>
</g>
<!-- Node4 -->
<g id="node4" class="node">
<title>Node4</title>
<g id="a_node4"><a xlink:href="../../dc/d88/class_unix_text_log_report_convertor.html#a203a61fdb2e7f84e313d95551416de9d" target="_top" xlink:title="Get the Issue object.">
<polygon fill="none" stroke="black" points="0,-0.5 0,-30.5 157,-30.5 157,-0.5 0,-0.5"/>
<text text-anchor="start" x="8" y="-18.5" font-family="Helvetica,sans-Serif" font-size="10.00">UnixTextLogReportConvertor</text>
<text text-anchor="middle" x="78.5" y="-7.5" font-family="Helvetica,sans-Serif" font-size="10.00">::getMappedIssue</text>
</a>
</g>
</g>
<!-- Node3&#45;&gt;Node4 -->
<g id="edge3" class="edge">
<title>Node3&#45;&gt;Node4</title>
<path fill="none" stroke="midnightblue" d="M194.02,-15.5C181.7,-15.5 169.11,-15.5 157,-15.5"/>
<polygon fill="midnightblue" stroke="midnightblue" points="194.29,-19 204.29,-15.5 194.29,-12 194.29,-19"/>
</g>
</g>
</svg>
