<?xml version="1.0" encoding="UTF-8" standalone="no"?>
<!DOCTYPE svg PUBLIC "-//W3C//DTD SVG 1.1//EN"
 "http://www.w3.org/Graphics/SVG/1.1/DTD/svg11.dtd">
<!-- Generated by graphviz version 2.43.0 (0)
 -->
<!-- Title: Application::run Pages: 1 -->
<svg width="626pt" height="161pt"
 viewBox="0.00 0.00 626.00 161.00" xmlns="http://www.w3.org/2000/svg" xmlns:xlink="http://www.w3.org/1999/xlink">
<g id="graph0" class="graph" transform="scale(1 1) rotate(0) translate(4 157)">
<title>Application::run</title>
<!-- Node1 -->
<g id="node1" class="node">
<title>Node1</title>
<g id="a_node1"><a xlink:title="Method to run application.">
<polygon fill="#bfbfbf" stroke="black" points="0,-55 0,-74 93,-74 93,-55 0,-55"/>
<text text-anchor="middle" x="46.5" y="-62" font-family="Helvetica,sans-Serif" font-size="10.00">Application::run</text>
</a>
</g>
</g>
<!-- Node2 -->
<g id="node2" class="node">
<title>Node2</title>
<g id="a_node2"><a xlink:href="../../de/dc0/class_test_convertor.html#a9a144655dc1d0174593b9d8c16d1f44d" target="_top" xlink:title="Function to convert unified boost report to sonar generic report.">
<polygon fill="none" stroke="black" points="137,-98.5 137,-128.5 292,-128.5 292,-98.5 137,-98.5"/>
<text text-anchor="start" x="145" y="-116.5" font-family="Helvetica,sans-Serif" font-size="10.00">TestConvertor::boostReports</text>
<text text-anchor="middle" x="214.5" y="-105.5" font-family="Helvetica,sans-Serif" font-size="10.00">ToSonarReport</text>
</a>
</g>
</g>
<!-- Node1&#45;&gt;Node2 -->
<g id="edge1" class="edge">
<title>Node1&#45;&gt;Node2</title>
<path fill="none" stroke="midnightblue" d="M78.03,-74.03C93.31,-78.76 112.11,-84.51 129,-89.5 135.84,-91.52 143,-93.6 150.13,-95.66"/>
<polygon fill="midnightblue" stroke="midnightblue" points="149.23,-99.04 159.81,-98.43 151.16,-92.31 149.23,-99.04"/>
</g>
<!-- Node6 -->
<g id="node6" class="node">
<title>Node6</title>
<g id="a_node6"><a xlink:href="../../d2/d59/class_clang_tidy_issue_report_convertor.html#ab4e324abfed9eda9a0a5ce01c458b197" target="_top" xlink:title="Get instance of singleton ClangTidyIssueReportConvertor.">
<polygon fill="none" stroke="black" points="129,-49.5 129,-79.5 300,-79.5 300,-49.5 129,-49.5"/>
<text text-anchor="start" x="137" y="-67.5" font-family="Helvetica,sans-Serif" font-size="10.00">ClangTidyIssueReportConvertor</text>
<text text-anchor="middle" x="214.5" y="-56.5" font-family="Helvetica,sans-Serif" font-size="10.00">::getInstance</text>
</a>
</g>
</g>
<!-- Node1&#45;&gt;Node6 -->
<g id="edge5" class="edge">
<title>Node1&#45;&gt;Node6</title>
<path fill="none" stroke="midnightblue" d="M93.3,-64.5C101.39,-64.5 110.07,-64.5 118.93,-64.5"/>
<polygon fill="midnightblue" stroke="midnightblue" points="118.99,-68 128.99,-64.5 118.99,-61 118.99,-68"/>
</g>
<!-- Node7 -->
<g id="node7" class="node">
<title>Node7</title>
<g id="a_node7"><a xlink:href="../../d7/d9a/class_cpp_check_issue_report_convertor.html#aec3ad540f1aa46463462c66ff6f9fc77" target="_top" xlink:title="Get instance of singleton CppCheckIssueReportConvertor.">
<polygon fill="none" stroke="black" points="129,-0.5 129,-30.5 300,-30.5 300,-0.5 129,-0.5"/>
<text text-anchor="start" x="137" y="-18.5" font-family="Helvetica,sans-Serif" font-size="10.00">CppCheckIssueReportConvertor</text>
<text text-anchor="middle" x="214.5" y="-7.5" font-family="Helvetica,sans-Serif" font-size="10.00">::getInstance</text>
</a>
</g>
</g>
<!-- Node1&#45;&gt;Node7 -->
<g id="edge6" class="edge">
<title>Node1&#45;&gt;Node7</title>
<path fill="none" stroke="midnightblue" d="M79.9,-54.94C100.64,-48.81 128.2,-40.68 152.9,-33.39"/>
<polygon fill="midnightblue" stroke="midnightblue" points="153.96,-36.72 162.56,-30.54 151.98,-30.01 153.96,-36.72"/>
</g>
<!-- Node3 -->
<g id="node3" class="node">
<title>Node3</title>
<g id="a_node3"><a xlink:href="../../de/dc0/class_test_convertor.html#abc25ae29b63f0d501f322f31c2077c57" target="_top" xlink:title="method to extract data case from log result test report to convert to sonarqube report">
<polygon fill="none" stroke="black" points="336,-122.5 336,-152.5 485,-152.5 485,-122.5 336,-122.5"/>
<text text-anchor="start" x="344" y="-140.5" font-family="Helvetica,sans-Serif" font-size="10.00">TestConvertor::extractCase</text>
<text text-anchor="middle" x="410.5" y="-129.5" font-family="Helvetica,sans-Serif" font-size="10.00">Datas</text>
</a>
</g>
</g>
<!-- Node2&#45;&gt;Node3 -->
<g id="edge2" class="edge">
<title>Node2&#45;&gt;Node3</title>
<path fill="none" stroke="midnightblue" d="M292.17,-122.99C303.2,-124.35 314.6,-125.76 325.75,-127.14"/>
<polygon fill="midnightblue" stroke="midnightblue" points="325.56,-130.64 335.91,-128.4 326.42,-123.7 325.56,-130.64"/>
</g>
<!-- Node4 -->
<g id="node4" class="node">
<title>Node4</title>
<g id="a_node4"><a xlink:href="../../de/dc0/class_test_convertor.html#a48e3841031ac5a40c45588a2aef67a5b" target="_top" xlink:title="Save the Result of test in Map object.">
<polygon fill="none" stroke="black" points="336.5,-73.5 336.5,-103.5 484.5,-103.5 484.5,-73.5 336.5,-73.5"/>
<text text-anchor="start" x="344.5" y="-91.5" font-family="Helvetica,sans-Serif" font-size="10.00">TestConvertor::provideMap</text>
<text text-anchor="middle" x="410.5" y="-80.5" font-family="Helvetica,sans-Serif" font-size="10.00">ResultTests</text>
</a>
</g>
</g>
<!-- Node2&#45;&gt;Node4 -->
<g id="edge3" class="edge">
<title>Node2&#45;&gt;Node4</title>
<path fill="none" stroke="midnightblue" d="M292.17,-103.62C303.28,-102.19 314.76,-100.71 326,-99.26"/>
<polygon fill="midnightblue" stroke="midnightblue" points="326.76,-102.69 336.23,-97.94 325.87,-95.75 326.76,-102.69"/>
</g>
<!-- Node5 -->
<g id="node5" class="node">
<title>Node5</title>
<g id="a_node5"><a xlink:href="../../d9/d04/_test_convertor_8cpp.html#a97c6c231c4c9a339e925921214c7f595" target="_top" xlink:title="map to convert boost test node name to sonar test result leveling">
<polygon fill="none" stroke="black" points="521,-79 521,-98 618,-98 618,-79 521,-79"/>
<text text-anchor="middle" x="569.5" y="-86" font-family="Helvetica,sans-Serif" font-size="10.00">boostSonarState</text>
</a>
</g>
</g>
<!-- Node4&#45;&gt;Node5 -->
<g id="edge4" class="edge">
<title>Node4&#45;&gt;Node5</title>
<path fill="none" stroke="midnightblue" d="M484.94,-88.5C493.57,-88.5 502.27,-88.5 510.64,-88.5"/>
<polygon fill="midnightblue" stroke="midnightblue" points="510.66,-92 520.66,-88.5 510.66,-85 510.66,-92"/>
</g>
</g>
</svg>
