<?xml version="1.0" encoding="UTF-8" standalone="no"?>
<!DOCTYPE svg PUBLIC "-//W3C//DTD SVG 1.1//EN"
 "http://www.w3.org/Graphics/SVG/1.1/DTD/svg11.dtd">
<!-- Generated by graphviz version 2.43.0 (0)
 -->
<!-- Title: ClangTidyIssueReportConvertor Pages: 1 -->
<svg width="324pt" height="808pt"
 viewBox="0.00 0.00 324.00 808.00" xmlns="http://www.w3.org/2000/svg" xmlns:xlink="http://www.w3.org/1999/xlink">
<g id="graph0" class="graph" transform="scale(1 1) rotate(0) translate(4 804)">
<title>ClangTidyIssueReportConvertor</title>
<!-- Node1 -->
<g id="node1" class="node">
<title>Node1</title>
<g id="a_node1"><a xlink:title="abstract class to convert issue report">
<polygon fill="#bfbfbf" stroke="black" points="42,-0.5 42,-134.5 240,-134.5 240,-0.5 42,-0.5"/>
<text text-anchor="middle" x="141" y="-122.5" font-family="Helvetica,sans-Serif" font-size="10.00">ClangTidyIssueReportConvertor</text>
<polyline fill="none" stroke="black" points="42,-115.5 240,-115.5 "/>
<text text-anchor="middle" x="141" y="-103.5" font-family="Helvetica,sans-Serif" font-size="10.00"> </text>
<polyline fill="none" stroke="black" points="42,-96.5 240,-96.5 "/>
<text text-anchor="start" x="50" y="-84.5" font-family="Helvetica,sans-Serif" font-size="10.00">+ ClangTidyIssueReportConvertor()</text>
<text text-anchor="start" x="50" y="-73.5" font-family="Helvetica,sans-Serif" font-size="10.00">+ ~ClangTidyIssueReportConvertor()</text>
<text text-anchor="start" x="50" y="-62.5" font-family="Helvetica,sans-Serif" font-size="10.00">+ ClangTidyIssueReportConvertor()</text>
<text text-anchor="start" x="50" y="-51.5" font-family="Helvetica,sans-Serif" font-size="10.00">+ ClangTidyIssueReportConvertor()</text>
<text text-anchor="start" x="50" y="-40.5" font-family="Helvetica,sans-Serif" font-size="10.00">+ operator=()</text>
<text text-anchor="start" x="50" y="-29.5" font-family="Helvetica,sans-Serif" font-size="10.00">+ operator=()</text>
<text text-anchor="start" x="50" y="-18.5" font-family="Helvetica,sans-Serif" font-size="10.00">+ getMappedIssueSeverity()</text>
<text text-anchor="start" x="50" y="-7.5" font-family="Helvetica,sans-Serif" font-size="10.00">+ getInstance()</text>
</a>
</g>
</g>
<!-- Node2 -->
<g id="node2" class="node">
<title>Node2</title>
<g id="a_node2"><a xlink:href="../../dc/d88/class_unix_text_log_report_convertor.html" target="_top" xlink:title="abstract class to convert issue report">
<polygon fill="none" stroke="black" points="49,-172.5 49,-306.5 233,-306.5 233,-172.5 49,-172.5"/>
<text text-anchor="middle" x="141" y="-294.5" font-family="Helvetica,sans-Serif" font-size="10.00">UnixTextLogReportConvertor</text>
<polyline fill="none" stroke="black" points="49,-287.5 233,-287.5 "/>
<text text-anchor="middle" x="141" y="-275.5" font-family="Helvetica,sans-Serif" font-size="10.00"> </text>
<polyline fill="none" stroke="black" points="49,-268.5 233,-268.5 "/>
<text text-anchor="start" x="57" y="-256.5" font-family="Helvetica,sans-Serif" font-size="10.00">+ UnixTextLogReportConvertor()</text>
<text text-anchor="start" x="57" y="-245.5" font-family="Helvetica,sans-Serif" font-size="10.00">+ ~UnixTextLogReportConvertor()</text>
<text text-anchor="start" x="57" y="-234.5" font-family="Helvetica,sans-Serif" font-size="10.00">+ UnixTextLogReportConvertor()</text>
<text text-anchor="start" x="57" y="-223.5" font-family="Helvetica,sans-Serif" font-size="10.00">+ UnixTextLogReportConvertor()</text>
<text text-anchor="start" x="57" y="-212.5" font-family="Helvetica,sans-Serif" font-size="10.00">+ operator=()</text>
<text text-anchor="start" x="57" y="-201.5" font-family="Helvetica,sans-Serif" font-size="10.00">+ operator=()</text>
<text text-anchor="start" x="57" y="-190.5" font-family="Helvetica,sans-Serif" font-size="10.00">+ getMappedIssue()</text>
<text text-anchor="start" x="57" y="-179.5" font-family="Helvetica,sans-Serif" font-size="10.00">+ getMappedIssueSeverity()</text>
</a>
</g>
</g>
<!-- Node2&#45;&gt;Node1 -->
<g id="edge1" class="edge">
<title>Node2&#45;&gt;Node1</title>
<path fill="none" stroke="midnightblue" d="M141,-162.01C141,-152.84 141,-143.54 141,-134.53"/>
<polygon fill="none" stroke="midnightblue" points="137.5,-162.29 141,-172.29 144.5,-162.29 137.5,-162.29"/>
</g>
<!-- Node3 -->
<g id="node3" class="node">
<title>Node3</title>
<g id="a_node3"><a xlink:href="../../df/dee/class_text_log_issue_report_convertor.html" target="_top" xlink:title="abstract class to convert issue report">
<polygon fill="none" stroke="black" points="47.5,-344.5 47.5,-478.5 234.5,-478.5 234.5,-344.5 47.5,-344.5"/>
<text text-anchor="middle" x="141" y="-466.5" font-family="Helvetica,sans-Serif" font-size="10.00">TextLogIssueReportConvertor</text>
<polyline fill="none" stroke="black" points="47.5,-459.5 234.5,-459.5 "/>
<text text-anchor="middle" x="141" y="-447.5" font-family="Helvetica,sans-Serif" font-size="10.00"> </text>
<polyline fill="none" stroke="black" points="47.5,-440.5 234.5,-440.5 "/>
<text text-anchor="start" x="55.5" y="-428.5" font-family="Helvetica,sans-Serif" font-size="10.00">+ TextLogIssueReportConvertor()</text>
<text text-anchor="start" x="55.5" y="-417.5" font-family="Helvetica,sans-Serif" font-size="10.00">+ ~TextLogIssueReportConvertor()</text>
<text text-anchor="start" x="55.5" y="-406.5" font-family="Helvetica,sans-Serif" font-size="10.00">+ TextLogIssueReportConvertor()</text>
<text text-anchor="start" x="55.5" y="-395.5" font-family="Helvetica,sans-Serif" font-size="10.00">+ TextLogIssueReportConvertor()</text>
<text text-anchor="start" x="55.5" y="-384.5" font-family="Helvetica,sans-Serif" font-size="10.00">+ operator=()</text>
<text text-anchor="start" x="55.5" y="-373.5" font-family="Helvetica,sans-Serif" font-size="10.00">+ operator=()</text>
<text text-anchor="start" x="55.5" y="-362.5" font-family="Helvetica,sans-Serif" font-size="10.00">+ getMappedIssueSeverity()</text>
<text text-anchor="start" x="55.5" y="-351.5" font-family="Helvetica,sans-Serif" font-size="10.00">+ getMappedIssue()</text>
</a>
</g>
</g>
<!-- Node3&#45;&gt;Node2 -->
<g id="edge2" class="edge">
<title>Node3&#45;&gt;Node2</title>
<path fill="none" stroke="midnightblue" d="M141,-334.01C141,-324.84 141,-315.54 141,-306.53"/>
<polygon fill="none" stroke="midnightblue" points="137.5,-334.29 141,-344.29 144.5,-334.29 137.5,-334.29"/>
</g>
<!-- Node4 -->
<g id="node4" class="node">
<title>Node4</title>
<g id="a_node4"><a xlink:href="../../db/de6/class_issue_report_convertor.html" target="_top" xlink:title="abstract class to convert issue report">
<polygon fill="none" stroke="black" points="66.5,-516.5 66.5,-628.5 215.5,-628.5 215.5,-516.5 66.5,-516.5"/>
<text text-anchor="middle" x="141" y="-616.5" font-family="Helvetica,sans-Serif" font-size="10.00">IssueReportConvertor</text>
<polyline fill="none" stroke="black" points="66.5,-609.5 215.5,-609.5 "/>
<text text-anchor="middle" x="141" y="-597.5" font-family="Helvetica,sans-Serif" font-size="10.00"> </text>
<polyline fill="none" stroke="black" points="66.5,-590.5 215.5,-590.5 "/>
<text text-anchor="start" x="74.5" y="-578.5" font-family="Helvetica,sans-Serif" font-size="10.00">+ IssueReportConvertor()</text>
<text text-anchor="start" x="74.5" y="-567.5" font-family="Helvetica,sans-Serif" font-size="10.00">+ ~IssueReportConvertor()</text>
<text text-anchor="start" x="74.5" y="-556.5" font-family="Helvetica,sans-Serif" font-size="10.00">+ IssueReportConvertor()</text>
<text text-anchor="start" x="74.5" y="-545.5" font-family="Helvetica,sans-Serif" font-size="10.00">+ IssueReportConvertor()</text>
<text text-anchor="start" x="74.5" y="-534.5" font-family="Helvetica,sans-Serif" font-size="10.00">+ operator=()</text>
<text text-anchor="start" x="74.5" y="-523.5" font-family="Helvetica,sans-Serif" font-size="10.00">+ operator=()</text>
</a>
</g>
</g>
<!-- Node4&#45;&gt;Node3 -->
<g id="edge3" class="edge">
<title>Node4&#45;&gt;Node3</title>
<path fill="none" stroke="midnightblue" d="M141,-506.17C141,-497.04 141,-487.65 141,-478.51"/>
<polygon fill="none" stroke="midnightblue" points="137.5,-506.34 141,-516.34 144.5,-506.34 137.5,-506.34"/>
</g>
<!-- Node5 -->
<g id="node5" class="node">
<title>Node5</title>
<g id="a_node5"><a xlink:href="../../df/dff/class_report_convertor.html" target="_top" xlink:title="abstract class to convert report">
<polygon fill="none" stroke="black" points="0,-676.5 0,-799.5 124,-799.5 124,-676.5 0,-676.5"/>
<text text-anchor="middle" x="62" y="-787.5" font-family="Helvetica,sans-Serif" font-size="10.00">ReportConvertor</text>
<polyline fill="none" stroke="black" points="0,-780.5 124,-780.5 "/>
<text text-anchor="middle" x="62" y="-768.5" font-family="Helvetica,sans-Serif" font-size="10.00"> </text>
<polyline fill="none" stroke="black" points="0,-761.5 124,-761.5 "/>
<text text-anchor="start" x="8" y="-749.5" font-family="Helvetica,sans-Serif" font-size="10.00">+ ReportConvertor()</text>
<text text-anchor="start" x="8" y="-738.5" font-family="Helvetica,sans-Serif" font-size="10.00">+ ~ReportConvertor()</text>
<text text-anchor="start" x="8" y="-727.5" font-family="Helvetica,sans-Serif" font-size="10.00">+ ReportConvertor()</text>
<text text-anchor="start" x="8" y="-716.5" font-family="Helvetica,sans-Serif" font-size="10.00">+ ReportConvertor()</text>
<text text-anchor="start" x="8" y="-705.5" font-family="Helvetica,sans-Serif" font-size="10.00">+ operator=()</text>
<text text-anchor="start" x="8" y="-694.5" font-family="Helvetica,sans-Serif" font-size="10.00">+ operator=()</text>
<text text-anchor="start" x="8" y="-683.5" font-family="Helvetica,sans-Serif" font-size="10.00">+ convert()</text>
</a>
</g>
</g>
<!-- Node5&#45;&gt;Node4 -->
<g id="edge4" class="edge">
<title>Node5&#45;&gt;Node4</title>
<path fill="none" stroke="midnightblue" d="M95.86,-666.92C102.03,-654.16 108.38,-641.02 114.3,-628.76"/>
<polygon fill="none" stroke="midnightblue" points="92.62,-665.59 91.42,-676.12 98.92,-668.64 92.62,-665.59"/>
</g>
<!-- Node6 -->
<g id="node6" class="node">
<title>Node6</title>
<g id="a_node6"><a xlink:title=" ">
<polygon fill="none" stroke="#bfbfbf" points="142.5,-704 142.5,-772 297.5,-772 297.5,-704 142.5,-704"/>
<text text-anchor="start" x="150.5" y="-760" font-family="Helvetica,sans-Serif" font-size="10.00">map&lt; ESonarCloudSeverity,</text>
<text text-anchor="middle" x="220" y="-749" font-family="Helvetica,sans-Serif" font-size="10.00"> std::string, std::less&lt;&gt; &gt;</text>
<polyline fill="none" stroke="#bfbfbf" points="142.5,-742 297.5,-742 "/>
<text text-anchor="middle" x="220" y="-730" font-family="Helvetica,sans-Serif" font-size="10.00"> </text>
<polyline fill="none" stroke="#bfbfbf" points="142.5,-723 297.5,-723 "/>
<text text-anchor="middle" x="220" y="-711" font-family="Helvetica,sans-Serif" font-size="10.00"> </text>
</a>
</g>
</g>
<!-- Node6&#45;&gt;Node4 -->
<g id="edge5" class="edge">
<title>Node6&#45;&gt;Node4</title>
<path fill="none" stroke="#404040" d="M204.01,-703.91C195.1,-685.47 183.68,-661.84 173.02,-639.77"/>
<polygon fill="none" stroke="#404040" points="172.92,-639.56 166.7,-635.89 167.7,-628.75 173.91,-632.41 172.92,-639.56"/>
<text text-anchor="middle" x="248.5" y="-650" font-family="Helvetica,sans-Serif" font-size="10.00"> +SonarCloudSeverityValue</text>
</g>
</g>
</svg>
