<?xml version="1.0" encoding="UTF-8" standalone="no"?>
<!DOCTYPE svg PUBLIC "-//W3C//DTD SVG 1.1//EN"
 "http://www.w3.org/Graphics/SVG/1.1/DTD/svg11.dtd">
<!-- Generated by graphviz version 2.43.0 (0)
 -->
<!-- Title: MsvcCompileWarningIssueReportConvertor Pages: 1 -->
<svg width="324pt" height="691pt"
 viewBox="0.00 0.00 324.00 691.00" xmlns="http://www.w3.org/2000/svg" xmlns:xlink="http://www.w3.org/1999/xlink">
<g id="graph0" class="graph" transform="scale(1 1) rotate(0) translate(4 687)">
<title>MsvcCompileWarningIssueReportConvertor</title>
<!-- Node1 -->
<g id="node1" class="node">
<title>Node1</title>
<g id="a_node1"><a xlink:title="abstract class to convert issue report">
<polygon fill="#bfbfbf" stroke="black" points="45.5,-0.5 45.5,-189.5 236.5,-189.5 236.5,-0.5 45.5,-0.5"/>
<text text-anchor="start" x="53.5" y="-177.5" font-family="Helvetica,sans-Serif" font-size="10.00">MsvcCompileWarningIssueReport</text>
<text text-anchor="middle" x="141" y="-166.5" font-family="Helvetica,sans-Serif" font-size="10.00">Convertor</text>
<polyline fill="none" stroke="black" points="45.5,-159.5 236.5,-159.5 "/>
<text text-anchor="middle" x="141" y="-147.5" font-family="Helvetica,sans-Serif" font-size="10.00"> </text>
<polyline fill="none" stroke="black" points="45.5,-140.5 236.5,-140.5 "/>
<text text-anchor="start" x="53.5" y="-128.5" font-family="Helvetica,sans-Serif" font-size="10.00">+ MsvcCompileWarningIssueReport</text>
<text text-anchor="start" x="53.5" y="-117.5" font-family="Helvetica,sans-Serif" font-size="10.00">Convertor()</text>
<text text-anchor="start" x="53.5" y="-106.5" font-family="Helvetica,sans-Serif" font-size="10.00">+ ~MsvcCompileWarningIssue</text>
<text text-anchor="start" x="53.5" y="-95.5" font-family="Helvetica,sans-Serif" font-size="10.00">ReportConvertor()</text>
<text text-anchor="start" x="53.5" y="-84.5" font-family="Helvetica,sans-Serif" font-size="10.00">+ MsvcCompileWarningIssueReport</text>
<text text-anchor="start" x="53.5" y="-73.5" font-family="Helvetica,sans-Serif" font-size="10.00">Convertor()</text>
<text text-anchor="start" x="53.5" y="-62.5" font-family="Helvetica,sans-Serif" font-size="10.00">+ MsvcCompileWarningIssueReport</text>
<text text-anchor="start" x="53.5" y="-51.5" font-family="Helvetica,sans-Serif" font-size="10.00">Convertor()</text>
<text text-anchor="start" x="53.5" y="-40.5" font-family="Helvetica,sans-Serif" font-size="10.00">+ operator=()</text>
<text text-anchor="start" x="53.5" y="-29.5" font-family="Helvetica,sans-Serif" font-size="10.00">+ operator=()</text>
<text text-anchor="start" x="53.5" y="-18.5" font-family="Helvetica,sans-Serif" font-size="10.00">+ getMappedIssue()</text>
<text text-anchor="start" x="53.5" y="-7.5" font-family="Helvetica,sans-Serif" font-size="10.00">+ getInstance()</text>
</a>
</g>
</g>
<!-- Node2 -->
<g id="node2" class="node">
<title>Node2</title>
<g id="a_node2"><a xlink:href="../../df/dee/class_text_log_issue_report_convertor.html" target="_top" xlink:title="abstract class to convert issue report">
<polygon fill="none" stroke="black" points="47.5,-227.5 47.5,-361.5 234.5,-361.5 234.5,-227.5 47.5,-227.5"/>
<text text-anchor="middle" x="141" y="-349.5" font-family="Helvetica,sans-Serif" font-size="10.00">TextLogIssueReportConvertor</text>
<polyline fill="none" stroke="black" points="47.5,-342.5 234.5,-342.5 "/>
<text text-anchor="middle" x="141" y="-330.5" font-family="Helvetica,sans-Serif" font-size="10.00"> </text>
<polyline fill="none" stroke="black" points="47.5,-323.5 234.5,-323.5 "/>
<text text-anchor="start" x="55.5" y="-311.5" font-family="Helvetica,sans-Serif" font-size="10.00">+ TextLogIssueReportConvertor()</text>
<text text-anchor="start" x="55.5" y="-300.5" font-family="Helvetica,sans-Serif" font-size="10.00">+ ~TextLogIssueReportConvertor()</text>
<text text-anchor="start" x="55.5" y="-289.5" font-family="Helvetica,sans-Serif" font-size="10.00">+ TextLogIssueReportConvertor()</text>
<text text-anchor="start" x="55.5" y="-278.5" font-family="Helvetica,sans-Serif" font-size="10.00">+ TextLogIssueReportConvertor()</text>
<text text-anchor="start" x="55.5" y="-267.5" font-family="Helvetica,sans-Serif" font-size="10.00">+ operator=()</text>
<text text-anchor="start" x="55.5" y="-256.5" font-family="Helvetica,sans-Serif" font-size="10.00">+ operator=()</text>
<text text-anchor="start" x="55.5" y="-245.5" font-family="Helvetica,sans-Serif" font-size="10.00">+ getMappedIssueSeverity()</text>
<text text-anchor="start" x="55.5" y="-234.5" font-family="Helvetica,sans-Serif" font-size="10.00">+ getMappedIssue()</text>
</a>
</g>
</g>
<!-- Node2&#45;&gt;Node1 -->
<g id="edge1" class="edge">
<title>Node2&#45;&gt;Node1</title>
<path fill="none" stroke="midnightblue" d="M141,-217.38C141,-208.33 141,-199.02 141,-189.76"/>
<polygon fill="none" stroke="midnightblue" points="137.5,-217.46 141,-227.46 144.5,-217.46 137.5,-217.46"/>
</g>
<!-- Node3 -->
<g id="node3" class="node">
<title>Node3</title>
<g id="a_node3"><a xlink:href="../../db/de6/class_issue_report_convertor.html" target="_top" xlink:title="abstract class to convert issue report">
<polygon fill="none" stroke="black" points="66.5,-399.5 66.5,-511.5 215.5,-511.5 215.5,-399.5 66.5,-399.5"/>
<text text-anchor="middle" x="141" y="-499.5" font-family="Helvetica,sans-Serif" font-size="10.00">IssueReportConvertor</text>
<polyline fill="none" stroke="black" points="66.5,-492.5 215.5,-492.5 "/>
<text text-anchor="middle" x="141" y="-480.5" font-family="Helvetica,sans-Serif" font-size="10.00"> </text>
<polyline fill="none" stroke="black" points="66.5,-473.5 215.5,-473.5 "/>
<text text-anchor="start" x="74.5" y="-461.5" font-family="Helvetica,sans-Serif" font-size="10.00">+ IssueReportConvertor()</text>
<text text-anchor="start" x="74.5" y="-450.5" font-family="Helvetica,sans-Serif" font-size="10.00">+ ~IssueReportConvertor()</text>
<text text-anchor="start" x="74.5" y="-439.5" font-family="Helvetica,sans-Serif" font-size="10.00">+ IssueReportConvertor()</text>
<text text-anchor="start" x="74.5" y="-428.5" font-family="Helvetica,sans-Serif" font-size="10.00">+ IssueReportConvertor()</text>
<text text-anchor="start" x="74.5" y="-417.5" font-family="Helvetica,sans-Serif" font-size="10.00">+ operator=()</text>
<text text-anchor="start" x="74.5" y="-406.5" font-family="Helvetica,sans-Serif" font-size="10.00">+ operator=()</text>
</a>
</g>
</g>
<!-- Node3&#45;&gt;Node2 -->
<g id="edge2" class="edge">
<title>Node3&#45;&gt;Node2</title>
<path fill="none" stroke="midnightblue" d="M141,-389.17C141,-380.04 141,-370.65 141,-361.51"/>
<polygon fill="none" stroke="midnightblue" points="137.5,-389.34 141,-399.34 144.5,-389.34 137.5,-389.34"/>
</g>
<!-- Node4 -->
<g id="node4" class="node">
<title>Node4</title>
<g id="a_node4"><a xlink:href="../../df/dff/class_report_convertor.html" target="_top" xlink:title="abstract class to convert report">
<polygon fill="none" stroke="black" points="0,-559.5 0,-682.5 124,-682.5 124,-559.5 0,-559.5"/>
<text text-anchor="middle" x="62" y="-670.5" font-family="Helvetica,sans-Serif" font-size="10.00">ReportConvertor</text>
<polyline fill="none" stroke="black" points="0,-663.5 124,-663.5 "/>
<text text-anchor="middle" x="62" y="-651.5" font-family="Helvetica,sans-Serif" font-size="10.00"> </text>
<polyline fill="none" stroke="black" points="0,-644.5 124,-644.5 "/>
<text text-anchor="start" x="8" y="-632.5" font-family="Helvetica,sans-Serif" font-size="10.00">+ ReportConvertor()</text>
<text text-anchor="start" x="8" y="-621.5" font-family="Helvetica,sans-Serif" font-size="10.00">+ ~ReportConvertor()</text>
<text text-anchor="start" x="8" y="-610.5" font-family="Helvetica,sans-Serif" font-size="10.00">+ ReportConvertor()</text>
<text text-anchor="start" x="8" y="-599.5" font-family="Helvetica,sans-Serif" font-size="10.00">+ ReportConvertor()</text>
<text text-anchor="start" x="8" y="-588.5" font-family="Helvetica,sans-Serif" font-size="10.00">+ operator=()</text>
<text text-anchor="start" x="8" y="-577.5" font-family="Helvetica,sans-Serif" font-size="10.00">+ operator=()</text>
<text text-anchor="start" x="8" y="-566.5" font-family="Helvetica,sans-Serif" font-size="10.00">+ convert()</text>
</a>
</g>
</g>
<!-- Node4&#45;&gt;Node3 -->
<g id="edge3" class="edge">
<title>Node4&#45;&gt;Node3</title>
<path fill="none" stroke="midnightblue" d="M95.86,-549.92C102.03,-537.16 108.38,-524.02 114.3,-511.76"/>
<polygon fill="none" stroke="midnightblue" points="92.62,-548.59 91.42,-559.12 98.92,-551.64 92.62,-548.59"/>
</g>
<!-- Node5 -->
<g id="node5" class="node">
<title>Node5</title>
<g id="a_node5"><a xlink:title=" ">
<polygon fill="none" stroke="#bfbfbf" points="142.5,-587 142.5,-655 297.5,-655 297.5,-587 142.5,-587"/>
<text text-anchor="start" x="150.5" y="-643" font-family="Helvetica,sans-Serif" font-size="10.00">map&lt; ESonarCloudSeverity,</text>
<text text-anchor="middle" x="220" y="-632" font-family="Helvetica,sans-Serif" font-size="10.00"> std::string, std::less&lt;&gt; &gt;</text>
<polyline fill="none" stroke="#bfbfbf" points="142.5,-625 297.5,-625 "/>
<text text-anchor="middle" x="220" y="-613" font-family="Helvetica,sans-Serif" font-size="10.00"> </text>
<polyline fill="none" stroke="#bfbfbf" points="142.5,-606 297.5,-606 "/>
<text text-anchor="middle" x="220" y="-594" font-family="Helvetica,sans-Serif" font-size="10.00"> </text>
</a>
</g>
</g>
<!-- Node5&#45;&gt;Node3 -->
<g id="edge4" class="edge">
<title>Node5&#45;&gt;Node3</title>
<path fill="none" stroke="#404040" d="M204.01,-586.91C195.1,-568.47 183.68,-544.84 173.02,-522.77"/>
<polygon fill="none" stroke="#404040" points="172.92,-522.56 166.7,-518.89 167.7,-511.75 173.91,-515.41 172.92,-522.56"/>
<text text-anchor="middle" x="248.5" y="-533" font-family="Helvetica,sans-Serif" font-size="10.00"> +SonarCloudSeverityValue</text>
</g>
</g>
</svg>
