<?xml version="1.0" encoding="UTF-8" standalone="no"?>
<!DOCTYPE svg PUBLIC "-//W3C//DTD SVG 1.1//EN"
 "http://www.w3.org/Graphics/SVG/1.1/DTD/svg11.dtd">
<!-- Generated by graphviz version 2.43.0 (0)
 -->
<!-- Title: main Pages: 1 -->
<!--zoomable 161 -->
<svg id="main" version="1.1" xmlns="http://www.w3.org/2000/svg" xmlns:xlink="http://www.w3.org/1999/xlink" xml:space="preserve" onload="init(evt)">
<style type="text/css"><![CDATA[
.edge:hover path { stroke: red; }
.edge:hover polygon { stroke: red; fill: red; }
]]></style>
<script type="text/javascript"><![CDATA[
var edges = document.getElementsByTagName('g');
if (edges && edges.length) {
  for (var i=0;i<edges.length;i++) {
    if (edges[i].id.substr(0,4)=='edge') {
      edges[i].setAttribute('class','edge');
    }
  }
}
]]></script>
        <defs>
                <circle id="rim" cx="0" cy="0" r="7"/>
                <circle id="rim2" cx="0" cy="0" r="3.5"/>
                <g id="zoomPlus">
                        <use xlink:href="#rim" fill="#404040">
                                <set attributeName="fill" to="#808080" begin="zoomplus.mouseover" end="zoomplus.mouseout"/>
                        </use>
                        <path d="M-4,0h8M0,-4v8" fill="none" stroke="white" stroke-width="1.5" pointer-events="none"/>
                </g>
                <g id="zoomMin">
                        <use xlink:href="#rim" fill="#404040">
                                <set attributeName="fill" to="#808080" begin="zoomminus.mouseover" end="zoomminus.mouseout"/>
                        </use>
                        <path d="M-4,0h8" fill="none" stroke="white" stroke-width="1.5" pointer-events="none"/>
                </g>
                <g id="dirArrow">
                        <path fill="none" stroke="white" stroke-width="1.5" d="M0,-3.0v7 M-2.5,-0.5L0,-3.0L2.5,-0.5"/>
                </g>
               <g id="resetDef">
                       <use xlink:href="#rim2" fill="#404040">
                               <set attributeName="fill" to="#808080" begin="reset.mouseover" end="reset.mouseout"/>
                       </use>
               </g>
        </defs>

<script type="text/javascript">
var viewWidth = 703;
var viewHeight = 161;
var sectionId = 'dynsection-1';
</script>
<script xlink:href="../../svgpan.js"/>
<svg id="graph" class="graph">
<g id="viewport">
<title>main</title>
<!-- Node1 -->
<g id="node1" class="node">
<title>Node1</title>
<g id="a_node1"><a xlink:title="entry of application">
<polygon fill="#bfbfbf" stroke="black" points="0,-55 0,-74 41,-74 41,-55 0,-55"/>
<text text-anchor="middle" x="20.5" y="-62" font-family="Helvetica,sans-Serif" font-size="10.00">main</text>
</a>
</g>
</g>
<!-- Node2 -->
<g id="node2" class="node">
<title>Node2</title>
<g id="a_node2"><a xlink:href="../../de/d6b/class_application.html#a7a5f0d21081c19b16f0038f0ce1477a4" target="_top" xlink:title="Method to run application.">
<polygon fill="none" stroke="black" points="77,-55 77,-74 170,-74 170,-55 77,-55"/>
<text text-anchor="middle" x="123.5" y="-62" font-family="Helvetica,sans-Serif" font-size="10.00">Application::run</text>
</a>
</g>
</g>
<!-- Node1&#45;&gt;Node2 -->
<g id="edge1" class="edge">
<title>Node1&#45;&gt;Node2</title>
<path fill="none" stroke="midnightblue" d="M41.45,-64.5C48.81,-64.5 57.54,-64.5 66.51,-64.5"/>
<polygon fill="midnightblue" stroke="midnightblue" points="66.67,-68 76.67,-64.5 66.67,-61 66.67,-68"/>
</g>
<!-- Node3 -->
<g id="node3" class="node">
<title>Node3</title>
<g id="a_node3"><a xlink:href="../../de/dc0/class_test_convertor.html#a9a144655dc1d0174593b9d8c16d1f44d" target="_top" xlink:title="Function to convert unified boost report to sonar generic report.">
<polygon fill="none" stroke="black" points="214,-98.5 214,-128.5 369,-128.5 369,-98.5 214,-98.5"/>
<text text-anchor="start" x="222" y="-116.5" font-family="Helvetica,sans-Serif" font-size="10.00">TestConvertor::boostReports</text>
<text text-anchor="middle" x="291.5" y="-105.5" font-family="Helvetica,sans-Serif" font-size="10.00">ToSonarReport</text>
</a>
</g>
</g>
<!-- Node2&#45;&gt;Node3 -->
<g id="edge2" class="edge">
<title>Node2&#45;&gt;Node3</title>
<path fill="none" stroke="midnightblue" d="M155.03,-74.03C170.31,-78.76 189.11,-84.51 206,-89.5 212.84,-91.52 220,-93.6 227.13,-95.66"/>
<polygon fill="midnightblue" stroke="midnightblue" points="226.23,-99.04 236.81,-98.43 228.16,-92.31 226.23,-99.04"/>
</g>
<!-- Node7 -->
<g id="node7" class="node">
<title>Node7</title>
<g id="a_node7"><a xlink:href="../../d7/d9a/class_cpp_check_issue_report_convertor.html#aec3ad540f1aa46463462c66ff6f9fc77" target="_top" xlink:title="Get instance of singleton CppCheckIssueReportConvertor.">
<polygon fill="none" stroke="black" points="206,-49.5 206,-79.5 377,-79.5 377,-49.5 206,-49.5"/>
<text text-anchor="start" x="214" y="-67.5" font-family="Helvetica,sans-Serif" font-size="10.00">CppCheckIssueReportConvertor</text>
<text text-anchor="middle" x="291.5" y="-56.5" font-family="Helvetica,sans-Serif" font-size="10.00">::getInstance</text>
</a>
</g>
</g>
<!-- Node2&#45;&gt;Node7 -->
<g id="edge6" class="edge">
<title>Node2&#45;&gt;Node7</title>
<path fill="none" stroke="midnightblue" d="M170.3,-64.5C178.39,-64.5 187.07,-64.5 195.93,-64.5"/>
<polygon fill="midnightblue" stroke="midnightblue" points="195.99,-68 205.99,-64.5 195.99,-61 195.99,-68"/>
</g>
<!-- Node8 -->
<g id="node8" class="node">
<title>Node8</title>
<g id="a_node8"><a xlink:href="../../d2/d59/class_clang_tidy_issue_report_convertor.html#ab4e324abfed9eda9a0a5ce01c458b197" target="_top" xlink:title="Get instance of singleton ClangTidyIssueReportConvertor.">
<polygon fill="none" stroke="black" points="206,-0.5 206,-30.5 377,-30.5 377,-0.5 206,-0.5"/>
<text text-anchor="start" x="214" y="-18.5" font-family="Helvetica,sans-Serif" font-size="10.00">ClangTidyIssueReportConvertor</text>
<text text-anchor="middle" x="291.5" y="-7.5" font-family="Helvetica,sans-Serif" font-size="10.00">::getInstance</text>
</a>
</g>
</g>
<!-- Node2&#45;&gt;Node8 -->
<g id="edge7" class="edge">
<title>Node2&#45;&gt;Node8</title>
<path fill="none" stroke="midnightblue" d="M156.9,-54.94C177.64,-48.81 205.2,-40.68 229.9,-33.39"/>
<polygon fill="midnightblue" stroke="midnightblue" points="230.96,-36.72 239.56,-30.54 228.98,-30.01 230.96,-36.72"/>
</g>
<!-- Node4 -->
<g id="node4" class="node">
<title>Node4</title>
<g id="a_node4"><a xlink:href="../../de/dc0/class_test_convertor.html#abc25ae29b63f0d501f322f31c2077c57" target="_top" xlink:title="method to extract data case from log result test report to convert to sonarqube report">
<polygon fill="none" stroke="black" points="413,-122.5 413,-152.5 562,-152.5 562,-122.5 413,-122.5"/>
<text text-anchor="start" x="421" y="-140.5" font-family="Helvetica,sans-Serif" font-size="10.00">TestConvertor::extractCase</text>
<text text-anchor="middle" x="487.5" y="-129.5" font-family="Helvetica,sans-Serif" font-size="10.00">Datas</text>
</a>
</g>
</g>
<!-- Node3&#45;&gt;Node4 -->
<g id="edge3" class="edge">
<title>Node3&#45;&gt;Node4</title>
<path fill="none" stroke="midnightblue" d="M369.17,-122.99C380.2,-124.35 391.6,-125.76 402.75,-127.14"/>
<polygon fill="midnightblue" stroke="midnightblue" points="402.56,-130.64 412.91,-128.4 403.42,-123.7 402.56,-130.64"/>
</g>
<!-- Node5 -->
<g id="node5" class="node">
<title>Node5</title>
<g id="a_node5"><a xlink:href="../../de/dc0/class_test_convertor.html#a48e3841031ac5a40c45588a2aef67a5b" target="_top" xlink:title="Save the Result of test in Map object.">
<polygon fill="none" stroke="black" points="413.5,-73.5 413.5,-103.5 561.5,-103.5 561.5,-73.5 413.5,-73.5"/>
<text text-anchor="start" x="421.5" y="-91.5" font-family="Helvetica,sans-Serif" font-size="10.00">TestConvertor::provideMap</text>
<text text-anchor="middle" x="487.5" y="-80.5" font-family="Helvetica,sans-Serif" font-size="10.00">ResultTests</text>
</a>
</g>
</g>
<!-- Node3&#45;&gt;Node5 -->
<g id="edge4" class="edge">
<title>Node3&#45;&gt;Node5</title>
<path fill="none" stroke="midnightblue" d="M369.17,-103.62C380.28,-102.19 391.76,-100.71 403,-99.26"/>
<polygon fill="midnightblue" stroke="midnightblue" points="403.76,-102.69 413.23,-97.94 402.87,-95.75 403.76,-102.69"/>
</g>
<!-- Node6 -->
<g id="node6" class="node">
<title>Node6</title>
<g id="a_node6"><a xlink:href="../../d9/d04/_test_convertor_8cpp.html#a97c6c231c4c9a339e925921214c7f595" target="_top" xlink:title="map to convert boost test node name to sonar test result leveling">
<polygon fill="none" stroke="black" points="598,-79 598,-98 695,-98 695,-79 598,-79"/>
<text text-anchor="middle" x="646.5" y="-86" font-family="Helvetica,sans-Serif" font-size="10.00">boostSonarState</text>
</a>
</g>
</g>
<!-- Node5&#45;&gt;Node6 -->
<g id="edge5" class="edge">
<title>Node5&#45;&gt;Node6</title>
<path fill="none" stroke="midnightblue" d="M561.94,-88.5C570.57,-88.5 579.27,-88.5 587.64,-88.5"/>
<polygon fill="midnightblue" stroke="midnightblue" points="587.66,-92 597.66,-88.5 587.66,-85 587.66,-92"/>
</g>
</g>
</svg>
        <g id="navigator" transform="translate(0 0)" fill="#404254">
                <rect fill="#f2f5e9" fill-opacity="0.5" stroke="#606060" stroke-width=".5" x="0" y="0" width="60" height="60"/>
                <use id="zoomplus" xlink:href="#zoomPlus" x="17" y="9" onmousedown="handleZoom(evt,'in')"/>
                <use id="zoomminus" xlink:href="#zoomMin" x="42" y="9" onmousedown="handleZoom(evt,'out')"/>
                <use id="reset" xlink:href="#resetDef" x="30" y="36" onmousedown="handleReset()"/>
                <g id="arrowUp" xlink:href="#dirArrow" transform="translate(30 24)" onmousedown="handlePan(0,-1)">
                  <use xlink:href="#rim" fill="#404040">
                        <set attributeName="fill" to="#808080" begin="arrowUp.mouseover" end="arrowUp.mouseout"/>
                  </use>
                  <path fill="none" stroke="white" stroke-width="1.5" d="M0,-3.0v7 M-2.5,-0.5L0,-3.0L2.5,-0.5"/>
                </g>
                <g id="arrowRight" xlink:href="#dirArrow" transform="rotate(90) translate(36 -43)" onmousedown="handlePan(1,0)">
                  <use xlink:href="#rim" fill="#404040">
                        <set attributeName="fill" to="#808080" begin="arrowRight.mouseover" end="arrowRight.mouseout"/>
                  </use>
                  <path fill="none" stroke="white" stroke-width="1.5" d="M0,-3.0v7 M-2.5,-0.5L0,-3.0L2.5,-0.5"/>
                </g>
                <g id="arrowDown" xlink:href="#dirArrow" transform="rotate(180) translate(-30 -48)" onmousedown="handlePan(0,1)">
                  <use xlink:href="#rim" fill="#404040">
                        <set attributeName="fill" to="#808080" begin="arrowDown.mouseover" end="arrowDown.mouseout"/>
                  </use>
                  <path fill="none" stroke="white" stroke-width="1.5" d="M0,-3.0v7 M-2.5,-0.5L0,-3.0L2.5,-0.5"/>
                </g>
                <g id="arrowLeft" xlink:href="#dirArrow" transform="rotate(270) translate(-36 17)" onmousedown="handlePan(-1,0)">
                  <use xlink:href="#rim" fill="#404040">
                        <set attributeName="fill" to="#808080" begin="arrowLeft.mouseover" end="arrowLeft.mouseout"/>
                  </use>
                  <path fill="none" stroke="white" stroke-width="1.5" d="M0,-3.0v7 M-2.5,-0.5L0,-3.0L2.5,-0.5"/>
                </g>
        </g>
        <svg viewBox="0 0 15 15" width="100%" height="30px" preserveAspectRatio="xMaxYMin meet">
         <g id="arrow_out" transform="scale(0.3 0.3)">
          <a xlink:href="main_8cpp_a1e53c4c3470ded40a0119755a8456f2a_cgraph_org.svg" target="_base">
           <rect id="button" ry="5" rx="5" y="6" x="6" height="38" width="38"
                fill="#f2f5e9" fill-opacity="0.5" stroke="#606060" stroke-width="1.0"/>
           <path id="arrow"
             d="M 11.500037,31.436501 C 11.940474,20.09759 22.043105,11.32322 32.158766,21.979434 L 37.068811,17.246167 C 37.068811,17.246167 37.088388,32 37.088388,32 L 22.160133,31.978069 C 22.160133,31.978069 26.997745,27.140456 26.997745,27.140456 C 18.528582,18.264221 13.291696,25.230495 11.500037,31.436501 z"
             style="fill:#404040;"/>
          </a>
         </g>
        </svg>
</svg>
