<?xml version="1.0" encoding="UTF-8" standalone="no"?>
<!DOCTYPE svg PUBLIC "-//W3C//DTD SVG 1.1//EN"
 "http://www.w3.org/Graphics/SVG/1.1/DTD/svg11.dtd">
<!-- Generated by graphviz version 2.43.0 (0)
 -->
<!-- Title: src/Application.cpp Pages: 1 -->
<!--zoomable 274 -->
<svg id="main" version="1.1" xmlns="http://www.w3.org/2000/svg" xmlns:xlink="http://www.w3.org/1999/xlink" xml:space="preserve" onload="init(evt)">
<style type="text/css"><![CDATA[
.edge:hover path { stroke: red; }
.edge:hover polygon { stroke: red; fill: red; }
]]></style>
<script type="text/javascript"><![CDATA[
var edges = document.getElementsByTagName('g');
if (edges && edges.length) {
  for (var i=0;i<edges.length;i++) {
    if (edges[i].id.substr(0,4)=='edge') {
      edges[i].setAttribute('class','edge');
    }
  }
}
]]></script>
        <defs>
                <circle id="rim" cx="0" cy="0" r="7"/>
                <circle id="rim2" cx="0" cy="0" r="3.5"/>
                <g id="zoomPlus">
                        <use xlink:href="#rim" fill="#404040">
                                <set attributeName="fill" to="#808080" begin="zoomplus.mouseover" end="zoomplus.mouseout"/>
                        </use>
                        <path d="M-4,0h8M0,-4v8" fill="none" stroke="white" stroke-width="1.5" pointer-events="none"/>
                </g>
                <g id="zoomMin">
                        <use xlink:href="#rim" fill="#404040">
                                <set attributeName="fill" to="#808080" begin="zoomminus.mouseover" end="zoomminus.mouseout"/>
                        </use>
                        <path d="M-4,0h8" fill="none" stroke="white" stroke-width="1.5" pointer-events="none"/>
                </g>
                <g id="dirArrow">
                        <path fill="none" stroke="white" stroke-width="1.5" d="M0,-3.0v7 M-2.5,-0.5L0,-3.0L2.5,-0.5"/>
                </g>
               <g id="resetDef">
                       <use xlink:href="#rim2" fill="#404040">
                               <set attributeName="fill" to="#808080" begin="reset.mouseover" end="reset.mouseout"/>
                       </use>
               </g>
        </defs>

<script type="text/javascript">
var viewWidth = 1142;
var viewHeight = 274;
var sectionId = 'dynsection-0';
</script>
<script xlink:href="../../svgpan.js"/>
<svg id="graph" class="graph">
<g id="viewport">
<title>src/Application.cpp</title>
<!-- Node1 -->
<g id="node1" class="node">
<title>Node1</title>
<g id="a_node1"><a xlink:title=" ">
<polygon fill="#bfbfbf" stroke="black" points="467.84,-246.5 467.84,-265.5 576.84,-265.5 576.84,-246.5 467.84,-246.5"/>
<text text-anchor="middle" x="522.34" y="-253.5" font-family="Helvetica,sans-Serif" font-size="10.00">src/Application.cpp</text>
</a>
</g>
</g>
<!-- Node2 -->
<g id="node2" class="node">
<title>Node2</title>
<g id="a_node2"><a xlink:href="../../d2/dcb/_application_8hpp.html" target="_top" xlink:title=" ">
<polygon fill="none" stroke="black" points="45.34,-123.5 45.34,-142.5 143.34,-142.5 143.34,-123.5 45.34,-123.5"/>
<text text-anchor="middle" x="94.34" y="-130.5" font-family="Helvetica,sans-Serif" font-size="10.00">./Application.hpp</text>
</a>
</g>
</g>
<!-- Node1&#45;&gt;Node2 -->
<g id="edge1" class="edge">
<title>Node1&#45;&gt;Node2</title>
<path fill="none" stroke="midnightblue" d="M467.63,-253.69C351.59,-250.33 89.13,-239.53 62.34,-210 46.64,-192.68 63.98,-166.54 78.61,-149.87"/>
<polygon fill="midnightblue" stroke="midnightblue" points="81.18,-152.25 85.41,-142.53 76.05,-147.49 81.18,-152.25"/>
</g>
<!-- Node4 -->
<g id="node4" class="node">
<title>Node4</title>
<g id="a_node4"><a xlink:title=" ">
<polygon fill="none" stroke="#bfbfbf" points="61.34,-6 61.34,-25 93.34,-25 93.34,-6 61.34,-6"/>
<text text-anchor="middle" x="77.34" y="-13" font-family="Helvetica,sans-Serif" font-size="10.00">list</text>
</a>
</g>
</g>
<!-- Node1&#45;&gt;Node4 -->
<g id="edge23" class="edge">
<title>Node1&#45;&gt;Node4</title>
<path fill="none" stroke="midnightblue" d="M467.52,-253.13C350.43,-248.66 83.97,-235.75 52.34,-210 1.34,-168.48 -14.12,-126.28 14.34,-67 22.25,-50.52 38.46,-37.72 52.45,-29.13"/>
<polygon fill="midnightblue" stroke="midnightblue" points="54.29,-32.12 61.22,-24.1 50.8,-26.05 54.29,-32.12"/>
</g>
<!-- Node6 -->
<g id="node6" class="node">
<title>Node6</title>
<g id="a_node6"><a xlink:href="../../da/dff/_clang_tidy_issue_report_convertor_8hpp.html" target="_top" xlink:title=" ">
<polygon fill="none" stroke="black" points="71.84,-179.5 71.84,-209.5 226.84,-209.5 226.84,-179.5 71.84,-179.5"/>
<text text-anchor="start" x="79.84" y="-197.5" font-family="Helvetica,sans-Serif" font-size="10.00">report/ClangTidyIssueReport</text>
<text text-anchor="middle" x="149.34" y="-186.5" font-family="Helvetica,sans-Serif" font-size="10.00">Convertor.hpp</text>
</a>
</g>
</g>
<!-- Node1&#45;&gt;Node6 -->
<g id="edge5" class="edge">
<title>Node1&#45;&gt;Node6</title>
<path fill="none" stroke="midnightblue" d="M467.83,-246.64C412.22,-238.08 323.15,-224.24 237.09,-210.27"/>
<polygon fill="midnightblue" stroke="midnightblue" points="237.58,-206.81 227.15,-208.66 236.46,-213.72 237.58,-206.81"/>
</g>
<!-- Node14 -->
<g id="node14" class="node">
<title>Node14</title>
<g id="a_node14"><a xlink:href="../../d8/dac/_cpp_check_issue_report_convertor_8hpp.html" target="_top" xlink:title=" ">
<polygon fill="none" stroke="black" points="244.84,-179.5 244.84,-209.5 399.84,-209.5 399.84,-179.5 244.84,-179.5"/>
<text text-anchor="start" x="252.84" y="-197.5" font-family="Helvetica,sans-Serif" font-size="10.00">report/CppCheckIssueReport</text>
<text text-anchor="middle" x="322.34" y="-186.5" font-family="Helvetica,sans-Serif" font-size="10.00">Convertor.hpp</text>
</a>
</g>
</g>
<!-- Node1&#45;&gt;Node14 -->
<g id="edge14" class="edge">
<title>Node1&#45;&gt;Node14</title>
<path fill="none" stroke="midnightblue" d="M493.69,-246.48C463.94,-237.63 416.62,-223.55 379.24,-212.43"/>
<polygon fill="midnightblue" stroke="midnightblue" points="380.06,-209.02 369.48,-209.52 378.06,-215.73 380.06,-209.02"/>
</g>
<!-- Node15 -->
<g id="node15" class="node">
<title>Node15</title>
<g id="a_node15"><a xlink:href="../../dd/d7b/_test_convertor_8hpp.html" target="_top" xlink:title=" ">
<polygon fill="none" stroke="black" points="359.84,-123.5 359.84,-142.5 496.84,-142.5 496.84,-123.5 359.84,-123.5"/>
<text text-anchor="middle" x="428.34" y="-130.5" font-family="Helvetica,sans-Serif" font-size="10.00">report/TestConvertor.hpp</text>
</a>
</g>
</g>
<!-- Node1&#45;&gt;Node15 -->
<g id="edge16" class="edge">
<title>Node1&#45;&gt;Node15</title>
<path fill="none" stroke="midnightblue" d="M498.98,-246.36C482.48,-239.09 461.11,-227.11 448.34,-210 435.88,-193.29 431.17,-169.47 429.4,-152.96"/>
<polygon fill="midnightblue" stroke="midnightblue" points="432.88,-152.57 428.58,-142.89 425.9,-153.14 432.88,-152.57"/>
</g>
<!-- Node16 -->
<g id="node16" class="node">
<title>Node16</title>
<g id="a_node16"><a xlink:title=" ">
<polygon fill="none" stroke="#bfbfbf" points="456.84,-185 456.84,-204 511.84,-204 511.84,-185 456.84,-185"/>
<text text-anchor="middle" x="484.34" y="-192" font-family="Helvetica,sans-Serif" font-size="10.00">fstream</text>
</a>
</g>
</g>
<!-- Node1&#45;&gt;Node16 -->
<g id="edge20" class="edge">
<title>Node1&#45;&gt;Node16</title>
<path fill="none" stroke="midnightblue" d="M516.9,-246.48C511.25,-237.64 502.28,-223.59 495.18,-212.48"/>
<polygon fill="midnightblue" stroke="midnightblue" points="498.11,-210.55 489.78,-204.01 492.21,-214.32 498.11,-210.55"/>
</g>
<!-- Node17 -->
<g id="node17" class="node">
<title>Node17</title>
<g id="a_node17"><a xlink:title=" ">
<polygon fill="none" stroke="#bfbfbf" points="530.34,-185 530.34,-204 590.34,-204 590.34,-185 530.34,-185"/>
<text text-anchor="middle" x="560.34" y="-192" font-family="Helvetica,sans-Serif" font-size="10.00">iostream</text>
</a>
</g>
</g>
<!-- Node1&#45;&gt;Node17 -->
<g id="edge21" class="edge">
<title>Node1&#45;&gt;Node17</title>
<path fill="none" stroke="midnightblue" d="M527.79,-246.48C533.43,-237.64 542.4,-223.59 549.5,-212.48"/>
<polygon fill="midnightblue" stroke="midnightblue" points="552.47,-214.32 554.91,-204.01 546.58,-210.55 552.47,-214.32"/>
</g>
<!-- Node18 -->
<g id="node18" class="node">
<title>Node18</title>
<g id="a_node18"><a xlink:title=" ">
<polygon fill="none" stroke="#bfbfbf" points="608.84,-185 608.84,-204 681.84,-204 681.84,-185 608.84,-185"/>
<text text-anchor="middle" x="645.34" y="-192" font-family="Helvetica,sans-Serif" font-size="10.00">string_view</text>
</a>
</g>
</g>
<!-- Node1&#45;&gt;Node18 -->
<g id="edge22" class="edge">
<title>Node1&#45;&gt;Node18</title>
<path fill="none" stroke="midnightblue" d="M539.96,-246.48C560.52,-236.53 594.71,-219.99 618.55,-208.46"/>
<polygon fill="midnightblue" stroke="midnightblue" points="620.27,-211.51 627.75,-204.01 617.23,-205.21 620.27,-211.51"/>
</g>
<!-- Node19 -->
<g id="node19" class="node">
<title>Node19</title>
<g id="a_node19"><a xlink:title=" ">
<polygon fill="none" stroke="#bfbfbf" points="700.34,-185 700.34,-204 786.34,-204 786.34,-185 700.34,-185"/>
<text text-anchor="middle" x="743.34" y="-192" font-family="Helvetica,sans-Serif" font-size="10.00">unordered_set</text>
</a>
</g>
</g>
<!-- Node1&#45;&gt;Node19 -->
<g id="edge24" class="edge">
<title>Node1&#45;&gt;Node19</title>
<path fill="none" stroke="midnightblue" d="M554.77,-246.49C588.81,-237.52 643.89,-222.93 691.34,-210 695.15,-208.96 699.11,-207.87 703.07,-206.78"/>
<polygon fill="midnightblue" stroke="midnightblue" points="704.14,-210.12 712.84,-204.07 702.27,-203.37 704.14,-210.12"/>
</g>
<!-- Node20 -->
<g id="node20" class="node">
<title>Node20</title>
<g id="a_node20"><a xlink:title=" ">
<polygon fill="none" stroke="#bfbfbf" points="804.84,-179.5 804.84,-209.5 917.84,-209.5 917.84,-179.5 804.84,-179.5"/>
<text text-anchor="start" x="812.84" y="-197.5" font-family="Helvetica,sans-Serif" font-size="10.00">boost/property_tree</text>
<text text-anchor="middle" x="861.34" y="-186.5" font-family="Helvetica,sans-Serif" font-size="10.00">/json_parser.hpp</text>
</a>
</g>
</g>
<!-- Node1&#45;&gt;Node20 -->
<g id="edge25" class="edge">
<title>Node1&#45;&gt;Node20</title>
<path fill="none" stroke="midnightblue" d="M576.88,-246.88C629.94,-238.78 713.06,-225.58 794.57,-210.09"/>
<polygon fill="midnightblue" stroke="midnightblue" points="795.34,-213.51 804.5,-208.19 794.02,-206.63 795.34,-213.51"/>
</g>
<!-- Node21 -->
<g id="node21" class="node">
<title>Node21</title>
<g id="a_node21"><a xlink:title=" ">
<polygon fill="none" stroke="#bfbfbf" points="935.84,-179.5 935.84,-209.5 1048.84,-209.5 1048.84,-179.5 935.84,-179.5"/>
<text text-anchor="start" x="943.84" y="-197.5" font-family="Helvetica,sans-Serif" font-size="10.00">boost/property_tree</text>
<text text-anchor="middle" x="992.34" y="-186.5" font-family="Helvetica,sans-Serif" font-size="10.00">/xml_parser.hpp</text>
</a>
</g>
</g>
<!-- Node1&#45;&gt;Node21 -->
<g id="edge26" class="edge">
<title>Node1&#45;&gt;Node21</title>
<path fill="none" stroke="midnightblue" d="M576.97,-250.83C653.04,-244.6 795.32,-231.44 925.54,-210.2"/>
<polygon fill="midnightblue" stroke="midnightblue" points="926.4,-213.6 935.69,-208.52 925.26,-206.69 926.4,-213.6"/>
</g>
<!-- Node22 -->
<g id="node22" class="node">
<title>Node22</title>
<g id="a_node22"><a xlink:title=" ">
<polygon fill="none" stroke="#bfbfbf" points="1066.84,-185 1066.84,-204 1133.84,-204 1133.84,-185 1066.84,-185"/>
<text text-anchor="middle" x="1100.34" y="-192" font-family="Helvetica,sans-Serif" font-size="10.00">config.hpp</text>
</a>
</g>
</g>
<!-- Node1&#45;&gt;Node22 -->
<g id="edge27" class="edge">
<title>Node1&#45;&gt;Node22</title>
<path fill="none" stroke="midnightblue" d="M577.01,-254.87C674.69,-253.65 885.2,-246.56 1058.34,-210 1061.84,-209.26 1065.46,-208.31 1069.03,-207.26"/>
<polygon fill="midnightblue" stroke="midnightblue" points="1070.4,-210.49 1078.83,-204.07 1068.24,-203.83 1070.4,-210.49"/>
</g>
<!-- Node3 -->
<g id="node3" class="node">
<title>Node3</title>
<g id="a_node3"><a xlink:title=" ">
<polygon fill="none" stroke="#bfbfbf" points="23.34,-67.5 23.34,-86.5 87.34,-86.5 87.34,-67.5 23.34,-67.5"/>
<text text-anchor="middle" x="55.34" y="-74.5" font-family="Helvetica,sans-Serif" font-size="10.00">algorithm</text>
</a>
</g>
</g>
<!-- Node2&#45;&gt;Node3 -->
<g id="edge2" class="edge">
<title>Node2&#45;&gt;Node3</title>
<path fill="none" stroke="midnightblue" d="M87.9,-123.08C82.39,-115.46 74.31,-104.26 67.58,-94.94"/>
<polygon fill="midnightblue" stroke="midnightblue" points="70.35,-92.81 61.66,-86.75 64.68,-96.91 70.35,-92.81"/>
</g>
<!-- Node2&#45;&gt;Node4 -->
<g id="edge3" class="edge">
<title>Node2&#45;&gt;Node4</title>
<path fill="none" stroke="midnightblue" d="M95.79,-123.08C97.57,-110.47 99.94,-86.77 96.34,-67 94.3,-55.76 89.89,-43.78 85.84,-34.3"/>
<polygon fill="midnightblue" stroke="midnightblue" points="89.01,-32.83 81.7,-25.16 82.64,-35.72 89.01,-32.83"/>
</g>
<!-- Node5 -->
<g id="node5" class="node">
<title>Node5</title>
<g id="a_node5"><a xlink:title=" ">
<polygon fill="none" stroke="#bfbfbf" points="143.34,-67.5 143.34,-86.5 187.34,-86.5 187.34,-67.5 143.34,-67.5"/>
<text text-anchor="middle" x="165.34" y="-74.5" font-family="Helvetica,sans-Serif" font-size="10.00">string</text>
</a>
</g>
</g>
<!-- Node2&#45;&gt;Node5 -->
<g id="edge4" class="edge">
<title>Node2&#45;&gt;Node5</title>
<path fill="none" stroke="midnightblue" d="M105.75,-123.32C116.45,-115.18 132.68,-102.84 145.5,-93.09"/>
<polygon fill="midnightblue" stroke="midnightblue" points="147.89,-95.67 153.73,-86.83 143.65,-90.1 147.89,-95.67"/>
</g>
<!-- Node7 -->
<g id="node7" class="node">
<title>Node7</title>
<g id="a_node7"><a xlink:href="../../da/db7/_issue_report_convertor_8hpp.html" target="_top" xlink:title=" ">
<polygon fill="none" stroke="black" points="192.84,-123.5 192.84,-142.5 341.84,-142.5 341.84,-123.5 192.84,-123.5"/>
<text text-anchor="middle" x="267.34" y="-130.5" font-family="Helvetica,sans-Serif" font-size="10.00">./IssueReportConvertor.hpp</text>
</a>
</g>
</g>
<!-- Node6&#45;&gt;Node7 -->
<g id="edge6" class="edge">
<title>Node6&#45;&gt;Node7</title>
<path fill="none" stroke="midnightblue" d="M177.31,-179.4C196.66,-169.64 222.25,-156.74 241.2,-147.18"/>
<polygon fill="midnightblue" stroke="midnightblue" points="242.82,-150.29 250.17,-142.66 239.67,-144.04 242.82,-150.29"/>
</g>
<!-- Node8 -->
<g id="node8" class="node">
<title>Node8</title>
<g id="a_node8"><a xlink:href="../../d7/d34/_report_convertor_8hpp.html" target="_top" xlink:title=" ">
<polygon fill="none" stroke="black" points="205.84,-67.5 205.84,-86.5 328.84,-86.5 328.84,-67.5 205.84,-67.5"/>
<text text-anchor="middle" x="267.34" y="-74.5" font-family="Helvetica,sans-Serif" font-size="10.00">./ReportConvertor.hpp</text>
</a>
</g>
</g>
<!-- Node7&#45;&gt;Node8 -->
<g id="edge7" class="edge">
<title>Node7&#45;&gt;Node8</title>
<path fill="none" stroke="midnightblue" d="M267.34,-123.08C267.34,-116.01 267.34,-105.86 267.34,-96.99"/>
<polygon fill="midnightblue" stroke="midnightblue" points="270.84,-96.75 267.34,-86.75 263.84,-96.75 270.84,-96.75"/>
</g>
<!-- Node13 -->
<g id="node13" class="node">
<title>Node13</title>
<g id="a_node13"><a xlink:title=" ">
<polygon fill="none" stroke="#bfbfbf" points="366.34,-67.5 366.34,-86.5 404.34,-86.5 404.34,-67.5 366.34,-67.5"/>
<text text-anchor="middle" x="385.34" y="-74.5" font-family="Helvetica,sans-Serif" font-size="10.00">map</text>
</a>
</g>
</g>
<!-- Node7&#45;&gt;Node13 -->
<g id="edge13" class="edge">
<title>Node7&#45;&gt;Node13</title>
<path fill="none" stroke="midnightblue" d="M286.04,-123.44C305.29,-114.64 335.49,-100.81 357.54,-90.72"/>
<polygon fill="midnightblue" stroke="midnightblue" points="359.1,-93.86 366.73,-86.52 356.18,-87.5 359.1,-93.86"/>
</g>
<!-- Node8&#45;&gt;Node4 -->
<g id="edge9" class="edge">
<title>Node8&#45;&gt;Node4</title>
<path fill="none" stroke="midnightblue" d="M224.28,-67.47C190.38,-60 142.34,-47.72 102.34,-31 101.49,-30.64 100.63,-30.27 99.78,-29.87"/>
<polygon fill="midnightblue" stroke="midnightblue" points="101.25,-26.69 90.77,-25.14 98,-32.89 101.25,-26.69"/>
</g>
<!-- Node9 -->
<g id="node9" class="node">
<title>Node9</title>
<g id="a_node9"><a xlink:title=" ">
<polygon fill="none" stroke="#bfbfbf" points="111.84,-6 111.84,-25 176.84,-25 176.84,-6 111.84,-6"/>
<text text-anchor="middle" x="144.34" y="-13" font-family="Helvetica,sans-Serif" font-size="10.00">functional</text>
</a>
</g>
</g>
<!-- Node8&#45;&gt;Node9 -->
<g id="edge8" class="edge">
<title>Node8&#45;&gt;Node9</title>
<path fill="none" stroke="midnightblue" d="M249.72,-67.48C229.17,-57.53 194.98,-40.99 171.14,-29.46"/>
<polygon fill="midnightblue" stroke="midnightblue" points="172.46,-26.21 161.93,-25.01 169.41,-32.51 172.46,-26.21"/>
</g>
<!-- Node10 -->
<g id="node10" class="node">
<title>Node10</title>
<g id="a_node10"><a xlink:title=" ">
<polygon fill="none" stroke="#bfbfbf" points="195.34,-6 195.34,-25 253.34,-25 253.34,-6 195.34,-6"/>
<text text-anchor="middle" x="224.34" y="-13" font-family="Helvetica,sans-Serif" font-size="10.00">memory</text>
</a>
</g>
</g>
<!-- Node8&#45;&gt;Node10 -->
<g id="edge10" class="edge">
<title>Node8&#45;&gt;Node10</title>
<path fill="none" stroke="midnightblue" d="M261.18,-67.48C254.73,-58.55 244.44,-44.31 236.37,-33.14"/>
<polygon fill="midnightblue" stroke="midnightblue" points="239.19,-31.06 230.49,-25.01 233.51,-35.16 239.19,-31.06"/>
</g>
<!-- Node11 -->
<g id="node11" class="node">
<title>Node11</title>
<g id="a_node11"><a xlink:title=" ">
<polygon fill="none" stroke="#bfbfbf" points="271.84,-6 271.84,-25 414.84,-25 414.84,-6 271.84,-6"/>
<text text-anchor="middle" x="343.34" y="-13" font-family="Helvetica,sans-Serif" font-size="10.00">boost/filesystem/path.hpp</text>
</a>
</g>
</g>
<!-- Node8&#45;&gt;Node11 -->
<g id="edge11" class="edge">
<title>Node8&#45;&gt;Node11</title>
<path fill="none" stroke="midnightblue" d="M278.23,-67.48C290.31,-58.02 310.01,-42.6 324.58,-31.19"/>
<polygon fill="midnightblue" stroke="midnightblue" points="326.76,-33.93 332.47,-25.01 322.44,-28.42 326.76,-33.93"/>
</g>
<!-- Node12 -->
<g id="node12" class="node">
<title>Node12</title>
<g id="a_node12"><a xlink:title=" ">
<polygon fill="none" stroke="#bfbfbf" points="432.84,-0.5 432.84,-30.5 545.84,-30.5 545.84,-0.5 432.84,-0.5"/>
<text text-anchor="start" x="440.84" y="-18.5" font-family="Helvetica,sans-Serif" font-size="10.00">boost/property_tree</text>
<text text-anchor="middle" x="489.34" y="-7.5" font-family="Helvetica,sans-Serif" font-size="10.00">/ptree.hpp</text>
</a>
</g>
</g>
<!-- Node8&#45;&gt;Node12 -->
<g id="edge12" class="edge">
<title>Node8&#45;&gt;Node12</title>
<path fill="none" stroke="midnightblue" d="M299.15,-67.48C332.45,-58.55 385.59,-44.31 427.24,-33.14"/>
<polygon fill="midnightblue" stroke="midnightblue" points="428.27,-36.49 437.02,-30.52 426.46,-29.73 428.27,-36.49"/>
</g>
<!-- Node14&#45;&gt;Node7 -->
<g id="edge15" class="edge">
<title>Node14&#45;&gt;Node7</title>
<path fill="none" stroke="midnightblue" d="M309.31,-179.4C301.15,-170.58 290.62,-159.18 282.15,-150.02"/>
<polygon fill="midnightblue" stroke="midnightblue" points="284.7,-147.63 275.35,-142.66 279.56,-152.38 284.7,-147.63"/>
</g>
<!-- Node15&#45;&gt;Node5 -->
<g id="edge18" class="edge">
<title>Node15&#45;&gt;Node5</title>
<path fill="none" stroke="midnightblue" d="M377.37,-123.49C332.38,-115.67 264.85,-103.18 197.55,-87.13"/>
<polygon fill="midnightblue" stroke="midnightblue" points="198.17,-83.68 187.63,-84.73 196.53,-90.48 198.17,-83.68"/>
</g>
<!-- Node15&#45;&gt;Node12 -->
<g id="edge19" class="edge">
<title>Node15&#45;&gt;Node12</title>
<path fill="none" stroke="midnightblue" d="M432.93,-123.32C442.21,-105.73 463.52,-65.39 477.13,-39.63"/>
<polygon fill="midnightblue" stroke="midnightblue" points="480.35,-41.02 481.92,-30.55 474.16,-37.75 480.35,-41.02"/>
</g>
<!-- Node15&#45;&gt;Node13 -->
<g id="edge17" class="edge">
<title>Node15&#45;&gt;Node13</title>
<path fill="none" stroke="midnightblue" d="M421.24,-123.08C415.11,-115.38 406.07,-104.03 398.6,-94.65"/>
<polygon fill="midnightblue" stroke="midnightblue" points="401.28,-92.39 392.31,-86.75 395.8,-96.75 401.28,-92.39"/>
</g>
</g>
</svg>
        <g id="navigator" transform="translate(0 0)" fill="#404254">
                <rect fill="#f2f5e9" fill-opacity="0.5" stroke="#606060" stroke-width=".5" x="0" y="0" width="60" height="60"/>
                <use id="zoomplus" xlink:href="#zoomPlus" x="17" y="9" onmousedown="handleZoom(evt,'in')"/>
                <use id="zoomminus" xlink:href="#zoomMin" x="42" y="9" onmousedown="handleZoom(evt,'out')"/>
                <use id="reset" xlink:href="#resetDef" x="30" y="36" onmousedown="handleReset()"/>
                <g id="arrowUp" xlink:href="#dirArrow" transform="translate(30 24)" onmousedown="handlePan(0,-1)">
                  <use xlink:href="#rim" fill="#404040">
                        <set attributeName="fill" to="#808080" begin="arrowUp.mouseover" end="arrowUp.mouseout"/>
                  </use>
                  <path fill="none" stroke="white" stroke-width="1.5" d="M0,-3.0v7 M-2.5,-0.5L0,-3.0L2.5,-0.5"/>
                </g>
                <g id="arrowRight" xlink:href="#dirArrow" transform="rotate(90) translate(36 -43)" onmousedown="handlePan(1,0)">
                  <use xlink:href="#rim" fill="#404040">
                        <set attributeName="fill" to="#808080" begin="arrowRight.mouseover" end="arrowRight.mouseout"/>
                  </use>
                  <path fill="none" stroke="white" stroke-width="1.5" d="M0,-3.0v7 M-2.5,-0.5L0,-3.0L2.5,-0.5"/>
                </g>
                <g id="arrowDown" xlink:href="#dirArrow" transform="rotate(180) translate(-30 -48)" onmousedown="handlePan(0,1)">
                  <use xlink:href="#rim" fill="#404040">
                        <set attributeName="fill" to="#808080" begin="arrowDown.mouseover" end="arrowDown.mouseout"/>
                  </use>
                  <path fill="none" stroke="white" stroke-width="1.5" d="M0,-3.0v7 M-2.5,-0.5L0,-3.0L2.5,-0.5"/>
                </g>
                <g id="arrowLeft" xlink:href="#dirArrow" transform="rotate(270) translate(-36 17)" onmousedown="handlePan(-1,0)">
                  <use xlink:href="#rim" fill="#404040">
                        <set attributeName="fill" to="#808080" begin="arrowLeft.mouseover" end="arrowLeft.mouseout"/>
                  </use>
                  <path fill="none" stroke="white" stroke-width="1.5" d="M0,-3.0v7 M-2.5,-0.5L0,-3.0L2.5,-0.5"/>
                </g>
        </g>
        <svg viewBox="0 0 15 15" width="100%" height="30px" preserveAspectRatio="xMaxYMin meet">
         <g id="arrow_out" transform="scale(0.3 0.3)">
          <a xlink:href="_application_8cpp__incl_org.svg" target="_base">
           <rect id="button" ry="5" rx="5" y="6" x="6" height="38" width="38"
                fill="#f2f5e9" fill-opacity="0.5" stroke="#606060" stroke-width="1.0"/>
           <path id="arrow"
             d="M 11.500037,31.436501 C 11.940474,20.09759 22.043105,11.32322 32.158766,21.979434 L 37.068811,17.246167 C 37.068811,17.246167 37.088388,32 37.088388,32 L 22.160133,31.978069 C 22.160133,31.978069 26.997745,27.140456 26.997745,27.140456 C 18.528582,18.264221 13.291696,25.230495 11.500037,31.436501 z"
             style="fill:#404040;"/>
          </a>
         </g>
        </svg>
</svg>
