<?xml version="1.0" encoding="UTF-8" standalone="no"?>
<!DOCTYPE svg PUBLIC "-//W3C//DTD SVG 1.1//EN"
 "http://www.w3.org/Graphics/SVG/1.1/DTD/svg11.dtd">
<!-- Generated by graphviz version 2.43.0 (0)
 -->
<!-- Title: src/report/IssueReportConvertor.hpp Pages: 1 -->
<svg width="989pt" height="229pt"
 viewBox="0.00 0.00 988.50 229.00" xmlns="http://www.w3.org/2000/svg" xmlns:xlink="http://www.w3.org/1999/xlink">
<g id="graph0" class="graph" transform="scale(1 1) rotate(0) translate(4 225)">
<title>src/report/IssueReportConvertor.hpp</title>
<!-- Node1 -->
<g id="node1" class="node">
<title>Node1</title>
<g id="a_node1"><a xlink:title=" ">
<polygon fill="#bfbfbf" stroke="black" points="461,-201.5 461,-220.5 653,-220.5 653,-201.5 461,-201.5"/>
<text text-anchor="middle" x="557" y="-208.5" font-family="Helvetica,sans-Serif" font-size="10.00">src/report/IssueReportConvertor.hpp</text>
</a>
</g>
</g>
<!-- Node2 -->
<g id="node2" class="node">
<title>Node2</title>
<g id="a_node2"><a xlink:href="../../d8/dac/_cpp_check_issue_report_convertor_8hpp.html" target="_top" xlink:title=" ">
<polygon fill="none" stroke="black" points="98,-134.5 98,-164.5 238,-164.5 238,-134.5 98,-134.5"/>
<text text-anchor="start" x="106" y="-152.5" font-family="Helvetica,sans-Serif" font-size="10.00">src/report/CppCheckIssue</text>
<text text-anchor="middle" x="168" y="-141.5" font-family="Helvetica,sans-Serif" font-size="10.00">ReportConvertor.hpp</text>
</a>
</g>
</g>
<!-- Node1&#45;&gt;Node2 -->
<g id="edge1" class="edge">
<title>Node1&#45;&gt;Node2</title>
<path fill="none" stroke="midnightblue" d="M491.2,-199.94C420.93,-189.19 310,-172.22 238.11,-161.22"/>
<polygon fill="midnightblue" stroke="midnightblue" points="490.85,-203.42 501.27,-201.48 491.91,-196.5 490.85,-203.42"/>
</g>
<!-- Node5 -->
<g id="node5" class="node">
<title>Node5</title>
<g id="a_node5"><a xlink:href="../../d6/d34/_gcc_compile_log_issue_report_convertor_8hpp.html" target="_top" xlink:title=" ">
<polygon fill="none" stroke="black" points="397.5,-134.5 397.5,-164.5 540.5,-164.5 540.5,-134.5 397.5,-134.5"/>
<text text-anchor="start" x="405.5" y="-152.5" font-family="Helvetica,sans-Serif" font-size="10.00">src/report/GccCompileLog</text>
<text text-anchor="middle" x="469" y="-141.5" font-family="Helvetica,sans-Serif" font-size="10.00">IssueReportConvertor.hpp</text>
</a>
</g>
</g>
<!-- Node1&#45;&gt;Node5 -->
<g id="edge4" class="edge">
<title>Node1&#45;&gt;Node5</title>
<path fill="none" stroke="midnightblue" d="M535.91,-195.74C521.92,-186.28 503.65,-173.93 489.74,-164.52"/>
<polygon fill="midnightblue" stroke="midnightblue" points="534.15,-198.77 544.39,-201.48 538.07,-192.97 534.15,-198.77"/>
</g>
<!-- Node11 -->
<g id="node11" class="node">
<title>Node11</title>
<g id="a_node11"><a xlink:href="../../d5/d92/_issue_report_convertor_8cpp.html" target="_top" xlink:title=" ">
<polygon fill="none" stroke="black" points="789.5,-140 789.5,-159 980.5,-159 980.5,-140 789.5,-140"/>
<text text-anchor="middle" x="885" y="-147" font-family="Helvetica,sans-Serif" font-size="10.00">src/report/IssueReportConvertor.cpp</text>
</a>
</g>
</g>
<!-- Node1&#45;&gt;Node11 -->
<g id="edge12" class="edge">
<title>Node1&#45;&gt;Node11</title>
<path fill="none" stroke="midnightblue" d="M613.85,-199.69C677.34,-188.17 778.95,-169.74 838.09,-159.01"/>
<polygon fill="midnightblue" stroke="midnightblue" points="613.21,-196.25 603.99,-201.48 614.46,-203.13 613.21,-196.25"/>
</g>
<!-- Node12 -->
<g id="node12" class="node">
<title>Node12</title>
<g id="a_node12"><a xlink:href="../../d0/dc4/_mvsc_compile_warning_issue_report_convertor_8hpp.html" target="_top" xlink:title=" ">
<polygon fill="none" stroke="black" points="599,-134.5 599,-164.5 771,-164.5 771,-134.5 599,-134.5"/>
<text text-anchor="start" x="607" y="-152.5" font-family="Helvetica,sans-Serif" font-size="10.00">src/report/MvscCompileWarning</text>
<text text-anchor="middle" x="685" y="-141.5" font-family="Helvetica,sans-Serif" font-size="10.00">IssueReportConvertor.hpp</text>
</a>
</g>
</g>
<!-- Node1&#45;&gt;Node12 -->
<g id="edge13" class="edge">
<title>Node1&#45;&gt;Node12</title>
<path fill="none" stroke="midnightblue" d="M584.54,-197.2C605.22,-187.58 633.54,-174.42 654.83,-164.52"/>
<polygon fill="midnightblue" stroke="midnightblue" points="582.93,-194.09 575.34,-201.48 585.88,-200.43 582.93,-194.09"/>
</g>
<!-- Node3 -->
<g id="node3" class="node">
<title>Node3</title>
<g id="a_node3"><a xlink:href="../../d0/d42/_application_8cpp.html" target="_top" xlink:title=" ">
<polygon fill="none" stroke="black" points="394.5,-6 394.5,-25 503.5,-25 503.5,-6 394.5,-6"/>
<text text-anchor="middle" x="449" y="-13" font-family="Helvetica,sans-Serif" font-size="10.00">src/Application.cpp</text>
</a>
</g>
</g>
<!-- Node2&#45;&gt;Node3 -->
<g id="edge2" class="edge">
<title>Node2&#45;&gt;Node3</title>
<path fill="none" stroke="midnightblue" d="M167.05,-124.29C167.71,-106.01 171.76,-81.67 187,-67 188.96,-65.12 328.59,-38.9 403.18,-25.01"/>
<polygon fill="midnightblue" stroke="midnightblue" points="163.55,-124.46 167,-134.48 170.55,-124.5 163.55,-124.46"/>
</g>
<!-- Node4 -->
<g id="node4" class="node">
<title>Node4</title>
<g id="a_node4"><a xlink:href="../../d8/dcd/_cpp_check_issue_report_convertor_8cpp.html" target="_top" xlink:title=" ">
<polygon fill="none" stroke="black" points="0,-67.5 0,-97.5 140,-97.5 140,-67.5 0,-67.5"/>
<text text-anchor="start" x="8" y="-85.5" font-family="Helvetica,sans-Serif" font-size="10.00">src/report/CppCheckIssue</text>
<text text-anchor="middle" x="70" y="-74.5" font-family="Helvetica,sans-Serif" font-size="10.00">ReportConvertor.cpp</text>
</a>
</g>
</g>
<!-- Node2&#45;&gt;Node4 -->
<g id="edge3" class="edge">
<title>Node2&#45;&gt;Node4</title>
<path fill="none" stroke="midnightblue" d="M138.2,-128.73C123.03,-118.68 104.96,-106.68 91.22,-97.58"/>
<polygon fill="midnightblue" stroke="midnightblue" points="136.47,-131.79 146.74,-134.4 140.34,-125.95 136.47,-131.79"/>
</g>
<!-- Node6 -->
<g id="node6" class="node">
<title>Node6</title>
<g id="a_node6"><a xlink:href="../../da/dff/_clang_tidy_issue_report_convertor_8hpp.html" target="_top" xlink:title=" ">
<polygon fill="none" stroke="black" points="538,-67.5 538,-97.5 678,-97.5 678,-67.5 538,-67.5"/>
<text text-anchor="start" x="546" y="-85.5" font-family="Helvetica,sans-Serif" font-size="10.00">src/report/ClangTidyIssue</text>
<text text-anchor="middle" x="608" y="-74.5" font-family="Helvetica,sans-Serif" font-size="10.00">ReportConvertor.hpp</text>
</a>
</g>
</g>
<!-- Node5&#45;&gt;Node6 -->
<g id="edge5" class="edge">
<title>Node5&#45;&gt;Node6</title>
<path fill="none" stroke="midnightblue" d="M508.28,-130.13C530.37,-119.8 557.51,-107.11 577.9,-97.58"/>
<polygon fill="midnightblue" stroke="midnightblue" points="506.74,-126.99 499.16,-134.4 509.7,-133.33 506.74,-126.99"/>
</g>
<!-- Node8 -->
<g id="node8" class="node">
<title>Node8</title>
<g id="a_node8"><a xlink:href="../../da/d8e/_gcc_compile_log_issue_report_convertor_8cpp.html" target="_top" xlink:title=" ">
<polygon fill="none" stroke="black" points="378,-67.5 378,-97.5 520,-97.5 520,-67.5 378,-67.5"/>
<text text-anchor="start" x="386" y="-85.5" font-family="Helvetica,sans-Serif" font-size="10.00">src/report/GccCompileLog</text>
<text text-anchor="middle" x="449" y="-74.5" font-family="Helvetica,sans-Serif" font-size="10.00">IssueReportConvertor.cpp</text>
</a>
</g>
</g>
<!-- Node5&#45;&gt;Node8 -->
<g id="edge8" class="edge">
<title>Node5&#45;&gt;Node8</title>
<path fill="none" stroke="midnightblue" d="M461.68,-124.7C458.87,-115.59 455.77,-105.49 453.33,-97.58"/>
<polygon fill="midnightblue" stroke="midnightblue" points="458.37,-125.87 464.66,-134.4 465.06,-123.81 458.37,-125.87"/>
</g>
<!-- Node9 -->
<g id="node9" class="node">
<title>Node9</title>
<g id="a_node9"><a xlink:href="../../da/dcc/_gcc_compile_warning_issue_report_convertor_8hpp.html" target="_top" xlink:title=" ">
<polygon fill="none" stroke="black" points="196,-67.5 196,-97.5 360,-97.5 360,-67.5 196,-67.5"/>
<text text-anchor="start" x="204" y="-85.5" font-family="Helvetica,sans-Serif" font-size="10.00">src/report/GccCompileWarning</text>
<text text-anchor="middle" x="278" y="-74.5" font-family="Helvetica,sans-Serif" font-size="10.00">IssueReportConvertor.hpp</text>
</a>
</g>
</g>
<!-- Node5&#45;&gt;Node9 -->
<g id="edge9" class="edge">
<title>Node5&#45;&gt;Node9</title>
<path fill="none" stroke="midnightblue" d="M417.85,-131.09C387.01,-120.6 348.25,-107.41 319.36,-97.58"/>
<polygon fill="midnightblue" stroke="midnightblue" points="416.96,-134.49 427.56,-134.4 419.22,-127.86 416.96,-134.49"/>
</g>
<!-- Node6&#45;&gt;Node3 -->
<g id="edge6" class="edge">
<title>Node6&#45;&gt;Node3</title>
<path fill="none" stroke="midnightblue" d="M563.87,-63.46C533.15,-50.9 493.58,-34.72 469.81,-25.01"/>
<polygon fill="midnightblue" stroke="midnightblue" points="562.92,-66.85 573.5,-67.4 565.57,-60.37 562.92,-66.85"/>
</g>
<!-- Node7 -->
<g id="node7" class="node">
<title>Node7</title>
<g id="a_node7"><a xlink:href="../../d5/d63/_clang_tidy_issue_report_convertor_8cpp.html" target="_top" xlink:title=" ">
<polygon fill="none" stroke="black" points="538,-0.5 538,-30.5 678,-30.5 678,-0.5 538,-0.5"/>
<text text-anchor="start" x="546" y="-18.5" font-family="Helvetica,sans-Serif" font-size="10.00">src/report/ClangTidyIssue</text>
<text text-anchor="middle" x="608" y="-7.5" font-family="Helvetica,sans-Serif" font-size="10.00">ReportConvertor.cpp</text>
</a>
</g>
</g>
<!-- Node6&#45;&gt;Node7 -->
<g id="edge7" class="edge">
<title>Node6&#45;&gt;Node7</title>
<path fill="none" stroke="midnightblue" d="M608,-57.11C608,-48.15 608,-38.32 608,-30.58"/>
<polygon fill="midnightblue" stroke="midnightblue" points="604.5,-57.4 608,-67.4 611.5,-57.4 604.5,-57.4"/>
</g>
<!-- Node9&#45;&gt;Node3 -->
<g id="edge10" class="edge">
<title>Node9&#45;&gt;Node3</title>
<path fill="none" stroke="midnightblue" d="M324.61,-63.78C357.76,-51.18 400.84,-34.81 426.62,-25.01"/>
<polygon fill="midnightblue" stroke="midnightblue" points="323.21,-60.57 315.1,-67.4 325.7,-67.11 323.21,-60.57"/>
</g>
<!-- Node10 -->
<g id="node10" class="node">
<title>Node10</title>
<g id="a_node10"><a xlink:href="../../de/dfe/_gcc_compile_warning_issue_report_convertor_8cpp.html" target="_top" xlink:title=" ">
<polygon fill="none" stroke="black" points="196,-0.5 196,-30.5 360,-30.5 360,-0.5 196,-0.5"/>
<text text-anchor="start" x="204" y="-18.5" font-family="Helvetica,sans-Serif" font-size="10.00">src/report/GccCompileWarning</text>
<text text-anchor="middle" x="278" y="-7.5" font-family="Helvetica,sans-Serif" font-size="10.00">IssueReportConvertor.cpp</text>
</a>
</g>
</g>
<!-- Node9&#45;&gt;Node10 -->
<g id="edge11" class="edge">
<title>Node9&#45;&gt;Node10</title>
<path fill="none" stroke="midnightblue" d="M278,-57.11C278,-48.15 278,-38.32 278,-30.58"/>
<polygon fill="midnightblue" stroke="midnightblue" points="274.5,-57.4 278,-67.4 281.5,-57.4 274.5,-57.4"/>
</g>
<!-- Node12&#45;&gt;Node3 -->
<g id="edge14" class="edge">
<title>Node12&#45;&gt;Node3</title>
<path fill="none" stroke="midnightblue" d="M693.12,-124.67C697.57,-106.85 699.88,-82.9 687,-67 680.98,-59.56 564.18,-37.34 496.48,-25"/>
<polygon fill="midnightblue" stroke="midnightblue" points="689.74,-123.78 690.35,-134.35 696.47,-125.7 689.74,-123.78"/>
</g>
<!-- Node13 -->
<g id="node13" class="node">
<title>Node13</title>
<g id="a_node13"><a xlink:href="../../d0/dc2/_mvsc_compile_warning_issue_report_convertor_8cpp.html" target="_top" xlink:title=" ">
<polygon fill="none" stroke="black" points="734,-67.5 734,-97.5 906,-97.5 906,-67.5 734,-67.5"/>
<text text-anchor="start" x="742" y="-85.5" font-family="Helvetica,sans-Serif" font-size="10.00">src/report/MvscCompileWarning</text>
<text text-anchor="middle" x="820" y="-74.5" font-family="Helvetica,sans-Serif" font-size="10.00">IssueReportConvertor.cpp</text>
</a>
</g>
</g>
<!-- Node12&#45;&gt;Node13 -->
<g id="edge15" class="edge">
<title>Node12&#45;&gt;Node13</title>
<path fill="none" stroke="midnightblue" d="M723.44,-129.99C744.84,-119.69 771.05,-107.07 790.76,-97.58"/>
<polygon fill="midnightblue" stroke="midnightblue" points="721.78,-126.9 714.29,-134.4 724.82,-133.21 721.78,-126.9"/>
</g>
</g>
</svg>
