<?xml version="1.0" encoding="UTF-8" standalone="no"?>
<!DOCTYPE svg PUBLIC "-//W3C//DTD SVG 1.1//EN"
 "http://www.w3.org/Graphics/SVG/1.1/DTD/svg11.dtd">
<!-- Generated by graphviz version 2.43.0 (0)
 -->
<!-- Title: src/Application.cpp Pages: 1 -->
<!--zoomable 341 -->
<svg id="main" version="1.1" xmlns="http://www.w3.org/2000/svg" xmlns:xlink="http://www.w3.org/1999/xlink" xml:space="preserve" onload="init(evt)">
<style type="text/css"><![CDATA[
.edge:hover path { stroke: red; }
.edge:hover polygon { stroke: red; fill: red; }
]]></style>
<script type="text/javascript"><![CDATA[
var edges = document.getElementsByTagName('g');
if (edges && edges.length) {
  for (var i=0;i<edges.length;i++) {
    if (edges[i].id.substr(0,4)=='edge') {
      edges[i].setAttribute('class','edge');
    }
  }
}
]]></script>
        <defs>
                <circle id="rim" cx="0" cy="0" r="7"/>
                <circle id="rim2" cx="0" cy="0" r="3.5"/>
                <g id="zoomPlus">
                        <use xlink:href="#rim" fill="#404040">
                                <set attributeName="fill" to="#808080" begin="zoomplus.mouseover" end="zoomplus.mouseout"/>
                        </use>
                        <path d="M-4,0h8M0,-4v8" fill="none" stroke="white" stroke-width="1.5" pointer-events="none"/>
                </g>
                <g id="zoomMin">
                        <use xlink:href="#rim" fill="#404040">
                                <set attributeName="fill" to="#808080" begin="zoomminus.mouseover" end="zoomminus.mouseout"/>
                        </use>
                        <path d="M-4,0h8" fill="none" stroke="white" stroke-width="1.5" pointer-events="none"/>
                </g>
                <g id="dirArrow">
                        <path fill="none" stroke="white" stroke-width="1.5" d="M0,-3.0v7 M-2.5,-0.5L0,-3.0L2.5,-0.5"/>
                </g>
               <g id="resetDef">
                       <use xlink:href="#rim2" fill="#404040">
                               <set attributeName="fill" to="#808080" begin="reset.mouseover" end="reset.mouseout"/>
                       </use>
               </g>
        </defs>

<script type="text/javascript">
var viewWidth = 1240;
var viewHeight = 341;
var sectionId = 'dynsection-0';
</script>
<script xlink:href="../../svgpan.js"/>
<svg id="graph" class="graph">
<g id="viewport">
<title>src/Application.cpp</title>
<!-- Node1 -->
<g id="node1" class="node">
<title>Node1</title>
<g id="a_node1"><a xlink:title=" ">
<polygon fill="#bfbfbf" stroke="black" points="499.5,-313.5 499.5,-332.5 608.5,-332.5 608.5,-313.5 499.5,-313.5"/>
<text text-anchor="middle" x="554" y="-320.5" font-family="Helvetica,sans-Serif" font-size="10.00">src/Application.cpp</text>
</a>
</g>
</g>
<!-- Node2 -->
<g id="node2" class="node">
<title>Node2</title>
<g id="a_node2"><a xlink:href="../../d2/dcb/_application_8hpp.html" target="_top" xlink:title=" ">
<polygon fill="none" stroke="black" points="50,-123.5 50,-142.5 148,-142.5 148,-123.5 50,-123.5"/>
<text text-anchor="middle" x="99" y="-130.5" font-family="Helvetica,sans-Serif" font-size="10.00">./Application.hpp</text>
</a>
</g>
</g>
<!-- Node1&#45;&gt;Node2 -->
<g id="edge1" class="edge">
<title>Node1&#45;&gt;Node2</title>
<path fill="none" stroke="midnightblue" d="M499.39,-321.03C376.92,-318.31 88.71,-308.58 59,-277 29.15,-245.27 41.02,-219.53 57,-179 61.51,-167.55 70.47,-157.29 78.95,-149.47"/>
<polygon fill="midnightblue" stroke="midnightblue" points="81.47,-151.93 86.79,-142.76 76.91,-146.61 81.47,-151.93"/>
</g>
<!-- Node4 -->
<g id="node4" class="node">
<title>Node4</title>
<g id="a_node4"><a xlink:title=" ">
<polygon fill="none" stroke="#bfbfbf" points="96,-6 96,-25 128,-25 128,-6 96,-6"/>
<text text-anchor="middle" x="112" y="-13" font-family="Helvetica,sans-Serif" font-size="10.00">list</text>
</a>
</g>
</g>
<!-- Node1&#45;&gt;Node4 -->
<g id="edge28" class="edge">
<title>Node1&#45;&gt;Node4</title>
<path fill="none" stroke="midnightblue" d="M499.31,-320.3C374.22,-315.97 75.16,-303.01 38,-277 5.26,-254.08 0,-235.47 0,-195.5 0,-195.5 0,-195.5 0,-132 0,-101.9 0.1,-90.42 19,-67 36.25,-45.62 65.08,-31.99 86.07,-24.34"/>
<polygon fill="midnightblue" stroke="midnightblue" points="87.33,-27.61 95.67,-21.07 85.07,-20.99 87.33,-27.61"/>
</g>
<!-- Node6 -->
<g id="node6" class="node">
<title>Node6</title>
<g id="a_node6"><a xlink:href="../../da/dff/_clang_tidy_issue_report_convertor_8hpp.html" target="_top" xlink:title=" ">
<polygon fill="none" stroke="black" points="68.5,-246.5 68.5,-276.5 223.5,-276.5 223.5,-246.5 68.5,-246.5"/>
<text text-anchor="start" x="76.5" y="-264.5" font-family="Helvetica,sans-Serif" font-size="10.00">report/ClangTidyIssueReport</text>
<text text-anchor="middle" x="146" y="-253.5" font-family="Helvetica,sans-Serif" font-size="10.00">Convertor.hpp</text>
</a>
</g>
</g>
<!-- Node1&#45;&gt;Node6 -->
<g id="edge5" class="edge">
<title>Node1&#45;&gt;Node6</title>
<path fill="none" stroke="midnightblue" d="M499.4,-314.04C431.41,-304.12 314.41,-287.06 233.77,-275.3"/>
<polygon fill="midnightblue" stroke="midnightblue" points="234.03,-271.8 223.63,-273.82 233.02,-278.73 234.03,-271.8"/>
</g>
<!-- Node15 -->
<g id="node15" class="node">
<title>Node15</title>
<g id="a_node15"><a xlink:href="../../d8/dac/_cpp_check_issue_report_convertor_8hpp.html" target="_top" xlink:title=" ">
<polygon fill="none" stroke="black" points="240.5,-179.5 240.5,-209.5 395.5,-209.5 395.5,-179.5 240.5,-179.5"/>
<text text-anchor="start" x="248.5" y="-197.5" font-family="Helvetica,sans-Serif" font-size="10.00">report/CppCheckIssueReport</text>
<text text-anchor="middle" x="318" y="-186.5" font-family="Helvetica,sans-Serif" font-size="10.00">Convertor.hpp</text>
</a>
</g>
</g>
<!-- Node1&#45;&gt;Node15 -->
<g id="edge15" class="edge">
<title>Node1&#45;&gt;Node15</title>
<path fill="none" stroke="midnightblue" d="M538.89,-313.39C513.74,-299.12 461.66,-269.77 417,-246 396.75,-235.22 373.95,-223.56 355.34,-214.16"/>
<polygon fill="midnightblue" stroke="midnightblue" points="356.8,-210.98 346.3,-209.61 353.66,-217.23 356.8,-210.98"/>
</g>
<!-- Node16 -->
<g id="node16" class="node">
<title>Node16</title>
<g id="a_node16"><a xlink:href="../../da/dcc/_gcc_compile_warning_issue_report_convertor_8hpp.html" target="_top" xlink:title=" ">
<polygon fill="none" stroke="black" points="260.5,-246.5 260.5,-276.5 407.5,-276.5 407.5,-246.5 260.5,-246.5"/>
<text text-anchor="start" x="268.5" y="-264.5" font-family="Helvetica,sans-Serif" font-size="10.00">report/GccCompileWarning</text>
<text text-anchor="middle" x="334" y="-253.5" font-family="Helvetica,sans-Serif" font-size="10.00">IssueReportConvertor.hpp</text>
</a>
</g>
</g>
<!-- Node1&#45;&gt;Node16 -->
<g id="edge17" class="edge">
<title>Node1&#45;&gt;Node16</title>
<path fill="none" stroke="midnightblue" d="M522.48,-313.48C489.48,-304.55 436.82,-290.31 395.54,-279.14"/>
<polygon fill="midnightblue" stroke="midnightblue" points="396.42,-275.76 385.85,-276.52 394.59,-282.51 396.42,-275.76"/>
</g>
<!-- Node17 -->
<g id="node17" class="node">
<title>Node17</title>
<g id="a_node17"><a xlink:href="../../d0/dc4/_mvsc_compile_warning_issue_report_convertor_8hpp.html" target="_top" xlink:title=" ">
<polygon fill="none" stroke="black" points="413.5,-179.5 413.5,-209.5 568.5,-209.5 568.5,-179.5 413.5,-179.5"/>
<text text-anchor="start" x="421.5" y="-197.5" font-family="Helvetica,sans-Serif" font-size="10.00">report/MvscCompileWarning</text>
<text text-anchor="middle" x="491" y="-186.5" font-family="Helvetica,sans-Serif" font-size="10.00">IssueReportConvertor.hpp</text>
</a>
</g>
</g>
<!-- Node1&#45;&gt;Node17 -->
<g id="edge19" class="edge">
<title>Node1&#45;&gt;Node17</title>
<path fill="none" stroke="midnightblue" d="M543.45,-313.46C533.86,-305.13 520.02,-291.62 512,-277 502.2,-259.13 496.85,-236.55 494,-219.69"/>
<polygon fill="midnightblue" stroke="midnightblue" points="497.43,-218.91 492.47,-209.54 490.5,-219.95 497.43,-218.91"/>
</g>
<!-- Node18 -->
<g id="node18" class="node">
<title>Node18</title>
<g id="a_node18"><a xlink:href="../../dd/d7b/_test_convertor_8hpp.html" target="_top" xlink:title=" ">
<polygon fill="none" stroke="black" points="425.5,-123.5 425.5,-142.5 562.5,-142.5 562.5,-123.5 425.5,-123.5"/>
<text text-anchor="middle" x="494" y="-130.5" font-family="Helvetica,sans-Serif" font-size="10.00">report/TestConvertor.hpp</text>
</a>
</g>
</g>
<!-- Node1&#45;&gt;Node18 -->
<g id="edge21" class="edge">
<title>Node1&#45;&gt;Node18</title>
<path fill="none" stroke="midnightblue" d="M550.57,-313.23C545.43,-298.73 537.23,-269.07 546,-246 553.61,-225.99 570.39,-230.01 578,-210 582.9,-197.12 585.08,-190.82 578,-179 568.85,-163.72 552.54,-153.33 536.71,-146.43"/>
<polygon fill="midnightblue" stroke="midnightblue" points="537.57,-143 526.99,-142.56 534.99,-149.51 537.57,-143"/>
</g>
<!-- Node19 -->
<g id="node19" class="node">
<title>Node19</title>
<g id="a_node19"><a xlink:title=" ">
<polygon fill="none" stroke="#bfbfbf" points="554.5,-252 554.5,-271 609.5,-271 609.5,-252 554.5,-252"/>
<text text-anchor="middle" x="582" y="-259" font-family="Helvetica,sans-Serif" font-size="10.00">fstream</text>
</a>
</g>
</g>
<!-- Node1&#45;&gt;Node19 -->
<g id="edge25" class="edge">
<title>Node1&#45;&gt;Node19</title>
<path fill="none" stroke="midnightblue" d="M558.01,-313.48C562.09,-304.82 568.52,-291.15 573.7,-280.15"/>
<polygon fill="midnightblue" stroke="midnightblue" points="576.9,-281.55 578,-271.01 570.57,-278.57 576.9,-281.55"/>
</g>
<!-- Node20 -->
<g id="node20" class="node">
<title>Node20</title>
<g id="a_node20"><a xlink:title=" ">
<polygon fill="none" stroke="#bfbfbf" points="628,-252 628,-271 688,-271 688,-252 628,-252"/>
<text text-anchor="middle" x="658" y="-259" font-family="Helvetica,sans-Serif" font-size="10.00">iostream</text>
</a>
</g>
</g>
<!-- Node1&#45;&gt;Node20 -->
<g id="edge26" class="edge">
<title>Node1&#45;&gt;Node20</title>
<path fill="none" stroke="midnightblue" d="M568.9,-313.48C585.97,-303.71 614.16,-287.58 634.26,-276.08"/>
<polygon fill="midnightblue" stroke="midnightblue" points="636.19,-279.01 643.13,-271.01 632.71,-272.94 636.19,-279.01"/>
</g>
<!-- Node21 -->
<g id="node21" class="node">
<title>Node21</title>
<g id="a_node21"><a xlink:title=" ">
<polygon fill="none" stroke="#bfbfbf" points="706.5,-252 706.5,-271 779.5,-271 779.5,-252 706.5,-252"/>
<text text-anchor="middle" x="743" y="-259" font-family="Helvetica,sans-Serif" font-size="10.00">string_view</text>
</a>
</g>
</g>
<!-- Node1&#45;&gt;Node21 -->
<g id="edge27" class="edge">
<title>Node1&#45;&gt;Node21</title>
<path fill="none" stroke="midnightblue" d="M581.15,-313.46C609.91,-304.41 656.66,-289.71 697,-277 699.94,-276.07 702.99,-275.11 706.05,-274.15"/>
<polygon fill="midnightblue" stroke="midnightblue" points="707.27,-277.43 715.76,-271.09 705.17,-270.76 707.27,-277.43"/>
</g>
<!-- Node22 -->
<g id="node22" class="node">
<title>Node22</title>
<g id="a_node22"><a xlink:title=" ">
<polygon fill="none" stroke="#bfbfbf" points="798,-252 798,-271 884,-271 884,-252 798,-252"/>
<text text-anchor="middle" x="841" y="-259" font-family="Helvetica,sans-Serif" font-size="10.00">unordered_set</text>
</a>
</g>
</g>
<!-- Node1&#45;&gt;Node22 -->
<g id="edge29" class="edge">
<title>Node1&#45;&gt;Node22</title>
<path fill="none" stroke="midnightblue" d="M605.14,-313.46C652.92,-305.19 726.11,-291.76 789,-277 793.33,-275.98 797.83,-274.85 802.3,-273.67"/>
<polygon fill="midnightblue" stroke="midnightblue" points="803.22,-277.05 811.96,-271.06 801.39,-270.29 803.22,-277.05"/>
</g>
<!-- Node23 -->
<g id="node23" class="node">
<title>Node23</title>
<g id="a_node23"><a xlink:title=" ">
<polygon fill="none" stroke="#bfbfbf" points="902.5,-246.5 902.5,-276.5 1015.5,-276.5 1015.5,-246.5 902.5,-246.5"/>
<text text-anchor="start" x="910.5" y="-264.5" font-family="Helvetica,sans-Serif" font-size="10.00">boost/property_tree</text>
<text text-anchor="middle" x="959" y="-253.5" font-family="Helvetica,sans-Serif" font-size="10.00">/json_parser.hpp</text>
</a>
</g>
</g>
<!-- Node1&#45;&gt;Node23 -->
<g id="edge30" class="edge">
<title>Node1&#45;&gt;Node23</title>
<path fill="none" stroke="midnightblue" d="M608.53,-316.2C673.66,-308.94 786.09,-295.41 892.26,-277.04"/>
<polygon fill="midnightblue" stroke="midnightblue" points="892.93,-280.47 902.18,-275.3 891.73,-273.58 892.93,-280.47"/>
</g>
<!-- Node24 -->
<g id="node24" class="node">
<title>Node24</title>
<g id="a_node24"><a xlink:title=" ">
<polygon fill="none" stroke="#bfbfbf" points="1033.5,-246.5 1033.5,-276.5 1146.5,-276.5 1146.5,-246.5 1033.5,-246.5"/>
<text text-anchor="start" x="1041.5" y="-264.5" font-family="Helvetica,sans-Serif" font-size="10.00">boost/property_tree</text>
<text text-anchor="middle" x="1090" y="-253.5" font-family="Helvetica,sans-Serif" font-size="10.00">/xml_parser.hpp</text>
</a>
</g>
</g>
<!-- Node1&#45;&gt;Node24 -->
<g id="edge31" class="edge">
<title>Node1&#45;&gt;Node24</title>
<path fill="none" stroke="midnightblue" d="M608.67,-318.99C694.85,-313.76 867.69,-301.3 1023.15,-277.18"/>
<polygon fill="midnightblue" stroke="midnightblue" points="1024.02,-280.58 1033.36,-275.57 1022.94,-273.67 1024.02,-280.58"/>
</g>
<!-- Node25 -->
<g id="node25" class="node">
<title>Node25</title>
<g id="a_node25"><a xlink:title=" ">
<polygon fill="none" stroke="#bfbfbf" points="1164.5,-252 1164.5,-271 1231.5,-271 1231.5,-252 1164.5,-252"/>
<text text-anchor="middle" x="1198" y="-259" font-family="Helvetica,sans-Serif" font-size="10.00">config.hpp</text>
</a>
</g>
</g>
<!-- Node1&#45;&gt;Node25 -->
<g id="edge32" class="edge">
<title>Node1&#45;&gt;Node25</title>
<path fill="none" stroke="midnightblue" d="M608.61,-322.59C715.08,-322.72 957.39,-317.99 1156,-277 1159.51,-276.28 1163.12,-275.34 1166.69,-274.29"/>
<polygon fill="midnightblue" stroke="midnightblue" points="1168.06,-277.52 1176.5,-271.11 1165.91,-270.86 1168.06,-277.52"/>
</g>
<!-- Node3 -->
<g id="node3" class="node">
<title>Node3</title>
<g id="a_node3"><a xlink:title=" ">
<polygon fill="none" stroke="#bfbfbf" points="28,-67.5 28,-86.5 92,-86.5 92,-67.5 28,-67.5"/>
<text text-anchor="middle" x="60" y="-74.5" font-family="Helvetica,sans-Serif" font-size="10.00">algorithm</text>
</a>
</g>
</g>
<!-- Node2&#45;&gt;Node3 -->
<g id="edge2" class="edge">
<title>Node2&#45;&gt;Node3</title>
<path fill="none" stroke="midnightblue" d="M92.56,-123.08C87.05,-115.46 78.97,-104.26 72.24,-94.94"/>
<polygon fill="midnightblue" stroke="midnightblue" points="75.01,-92.81 66.32,-86.75 69.34,-96.91 75.01,-92.81"/>
</g>
<!-- Node2&#45;&gt;Node4 -->
<g id="edge3" class="edge">
<title>Node2&#45;&gt;Node4</title>
<path fill="none" stroke="midnightblue" d="M99.98,-123.32C102.07,-104.76 107.01,-60.84 109.86,-35.47"/>
<polygon fill="midnightblue" stroke="midnightblue" points="113.37,-35.61 111.01,-25.28 106.41,-34.83 113.37,-35.61"/>
</g>
<!-- Node5 -->
<g id="node5" class="node">
<title>Node5</title>
<g id="a_node5"><a xlink:title=" ">
<polygon fill="none" stroke="#bfbfbf" points="160,-67.5 160,-86.5 204,-86.5 204,-67.5 160,-67.5"/>
<text text-anchor="middle" x="182" y="-74.5" font-family="Helvetica,sans-Serif" font-size="10.00">string</text>
</a>
</g>
</g>
<!-- Node2&#45;&gt;Node5 -->
<g id="edge4" class="edge">
<title>Node2&#45;&gt;Node5</title>
<path fill="none" stroke="midnightblue" d="M112.34,-123.32C125.16,-114.98 144.78,-102.21 159.94,-92.35"/>
<polygon fill="midnightblue" stroke="midnightblue" points="162.22,-95.04 168.7,-86.65 158.41,-89.17 162.22,-95.04"/>
</g>
<!-- Node7 -->
<g id="node7" class="node">
<title>Node7</title>
<g id="a_node7"><a xlink:href="../../d6/d34/_gcc_compile_log_issue_report_convertor_8hpp.html" target="_top" xlink:title=" ">
<polygon fill="none" stroke="black" points="66,-179.5 66,-209.5 222,-209.5 222,-179.5 66,-179.5"/>
<text text-anchor="start" x="74" y="-197.5" font-family="Helvetica,sans-Serif" font-size="10.00">./GccCompileLogIssueReport</text>
<text text-anchor="middle" x="144" y="-186.5" font-family="Helvetica,sans-Serif" font-size="10.00">Convertor.hpp</text>
</a>
</g>
</g>
<!-- Node6&#45;&gt;Node7 -->
<g id="edge6" class="edge">
<title>Node6&#45;&gt;Node7</title>
<path fill="none" stroke="midnightblue" d="M145.57,-246.4C145.33,-238.64 145.02,-228.81 144.75,-219.86"/>
<polygon fill="midnightblue" stroke="midnightblue" points="148.24,-219.46 144.43,-209.58 141.24,-219.68 148.24,-219.46"/>
</g>
<!-- Node8 -->
<g id="node8" class="node">
<title>Node8</title>
<g id="a_node8"><a xlink:href="../../da/db7/_issue_report_convertor_8hpp.html" target="_top" xlink:title=" ">
<polygon fill="none" stroke="black" points="243.5,-123.5 243.5,-142.5 392.5,-142.5 392.5,-123.5 243.5,-123.5"/>
<text text-anchor="middle" x="318" y="-130.5" font-family="Helvetica,sans-Serif" font-size="10.00">./IssueReportConvertor.hpp</text>
</a>
</g>
</g>
<!-- Node7&#45;&gt;Node8 -->
<g id="edge7" class="edge">
<title>Node7&#45;&gt;Node8</title>
<path fill="none" stroke="midnightblue" d="M185.24,-179.4C215.17,-169.16 255.21,-155.47 283.47,-145.81"/>
<polygon fill="midnightblue" stroke="midnightblue" points="284.61,-149.12 292.94,-142.57 282.34,-142.49 284.61,-149.12"/>
</g>
<!-- Node9 -->
<g id="node9" class="node">
<title>Node9</title>
<g id="a_node9"><a xlink:href="../../d7/d34/_report_convertor_8hpp.html" target="_top" xlink:title=" ">
<polygon fill="none" stroke="black" points="245.5,-67.5 245.5,-86.5 368.5,-86.5 368.5,-67.5 245.5,-67.5"/>
<text text-anchor="middle" x="307" y="-74.5" font-family="Helvetica,sans-Serif" font-size="10.00">./ReportConvertor.hpp</text>
</a>
</g>
</g>
<!-- Node8&#45;&gt;Node9 -->
<g id="edge8" class="edge">
<title>Node8&#45;&gt;Node9</title>
<path fill="none" stroke="midnightblue" d="M316.18,-123.08C314.73,-115.93 312.63,-105.64 310.81,-96.69"/>
<polygon fill="midnightblue" stroke="midnightblue" points="314.21,-95.85 308.78,-86.75 307.35,-97.25 314.21,-95.85"/>
</g>
<!-- Node14 -->
<g id="node14" class="node">
<title>Node14</title>
<g id="a_node14"><a xlink:title=" ">
<polygon fill="none" stroke="#bfbfbf" points="425,-67.5 425,-86.5 463,-86.5 463,-67.5 425,-67.5"/>
<text text-anchor="middle" x="444" y="-74.5" font-family="Helvetica,sans-Serif" font-size="10.00">map</text>
</a>
</g>
</g>
<!-- Node8&#45;&gt;Node14 -->
<g id="edge14" class="edge">
<title>Node8&#45;&gt;Node14</title>
<path fill="none" stroke="midnightblue" d="M337.97,-123.44C358.85,-114.49 391.83,-100.36 415.46,-90.23"/>
<polygon fill="midnightblue" stroke="midnightblue" points="417.14,-93.32 424.95,-86.16 414.38,-86.89 417.14,-93.32"/>
</g>
<!-- Node9&#45;&gt;Node4 -->
<g id="edge10" class="edge">
<title>Node9&#45;&gt;Node4</title>
<path fill="none" stroke="midnightblue" d="M261.91,-67.5C227.01,-60.11 177.91,-47.92 137,-31 136.13,-30.64 135.25,-30.25 134.37,-29.85"/>
<polygon fill="midnightblue" stroke="midnightblue" points="135.64,-26.56 125.16,-25.01 132.38,-32.76 135.64,-26.56"/>
</g>
<!-- Node10 -->
<g id="node10" class="node">
<title>Node10</title>
<g id="a_node10"><a xlink:title=" ">
<polygon fill="none" stroke="#bfbfbf" points="146.5,-6 146.5,-25 211.5,-25 211.5,-6 146.5,-6"/>
<text text-anchor="middle" x="179" y="-13" font-family="Helvetica,sans-Serif" font-size="10.00">functional</text>
</a>
</g>
</g>
<!-- Node9&#45;&gt;Node10 -->
<g id="edge9" class="edge">
<title>Node9&#45;&gt;Node10</title>
<path fill="none" stroke="midnightblue" d="M288.66,-67.48C267.18,-57.49 231.38,-40.85 206.55,-29.31"/>
<polygon fill="midnightblue" stroke="midnightblue" points="207.85,-26.05 197.31,-25.01 204.9,-32.4 207.85,-26.05"/>
</g>
<!-- Node11 -->
<g id="node11" class="node">
<title>Node11</title>
<g id="a_node11"><a xlink:title=" ">
<polygon fill="none" stroke="#bfbfbf" points="230,-6 230,-25 288,-25 288,-6 230,-6"/>
<text text-anchor="middle" x="259" y="-13" font-family="Helvetica,sans-Serif" font-size="10.00">memory</text>
</a>
</g>
</g>
<!-- Node9&#45;&gt;Node11 -->
<g id="edge11" class="edge">
<title>Node9&#45;&gt;Node11</title>
<path fill="none" stroke="midnightblue" d="M300.12,-67.48C292.85,-58.46 281.2,-44.02 272.16,-32.81"/>
<polygon fill="midnightblue" stroke="midnightblue" points="274.87,-30.59 265.86,-25.01 269.42,-34.99 274.87,-30.59"/>
</g>
<!-- Node12 -->
<g id="node12" class="node">
<title>Node12</title>
<g id="a_node12"><a xlink:title=" ">
<polygon fill="none" stroke="#bfbfbf" points="306.5,-6 306.5,-25 449.5,-25 449.5,-6 306.5,-6"/>
<text text-anchor="middle" x="378" y="-13" font-family="Helvetica,sans-Serif" font-size="10.00">boost/filesystem/path.hpp</text>
</a>
</g>
</g>
<!-- Node9&#45;&gt;Node12 -->
<g id="edge12" class="edge">
<title>Node9&#45;&gt;Node12</title>
<path fill="none" stroke="midnightblue" d="M317.17,-67.48C328.35,-58.11 346.52,-42.88 360.09,-31.51"/>
<polygon fill="midnightblue" stroke="midnightblue" points="362.43,-34.11 367.85,-25.01 357.93,-28.75 362.43,-34.11"/>
</g>
<!-- Node13 -->
<g id="node13" class="node">
<title>Node13</title>
<g id="a_node13"><a xlink:title=" ">
<polygon fill="none" stroke="#bfbfbf" points="467.5,-0.5 467.5,-30.5 580.5,-30.5 580.5,-0.5 467.5,-0.5"/>
<text text-anchor="start" x="475.5" y="-18.5" font-family="Helvetica,sans-Serif" font-size="10.00">boost/property_tree</text>
<text text-anchor="middle" x="524" y="-7.5" font-family="Helvetica,sans-Serif" font-size="10.00">/ptree.hpp</text>
</a>
</g>
</g>
<!-- Node9&#45;&gt;Node13 -->
<g id="edge13" class="edge">
<title>Node9&#45;&gt;Node13</title>
<path fill="none" stroke="midnightblue" d="M338.09,-67.48C370.57,-58.57 422.36,-44.37 463.04,-33.22"/>
<polygon fill="midnightblue" stroke="midnightblue" points="464.14,-36.54 472.86,-30.52 462.29,-29.79 464.14,-36.54"/>
</g>
<!-- Node15&#45;&gt;Node8 -->
<g id="edge16" class="edge">
<title>Node15&#45;&gt;Node8</title>
<path fill="none" stroke="midnightblue" d="M318,-179.4C318,-171.47 318,-161.46 318,-152.86"/>
<polygon fill="midnightblue" stroke="midnightblue" points="321.5,-152.66 318,-142.66 314.5,-152.66 321.5,-152.66"/>
</g>
<!-- Node16&#45;&gt;Node7 -->
<g id="edge18" class="edge">
<title>Node16&#45;&gt;Node7</title>
<path fill="none" stroke="midnightblue" d="M292.77,-246.4C264.02,-236.56 225.46,-223.37 194.8,-212.88"/>
<polygon fill="midnightblue" stroke="midnightblue" points="195.74,-209.5 185.15,-209.58 193.48,-216.13 195.74,-209.5"/>
</g>
<!-- Node17&#45;&gt;Node8 -->
<g id="edge20" class="edge">
<title>Node17&#45;&gt;Node8</title>
<path fill="none" stroke="midnightblue" d="M450,-179.4C420.37,-169.21 380.77,-155.59 352.7,-145.93"/>
<polygon fill="midnightblue" stroke="midnightblue" points="353.52,-142.51 342.92,-142.57 351.24,-149.13 353.52,-142.51"/>
</g>
<!-- Node18&#45;&gt;Node5 -->
<g id="edge23" class="edge">
<title>Node18&#45;&gt;Node5</title>
<path fill="none" stroke="midnightblue" d="M444.56,-123.44C380.13,-112.29 269.23,-93.1 214.5,-83.62"/>
<polygon fill="midnightblue" stroke="midnightblue" points="214.78,-80.12 204.33,-81.86 213.59,-87.02 214.78,-80.12"/>
</g>
<!-- Node18&#45;&gt;Node13 -->
<g id="edge24" class="edge">
<title>Node18&#45;&gt;Node13</title>
<path fill="none" stroke="midnightblue" d="M496.25,-123.32C500.78,-105.89 511.12,-66.1 517.81,-40.31"/>
<polygon fill="midnightblue" stroke="midnightblue" points="521.23,-41.1 520.35,-30.55 514.45,-39.34 521.23,-41.1"/>
</g>
<!-- Node18&#45;&gt;Node14 -->
<g id="edge22" class="edge">
<title>Node18&#45;&gt;Node14</title>
<path fill="none" stroke="midnightblue" d="M485.74,-123.08C478.54,-115.3 467.89,-103.8 459.15,-94.37"/>
<polygon fill="midnightblue" stroke="midnightblue" points="461.47,-91.71 452.1,-86.75 456.33,-96.47 461.47,-91.71"/>
</g>
</g>
</svg>
        <g id="navigator" transform="translate(0 0)" fill="#404254">
                <rect fill="#f2f5e9" fill-opacity="0.5" stroke="#606060" stroke-width=".5" x="0" y="0" width="60" height="60"/>
                <use id="zoomplus" xlink:href="#zoomPlus" x="17" y="9" onmousedown="handleZoom(evt,'in')"/>
                <use id="zoomminus" xlink:href="#zoomMin" x="42" y="9" onmousedown="handleZoom(evt,'out')"/>
                <use id="reset" xlink:href="#resetDef" x="30" y="36" onmousedown="handleReset()"/>
                <g id="arrowUp" xlink:href="#dirArrow" transform="translate(30 24)" onmousedown="handlePan(0,-1)">
                  <use xlink:href="#rim" fill="#404040">
                        <set attributeName="fill" to="#808080" begin="arrowUp.mouseover" end="arrowUp.mouseout"/>
                  </use>
                  <path fill="none" stroke="white" stroke-width="1.5" d="M0,-3.0v7 M-2.5,-0.5L0,-3.0L2.5,-0.5"/>
                </g>
                <g id="arrowRight" xlink:href="#dirArrow" transform="rotate(90) translate(36 -43)" onmousedown="handlePan(1,0)">
                  <use xlink:href="#rim" fill="#404040">
                        <set attributeName="fill" to="#808080" begin="arrowRight.mouseover" end="arrowRight.mouseout"/>
                  </use>
                  <path fill="none" stroke="white" stroke-width="1.5" d="M0,-3.0v7 M-2.5,-0.5L0,-3.0L2.5,-0.5"/>
                </g>
                <g id="arrowDown" xlink:href="#dirArrow" transform="rotate(180) translate(-30 -48)" onmousedown="handlePan(0,1)">
                  <use xlink:href="#rim" fill="#404040">
                        <set attributeName="fill" to="#808080" begin="arrowDown.mouseover" end="arrowDown.mouseout"/>
                  </use>
                  <path fill="none" stroke="white" stroke-width="1.5" d="M0,-3.0v7 M-2.5,-0.5L0,-3.0L2.5,-0.5"/>
                </g>
                <g id="arrowLeft" xlink:href="#dirArrow" transform="rotate(270) translate(-36 17)" onmousedown="handlePan(-1,0)">
                  <use xlink:href="#rim" fill="#404040">
                        <set attributeName="fill" to="#808080" begin="arrowLeft.mouseover" end="arrowLeft.mouseout"/>
                  </use>
                  <path fill="none" stroke="white" stroke-width="1.5" d="M0,-3.0v7 M-2.5,-0.5L0,-3.0L2.5,-0.5"/>
                </g>
        </g>
        <svg viewBox="0 0 15 15" width="100%" height="30px" preserveAspectRatio="xMaxYMin meet">
         <g id="arrow_out" transform="scale(0.3 0.3)">
          <a xlink:href="_application_8cpp__incl_org.svg" target="_base">
           <rect id="button" ry="5" rx="5" y="6" x="6" height="38" width="38"
                fill="#f2f5e9" fill-opacity="0.5" stroke="#606060" stroke-width="1.0"/>
           <path id="arrow"
             d="M 11.500037,31.436501 C 11.940474,20.09759 22.043105,11.32322 32.158766,21.979434 L 37.068811,17.246167 C 37.068811,17.246167 37.088388,32 37.088388,32 L 22.160133,31.978069 C 22.160133,31.978069 26.997745,27.140456 26.997745,27.140456 C 18.528582,18.264221 13.291696,25.230495 11.500037,31.436501 z"
             style="fill:#404040;"/>
          </a>
         </g>
        </svg>
</svg>
