<?xml version="1.0" encoding="UTF-8" standalone="no"?>
<!DOCTYPE svg PUBLIC "-//W3C//DTD SVG 1.1//EN"
 "http://www.w3.org/Graphics/SVG/1.1/DTD/svg11.dtd">
<!-- Generated by graphviz version 2.43.0 (0)
 -->
<!-- Title: Graphical Class Hierarchy Pages: 1 -->
<svg width="371pt" height="66pt"
 viewBox="0.00 0.00 371.00 66.00" xmlns="http://www.w3.org/2000/svg" xmlns:xlink="http://www.w3.org/1999/xlink">
<g id="graph0" class="graph" transform="scale(1 1) rotate(0) translate(4 62)">
<title>Graphical Class Hierarchy</title>
<!-- Node7 -->
<g id="node1" class="node">
<title>Node7</title>
<g id="a_node1"><a xlink:title=" ">
<polygon fill="none" stroke="#bfbfbf" points="0,-19.5 0,-38.5 65,-38.5 65,-19.5 0,-19.5"/>
<text text-anchor="middle" x="32.5" y="-26.5" font-family="Helvetica,sans-Serif" font-size="10.00">exception</text>
</a>
</g>
</g>
<!-- Node0 -->
<g id="node2" class="node">
<title>Node0</title>
<g id="a_node2"><a xlink:href="d8/dfb/class_cpp_coso_exception.html" target="_top" xlink:title=" ">
<polygon fill="none" stroke="black" points="101,-19.5 101,-38.5 208,-38.5 208,-19.5 101,-19.5"/>
<text text-anchor="middle" x="154.5" y="-26.5" font-family="Helvetica,sans-Serif" font-size="10.00">CppCosoException</text>
</a>
</g>
</g>
<!-- Node7&#45;&gt;Node0 -->
<g id="edge1" class="edge">
<title>Node7&#45;&gt;Node0</title>
<path fill="none" stroke="midnightblue" d="M75.18,-29C83.46,-29 92.25,-29 100.84,-29"/>
<polygon fill="midnightblue" stroke="midnightblue" points="75.03,-25.5 65.03,-29 75.03,-32.5 75.03,-25.5"/>
</g>
<!-- Node1 -->
<g id="node3" class="node">
<title>Node1</title>
<g id="a_node3"><a xlink:href="d3/d12/class_conversion_exception.html" target="_top" xlink:title=" ">
<polygon fill="none" stroke="black" points="244,-38.5 244,-57.5 363,-57.5 363,-38.5 244,-38.5"/>
<text text-anchor="middle" x="303.5" y="-45.5" font-family="Helvetica,sans-Serif" font-size="10.00">ConversionException</text>
</a>
</g>
</g>
<!-- Node0&#45;&gt;Node1 -->
<g id="edge2" class="edge">
<title>Node0&#45;&gt;Node1</title>
<path fill="none" stroke="midnightblue" d="M218.11,-37.09C226.69,-38.2 235.47,-39.34 243.98,-40.44"/>
<polygon fill="midnightblue" stroke="midnightblue" points="218.52,-33.62 208.16,-35.81 217.62,-40.56 218.52,-33.62"/>
</g>
<!-- Node2 -->
<g id="node4" class="node">
<title>Node2</title>
<g id="a_node4"><a xlink:href="db/dd2/class_validation_exception.html" target="_top" xlink:title=" ">
<polygon fill="none" stroke="black" points="247,-0.5 247,-19.5 360,-19.5 360,-0.5 247,-0.5"/>
<text text-anchor="middle" x="303.5" y="-7.5" font-family="Helvetica,sans-Serif" font-size="10.00">ValidationException</text>
</a>
</g>
</g>
<!-- Node0&#45;&gt;Node2 -->
<g id="edge3" class="edge">
<title>Node0&#45;&gt;Node2</title>
<path fill="none" stroke="midnightblue" d="M218.29,-20.88C227.74,-19.66 237.44,-18.41 246.74,-17.21"/>
<polygon fill="midnightblue" stroke="midnightblue" points="217.62,-17.44 208.16,-22.19 218.52,-24.38 217.62,-17.44"/>
</g>
</g>
</svg>
