<?xml version="1.0" encoding="UTF-8" standalone="no"?>
<!DOCTYPE svg PUBLIC "-//W3C//DTD SVG 1.1//EN"
 "http://www.w3.org/Graphics/SVG/1.1/DTD/svg11.dtd">
<!-- Generated by graphviz version 2.43.0 (0)
 -->
<!-- Title: IssueReportConvertor Pages: 1 -->
<svg width="324pt" height="292pt"
 viewBox="0.00 0.00 324.00 292.00" xmlns="http://www.w3.org/2000/svg" xmlns:xlink="http://www.w3.org/1999/xlink">
<g id="graph0" class="graph" transform="scale(1 1) rotate(0) translate(4 288)">
<title>IssueReportConvertor</title>
<!-- Node1 -->
<g id="node1" class="node">
<title>Node1</title>
<g id="a_node1"><a xlink:title="abstract class to convert issue report">
<polygon fill="#bfbfbf" stroke="black" points="66.5,-0.5 66.5,-112.5 215.5,-112.5 215.5,-0.5 66.5,-0.5"/>
<text text-anchor="middle" x="141" y="-100.5" font-family="Helvetica,sans-Serif" font-size="10.00">IssueReportConvertor</text>
<polyline fill="none" stroke="black" points="66.5,-93.5 215.5,-93.5 "/>
<text text-anchor="middle" x="141" y="-81.5" font-family="Helvetica,sans-Serif" font-size="10.00"> </text>
<polyline fill="none" stroke="black" points="66.5,-74.5 215.5,-74.5 "/>
<text text-anchor="start" x="74.5" y="-62.5" font-family="Helvetica,sans-Serif" font-size="10.00">+ IssueReportConvertor()</text>
<text text-anchor="start" x="74.5" y="-51.5" font-family="Helvetica,sans-Serif" font-size="10.00">+ ~IssueReportConvertor()</text>
<text text-anchor="start" x="74.5" y="-40.5" font-family="Helvetica,sans-Serif" font-size="10.00">+ IssueReportConvertor()</text>
<text text-anchor="start" x="74.5" y="-29.5" font-family="Helvetica,sans-Serif" font-size="10.00">+ IssueReportConvertor()</text>
<text text-anchor="start" x="74.5" y="-18.5" font-family="Helvetica,sans-Serif" font-size="10.00">+ operator=()</text>
<text text-anchor="start" x="74.5" y="-7.5" font-family="Helvetica,sans-Serif" font-size="10.00">+ operator=()</text>
</a>
</g>
</g>
<!-- Node2 -->
<g id="node2" class="node">
<title>Node2</title>
<g id="a_node2"><a xlink:href="../../df/dff/class_report_convertor.html" target="_top" xlink:title="abstract class to convert report">
<polygon fill="none" stroke="black" points="0,-160.5 0,-283.5 124,-283.5 124,-160.5 0,-160.5"/>
<text text-anchor="middle" x="62" y="-271.5" font-family="Helvetica,sans-Serif" font-size="10.00">ReportConvertor</text>
<polyline fill="none" stroke="black" points="0,-264.5 124,-264.5 "/>
<text text-anchor="middle" x="62" y="-252.5" font-family="Helvetica,sans-Serif" font-size="10.00"> </text>
<polyline fill="none" stroke="black" points="0,-245.5 124,-245.5 "/>
<text text-anchor="start" x="8" y="-233.5" font-family="Helvetica,sans-Serif" font-size="10.00">+ ReportConvertor()</text>
<text text-anchor="start" x="8" y="-222.5" font-family="Helvetica,sans-Serif" font-size="10.00">+ ~ReportConvertor()</text>
<text text-anchor="start" x="8" y="-211.5" font-family="Helvetica,sans-Serif" font-size="10.00">+ ReportConvertor()</text>
<text text-anchor="start" x="8" y="-200.5" font-family="Helvetica,sans-Serif" font-size="10.00">+ ReportConvertor()</text>
<text text-anchor="start" x="8" y="-189.5" font-family="Helvetica,sans-Serif" font-size="10.00">+ operator=()</text>
<text text-anchor="start" x="8" y="-178.5" font-family="Helvetica,sans-Serif" font-size="10.00">+ operator=()</text>
<text text-anchor="start" x="8" y="-167.5" font-family="Helvetica,sans-Serif" font-size="10.00">+ convert()</text>
</a>
</g>
</g>
<!-- Node2&#45;&gt;Node1 -->
<g id="edge1" class="edge">
<title>Node2&#45;&gt;Node1</title>
<path fill="none" stroke="midnightblue" d="M95.86,-150.92C102.03,-138.16 108.38,-125.02 114.3,-112.76"/>
<polygon fill="none" stroke="midnightblue" points="92.62,-149.59 91.42,-160.12 98.92,-152.64 92.62,-149.59"/>
</g>
<!-- Node3 -->
<g id="node3" class="node">
<title>Node3</title>
<g id="a_node3"><a xlink:title=" ">
<polygon fill="none" stroke="#bfbfbf" points="142.5,-188 142.5,-256 297.5,-256 297.5,-188 142.5,-188"/>
<text text-anchor="start" x="150.5" y="-244" font-family="Helvetica,sans-Serif" font-size="10.00">map&lt; ESonarCloudSeverity,</text>
<text text-anchor="middle" x="220" y="-233" font-family="Helvetica,sans-Serif" font-size="10.00"> std::string, std::less&lt;&gt; &gt;</text>
<polyline fill="none" stroke="#bfbfbf" points="142.5,-226 297.5,-226 "/>
<text text-anchor="middle" x="220" y="-214" font-family="Helvetica,sans-Serif" font-size="10.00"> </text>
<polyline fill="none" stroke="#bfbfbf" points="142.5,-207 297.5,-207 "/>
<text text-anchor="middle" x="220" y="-195" font-family="Helvetica,sans-Serif" font-size="10.00"> </text>
</a>
</g>
</g>
<!-- Node3&#45;&gt;Node1 -->
<g id="edge2" class="edge">
<title>Node3&#45;&gt;Node1</title>
<path fill="none" stroke="#404040" d="M204.01,-187.91C195.1,-169.47 183.68,-145.84 173.02,-123.77"/>
<polygon fill="none" stroke="#404040" points="172.92,-123.56 166.7,-119.89 167.7,-112.75 173.91,-116.41 172.92,-123.56"/>
<text text-anchor="middle" x="248.5" y="-134" font-family="Helvetica,sans-Serif" font-size="10.00"> +SonarCloudSeverityValue</text>
</g>
</g>
</svg>
