<?xml version="1.0" encoding="UTF-8" standalone="no"?>
<!DOCTYPE svg PUBLIC "-//W3C//DTD SVG 1.1//EN"
 "http://www.w3.org/Graphics/SVG/1.1/DTD/svg11.dtd">
<!-- Generated by graphviz version 2.43.0 (0)
 -->
<!-- Title: Application::run Pages: 1 -->
<!--zoomable 161 -->
<svg id="main" version="1.1" xmlns="http://www.w3.org/2000/svg" xmlns:xlink="http://www.w3.org/1999/xlink" xml:space="preserve" onload="init(evt)">
<style type="text/css"><![CDATA[
.edge:hover path { stroke: red; }
.edge:hover polygon { stroke: red; fill: red; }
]]></style>
<script type="text/javascript"><![CDATA[
var edges = document.getElementsByTagName('g');
if (edges && edges.length) {
  for (var i=0;i<edges.length;i++) {
    if (edges[i].id.substr(0,4)=='edge') {
      edges[i].setAttribute('class','edge');
    }
  }
}
]]></script>
        <defs>
                <circle id="rim" cx="0" cy="0" r="7"/>
                <circle id="rim2" cx="0" cy="0" r="3.5"/>
                <g id="zoomPlus">
                        <use xlink:href="#rim" fill="#404040">
                                <set attributeName="fill" to="#808080" begin="zoomplus.mouseover" end="zoomplus.mouseout"/>
                        </use>
                        <path d="M-4,0h8M0,-4v8" fill="none" stroke="white" stroke-width="1.5" pointer-events="none"/>
                </g>
                <g id="zoomMin">
                        <use xlink:href="#rim" fill="#404040">
                                <set attributeName="fill" to="#808080" begin="zoomminus.mouseover" end="zoomminus.mouseout"/>
                        </use>
                        <path d="M-4,0h8" fill="none" stroke="white" stroke-width="1.5" pointer-events="none"/>
                </g>
                <g id="dirArrow">
                        <path fill="none" stroke="white" stroke-width="1.5" d="M0,-3.0v7 M-2.5,-0.5L0,-3.0L2.5,-0.5"/>
                </g>
               <g id="resetDef">
                       <use xlink:href="#rim2" fill="#404040">
                               <set attributeName="fill" to="#808080" begin="reset.mouseover" end="reset.mouseout"/>
                       </use>
               </g>
        </defs>

<script type="text/javascript">
var viewWidth = 626;
var viewHeight = 161;
var sectionId = 'dynsection-1';
</script>
<script xlink:href="../../svgpan.js"/>
<svg id="graph" class="graph">
<g id="viewport">
<title>Application::run</title>
<!-- Node1 -->
<g id="node1" class="node">
<title>Node1</title>
<g id="a_node1"><a xlink:title="Method to run application.">
<polygon fill="#bfbfbf" stroke="black" points="0,-55 0,-74 93,-74 93,-55 0,-55"/>
<text text-anchor="middle" x="46.5" y="-62" font-family="Helvetica,sans-Serif" font-size="10.00">Application::run</text>
</a>
</g>
</g>
<!-- Node2 -->
<g id="node2" class="node">
<title>Node2</title>
<g id="a_node2"><a xlink:href="../../de/dc0/class_test_convertor.html#a9a144655dc1d0174593b9d8c16d1f44d" target="_top" xlink:title="Function to convert unified boost report to sonar generic report.">
<polygon fill="none" stroke="black" points="137,-98.5 137,-128.5 292,-128.5 292,-98.5 137,-98.5"/>
<text text-anchor="start" x="145" y="-116.5" font-family="Helvetica,sans-Serif" font-size="10.00">TestConvertor::boostReports</text>
<text text-anchor="middle" x="214.5" y="-105.5" font-family="Helvetica,sans-Serif" font-size="10.00">ToSonarReport</text>
</a>
</g>
</g>
<!-- Node1&#45;&gt;Node2 -->
<g id="edge1" class="edge">
<title>Node1&#45;&gt;Node2</title>
<path fill="none" stroke="midnightblue" d="M78.03,-74.03C93.31,-78.76 112.11,-84.51 129,-89.5 135.84,-91.52 143,-93.6 150.13,-95.66"/>
<polygon fill="midnightblue" stroke="midnightblue" points="149.23,-99.04 159.81,-98.43 151.16,-92.31 149.23,-99.04"/>
</g>
<!-- Node6 -->
<g id="node6" class="node">
<title>Node6</title>
<g id="a_node6"><a xlink:href="../../d2/d59/class_clang_tidy_issue_report_convertor.html#ab4e324abfed9eda9a0a5ce01c458b197" target="_top" xlink:title="Get instance of singleton ClangTidyIssueReportConvertor.">
<polygon fill="none" stroke="black" points="129,-49.5 129,-79.5 300,-79.5 300,-49.5 129,-49.5"/>
<text text-anchor="start" x="137" y="-67.5" font-family="Helvetica,sans-Serif" font-size="10.00">ClangTidyIssueReportConvertor</text>
<text text-anchor="middle" x="214.5" y="-56.5" font-family="Helvetica,sans-Serif" font-size="10.00">::getInstance</text>
</a>
</g>
</g>
<!-- Node1&#45;&gt;Node6 -->
<g id="edge5" class="edge">
<title>Node1&#45;&gt;Node6</title>
<path fill="none" stroke="midnightblue" d="M93.3,-64.5C101.39,-64.5 110.07,-64.5 118.93,-64.5"/>
<polygon fill="midnightblue" stroke="midnightblue" points="118.99,-68 128.99,-64.5 118.99,-61 118.99,-68"/>
</g>
<!-- Node7 -->
<g id="node7" class="node">
<title>Node7</title>
<g id="a_node7"><a xlink:href="../../d7/d9a/class_cpp_check_issue_report_convertor.html#aec3ad540f1aa46463462c66ff6f9fc77" target="_top" xlink:title="Get instance of singleton CppCheckIssueReportConvertor.">
<polygon fill="none" stroke="black" points="129,-0.5 129,-30.5 300,-30.5 300,-0.5 129,-0.5"/>
<text text-anchor="start" x="137" y="-18.5" font-family="Helvetica,sans-Serif" font-size="10.00">CppCheckIssueReportConvertor</text>
<text text-anchor="middle" x="214.5" y="-7.5" font-family="Helvetica,sans-Serif" font-size="10.00">::getInstance</text>
</a>
</g>
</g>
<!-- Node1&#45;&gt;Node7 -->
<g id="edge6" class="edge">
<title>Node1&#45;&gt;Node7</title>
<path fill="none" stroke="midnightblue" d="M79.9,-54.94C100.64,-48.81 128.2,-40.68 152.9,-33.39"/>
<polygon fill="midnightblue" stroke="midnightblue" points="153.96,-36.72 162.56,-30.54 151.98,-30.01 153.96,-36.72"/>
</g>
<!-- Node3 -->
<g id="node3" class="node">
<title>Node3</title>
<g id="a_node3"><a xlink:href="../../de/dc0/class_test_convertor.html#abc25ae29b63f0d501f322f31c2077c57" target="_top" xlink:title="method to extract data case from log result test report to convert to sonarqube report">
<polygon fill="none" stroke="black" points="336,-122.5 336,-152.5 485,-152.5 485,-122.5 336,-122.5"/>
<text text-anchor="start" x="344" y="-140.5" font-family="Helvetica,sans-Serif" font-size="10.00">TestConvertor::extractCase</text>
<text text-anchor="middle" x="410.5" y="-129.5" font-family="Helvetica,sans-Serif" font-size="10.00">Datas</text>
</a>
</g>
</g>
<!-- Node2&#45;&gt;Node3 -->
<g id="edge2" class="edge">
<title>Node2&#45;&gt;Node3</title>
<path fill="none" stroke="midnightblue" d="M292.17,-122.99C303.2,-124.35 314.6,-125.76 325.75,-127.14"/>
<polygon fill="midnightblue" stroke="midnightblue" points="325.56,-130.64 335.91,-128.4 326.42,-123.7 325.56,-130.64"/>
</g>
<!-- Node4 -->
<g id="node4" class="node">
<title>Node4</title>
<g id="a_node4"><a xlink:href="../../de/dc0/class_test_convertor.html#a48e3841031ac5a40c45588a2aef67a5b" target="_top" xlink:title="Save the Result of test in Map object.">
<polygon fill="none" stroke="black" points="336.5,-73.5 336.5,-103.5 484.5,-103.5 484.5,-73.5 336.5,-73.5"/>
<text text-anchor="start" x="344.5" y="-91.5" font-family="Helvetica,sans-Serif" font-size="10.00">TestConvertor::provideMap</text>
<text text-anchor="middle" x="410.5" y="-80.5" font-family="Helvetica,sans-Serif" font-size="10.00">ResultTests</text>
</a>
</g>
</g>
<!-- Node2&#45;&gt;Node4 -->
<g id="edge3" class="edge">
<title>Node2&#45;&gt;Node4</title>
<path fill="none" stroke="midnightblue" d="M292.17,-103.62C303.28,-102.19 314.76,-100.71 326,-99.26"/>
<polygon fill="midnightblue" stroke="midnightblue" points="326.76,-102.69 336.23,-97.94 325.87,-95.75 326.76,-102.69"/>
</g>
<!-- Node5 -->
<g id="node5" class="node">
<title>Node5</title>
<g id="a_node5"><a xlink:href="../../d9/d04/_test_convertor_8cpp.html#a97c6c231c4c9a339e925921214c7f595" target="_top" xlink:title="map to convert boost test node name to sonar test result leveling">
<polygon fill="none" stroke="black" points="521,-79 521,-98 618,-98 618,-79 521,-79"/>
<text text-anchor="middle" x="569.5" y="-86" font-family="Helvetica,sans-Serif" font-size="10.00">boostSonarState</text>
</a>
</g>
</g>
<!-- Node4&#45;&gt;Node5 -->
<g id="edge4" class="edge">
<title>Node4&#45;&gt;Node5</title>
<path fill="none" stroke="midnightblue" d="M484.94,-88.5C493.57,-88.5 502.27,-88.5 510.64,-88.5"/>
<polygon fill="midnightblue" stroke="midnightblue" points="510.66,-92 520.66,-88.5 510.66,-85 510.66,-92"/>
</g>
</g>
</svg>
        <g id="navigator" transform="translate(0 0)" fill="#404254">
                <rect fill="#f2f5e9" fill-opacity="0.5" stroke="#606060" stroke-width=".5" x="0" y="0" width="60" height="60"/>
                <use id="zoomplus" xlink:href="#zoomPlus" x="17" y="9" onmousedown="handleZoom(evt,'in')"/>
                <use id="zoomminus" xlink:href="#zoomMin" x="42" y="9" onmousedown="handleZoom(evt,'out')"/>
                <use id="reset" xlink:href="#resetDef" x="30" y="36" onmousedown="handleReset()"/>
                <g id="arrowUp" xlink:href="#dirArrow" transform="translate(30 24)" onmousedown="handlePan(0,-1)">
                  <use xlink:href="#rim" fill="#404040">
                        <set attributeName="fill" to="#808080" begin="arrowUp.mouseover" end="arrowUp.mouseout"/>
                  </use>
                  <path fill="none" stroke="white" stroke-width="1.5" d="M0,-3.0v7 M-2.5,-0.5L0,-3.0L2.5,-0.5"/>
                </g>
                <g id="arrowRight" xlink:href="#dirArrow" transform="rotate(90) translate(36 -43)" onmousedown="handlePan(1,0)">
                  <use xlink:href="#rim" fill="#404040">
                        <set attributeName="fill" to="#808080" begin="arrowRight.mouseover" end="arrowRight.mouseout"/>
                  </use>
                  <path fill="none" stroke="white" stroke-width="1.5" d="M0,-3.0v7 M-2.5,-0.5L0,-3.0L2.5,-0.5"/>
                </g>
                <g id="arrowDown" xlink:href="#dirArrow" transform="rotate(180) translate(-30 -48)" onmousedown="handlePan(0,1)">
                  <use xlink:href="#rim" fill="#404040">
                        <set attributeName="fill" to="#808080" begin="arrowDown.mouseover" end="arrowDown.mouseout"/>
                  </use>
                  <path fill="none" stroke="white" stroke-width="1.5" d="M0,-3.0v7 M-2.5,-0.5L0,-3.0L2.5,-0.5"/>
                </g>
                <g id="arrowLeft" xlink:href="#dirArrow" transform="rotate(270) translate(-36 17)" onmousedown="handlePan(-1,0)">
                  <use xlink:href="#rim" fill="#404040">
                        <set attributeName="fill" to="#808080" begin="arrowLeft.mouseover" end="arrowLeft.mouseout"/>
                  </use>
                  <path fill="none" stroke="white" stroke-width="1.5" d="M0,-3.0v7 M-2.5,-0.5L0,-3.0L2.5,-0.5"/>
                </g>
        </g>
        <svg viewBox="0 0 15 15" width="100%" height="30px" preserveAspectRatio="xMaxYMin meet">
         <g id="arrow_out" transform="scale(0.3 0.3)">
          <a xlink:href="class_application_a7a5f0d21081c19b16f0038f0ce1477a4_cgraph_org.svg" target="_base">
           <rect id="button" ry="5" rx="5" y="6" x="6" height="38" width="38"
                fill="#f2f5e9" fill-opacity="0.5" stroke="#606060" stroke-width="1.0"/>
           <path id="arrow"
             d="M 11.500037,31.436501 C 11.940474,20.09759 22.043105,11.32322 32.158766,21.979434 L 37.068811,17.246167 C 37.068811,17.246167 37.088388,32 37.088388,32 L 22.160133,31.978069 C 22.160133,31.978069 26.997745,27.140456 26.997745,27.140456 C 18.528582,18.264221 13.291696,25.230495 11.500037,31.436501 z"
             style="fill:#404040;"/>
          </a>
         </g>
        </svg>
</svg>
