<?xml version="1.0" encoding="UTF-8" standalone="no"?>
<!DOCTYPE svg PUBLIC "-//W3C//DTD SVG 1.1//EN"
 "http://www.w3.org/Graphics/SVG/1.1/DTD/svg11.dtd">
<!-- Generated by graphviz version 2.43.0 (0)
 -->
<!-- Title: GccCompileWarningIssueReportConvertor Pages: 1 -->
<svg width="324pt" height="735pt"
 viewBox="0.00 0.00 324.00 735.00" xmlns="http://www.w3.org/2000/svg" xmlns:xlink="http://www.w3.org/1999/xlink">
<g id="graph0" class="graph" transform="scale(1 1) rotate(0) translate(4 731)">
<title>GccCompileWarningIssueReportConvertor</title>
<!-- Node1 -->
<g id="node1" class="node">
<title>Node1</title>
<g id="a_node1"><a xlink:title="abstract class to convert issue report">
<polygon fill="#bfbfbf" stroke="black" points="45,-0.5 45,-189.5 237,-189.5 237,-0.5 45,-0.5"/>
<text text-anchor="start" x="53" y="-177.5" font-family="Helvetica,sans-Serif" font-size="10.00">GccCompileWarningIssueReport</text>
<text text-anchor="middle" x="141" y="-166.5" font-family="Helvetica,sans-Serif" font-size="10.00">Convertor</text>
<polyline fill="none" stroke="black" points="45,-159.5 237,-159.5 "/>
<text text-anchor="middle" x="141" y="-147.5" font-family="Helvetica,sans-Serif" font-size="10.00"> </text>
<polyline fill="none" stroke="black" points="45,-140.5 237,-140.5 "/>
<text text-anchor="start" x="53" y="-128.5" font-family="Helvetica,sans-Serif" font-size="10.00">+ GccCompileWarningIssueReport</text>
<text text-anchor="start" x="53" y="-117.5" font-family="Helvetica,sans-Serif" font-size="10.00">Convertor()</text>
<text text-anchor="start" x="53" y="-106.5" font-family="Helvetica,sans-Serif" font-size="10.00">+ ~GccCompileWarningIssueReport</text>
<text text-anchor="start" x="53" y="-95.5" font-family="Helvetica,sans-Serif" font-size="10.00">Convertor()</text>
<text text-anchor="start" x="53" y="-84.5" font-family="Helvetica,sans-Serif" font-size="10.00">+ GccCompileWarningIssueReport</text>
<text text-anchor="start" x="53" y="-73.5" font-family="Helvetica,sans-Serif" font-size="10.00">Convertor()</text>
<text text-anchor="start" x="53" y="-62.5" font-family="Helvetica,sans-Serif" font-size="10.00">+ GccCompileWarningIssueReport</text>
<text text-anchor="start" x="53" y="-51.5" font-family="Helvetica,sans-Serif" font-size="10.00">Convertor()</text>
<text text-anchor="start" x="53" y="-40.5" font-family="Helvetica,sans-Serif" font-size="10.00">+ operator=()</text>
<text text-anchor="start" x="53" y="-29.5" font-family="Helvetica,sans-Serif" font-size="10.00">+ operator=()</text>
<text text-anchor="start" x="53" y="-18.5" font-family="Helvetica,sans-Serif" font-size="10.00">+ getMappedIssueSeverity()</text>
<text text-anchor="start" x="53" y="-7.5" font-family="Helvetica,sans-Serif" font-size="10.00">+ getInstance()</text>
</a>
</g>
</g>
<!-- Node2 -->
<g id="node2" class="node">
<title>Node2</title>
<g id="a_node2"><a xlink:href="../../da/d9e/class_gcc_compile_log_issue_report_convertor.html" target="_top" xlink:title="abstract class to convert issue report">
<polygon fill="none" stroke="black" points="56,-227.5 56,-405.5 226,-405.5 226,-227.5 56,-227.5"/>
<text text-anchor="start" x="64" y="-393.5" font-family="Helvetica,sans-Serif" font-size="10.00">GccCompileLogIssueReport</text>
<text text-anchor="middle" x="141" y="-382.5" font-family="Helvetica,sans-Serif" font-size="10.00">Convertor</text>
<polyline fill="none" stroke="black" points="56,-375.5 226,-375.5 "/>
<text text-anchor="middle" x="141" y="-363.5" font-family="Helvetica,sans-Serif" font-size="10.00"> </text>
<polyline fill="none" stroke="black" points="56,-356.5 226,-356.5 "/>
<text text-anchor="start" x="64" y="-344.5" font-family="Helvetica,sans-Serif" font-size="10.00">+ GccCompileLogIssueReport</text>
<text text-anchor="start" x="64" y="-333.5" font-family="Helvetica,sans-Serif" font-size="10.00">Convertor()</text>
<text text-anchor="start" x="64" y="-322.5" font-family="Helvetica,sans-Serif" font-size="10.00">+ ~GccCompileLogIssueReport</text>
<text text-anchor="start" x="64" y="-311.5" font-family="Helvetica,sans-Serif" font-size="10.00">Convertor()</text>
<text text-anchor="start" x="64" y="-300.5" font-family="Helvetica,sans-Serif" font-size="10.00">+ GccCompileLogIssueReport</text>
<text text-anchor="start" x="64" y="-289.5" font-family="Helvetica,sans-Serif" font-size="10.00">Convertor()</text>
<text text-anchor="start" x="64" y="-278.5" font-family="Helvetica,sans-Serif" font-size="10.00">+ GccCompileLogIssueReport</text>
<text text-anchor="start" x="64" y="-267.5" font-family="Helvetica,sans-Serif" font-size="10.00">Convertor()</text>
<text text-anchor="start" x="64" y="-256.5" font-family="Helvetica,sans-Serif" font-size="10.00">+ operator=()</text>
<text text-anchor="start" x="64" y="-245.5" font-family="Helvetica,sans-Serif" font-size="10.00">+ operator=()</text>
<text text-anchor="start" x="64" y="-234.5" font-family="Helvetica,sans-Serif" font-size="10.00">+ getMappedIssueSeverity()</text>
</a>
</g>
</g>
<!-- Node2&#45;&gt;Node1 -->
<g id="edge1" class="edge">
<title>Node2&#45;&gt;Node1</title>
<path fill="none" stroke="midnightblue" d="M141,-217.24C141,-208.11 141,-198.87 141,-189.78"/>
<polygon fill="none" stroke="midnightblue" points="137.5,-217.49 141,-227.49 144.5,-217.49 137.5,-217.49"/>
</g>
<!-- Node3 -->
<g id="node3" class="node">
<title>Node3</title>
<g id="a_node3"><a xlink:href="../../db/de6/class_issue_report_convertor.html" target="_top" xlink:title="abstract class to convert issue report">
<polygon fill="none" stroke="black" points="66.5,-443.5 66.5,-555.5 215.5,-555.5 215.5,-443.5 66.5,-443.5"/>
<text text-anchor="middle" x="141" y="-543.5" font-family="Helvetica,sans-Serif" font-size="10.00">IssueReportConvertor</text>
<polyline fill="none" stroke="black" points="66.5,-536.5 215.5,-536.5 "/>
<text text-anchor="middle" x="141" y="-524.5" font-family="Helvetica,sans-Serif" font-size="10.00"> </text>
<polyline fill="none" stroke="black" points="66.5,-517.5 215.5,-517.5 "/>
<text text-anchor="start" x="74.5" y="-505.5" font-family="Helvetica,sans-Serif" font-size="10.00">+ IssueReportConvertor()</text>
<text text-anchor="start" x="74.5" y="-494.5" font-family="Helvetica,sans-Serif" font-size="10.00">+ ~IssueReportConvertor()</text>
<text text-anchor="start" x="74.5" y="-483.5" font-family="Helvetica,sans-Serif" font-size="10.00">+ IssueReportConvertor()</text>
<text text-anchor="start" x="74.5" y="-472.5" font-family="Helvetica,sans-Serif" font-size="10.00">+ IssueReportConvertor()</text>
<text text-anchor="start" x="74.5" y="-461.5" font-family="Helvetica,sans-Serif" font-size="10.00">+ operator=()</text>
<text text-anchor="start" x="74.5" y="-450.5" font-family="Helvetica,sans-Serif" font-size="10.00">+ operator=()</text>
</a>
</g>
</g>
<!-- Node3&#45;&gt;Node2 -->
<g id="edge2" class="edge">
<title>Node3&#45;&gt;Node2</title>
<path fill="none" stroke="midnightblue" d="M141,-433.01C141,-424.16 141,-414.97 141,-405.8"/>
<polygon fill="none" stroke="midnightblue" points="137.5,-433.21 141,-443.21 144.5,-433.21 137.5,-433.21"/>
</g>
<!-- Node4 -->
<g id="node4" class="node">
<title>Node4</title>
<g id="a_node4"><a xlink:href="../../df/dff/class_report_convertor.html" target="_top" xlink:title="abstract class to convert report">
<polygon fill="none" stroke="black" points="0,-603.5 0,-726.5 124,-726.5 124,-603.5 0,-603.5"/>
<text text-anchor="middle" x="62" y="-714.5" font-family="Helvetica,sans-Serif" font-size="10.00">ReportConvertor</text>
<polyline fill="none" stroke="black" points="0,-707.5 124,-707.5 "/>
<text text-anchor="middle" x="62" y="-695.5" font-family="Helvetica,sans-Serif" font-size="10.00"> </text>
<polyline fill="none" stroke="black" points="0,-688.5 124,-688.5 "/>
<text text-anchor="start" x="8" y="-676.5" font-family="Helvetica,sans-Serif" font-size="10.00">+ ReportConvertor()</text>
<text text-anchor="start" x="8" y="-665.5" font-family="Helvetica,sans-Serif" font-size="10.00">+ ~ReportConvertor()</text>
<text text-anchor="start" x="8" y="-654.5" font-family="Helvetica,sans-Serif" font-size="10.00">+ ReportConvertor()</text>
<text text-anchor="start" x="8" y="-643.5" font-family="Helvetica,sans-Serif" font-size="10.00">+ ReportConvertor()</text>
<text text-anchor="start" x="8" y="-632.5" font-family="Helvetica,sans-Serif" font-size="10.00">+ operator=()</text>
<text text-anchor="start" x="8" y="-621.5" font-family="Helvetica,sans-Serif" font-size="10.00">+ operator=()</text>
<text text-anchor="start" x="8" y="-610.5" font-family="Helvetica,sans-Serif" font-size="10.00">+ convert()</text>
</a>
</g>
</g>
<!-- Node4&#45;&gt;Node3 -->
<g id="edge3" class="edge">
<title>Node4&#45;&gt;Node3</title>
<path fill="none" stroke="midnightblue" d="M95.86,-593.92C102.03,-581.16 108.38,-568.02 114.3,-555.76"/>
<polygon fill="none" stroke="midnightblue" points="92.62,-592.59 91.42,-603.12 98.92,-595.64 92.62,-592.59"/>
</g>
<!-- Node5 -->
<g id="node5" class="node">
<title>Node5</title>
<g id="a_node5"><a xlink:title=" ">
<polygon fill="none" stroke="#bfbfbf" points="142.5,-631 142.5,-699 297.5,-699 297.5,-631 142.5,-631"/>
<text text-anchor="start" x="150.5" y="-687" font-family="Helvetica,sans-Serif" font-size="10.00">map&lt; ESonarCloudSeverity,</text>
<text text-anchor="middle" x="220" y="-676" font-family="Helvetica,sans-Serif" font-size="10.00"> std::string, std::less&lt;&gt; &gt;</text>
<polyline fill="none" stroke="#bfbfbf" points="142.5,-669 297.5,-669 "/>
<text text-anchor="middle" x="220" y="-657" font-family="Helvetica,sans-Serif" font-size="10.00"> </text>
<polyline fill="none" stroke="#bfbfbf" points="142.5,-650 297.5,-650 "/>
<text text-anchor="middle" x="220" y="-638" font-family="Helvetica,sans-Serif" font-size="10.00"> </text>
</a>
</g>
</g>
<!-- Node5&#45;&gt;Node3 -->
<g id="edge4" class="edge">
<title>Node5&#45;&gt;Node3</title>
<path fill="none" stroke="#404040" d="M204.01,-630.91C195.1,-612.47 183.68,-588.84 173.02,-566.77"/>
<polygon fill="none" stroke="#404040" points="172.92,-566.56 166.7,-562.89 167.7,-555.75 173.91,-559.41 172.92,-566.56"/>
<text text-anchor="middle" x="248.5" y="-577" font-family="Helvetica,sans-Serif" font-size="10.00"> +SonarCloudSeverityValue</text>
</g>
</g>
</svg>
