<?xml version="1.0" encoding="UTF-8" standalone="no"?>
<!DOCTYPE svg PUBLIC "-//W3C//DTD SVG 1.1//EN"
 "http://www.w3.org/Graphics/SVG/1.1/DTD/svg11.dtd">
<!-- Generated by graphviz version 2.43.0 (0)
 -->
<!-- Title: src/report/convertor.hpp Pages: 1 -->
<svg width="184pt" height="95pt"
 viewBox="0.00 0.00 183.50 95.00" xmlns="http://www.w3.org/2000/svg" xmlns:xlink="http://www.w3.org/1999/xlink">
<g id="graph0" class="graph" transform="scale(1 1) rotate(0) translate(4 91)">
<title>src/report/convertor.hpp</title>
<!-- Node1 -->
<g id="node1" class="node">
<title>Node1</title>
<g id="a_node1"><a xlink:title=" ">
<polygon fill="#bfbfbf" stroke="black" points="38,-67.5 38,-86.5 171,-86.5 171,-67.5 38,-67.5"/>
<text text-anchor="middle" x="104.5" y="-74.5" font-family="Helvetica,sans-Serif" font-size="10.00">src/report/convertor.hpp</text>
</a>
</g>
</g>
<!-- Node2 -->
<g id="node2" class="node">
<title>Node2</title>
<g id="a_node2"><a xlink:title=" ">
<polygon fill="none" stroke="#bfbfbf" points="0,-0.5 0,-30.5 113,-30.5 113,-0.5 0,-0.5"/>
<text text-anchor="start" x="8" y="-18.5" font-family="Helvetica,sans-Serif" font-size="10.00">boost/property_tree</text>
<text text-anchor="middle" x="56.5" y="-7.5" font-family="Helvetica,sans-Serif" font-size="10.00">/ptree.hpp</text>
</a>
</g>
</g>
<!-- Node1&#45;&gt;Node2 -->
<g id="edge1" class="edge">
<title>Node1&#45;&gt;Node2</title>
<path fill="none" stroke="midnightblue" d="M97.62,-67.48C91.55,-59.94 82.42,-48.63 74.3,-38.57"/>
<polygon fill="midnightblue" stroke="midnightblue" points="76.82,-36.11 67.81,-30.52 71.37,-40.5 76.82,-36.11"/>
</g>
<!-- Node3 -->
<g id="node3" class="node">
<title>Node3</title>
<g id="a_node3"><a xlink:title=" ">
<polygon fill="none" stroke="#bfbfbf" points="131.5,-6 131.5,-25 175.5,-25 175.5,-6 131.5,-6"/>
<text text-anchor="middle" x="153.5" y="-13" font-family="Helvetica,sans-Serif" font-size="10.00">string</text>
</a>
</g>
</g>
<!-- Node1&#45;&gt;Node3 -->
<g id="edge2" class="edge">
<title>Node1&#45;&gt;Node3</title>
<path fill="none" stroke="midnightblue" d="M111.52,-67.48C118.94,-58.46 130.83,-44.02 140.07,-32.81"/>
<polygon fill="midnightblue" stroke="midnightblue" points="142.84,-34.95 146.49,-25.01 137.43,-30.5 142.84,-34.95"/>
</g>
</g>
</svg>
