<?xml version="1.0" encoding="UTF-8" standalone="no"?>
<!DOCTYPE svg PUBLIC "-//W3C//DTD SVG 1.1//EN"
 "http://www.w3.org/Graphics/SVG/1.1/DTD/svg11.dtd">
<!-- Generated by graphviz version 2.43.0 (0)
 -->
<!-- Title: src/report/ReportConvertor.cpp Pages: 1 -->
<svg width="1054pt" height="218pt"
 viewBox="0.00 0.00 1053.50 218.00" xmlns="http://www.w3.org/2000/svg" xmlns:xlink="http://www.w3.org/1999/xlink">
<g id="graph0" class="graph" transform="scale(1 1) rotate(0) translate(4 214)">
<title>src/report/ReportConvertor.cpp</title>
<!-- Node1 -->
<g id="node1" class="node">
<title>Node1</title>
<g id="a_node1"><a xlink:title=" ">
<polygon fill="#bfbfbf" stroke="black" points="605.5,-190.5 605.5,-209.5 771.5,-209.5 771.5,-190.5 605.5,-190.5"/>
<text text-anchor="middle" x="688.5" y="-197.5" font-family="Helvetica,sans-Serif" font-size="10.00">src/report/ReportConvertor.cpp</text>
</a>
</g>
</g>
<!-- Node2 -->
<g id="node2" class="node">
<title>Node2</title>
<g id="a_node2"><a xlink:href="../../d7/d34/_report_convertor_8hpp.html" target="_top" xlink:title=" ">
<polygon fill="none" stroke="black" points="104,-129 104,-148 227,-148 227,-129 104,-129"/>
<text text-anchor="middle" x="165.5" y="-136" font-family="Helvetica,sans-Serif" font-size="10.00">./ReportConvertor.hpp</text>
</a>
</g>
</g>
<!-- Node1&#45;&gt;Node2 -->
<g id="edge1" class="edge">
<title>Node1&#45;&gt;Node2</title>
<path fill="none" stroke="midnightblue" d="M605.46,-193.02C515.12,-185.97 366.6,-172.78 239.5,-154 231.67,-152.84 223.41,-151.42 215.36,-149.93"/>
<polygon fill="midnightblue" stroke="midnightblue" points="215.8,-146.45 205.32,-148.01 214.49,-153.33 215.8,-146.45"/>
</g>
<!-- Node8 -->
<g id="node8" class="node">
<title>Node8</title>
<g id="a_node8"><a xlink:href="../../db/d55/_conversion_exception_8hpp.html" target="_top" xlink:title=" ">
<polygon fill="none" stroke="black" points="248.5,-129 248.5,-148 448.5,-148 448.5,-129 248.5,-129"/>
<text text-anchor="middle" x="348.5" y="-136" font-family="Helvetica,sans-Serif" font-size="10.00">../exception/ConversionException.hpp</text>
</a>
</g>
</g>
<!-- Node1&#45;&gt;Node8 -->
<g id="edge7" class="edge">
<title>Node1&#45;&gt;Node8</title>
<path fill="none" stroke="midnightblue" d="M639.79,-190.48C578.43,-179.74 473.11,-161.31 407.33,-149.79"/>
<polygon fill="midnightblue" stroke="midnightblue" points="407.58,-146.29 397.12,-148.01 406.37,-153.18 407.58,-146.29"/>
</g>
<!-- Node10 -->
<g id="node10" class="node">
<title>Node10</title>
<g id="a_node10"><a xlink:title=" ">
<polygon fill="none" stroke="#bfbfbf" points="650,-0.5 650,-19.5 715,-19.5 715,-0.5 650,-0.5"/>
<text text-anchor="middle" x="682.5" y="-7.5" font-family="Helvetica,sans-Serif" font-size="10.00">exception</text>
</a>
</g>
</g>
<!-- Node1&#45;&gt;Node10 -->
<g id="edge16" class="edge">
<title>Node1&#45;&gt;Node10</title>
<path fill="none" stroke="midnightblue" d="M688.23,-190.43C687.32,-161.93 684.38,-69.82 683.1,-29.83"/>
<polygon fill="midnightblue" stroke="midnightblue" points="686.59,-29.5 682.78,-19.62 679.6,-29.72 686.59,-29.5"/>
</g>
<!-- Node13 -->
<g id="node13" class="node">
<title>Node13</title>
<g id="a_node13"><a xlink:href="../../df/d55/_validation_exception_8hpp.html" target="_top" xlink:title=" ">
<polygon fill="none" stroke="black" points="466.5,-129 466.5,-148 660.5,-148 660.5,-129 466.5,-129"/>
<text text-anchor="middle" x="563.5" y="-136" font-family="Helvetica,sans-Serif" font-size="10.00">../exception/ValidationException.hpp</text>
</a>
</g>
</g>
<!-- Node1&#45;&gt;Node13 -->
<g id="edge12" class="edge">
<title>Node1&#45;&gt;Node13</title>
<path fill="none" stroke="midnightblue" d="M670.59,-190.48C649.61,-180.49 614.65,-163.85 590.41,-152.31"/>
<polygon fill="midnightblue" stroke="midnightblue" points="591.91,-149.15 581.38,-148.01 588.9,-155.47 591.91,-149.15"/>
</g>
<!-- Node14 -->
<g id="node14" class="node">
<title>Node14</title>
<g id="a_node14"><a xlink:title=" ">
<polygon fill="none" stroke="#bfbfbf" points="717,-129 717,-148 836,-148 836,-129 717,-129"/>
<text text-anchor="middle" x="776.5" y="-136" font-family="Helvetica,sans-Serif" font-size="10.00">boost/filesystem.hpp</text>
</a>
</g>
</g>
<!-- Node1&#45;&gt;Node14 -->
<g id="edge14" class="edge">
<title>Node1&#45;&gt;Node14</title>
<path fill="none" stroke="midnightblue" d="M701.11,-190.48C715.22,-180.93 738.33,-165.31 755.25,-153.87"/>
<polygon fill="midnightblue" stroke="midnightblue" points="757.59,-156.51 763.92,-148.01 753.67,-150.71 757.59,-156.51"/>
</g>
<!-- Node15 -->
<g id="node15" class="node">
<title>Node15</title>
<g id="a_node15"><a xlink:title=" ">
<polygon fill="none" stroke="#bfbfbf" points="854,-123.5 854,-153.5 967,-153.5 967,-123.5 854,-123.5"/>
<text text-anchor="start" x="862" y="-141.5" font-family="Helvetica,sans-Serif" font-size="10.00">boost/property_tree</text>
<text text-anchor="middle" x="910.5" y="-130.5" font-family="Helvetica,sans-Serif" font-size="10.00">/json_parser.hpp</text>
</a>
</g>
</g>
<!-- Node1&#45;&gt;Node15 -->
<g id="edge15" class="edge">
<title>Node1&#45;&gt;Node15</title>
<path fill="none" stroke="midnightblue" d="M720.31,-190.48C753.61,-181.55 806.74,-167.31 848.4,-156.14"/>
<polygon fill="midnightblue" stroke="midnightblue" points="849.43,-159.49 858.18,-153.52 847.61,-152.73 849.43,-159.49"/>
</g>
<!-- Node16 -->
<g id="node16" class="node">
<title>Node16</title>
<g id="a_node16"><a xlink:title=" ">
<polygon fill="none" stroke="#bfbfbf" points="985.5,-129 985.5,-148 1045.5,-148 1045.5,-129 985.5,-129"/>
<text text-anchor="middle" x="1015.5" y="-136" font-family="Helvetica,sans-Serif" font-size="10.00">iostream</text>
</a>
</g>
</g>
<!-- Node1&#45;&gt;Node16 -->
<g id="edge17" class="edge">
<title>Node1&#45;&gt;Node16</title>
<path fill="none" stroke="midnightblue" d="M771.65,-190.49C829.67,-183.47 908.56,-171.74 976.5,-154 979.32,-153.26 982.21,-152.4 985.1,-151.47"/>
<polygon fill="midnightblue" stroke="midnightblue" points="986.41,-154.72 994.7,-148.11 984.1,-148.11 986.41,-154.72"/>
</g>
<!-- Node3 -->
<g id="node3" class="node">
<title>Node3</title>
<g id="a_node3"><a xlink:title=" ">
<polygon fill="none" stroke="#bfbfbf" points="0,-62 0,-81 65,-81 65,-62 0,-62"/>
<text text-anchor="middle" x="32.5" y="-69" font-family="Helvetica,sans-Serif" font-size="10.00">functional</text>
</a>
</g>
</g>
<!-- Node2&#45;&gt;Node3 -->
<g id="edge2" class="edge">
<title>Node2&#45;&gt;Node3</title>
<path fill="none" stroke="midnightblue" d="M147.84,-128.87C125.18,-117.8 85.67,-98.49 59.3,-85.6"/>
<polygon fill="midnightblue" stroke="midnightblue" points="60.76,-82.41 50.23,-81.17 57.68,-88.7 60.76,-82.41"/>
</g>
<!-- Node4 -->
<g id="node4" class="node">
<title>Node4</title>
<g id="a_node4"><a xlink:title=" ">
<polygon fill="none" stroke="#bfbfbf" points="83.5,-62 83.5,-81 115.5,-81 115.5,-62 83.5,-62"/>
<text text-anchor="middle" x="99.5" y="-69" font-family="Helvetica,sans-Serif" font-size="10.00">list</text>
</a>
</g>
</g>
<!-- Node2&#45;&gt;Node4 -->
<g id="edge3" class="edge">
<title>Node2&#45;&gt;Node4</title>
<path fill="none" stroke="midnightblue" d="M156.6,-128.73C146.11,-118.4 128.48,-101.04 115.58,-88.33"/>
<polygon fill="midnightblue" stroke="midnightblue" points="117.84,-85.65 108.26,-81.13 112.93,-90.64 117.84,-85.65"/>
</g>
<!-- Node5 -->
<g id="node5" class="node">
<title>Node5</title>
<g id="a_node5"><a xlink:title=" ">
<polygon fill="none" stroke="#bfbfbf" points="133.5,-62 133.5,-81 191.5,-81 191.5,-62 133.5,-62"/>
<text text-anchor="middle" x="162.5" y="-69" font-family="Helvetica,sans-Serif" font-size="10.00">memory</text>
</a>
</g>
</g>
<!-- Node2&#45;&gt;Node5 -->
<g id="edge4" class="edge">
<title>Node2&#45;&gt;Node5</title>
<path fill="none" stroke="midnightblue" d="M165.1,-128.73C164.65,-119.18 163.94,-103.62 163.37,-91.28"/>
<polygon fill="midnightblue" stroke="midnightblue" points="166.86,-90.96 162.9,-81.13 159.86,-91.28 166.86,-90.96"/>
</g>
<!-- Node6 -->
<g id="node6" class="node">
<title>Node6</title>
<g id="a_node6"><a xlink:title=" ">
<polygon fill="none" stroke="#bfbfbf" points="210,-62 210,-81 353,-81 353,-62 210,-62"/>
<text text-anchor="middle" x="281.5" y="-69" font-family="Helvetica,sans-Serif" font-size="10.00">boost/filesystem/path.hpp</text>
</a>
</g>
</g>
<!-- Node2&#45;&gt;Node6 -->
<g id="edge5" class="edge">
<title>Node2&#45;&gt;Node6</title>
<path fill="none" stroke="midnightblue" d="M181.14,-128.73C200.71,-117.77 234.42,-98.88 257.32,-86.05"/>
<polygon fill="midnightblue" stroke="midnightblue" points="259.09,-89.07 266.1,-81.13 255.67,-82.96 259.09,-89.07"/>
</g>
<!-- Node7 -->
<g id="node7" class="node">
<title>Node7</title>
<g id="a_node7"><a xlink:title=" ">
<polygon fill="none" stroke="#bfbfbf" points="371,-56.5 371,-86.5 484,-86.5 484,-56.5 371,-56.5"/>
<text text-anchor="start" x="379" y="-74.5" font-family="Helvetica,sans-Serif" font-size="10.00">boost/property_tree</text>
<text text-anchor="middle" x="427.5" y="-63.5" font-family="Helvetica,sans-Serif" font-size="10.00">/ptree.hpp</text>
</a>
</g>
</g>
<!-- Node2&#45;&gt;Node7 -->
<g id="edge6" class="edge">
<title>Node2&#45;&gt;Node7</title>
<path fill="none" stroke="midnightblue" d="M200.02,-128.94C240.8,-118.82 309.55,-101.76 360.82,-89.04"/>
<polygon fill="midnightblue" stroke="midnightblue" points="361.97,-92.36 370.83,-86.56 360.28,-85.57 361.97,-92.36"/>
</g>
<!-- Node9 -->
<g id="node9" class="node">
<title>Node9</title>
<g id="a_node9"><a xlink:href="../../d1/dfa/_cpp_coso_exception_8hpp.html" target="_top" xlink:title=" ">
<polygon fill="none" stroke="black" points="502.5,-62 502.5,-81 636.5,-81 636.5,-62 502.5,-62"/>
<text text-anchor="middle" x="569.5" y="-69" font-family="Helvetica,sans-Serif" font-size="10.00">./CppCosoException.hpp</text>
</a>
</g>
</g>
<!-- Node8&#45;&gt;Node9 -->
<g id="edge8" class="edge">
<title>Node8&#45;&gt;Node9</title>
<path fill="none" stroke="midnightblue" d="M377.85,-128.87C417.17,-117.3 487.05,-96.75 530.69,-83.91"/>
<polygon fill="midnightblue" stroke="midnightblue" points="531.78,-87.24 540.38,-81.06 529.8,-80.53 531.78,-87.24"/>
</g>
<!-- Node9&#45;&gt;Node10 -->
<g id="edge9" class="edge">
<title>Node9&#45;&gt;Node10</title>
<path fill="none" stroke="midnightblue" d="M585.69,-61.98C604.4,-52.12 635.42,-35.79 657.3,-24.27"/>
<polygon fill="midnightblue" stroke="midnightblue" points="659.12,-27.27 666.34,-19.51 655.86,-21.07 659.12,-27.27"/>
</g>
<!-- Node11 -->
<g id="node11" class="node">
<title>Node11</title>
<g id="a_node11"><a xlink:title=" ">
<polygon fill="none" stroke="#bfbfbf" points="477.5,-0.5 477.5,-19.5 521.5,-19.5 521.5,-0.5 477.5,-0.5"/>
<text text-anchor="middle" x="499.5" y="-7.5" font-family="Helvetica,sans-Serif" font-size="10.00">string</text>
</a>
</g>
</g>
<!-- Node9&#45;&gt;Node11 -->
<g id="edge10" class="edge">
<title>Node9&#45;&gt;Node11</title>
<path fill="none" stroke="midnightblue" d="M559.47,-61.98C548.45,-52.61 530.54,-37.38 517.16,-26.01"/>
<polygon fill="midnightblue" stroke="midnightblue" points="519.4,-23.32 509.51,-19.51 514.86,-28.65 519.4,-23.32"/>
</g>
<!-- Node12 -->
<g id="node12" class="node">
<title>Node12</title>
<g id="a_node12"><a xlink:title=" ">
<polygon fill="none" stroke="#bfbfbf" points="540,-0.5 540,-19.5 613,-19.5 613,-0.5 540,-0.5"/>
<text text-anchor="middle" x="576.5" y="-7.5" font-family="Helvetica,sans-Serif" font-size="10.00">string_view</text>
</a>
</g>
</g>
<!-- Node9&#45;&gt;Node12 -->
<g id="edge11" class="edge">
<title>Node9&#45;&gt;Node12</title>
<path fill="none" stroke="midnightblue" d="M570.5,-61.98C571.49,-53.58 573.03,-40.48 574.3,-29.66"/>
<polygon fill="midnightblue" stroke="midnightblue" points="577.81,-29.85 575.5,-19.51 570.85,-29.03 577.81,-29.85"/>
</g>
<!-- Node13&#45;&gt;Node9 -->
<g id="edge13" class="edge">
<title>Node13&#45;&gt;Node9</title>
<path fill="none" stroke="midnightblue" d="M564.31,-128.73C565.19,-119.18 566.63,-103.62 567.77,-91.28"/>
<polygon fill="midnightblue" stroke="midnightblue" points="571.27,-91.41 568.7,-81.13 564.3,-90.76 571.27,-91.41"/>
</g>
</g>
</svg>
