<?xml version="1.0" encoding="UTF-8" standalone="no"?>
<!DOCTYPE svg PUBLIC "-//W3C//DTD SVG 1.1//EN"
 "http://www.w3.org/Graphics/SVG/1.1/DTD/svg11.dtd">
<!-- Generated by graphviz version 2.43.0 (0)
 -->
<!-- Title: src/report/ClangTidyIssueReportConvertor.hpp Pages: 1 -->
<svg width="276pt" height="106pt"
 viewBox="0.00 0.00 275.50 106.00" xmlns="http://www.w3.org/2000/svg" xmlns:xlink="http://www.w3.org/1999/xlink">
<g id="graph0" class="graph" transform="scale(1 1) rotate(0) translate(4 102)">
<title>src/report/ClangTidyIssueReportConvertor.hpp</title>
<!-- Node1 -->
<g id="node1" class="node">
<title>Node1</title>
<g id="a_node1"><a xlink:title=" ">
<polygon fill="#bfbfbf" stroke="black" points="55.5,-67.5 55.5,-97.5 195.5,-97.5 195.5,-67.5 55.5,-67.5"/>
<text text-anchor="start" x="63.5" y="-85.5" font-family="Helvetica,sans-Serif" font-size="10.00">src/report/ClangTidyIssue</text>
<text text-anchor="middle" x="125.5" y="-74.5" font-family="Helvetica,sans-Serif" font-size="10.00">ReportConvertor.hpp</text>
</a>
</g>
</g>
<!-- Node2 -->
<g id="node2" class="node">
<title>Node2</title>
<g id="a_node2"><a xlink:href="../../d0/d42/_application_8cpp.html" target="_top" xlink:title=" ">
<polygon fill="none" stroke="black" points="0,-6 0,-25 109,-25 109,-6 0,-6"/>
<text text-anchor="middle" x="54.5" y="-13" font-family="Helvetica,sans-Serif" font-size="10.00">src/Application.cpp</text>
</a>
</g>
</g>
<!-- Node1&#45;&gt;Node2 -->
<g id="edge1" class="edge">
<title>Node1&#45;&gt;Node2</title>
<path fill="none" stroke="midnightblue" d="M102.38,-60.34C89.35,-48.4 73.76,-34.14 64,-25.19"/>
<polygon fill="midnightblue" stroke="midnightblue" points="100.35,-63.22 110.09,-67.4 105.08,-58.06 100.35,-63.22"/>
</g>
<!-- Node3 -->
<g id="node3" class="node">
<title>Node3</title>
<g id="a_node3"><a xlink:href="../../d5/d63/_clang_tidy_issue_report_convertor_8cpp.html" target="_top" xlink:title=" ">
<polygon fill="none" stroke="black" points="127.5,-0.5 127.5,-30.5 267.5,-30.5 267.5,-0.5 127.5,-0.5"/>
<text text-anchor="start" x="135.5" y="-18.5" font-family="Helvetica,sans-Serif" font-size="10.00">src/report/ClangTidyIssue</text>
<text text-anchor="middle" x="197.5" y="-7.5" font-family="Helvetica,sans-Serif" font-size="10.00">ReportConvertor.cpp</text>
</a>
</g>
</g>
<!-- Node1&#45;&gt;Node3 -->
<g id="edge2" class="edge">
<title>Node1&#45;&gt;Node3</title>
<path fill="none" stroke="midnightblue" d="M148.65,-60.6C159.52,-50.78 172.2,-39.34 181.91,-30.58"/>
<polygon fill="midnightblue" stroke="midnightblue" points="146.2,-58.1 141.12,-67.4 150.89,-63.29 146.2,-58.1"/>
</g>
</g>
</svg>
