<?xml version="1.0" encoding="UTF-8" standalone="no"?>
<!DOCTYPE svg PUBLIC "-//W3C//DTD SVG 1.1//EN"
 "http://www.w3.org/Graphics/SVG/1.1/DTD/svg11.dtd">
<!-- Generated by graphviz version 2.43.0 (0)
 -->
<!-- Title: main Pages: 1 -->
<svg width="396pt" height="127pt"
 viewBox="0.00 0.00 396.00 126.50" xmlns="http://www.w3.org/2000/svg" xmlns:xlink="http://www.w3.org/1999/xlink">
<g id="graph0" class="graph" transform="scale(1 1) rotate(0) translate(4 122.5)">
<title>main</title>
<!-- Node1 -->
<g id="node1" class="node">
<title>Node1</title>
<g id="a_node1"><a xlink:title="entry of application">
<polygon fill="#bfbfbf" stroke="black" points="0,-44.5 0,-63.5 41,-63.5 41,-44.5 0,-44.5"/>
<text text-anchor="middle" x="20.5" y="-51.5" font-family="Helvetica,sans-Serif" font-size="10.00">main</text>
</a>
</g>
</g>
<!-- Node2 -->
<g id="node2" class="node">
<title>Node2</title>
<g id="a_node2"><a xlink:href="../../d7/dae/class_convertor.html#a9541a45357c42b010a3caca8466539f8" target="_top" xlink:title="method to convert the clang&#45;tidy report">
<polygon fill="none" stroke="black" points="85.5,-88 85.5,-118 241.5,-118 241.5,-88 85.5,-88"/>
<text text-anchor="start" x="93.5" y="-106" font-family="Helvetica,sans-Serif" font-size="10.00">Convertor::clangTidyToSonar</text>
<text text-anchor="middle" x="163.5" y="-95" font-family="Helvetica,sans-Serif" font-size="10.00">Report</text>
</a>
</g>
</g>
<!-- Node1&#45;&gt;Node2 -->
<g id="edge1" class="edge">
<title>Node1&#45;&gt;Node2</title>
<path fill="none" stroke="midnightblue" d="M40.73,-63.52C51.28,-68.52 64.68,-74.53 77,-79 82.57,-81.02 88.39,-82.98 94.27,-84.84"/>
<polygon fill="midnightblue" stroke="midnightblue" points="93.59,-88.3 104.18,-87.89 95.65,-81.61 93.59,-88.3"/>
</g>
<!-- Node4 -->
<g id="node4" class="node">
<title>Node4</title>
<g id="a_node4"><a xlink:href="../../d7/dae/class_convertor.html#ae1c850067437c97e1ca0276e50f87b6e" target="_top" xlink:title="method to convert the report">
<polygon fill="none" stroke="black" points="85.5,-39 85.5,-69 241.5,-69 241.5,-39 85.5,-39"/>
<text text-anchor="start" x="93.5" y="-57" font-family="Helvetica,sans-Serif" font-size="10.00">Convertor::cppCheckToSonar</text>
<text text-anchor="middle" x="163.5" y="-46" font-family="Helvetica,sans-Serif" font-size="10.00">Report</text>
</a>
</g>
</g>
<!-- Node1&#45;&gt;Node4 -->
<g id="edge3" class="edge">
<title>Node1&#45;&gt;Node4</title>
<path fill="none" stroke="midnightblue" d="M41.11,-54C50.48,-54 62.42,-54 75.15,-54"/>
<polygon fill="midnightblue" stroke="midnightblue" points="75.48,-57.5 85.48,-54 75.48,-50.5 75.48,-57.5"/>
</g>
<!-- Node5 -->
<g id="node5" class="node">
<title>Node5</title>
<g id="a_node5"><a xlink:href="../../d7/dae/class_convertor.html#afebcaf0394d88bea27c60af00d181b6f" target="_top" xlink:title="method to read cppcheck">
<polygon fill="none" stroke="black" points="77,-0.5 77,-19.5 250,-19.5 250,-0.5 77,-0.5"/>
<text text-anchor="middle" x="163.5" y="-7.5" font-family="Helvetica,sans-Serif" font-size="10.00">Convertor::readCppCheckReport</text>
</a>
</g>
</g>
<!-- Node1&#45;&gt;Node5 -->
<g id="edge4" class="edge">
<title>Node1&#45;&gt;Node5</title>
<path fill="none" stroke="midnightblue" d="M41.2,-44.46C51.66,-39.66 64.84,-34.02 77,-30 86.02,-27.02 95.72,-24.3 105.24,-21.9"/>
<polygon fill="midnightblue" stroke="midnightblue" points="106.15,-25.28 115.04,-19.52 104.5,-18.48 106.15,-25.28"/>
</g>
<!-- Node3 -->
<g id="node3" class="node">
<title>Node3</title>
<g id="a_node3"><a xlink:href="../../db/d5f/convertor_8cpp.html#a9393a46faf00d4403e8fc28a4fe21146" target="_top" xlink:title=" ">
<polygon fill="none" stroke="black" points="286,-93.5 286,-112.5 388,-112.5 388,-93.5 286,-93.5"/>
<text text-anchor="middle" x="337" y="-100.5" font-family="Helvetica,sans-Serif" font-size="10.00">buildLocationTree</text>
</a>
</g>
</g>
<!-- Node2&#45;&gt;Node3 -->
<g id="edge2" class="edge">
<title>Node2&#45;&gt;Node3</title>
<path fill="none" stroke="midnightblue" d="M241.72,-103C253.04,-103 264.56,-103 275.48,-103"/>
<polygon fill="midnightblue" stroke="midnightblue" points="275.74,-106.5 285.74,-103 275.74,-99.5 275.74,-106.5"/>
</g>
</g>
</svg>
