<?xml version="1.0" encoding="UTF-8" standalone="no"?>
<!DOCTYPE svg PUBLIC "-//W3C//DTD SVG 1.1//EN"
 "http://www.w3.org/Graphics/SVG/1.1/DTD/svg11.dtd">
<!-- Generated by graphviz version 2.43.0 (0)
 -->
<!-- Title: src/report Pages: 1 -->
<svg width="106pt" height="167pt"
 viewBox="0.00 0.00 106.00 167.00" xmlns="http://www.w3.org/2000/svg" xmlns:xlink="http://www.w3.org/1999/xlink">
<g id="graph0" class="graph" transform="scale(1 1) rotate(0) translate(4 163)">
<title>src/report</title>
<g id="clust1" class="cluster">
<title>clusterdir_68267d1309a1af8e8297ef4c3efbcdba</title>
<g id="a_clust1"><a xlink:href="dir_68267d1309a1af8e8297ef4c3efbcdba.html" target="_top" xlink:title="src">
<polygon fill="#ddddee" stroke="black" points="8,-8 8,-151 90,-151 90,-8 8,-8"/>
<text text-anchor="middle" x="49" y="-139" font-family="Helvetica,sans-Serif" font-size="10.00">src</text>
</a>
</g>
</g>
<!-- dir_03f4a28f75b8e23e1d457d2da09125b3 -->
<g id="node1" class="node">
<title>dir_03f4a28f75b8e23e1d457d2da09125b3</title>
<g id="a_node1"><a xlink:href="dir_03f4a28f75b8e23e1d457d2da09125b3.html" target="_top" xlink:title="exception">
<polygon fill="none" stroke="black" points="81.5,-52 16.5,-52 16.5,-16 81.5,-16 81.5,-52"/>
<text text-anchor="middle" x="49" y="-31.5" font-family="Helvetica,sans-Serif" font-size="10.00">exception</text>
</a>
</g>
</g>
<!-- dir_aedf01756c5a09dce27d21bf4c3c9d44 -->
<g id="node2" class="node">
<title>dir_aedf01756c5a09dce27d21bf4c3c9d44</title>
<g id="a_node2"><a xlink:href="dir_aedf01756c5a09dce27d21bf4c3c9d44.html" target="_top" xlink:title="report">
<polygon fill="#eeeeff" stroke="black" points="76,-124 22,-124 22,-88 76,-88 76,-124"/>
<text text-anchor="middle" x="49" y="-103.5" font-family="Helvetica,sans-Serif" font-size="10.00">report</text>
</a>
</g>
</g>
<!-- dir_aedf01756c5a09dce27d21bf4c3c9d44&#45;&gt;dir_03f4a28f75b8e23e1d457d2da09125b3 -->
<g id="edge1" class="edge">
<title>dir_aedf01756c5a09dce27d21bf4c3c9d44&#45;&gt;dir_03f4a28f75b8e23e1d457d2da09125b3</title>
<path fill="none" stroke="black" d="M49,-87.7C49,-79.98 49,-70.71 49,-62.11"/>
<polygon fill="black" stroke="black" points="52.5,-62.1 49,-52.1 45.5,-62.1 52.5,-62.1"/>
<g id="a_edge1&#45;headlabel"><a xlink:href="dir_000002_000001.html" target="_top" xlink:title="3">
<text text-anchor="middle" x="55.34" y="-63.2" font-family="Helvetica,sans-Serif" font-size="10.00">3</text>
</a>
</g>
</g>
</g>
</svg>
