<?xml version="1.0" encoding="UTF-8" standalone="no"?>
<!DOCTYPE svg PUBLIC "-//W3C//DTD SVG 1.1//EN"
 "http://www.w3.org/Graphics/SVG/1.1/DTD/svg11.dtd">
<!-- Generated by graphviz version 2.43.0 (0)
 -->
<!-- Title: Application::run Pages: 1 -->
<svg width="502pt" height="259pt"
 viewBox="0.00 0.00 502.00 259.00" xmlns="http://www.w3.org/2000/svg" xmlns:xlink="http://www.w3.org/1999/xlink">
<g id="graph0" class="graph" transform="scale(1 1) rotate(0) translate(4 255)">
<title>Application::run</title>
<!-- Node1 -->
<g id="node1" class="node">
<title>Node1</title>
<g id="a_node1"><a xlink:title="Method to run application.">
<polygon fill="#bfbfbf" stroke="black" points="0,-104 0,-123 93,-123 93,-104 0,-104"/>
<text text-anchor="middle" x="46.5" y="-111" font-family="Helvetica,sans-Serif" font-size="10.00">Application::run</text>
</a>
</g>
</g>
<!-- Node2 -->
<g id="node2" class="node">
<title>Node2</title>
<g id="a_node2"><a xlink:href="../../de/dc0/class_test_convertor.html#a9a144655dc1d0174593b9d8c16d1f44d" target="_top" xlink:title="Function to convert unified boost report to sonar generic report.">
<polygon fill="none" stroke="black" points="141.5,-196.5 141.5,-226.5 296.5,-226.5 296.5,-196.5 141.5,-196.5"/>
<text text-anchor="start" x="149.5" y="-214.5" font-family="Helvetica,sans-Serif" font-size="10.00">TestConvertor::boostReports</text>
<text text-anchor="middle" x="219" y="-203.5" font-family="Helvetica,sans-Serif" font-size="10.00">ToSonarReport</text>
</a>
</g>
</g>
<!-- Node1&#45;&gt;Node2 -->
<g id="edge1" class="edge">
<title>Node1&#45;&gt;Node2</title>
<path fill="none" stroke="midnightblue" d="M55.45,-123.25C68.92,-139.11 97.81,-170.45 129,-187.5 132.28,-189.29 135.71,-190.96 139.22,-192.51"/>
<polygon fill="midnightblue" stroke="midnightblue" points="138.11,-195.84 148.7,-196.33 140.73,-189.34 138.11,-195.84"/>
</g>
<!-- Node5 -->
<g id="node5" class="node">
<title>Node5</title>
<g id="a_node5"><a xlink:href="../../d2/d59/class_clang_tidy_issue_report_convertor.html#ab4e324abfed9eda9a0a5ce01c458b197" target="_top" xlink:title="Get instance of singleton ClangTidyIssueReportConvertor.">
<polygon fill="none" stroke="black" points="133.5,-147.5 133.5,-177.5 304.5,-177.5 304.5,-147.5 133.5,-147.5"/>
<text text-anchor="start" x="141.5" y="-165.5" font-family="Helvetica,sans-Serif" font-size="10.00">ClangTidyIssueReportConvertor</text>
<text text-anchor="middle" x="219" y="-154.5" font-family="Helvetica,sans-Serif" font-size="10.00">::getInstance</text>
</a>
</g>
</g>
<!-- Node1&#45;&gt;Node5 -->
<g id="edge4" class="edge">
<title>Node1&#45;&gt;Node5</title>
<path fill="none" stroke="midnightblue" d="M77.62,-123.01C92.96,-127.78 111.93,-133.58 129,-138.5 136.16,-140.56 143.67,-142.67 151.15,-144.74"/>
<polygon fill="midnightblue" stroke="midnightblue" points="150.38,-148.16 160.95,-147.43 152.23,-141.4 150.38,-148.16"/>
</g>
<!-- Node6 -->
<g id="node6" class="node">
<title>Node6</title>
<g id="a_node6"><a xlink:href="../../d7/d9a/class_cpp_check_issue_report_convertor.html#aec3ad540f1aa46463462c66ff6f9fc77" target="_top" xlink:title="Get instance of singleton CppCheckIssueReportConvertor.">
<polygon fill="none" stroke="black" points="133.5,-98.5 133.5,-128.5 304.5,-128.5 304.5,-98.5 133.5,-98.5"/>
<text text-anchor="start" x="141.5" y="-116.5" font-family="Helvetica,sans-Serif" font-size="10.00">CppCheckIssueReportConvertor</text>
<text text-anchor="middle" x="219" y="-105.5" font-family="Helvetica,sans-Serif" font-size="10.00">::getInstance</text>
</a>
</g>
</g>
<!-- Node1&#45;&gt;Node6 -->
<g id="edge5" class="edge">
<title>Node1&#45;&gt;Node6</title>
<path fill="none" stroke="midnightblue" d="M93.19,-113.5C102.61,-113.5 112.86,-113.5 123.29,-113.5"/>
<polygon fill="midnightblue" stroke="midnightblue" points="123.34,-117 133.34,-113.5 123.34,-110 123.34,-117"/>
</g>
<!-- Node7 -->
<g id="node7" class="node">
<title>Node7</title>
<g id="a_node7"><a xlink:href="../../d0/d54/class_gcc_compile_warning_issue_report_convertor.html#a17fbe0869d88d1607116e92159c290d8" target="_top" xlink:title="Get instance of singleton GccCompileWarningIssueReportConvertor.">
<polygon fill="none" stroke="black" points="132.5,-49.5 132.5,-79.5 305.5,-79.5 305.5,-49.5 132.5,-49.5"/>
<text text-anchor="start" x="140.5" y="-67.5" font-family="Helvetica,sans-Serif" font-size="10.00">GccCompileWarningIssueReport</text>
<text text-anchor="middle" x="219" y="-56.5" font-family="Helvetica,sans-Serif" font-size="10.00">Convertor::getInstance</text>
</a>
</g>
</g>
<!-- Node1&#45;&gt;Node7 -->
<g id="edge6" class="edge">
<title>Node1&#45;&gt;Node7</title>
<path fill="none" stroke="midnightblue" d="M79.6,-103.95C94.6,-99.51 112.7,-94.19 129,-89.5 137.09,-87.17 145.61,-84.75 154.03,-82.37"/>
<polygon fill="midnightblue" stroke="midnightblue" points="155.17,-85.68 163.84,-79.6 153.27,-78.94 155.17,-85.68"/>
</g>
<!-- Node8 -->
<g id="node8" class="node">
<title>Node8</title>
<g id="a_node8"><a xlink:href="../../d0/d81/class_msvc_compile_warning_issue_report_convertor.html#a37179aaa36df89c6c68698bf4a7d26e8" target="_top" xlink:title="Get instance of singleton MsvcCompileWarningIssueReportConvertor.">
<polygon fill="none" stroke="black" points="129,-0.5 129,-30.5 309,-30.5 309,-0.5 129,-0.5"/>
<text text-anchor="start" x="137" y="-18.5" font-family="Helvetica,sans-Serif" font-size="10.00">MsvcCompileWarningIssueReport</text>
<text text-anchor="middle" x="219" y="-7.5" font-family="Helvetica,sans-Serif" font-size="10.00">Convertor::getInstance</text>
</a>
</g>
</g>
<!-- Node1&#45;&gt;Node8 -->
<g id="edge7" class="edge">
<title>Node1&#45;&gt;Node8</title>
<path fill="none" stroke="midnightblue" d="M55.5,-103.92C69.04,-88.34 98.03,-57.51 129,-40.5 133.18,-38.21 137.58,-36.11 142.11,-34.19"/>
<polygon fill="midnightblue" stroke="midnightblue" points="143.49,-37.41 151.52,-30.51 140.94,-30.89 143.49,-37.41"/>
</g>
<!-- Node3 -->
<g id="node3" class="node">
<title>Node3</title>
<g id="a_node3"><a xlink:href="../../de/dc0/class_test_convertor.html#abc25ae29b63f0d501f322f31c2077c57" target="_top" xlink:title="method to extract data case from log result test report to convert to sonarqube report">
<polygon fill="none" stroke="black" points="345,-220.5 345,-250.5 494,-250.5 494,-220.5 345,-220.5"/>
<text text-anchor="start" x="353" y="-238.5" font-family="Helvetica,sans-Serif" font-size="10.00">TestConvertor::extractCase</text>
<text text-anchor="middle" x="419.5" y="-227.5" font-family="Helvetica,sans-Serif" font-size="10.00">Datas</text>
</a>
</g>
</g>
<!-- Node2&#45;&gt;Node3 -->
<g id="edge2" class="edge">
<title>Node2&#45;&gt;Node3</title>
<path fill="none" stroke="midnightblue" d="M296.75,-220.78C309.23,-222.29 322.21,-223.86 334.85,-225.39"/>
<polygon fill="midnightblue" stroke="midnightblue" points="334.55,-228.87 344.89,-226.6 335.39,-221.93 334.55,-228.87"/>
</g>
<!-- Node4 -->
<g id="node4" class="node">
<title>Node4</title>
<g id="a_node4"><a xlink:href="../../de/dc0/class_test_convertor.html#a48e3841031ac5a40c45588a2aef67a5b" target="_top" xlink:title="Save the Result of test in Map object.">
<polygon fill="none" stroke="black" points="345.5,-171.5 345.5,-201.5 493.5,-201.5 493.5,-171.5 345.5,-171.5"/>
<text text-anchor="start" x="353.5" y="-189.5" font-family="Helvetica,sans-Serif" font-size="10.00">TestConvertor::provideMap</text>
<text text-anchor="middle" x="419.5" y="-178.5" font-family="Helvetica,sans-Serif" font-size="10.00">ResultTests</text>
</a>
</g>
</g>
<!-- Node2&#45;&gt;Node4 -->
<g id="edge3" class="edge">
<title>Node2&#45;&gt;Node4</title>
<path fill="none" stroke="midnightblue" d="M296.75,-201.83C309.31,-200.25 322.39,-198.6 335.11,-197"/>
<polygon fill="midnightblue" stroke="midnightblue" points="335.73,-200.45 345.22,-195.73 334.86,-193.51 335.73,-200.45"/>
</g>
</g>
</svg>
